<?xml version="1.0" encoding="UTF-8"?>
<svg width="10px" height="10px" viewBox="0 0 10 10" version="1.1" xmlns="http://www.w3.org/2000/svg" xmlns:xlink="http://www.w3.org/1999/xlink">
    <!-- Generator: Sketch 60 (88103) - https://sketch.com -->
    <title>叉</title>
    <desc>Created with Sketch.</desc>
    <g id="测试任务流程设计" stroke="none" stroke-width="1" fill="none" fill-rule="evenodd">
        <g id="图标" transform="translate(-577.000000, -411.000000)">
            <g id="叉" transform="translate(575.000000, 409.000000)">
                <g id="卡片式标签页基本样式-Tabs+基本样式">
                    <g id="图标/结果/叉">
                        <rect id="Rectangle" x="0" y="0" width="14" height="14"></rect>
                        <path d="M11.7114791,2.1291153 L11.7975823,2.20241771 C12.0674022,2.47223763 12.0676979,2.90940649 11.7971174,3.17998699 L7.977,7 L11.7971174,10.820013 C12.0401864,11.063082 12.0661856,11.4403801 11.8708847,11.7114791 L11.7975823,11.7975823 C11.5277624,12.0674022 11.0905935,12.0676979 10.820013,11.7971174 L7,7.977 L3.17998699,11.7971174 C2.93691797,12.0401864 2.55961992,12.0661856 2.28852093,11.8708847 L2.20241771,11.7975823 C1.93259779,11.5277624 1.93230212,11.0905935 2.20288262,10.820013 L6.023,7 L2.20288262,3.17998699 C1.9598136,2.93691797 1.93381438,2.55961992 2.1291153,2.28852093 L2.20241771,2.20241771 C2.47223763,1.93259779 2.90940649,1.93230212 3.17998699,2.20288262 L7,6.023 L10.820013,2.20288262 C11.063082,1.9598136 11.4403801,1.93381438 11.7114791,2.1291153 Z" id="el-icon-close" fill="#999999" fill-rule="evenodd"></path>
                    </g>
                </g>
            </g>
        </g>
    </g>
</svg>