<?xml version="1.0" encoding="UTF-8"?>
<svg width="22px" height="16px" viewBox="0 0 22 16" version="1.1" xmlns="http://www.w3.org/2000/svg" xmlns:xlink="http://www.w3.org/1999/xlink">
    <!-- Generator: Sketch 60 (88103) - https://sketch.com -->
    <title>显示密码</title>
    <desc>Created with Sketch.</desc>
    <g id="测试任务流程设计" stroke="none" stroke-width="1" fill="none" fill-rule="evenodd">
        <g id="图标" transform="translate(-375.000000, -408.000000)">
            <g id="显示密码" transform="translate(374.000000, 404.000000)">
                <g id="eye-o" transform="translate(1.406250, 4.195312)" fill="#CECECE" fill-rule="nonzero">
                    <path d="M21.1734375,7.79765625 C21.1664062,7.66640625 20.9648437,7.0171875 20.6835937,6.3421875 C20.3953125,5.64609375 19.9078125,4.63828125 19.2328125,3.796875 C18.3492187,2.690625 17.259375,1.80703125 15.99375,1.17421875 C14.4398438,0.39375 12.6210938,0 10.5914063,0 C8.5640625,0 6.7453125,0.39609375 5.19140625,1.1765625 C3.93515625,1.8046875 2.8453125,2.6859375 1.95234375,3.796875 C1.27734375,4.640625 0.7921875,5.6484375 0.50390625,6.34453125 C0.22265625,7.01953125 0.0234375,7.66875 0.01640625,7.8 L0.01640625,7.8 C0.01640625,7.80234375 0.01640625,7.80234375 0.01640625,7.8046875 C0.01640625,7.80703125 0.01640625,7.80703125 0.01640625,7.809375 L0.01640625,7.809375 C0.0234375,7.940625 0.225,8.58984375 0.50625,9.2671875 C0.796875,9.96328125 1.28203125,10.9710938 1.9546875,11.8101563 C2.83828125,12.9164063 3.928125,13.8 5.19375,14.4328125 C6.75703125,15.215625 8.5734375,15.6117187 10.59375,15.6117187 C12.6164062,15.6117187 14.4328125,15.215625 15.99375,14.4328125 C17.2546875,13.8023438 18.3445312,12.91875 19.2328125,11.8125 C19.9078125,10.9710938 20.3953125,9.96328125 20.6835937,9.2671875 C20.9648437,8.5921875 21.1664062,7.94296875 21.1734375,7.81171875 L21.1734375,7.81171875 C21.1734375,7.809375 21.1734375,7.809375 21.1734375,7.80703125 C21.1734375,7.80234375 21.1734375,7.8 21.1734375,7.79765625 L21.1734375,7.79765625 Z M19.434375,7.80234375 C19.3007812,8.21015625 18.7828125,9.68203125 17.925,10.7507812 L17.9132813,10.7625 C17.184375,11.6765625 16.2820313,12.4054687 15.234375,12.9328125 C13.9101563,13.5960937 12.3445313,13.9335937 10.584375,13.9335937 C8.821875,13.9335937 7.25859375,13.5960937 5.934375,12.9328125 C4.8890625,12.4101562 3.9890625,11.6789062 3.25546875,10.7601562 C2.39296875,9.68671875 1.87265625,8.21015625 1.7390625,7.8 C1.87265625,7.3921875 2.39296875,5.91796875 3.25546875,4.83984375 C3.99140625,3.92109375 4.89375,3.1921875 5.93671875,2.66953125 C7.26328125,2.00625 8.82890625,1.67109375 10.5914063,1.67109375 C12.3609375,1.67109375 13.9242188,2.00625 15.2390625,2.66953125 C16.284375,3.1921875 17.184375,3.9234375 17.9179688,4.8421875 C18.7804688,5.9203125 19.3007812,7.39453125 19.434375,7.80234375 Z M10.5914063,3.721875 C8.35078125,3.721875 6.5296875,5.5453125 6.5296875,7.78359375 C6.5296875,10.021875 8.353125,11.8453125 10.5914063,11.8453125 C12.8296875,11.8453125 14.653125,10.021875 14.653125,7.78359375 C14.653125,5.5453125 12.8320312,3.721875 10.5914063,3.721875 Z M12.9820313,7.78359375 C12.9820313,8.42109375 12.7335938,9.02109375 12.28125,9.4734375 C11.8289063,9.92578125 11.2289063,10.1742188 10.5914063,10.1742188 C9.95390625,10.1742188 9.35390625,9.92578125 8.9015625,9.4734375 C8.44921875,9.02109375 8.20078125,8.42109375 8.20078125,7.78359375 C8.20078125,7.14609375 8.44921875,6.54609375 8.9015625,6.09375 C9.35390625,5.64140625 9.95390625,5.39296875 10.5914063,5.39296875 C11.2289063,5.39296875 11.8289062,5.64140625 12.28125,6.09375 C12.7335938,6.54609375 12.9820313,7.14609375 12.9820313,7.78359375 Z" id="Shape"></path>
                </g>
                <rect id="Rectangle-15" x="0" y="0" width="24" height="24"></rect>
            </g>
        </g>
    </g>
</svg>