<?xml version="1.0" encoding="UTF-8"?>
<svg width="20px" height="10px" viewBox="0 0 20 10" version="1.1" xmlns="http://www.w3.org/2000/svg" xmlns:xlink="http://www.w3.org/1999/xlink">
    <!-- Generator: Sketch 60 (88103) - https://sketch.com -->
    <title>隐藏密码</title>
    <desc>Created with Sketch.</desc>
    <g id="测试任务流程设计" stroke="none" stroke-width="1" fill="none" fill-rule="evenodd">
        <g id="图标" transform="translate(-336.000000, -412.000000)">
            <g id="隐藏密码" transform="translate(334.000000, 404.000000)">
                <g id="编组-3" transform="translate(2.000000, 8.000000)" fill="#CECECE" fill-rule="nonzero">
                    <path d="M9.9634983,7.27396874 C5.929328,7.27396874 2.16779921,5.10207866 0.143782505,1.60625984 C-0.151964221,1.09563461 0.0236353999,0.444067597 0.53195009,0.148320848 C1.04257532,-0.147425878 1.69645287,0.0281737427 1.98988908,0.536488433 C3.63266977,3.37380868 6.687179,5.13673647 9.96118778,5.13673647 C13.2351966,5.13673647 16.2897058,3.37380868 17.9324865,0.53417792 C18.2282332,0.0235526941 18.8798003,-0.152046927 19.3904255,0.143699799 C19.9010507,0.439446525 20.0743398,1.09101356 19.7809036,1.60163879 C17.7591974,5.10207866 13.9976686,7.27396874 9.9634983,7.27396874 Z" id="路径备份"></path>
                    <path d="M4.43211016,8.33680856 C4.24495793,8.33680856 4.05318465,8.28828761 3.88220607,8.18431414 C3.3762019,7.87932532 3.2144654,7.22313725 3.51945422,6.71944361 L4.69782012,4.76936357 C5.00280895,4.26335939 5.65899701,4.10393341 6.16269065,4.40661172 C6.66869483,4.71160054 6.83043133,5.3677886 6.5254425,5.87148227 L5.34707663,7.82156229 C5.14606127,8.15196685 4.79486203,8.33680856 4.43211016,8.33680856 L4.43211016,8.33680856 Z M15.4371234,8.33680856 C15.0766821,8.33680856 14.7231723,8.15427738 14.5221569,7.82156229 L13.3437911,5.87148227 C13.0388022,5.36547809 13.2005387,4.71160054 13.7042324,4.40661172 C14.2102366,4.10162289 14.8641141,4.26335939 15.1691029,4.76705306 L16.3474688,6.71713308 C16.6524577,7.22313725 16.4907212,7.87701481 15.9870275,8.18200363 C15.8160489,8.2859771 15.6242756,8.33680856 15.4371234,8.33680856 Z M9.9634983,9.72543189 C9.37431536,9.72543189 8.89603743,9.24715396 8.89603743,8.65797102 L8.89603743,6.20650787 C8.89603743,5.61732493 9.37431536,5.139047 9.9634983,5.139047 C10.5526812,5.139047 11.0309592,5.61732493 11.0309592,6.20650787 L11.0309592,8.65797102 C11.0309592,9.24715396 10.5526812,9.72543189 9.9634983,9.72543189 Z" id="形状备份"></path>
                </g>
                <rect id="Rectangle-15" x="0" y="0" width="24" height="24"></rect>
            </g>
        </g>
    </g>
</svg>