<?xml version="1.0" encoding="UTF-8"?>
<svg width="17px" height="22px" viewBox="0 0 17 22" version="1.1" xmlns="http://www.w3.org/2000/svg" xmlns:xlink="http://www.w3.org/1999/xlink">
    <!-- Generator: Sketch 60 (88103) - https://sketch.com -->
    <title>Notification</title>
    <desc>Created with Sketch.</desc>
    <g id="公告管理" stroke="none" stroke-width="1" fill="none" fill-rule="evenodd">
        <g id="公告管理02-新增01-组织" transform="translate(-1425.000000, -92.000000)">
            <g id="编组-19" transform="translate(79.000000, 79.000000)">
                <g id="top-bar备份">
                    <g id="个人资料">
                        <g id="Notification" transform="translate(1346.000000, 13.000000)">
                            <g id="编组-12">
                                <path d="M8.14931519,4.55523775 C9.54883865,4.8468381 12.2812351,5.86832861 12.7200022,9.43631987 C13.2096651,13.4186344 12.4830026,14.6089579 13.7287487,16.7602997 C14.057824,17.3281155 14.4730727,17.7846804 14.8559951,18.136664 L14.8559951,18.136664 L14.8559951,18.967267 L9.08829064,18.9670434 C9.14563145,19.1360832 9.17667664,19.3168757 9.17667664,19.5047694 C9.17667664,20.4460733 8.39751218,21.2091508 7.43636411,21.2091508 C6.47521604,21.2091508 5.69605158,20.4460733 5.69605158,19.5047694 C5.69605158,19.3168757 5.72709677,19.1360832 5.78443759,18.9670434 L0.0166877625,18.967267 L0.0166877625,18.136664 C0.400608943,17.7846804 0.81390536,17.3281155 1.14493295,16.7602997 C2.39067909,14.6089579 1.66401655,13.4167669 2.1536795,9.43631987 C2.59144771,5.86828414 5.32384417,4.8468381 6.72531993,4.55523775 L6.72531993,4.55523775 Z" id="Combined-Shape" fill="#F5F6FA"></path>
                                <rect id="Rectangle-26-Copy" stroke="#0085D0" stroke-width="2.12800011" fill="#FA215E" x="8.46573918" y="1.06400005" width="7.12417381" height="7.12417381" rx="3.5620869"></rect>
                            </g>
                            <g transform="translate(7.401739, 0.000000)"></g>
                        </g>
                    </g>
                </g>
            </g>
        </g>
    </g>
</svg>