<?xml version="1.0" encoding="UTF-8"?>
<svg width="136px" height="25px" viewBox="0 0 136 25" version="1.1" xmlns="http://www.w3.org/2000/svg" xmlns:xlink="http://www.w3.org/1999/xlink">
    <!-- Generator: Sketch 60 (88103) - https://sketch.com -->
    <title>编组</title>
    <desc>Created with Sketch.</desc>
    <defs>
        <path d="M88.3257813,25 L88.3257813,23.6464844 L89.1417578,23.6464844 L89.1417578,23.0393359 L88.3257813,23.0393359 L88.3257813,19.4467187 L87.7379687,19.4467187 L85.2010937,22.9658594 L85.2010937,23.6464844 L87.6296875,23.6464844 L87.6296875,25 L88.3257813,25 Z M87.6180859,23.0393359 L85.8430469,23.0393359 L87.6180859,20.5295312 L87.6180859,23.0393359 Z M91.5432813,25.1508203 C92.280625,25.1508203 92.8117187,24.7976172 93.1365625,24.0912109 C93.3608594,23.5987891 93.4730078,22.9761719 93.4730078,22.2233594 C93.4730078,21.4292969 93.3492578,20.8041016 93.1017578,20.3477734 C92.7820703,19.7573828 92.2638672,19.4621875 91.5471484,19.4621875 C90.7505078,19.4621875 90.2000781,19.8824219 89.8958594,20.7228906 C89.7334375,21.1740625 89.6522266,21.7141797 89.6522266,22.3432422 C89.6522266,23.1553516 89.7875781,23.8024609 90.0582812,24.2845703 C90.383125,24.8620703 90.878125,25.1508203 91.5432813,25.1508203 Z M91.5394141,24.5166016 C91.0908203,24.5166016 90.7737109,24.2549219 90.5880859,23.7315625 C90.4669141,23.3886719 90.4063281,22.9349219 90.4063281,22.3703125 C90.4063281,21.6200781 90.5010742,21.0522461 90.6905664,20.6668164 C90.8800586,20.2813867 91.1797656,20.0886719 91.5896875,20.0886719 C92.0357031,20.0886719 92.3360547,20.2916992 92.4907422,20.6977539 C92.6454297,21.1038086 92.7227734,21.6213672 92.7227734,22.2504297 C92.7227734,23.1218359 92.6157812,23.7173828 92.4017969,24.0370703 C92.1878125,24.3567578 91.9003516,24.5166016 91.5394141,24.5166016 Z M95.9480078,25.1508203 C96.6853516,25.1508203 97.2164453,24.7976172 97.5412891,24.0912109 C97.7655859,23.5987891 97.8777344,22.9761719 97.8777344,22.2233594 C97.8777344,21.4292969 97.7539844,20.8041016 97.5064844,20.3477734 C97.1867969,19.7573828 96.6685937,19.4621875 95.951875,19.4621875 C95.1552344,19.4621875 94.6048047,19.8824219 94.3005859,20.7228906 C94.1381641,21.1740625 94.0569531,21.7141797 94.0569531,22.3432422 C94.0569531,23.1553516 94.1923047,23.8024609 94.4630078,24.2845703 C94.7878516,24.8620703 95.2828516,25.1508203 95.9480078,25.1508203 Z M95.9441406,24.5166016 C95.4955469,24.5166016 95.1784375,24.2549219 94.9928125,23.7315625 C94.8716406,23.3886719 94.8110547,22.9349219 94.8110547,22.3703125 C94.8110547,21.6200781 94.9058008,21.0522461 95.095293,20.6668164 C95.2847852,20.2813867 95.5844922,20.0886719 95.9944141,20.0886719 C96.4404297,20.0886719 96.7407812,20.2916992 96.8954688,20.6977539 C97.0501563,21.1038086 97.1275,21.6213672 97.1275,22.2504297 C97.1275,23.1218359 97.0205078,23.7173828 96.8065234,24.0370703 C96.5925391,24.3567578 96.3050781,24.5166016 95.9441406,24.5166016 Z M101.017891,25 L101.017891,19.4853906 L100.46875,19.4853906 C100.370781,19.9133594 100.222539,20.184707 100.024023,20.2994336 C99.8255078,20.4141602 99.4748828,20.4960156 98.9721484,20.545 L98.9721484,20.545 L98.9721484,21.0786719 L100.275391,21.0786719 L100.275391,25 L101.017891,25 Z M104.67625,25.1508203 C105.315625,25.1508203 105.809336,24.9845312 106.157383,24.6519531 C106.50543,24.319375 106.679453,23.8888281 106.679453,23.3603125 C106.679453,23.0303125 106.597598,22.7512305 106.433887,22.5230664 C106.270176,22.2949023 106.042656,22.1408594 105.751328,22.0609375 C105.931797,21.9861719 106.07875,21.8830469 106.192188,21.7515625 C106.375234,21.5401562 106.466758,21.2642969 106.466758,20.9239844 C106.466758,20.4470312 106.31207,20.0828711 106.002695,19.8315039 C105.69332,19.5801367 105.256328,19.4544531 104.691719,19.4544531 C103.977578,19.4544531 103.478711,19.7122656 103.195117,20.2278906 C103.030117,20.5166406 102.947617,20.8672656 102.947617,21.2797656 L102.947617,21.2797656 L103.635977,21.2797656 C103.648867,20.9652344 103.704297,20.7228906 103.802266,20.5527344 C103.980156,20.2433594 104.301133,20.0886719 104.765195,20.0886719 C105.025586,20.0886719 105.25375,20.1634375 105.449688,20.3129687 C105.645625,20.4625 105.743594,20.6751953 105.743594,20.9510547 C105.743594,21.3223047 105.596641,21.5801172 105.302734,21.7244922 C105.135156,21.8069922 104.921172,21.8482422 104.660781,21.8482422 C104.604062,21.8482422 104.551211,21.8469531 104.502227,21.844375 C104.453242,21.8417969 104.392656,21.8366406 104.320469,21.8289062 L104.320469,21.8289062 L104.320469,22.4437891 C104.369453,22.4412109 104.417793,22.4392773 104.465488,22.4379883 C104.513184,22.4366992 104.560234,22.4360547 104.606641,22.4360547 C105.021719,22.4360547 105.345918,22.5121094 105.579238,22.6642187 C105.812559,22.8163281 105.929219,23.0831641 105.929219,23.4647266 C105.929219,23.7741016 105.818359,24.0267578 105.596641,24.2226953 C105.374922,24.4186328 105.081016,24.5166016 104.714922,24.5166016 C104.243125,24.5166016 103.916992,24.3709375 103.736523,24.0796094 C103.633398,23.9171875 103.566367,23.6567969 103.53543,23.2984375 L103.53543,23.2984375 L102.808398,23.2984375 C102.808398,23.8140625 102.955996,24.2516992 103.251191,24.6113477 C103.546387,24.9709961 104.021406,25.1508203 104.67625,25.1508203 Z M109.204727,25.1585547 C109.802852,25.1585547 110.265625,24.989043 110.593047,24.6500195 C110.920469,24.3109961 111.08418,23.8978516 111.08418,23.4105859 C111.08418,22.9980859 110.961719,22.6629297 110.716797,22.4051172 C110.585313,22.2684766 110.404844,22.1473047 110.175391,22.0416016 C110.381641,21.9255859 110.53375,21.8069922 110.631719,21.6858203 C110.807031,21.4718359 110.894688,21.1921094 110.894688,20.8466406 C110.894688,20.4728125 110.743867,20.1460352 110.442227,19.8663086 C110.140586,19.586582 109.724219,19.4467187 109.193125,19.4467187 C108.643984,19.4467187 108.219883,19.5949609 107.92082,19.8914453 C107.621758,20.1879297 107.472227,20.5424219 107.472227,20.9549219 C107.472227,21.2849219 107.574062,21.5530469 107.777734,21.7592969 C107.886016,21.8701563 108.036836,21.9668359 108.230195,22.0493359 C107.915664,22.1756641 107.678477,22.3580664 107.518633,22.596543 C107.358789,22.8350195 107.278867,23.1179687 107.278867,23.4453906 C107.278867,24.0022656 107.465137,24.4270117 107.837676,24.7196289 C108.210215,25.0122461 108.665898,25.1585547 109.204727,25.1585547 Z M109.177656,21.7825 C108.914687,21.7825 108.686523,21.7090234 108.493164,21.5620703 C108.299805,21.4151172 108.203125,21.2114453 108.203125,20.9510547 C108.203125,20.7190234 108.277891,20.5166406 108.427422,20.3439062 C108.576953,20.1711719 108.819297,20.0848047 109.154453,20.0848047 C109.492188,20.0848047 109.743555,20.1711719 109.908555,20.3439062 C110.073555,20.5166406 110.156055,20.7061328 110.156055,20.9123828 C110.156055,21.1495703 110.069688,21.3538867 109.896953,21.525332 C109.724219,21.6967773 109.484453,21.7825 109.177656,21.7825 Z M109.220195,24.5243359 C108.818008,24.5243359 108.520879,24.4192773 108.328809,24.2091602 C108.136738,23.999043 108.040703,23.7496094 108.040703,23.4608594 C108.040703,23.1257031 108.145762,22.8633789 108.355879,22.6738867 C108.565996,22.4843945 108.837344,22.3896484 109.169922,22.3896484 C109.512813,22.3896484 109.793828,22.4824609 110.012969,22.6680859 C110.232109,22.8537109 110.34168,23.1257031 110.34168,23.4840625 C110.34168,23.8295312 110.235332,24.0892773 110.022637,24.2633008 C109.809941,24.4373242 109.542461,24.5243359 109.220195,24.5243359 Z M114.23207,25 L114.23207,19.4853906 L113.68293,19.4853906 C113.584961,19.9133594 113.436719,20.184707 113.238203,20.2994336 C113.039687,20.4141602 112.689063,20.4960156 112.186328,20.545 L112.186328,20.545 L112.186328,21.0786719 L113.48957,21.0786719 L113.48957,25 L114.23207,25 Z M118.01418,25.1585547 C118.612305,25.1585547 119.075078,24.989043 119.4025,24.6500195 C119.729922,24.3109961 119.893633,23.8978516 119.893633,23.4105859 C119.893633,22.9980859 119.771172,22.6629297 119.52625,22.4051172 C119.394766,22.2684766 119.214297,22.1473047 118.984844,22.0416016 C119.191094,21.9255859 119.343203,21.8069922 119.441172,21.6858203 C119.616484,21.4718359 119.704141,21.1921094 119.704141,20.8466406 C119.704141,20.4728125 119.55332,20.1460352 119.25168,19.8663086 C118.950039,19.586582 118.533672,19.4467187 118.002578,19.4467187 C117.453438,19.4467187 117.029336,19.5949609 116.730273,19.8914453 C116.431211,20.1879297 116.28168,20.5424219 116.28168,20.9549219 C116.28168,21.2849219 116.383516,21.5530469 116.587188,21.7592969 C116.695469,21.8701563 116.846289,21.9668359 117.039648,22.0493359 C116.725117,22.1756641 116.48793,22.3580664 116.328086,22.596543 C116.168242,22.8350195 116.08832,23.1179687 116.08832,23.4453906 C116.08832,24.0022656 116.27459,24.4270117 116.647129,24.7196289 C117.019668,25.0122461 117.475352,25.1585547 118.01418,25.1585547 Z M117.987109,21.7825 C117.724141,21.7825 117.495977,21.7090234 117.302617,21.5620703 C117.109258,21.4151172 117.012578,21.2114453 117.012578,20.9510547 C117.012578,20.7190234 117.087344,20.5166406 117.236875,20.3439062 C117.386406,20.1711719 117.62875,20.0848047 117.963906,20.0848047 C118.301641,20.0848047 118.553008,20.1711719 118.718008,20.3439062 C118.883008,20.5166406 118.965508,20.7061328 118.965508,20.9123828 C118.965508,21.1495703 118.879141,21.3538867 118.706406,21.525332 C118.533672,21.6967773 118.293906,21.7825 117.987109,21.7825 Z M118.029648,24.5243359 C117.627461,24.5243359 117.330332,24.4192773 117.138262,24.2091602 C116.946191,23.999043 116.850156,23.7496094 116.850156,23.4608594 C116.850156,23.1257031 116.955215,22.8633789 117.165332,22.6738867 C117.375449,22.4843945 117.646797,22.3896484 117.979375,22.3896484 C118.322266,22.3896484 118.603281,22.4824609 118.822422,22.6680859 C119.041562,22.8537109 119.151133,23.1257031 119.151133,23.4840625 C119.151133,23.8295312 119.044785,24.0892773 118.83209,24.2633008 C118.619395,24.4373242 118.351914,24.5243359 118.029648,24.5243359 Z M122.442109,25.1430859 C123.047969,25.1430859 123.514609,24.949082 123.842031,24.5610742 C124.169453,24.1730664 124.333164,23.7276953 124.333164,23.2249609 C124.333164,22.6371484 124.16043,22.195 123.814961,21.8985156 C123.469492,21.6020312 123.064727,21.4537891 122.600664,21.4537891 C122.327383,21.4537891 122.079883,21.5053516 121.858164,21.6084766 C121.61582,21.7244922 121.414727,21.8998047 121.254883,22.1344141 C121.280664,21.4641016 121.408281,20.9491211 121.637734,20.5894727 C121.867188,20.2298242 122.176563,20.05 122.565859,20.05 C122.906172,20.05 123.160117,20.1660156 123.327695,20.3980469 C123.41793,20.5217969 123.483672,20.6932422 123.524922,20.9123828 L123.524922,20.9123828 L124.213281,20.9123828 C124.213281,20.5720703 124.091465,20.2414258 123.847832,19.9204492 C123.604199,19.5994727 123.173008,19.4389844 122.554258,19.4389844 C121.69832,19.4389844 121.109219,19.8978906 120.786953,20.8157031 C120.619375,21.2952344 120.535586,21.8791797 120.535586,22.5675391 C120.535586,23.4982422 120.723789,24.1601758 121.100195,24.5533398 C121.476602,24.9465039 121.923906,25.1430859 122.442109,25.1430859 Z M122.503984,24.5243359 C122.140469,24.5243359 121.85623,24.4050977 121.65127,24.1666211 C121.446309,23.9281445 121.343828,23.6335937 121.343828,23.2829688 C121.343828,22.8833594 121.456621,22.5842969 121.682207,22.3857813 C121.907793,22.1872656 122.170117,22.0880078 122.46918,22.0880078 C122.897148,22.0880078 123.192344,22.2162695 123.354766,22.472793 C123.517188,22.7293164 123.598398,22.999375 123.598398,23.2829688 C123.598398,23.618125 123.50752,23.9088086 123.325762,24.1550195 C123.144004,24.4012305 122.870078,24.5243359 122.503984,24.5243359 Z M126.781094,25.1508203 C127.518438,25.1508203 128.049531,24.7976172 128.374375,24.0912109 C128.598672,23.5987891 128.71082,22.9761719 128.71082,22.2233594 C128.71082,21.4292969 128.58707,20.8041016 128.33957,20.3477734 C128.019883,19.7573828 127.50168,19.4621875 126.784961,19.4621875 C125.98832,19.4621875 125.437891,19.8824219 125.133672,20.7228906 C124.97125,21.1740625 124.890039,21.7141797 124.890039,22.3432422 C124.890039,23.1553516 125.025391,23.8024609 125.296094,24.2845703 C125.620937,24.8620703 126.115938,25.1508203 126.781094,25.1508203 Z M126.777227,24.5166016 C126.328633,24.5166016 126.011523,24.2549219 125.825898,23.7315625 C125.704727,23.3886719 125.644141,22.9349219 125.644141,22.3703125 C125.644141,21.6200781 125.738887,21.0522461 125.928379,20.6668164 C126.117871,20.2813867 126.417578,20.0886719 126.8275,20.0886719 C127.273516,20.0886719 127.573867,20.2916992 127.728555,20.6977539 C127.883242,21.1038086 127.960586,21.6213672 127.960586,22.2504297 C127.960586,23.1218359 127.853594,23.7173828 127.639609,24.0370703 C127.425625,24.3567578 127.138164,24.5166016 126.777227,24.5166016 Z M131.317305,23.1514844 L131.317305,22.4360547 L129.375977,22.4360547 L129.375977,23.1514844 L131.317305,23.1514844 Z M133.533203,25 C133.651797,24.4328125 133.748477,24.0216016 133.823242,23.7663672 C133.939258,23.3693359 134.109414,22.9297656 134.333711,22.4476563 C134.560586,21.9526563 134.821621,21.4911719 135.116816,21.0632031 C135.412012,20.6352344 135.648555,20.3348828 135.826445,20.1621484 L135.826445,20.1621484 L135.826445,19.555 L131.974727,19.555 L131.974727,20.2549609 L135.037539,20.2549609 C134.648242,20.7009766 134.276992,21.2307812 133.923789,21.844375 C133.325664,22.8910937 132.938945,23.9429688 132.763633,25 L132.763633,25 L133.533203,25 Z" id="path-1"></path>
    </defs>
    <g id="自立项目3-审批流程" stroke="none" stroke-width="1" fill="none" fill-rule="evenodd">
        <g id="流程审批-0我的已办" transform="translate(-97.000000, -915.000000)">
            <g id="编组" transform="translate(97.000000, 913.000000)">
                <g transform="translate(0.000000, 2.792000)" fill="#0085D0" fill-rule="nonzero" id="路径">
                    <path d="M8.20512,20.48112 C9.32976,21.41568 10.5336,22.23936 11.81664,22.95216 C16.90128,20.0376 20.7504,15.23808 22.42944,9.504 C21.384,8.66448 20.24352,7.95168 19.02384,7.38144 C19.02384,7.38144 19.02384,7.38144 19.02384,7.3656 C18.83376,8.18928 18.59616,8.98128 18.2952,9.75744 C18.31104,9.72576 18.32688,9.69408 18.32688,9.6624 C18.31104,9.69408 18.2952,9.72576 18.2952,9.75744 C18.26352,9.83664 18.23184,9.9 18.216,9.9792 C18.15264,10.15344 18.07344,10.32768 18.01008,10.50192 C17.9784,10.58112 17.94672,10.66032 17.8992,10.73952 C17.82,10.89792 17.75664,11.07216 17.67744,11.23056 C17.64576,11.30976 17.59824,11.38896 17.56656,11.45232 C17.47152,11.6424 17.37648,11.81664 17.28144,12.00672 C17.24976,12.05424 17.23392,12.10176 17.20224,12.14928 C17.07552,12.38688 16.9488,12.60864 16.80624,12.8304 C16.7904,12.86208 16.77456,12.89376 16.75872,12.92544 C16.64784,13.11552 16.52112,13.3056 16.3944,13.49568 C16.34688,13.55904 16.3152,13.6224 16.26768,13.68576 C16.1568,13.84416 16.06176,13.98672 15.95088,14.14512 C15.90336,14.20848 15.85584,14.27184 15.80832,14.35104 C15.69744,14.50944 15.58656,14.652 15.45984,14.79456 C15.41232,14.85792 15.3648,14.90544 15.31728,14.9688 C15.17472,15.15888 15.01632,15.33312 14.85792,15.50736 C14.84208,15.5232 14.82624,15.53904 14.8104,15.55488 C14.63616,15.7608 14.46192,15.95088 14.27184,16.14096 C14.24016,16.17264 14.20848,16.20432 14.1768,16.236 C14.03424,16.3944 13.87584,16.5528 13.71744,16.69536 C13.66992,16.74288 13.60656,16.7904 13.55904,16.85376 C13.41648,16.98048 13.27392,17.12304 13.13136,17.24976 C13.068,17.29728 13.02048,17.3448 12.95712,17.40816 C12.79872,17.53488 12.65616,17.67744 12.49776,17.80416 C12.45024,17.83584 12.40272,17.88336 12.3552,17.91504 C12.14928,18.08928 11.94336,18.24768 11.7216,18.40608 C10.67616,19.22976 9.47232,19.92672 8.20512,20.48112 Z"></path>
                    <path d="M11.73744,0 C7.4448,0 3.43728,1.188 0,3.2472 C0.0792,9.51984 2.6928,15.19056 6.87456,19.27728 C8.64864,18.46944 9.83664,17.69328 10.39104,17.29728 C6.98544,14.3352 4.62528,10.16928 4.00752,5.48064 C6.36768,4.41936 8.99712,3.83328 11.75328,3.83328 C14.46192,3.83328 17.04384,4.40352 19.37232,5.43312 C20.63952,5.98752 21.82752,6.66864 22.92048,7.47648 C23.18976,6.08256 23.33232,4.64112 23.34816,3.168 C19.94256,1.15632 15.98256,0 11.73744,0 Z"></path>
                </g>
                <text id="集中化研发管理系统" font-family="PingFangSC-Semibold, PingFang SC" font-size="10" font-weight="500" fill="#0085D0">
                    <tspan x="32" y="11">集中化研发管理系统</tspan>
                </text>
                <text id="联系方式" font-family="PingFangSC-Semibold, PingFang SC" font-size="10" font-weight="500" fill="#0085D0">
                    <tspan x="32" y="25">联系方式</tspan>
                </text>
                <g id="4001381860-7" fill-rule="nonzero">
                    <use fill="#000000" xlink:href="#path-1"></use>
                    <use fill="#0085D0" xlink:href="#path-1"></use>
                </g>
                <g transform="translate(75.497600, 17.840000)" fill="#0085D0" fill-rule="nonzero" id="路径">
                    <polygon points="1.9008 2.2176 0.83952 2.2176 1.15632 0.04752 2.23344 0.04752"></polygon>
                    <polygon points="1.188 7.30224 0.11088 7.30224 0.44352 5.13216 1.5048 5.13216"></polygon>
                </g>
            </g>
        </g>
    </g>
</svg>