<?xml version="1.0" encoding="UTF-8"?>
<svg width="135px" height="25px" viewBox="0 0 135 25" version="1.1" xmlns="http://www.w3.org/2000/svg" xmlns:xlink="http://www.w3.org/1999/xlink">
    <!-- Generator: Sketch 60 (88103) - https://sketch.com -->
    <title>编组</title>
    <desc>Created with Sketch.</desc>
    <defs>
        <path d="M88.1246875,24.5610156 L88.1246875,23.2075 L88.9406641,23.2075 L88.9406641,22.6003516 L88.1246875,22.6003516 L88.1246875,19.0077344 L87.536875,19.0077344 L85,22.526875 L85,23.2075 L87.4285938,23.2075 L87.4285938,24.5610156 L88.1246875,24.5610156 Z M87.4169922,22.6003516 L85.6419531,22.6003516 L87.4169922,20.0905469 L87.4169922,22.6003516 Z M91.3421875,24.7118359 C92.0795313,24.7118359 92.610625,24.3586328 92.9354687,23.6522266 C93.1597656,23.1598047 93.2719141,22.5371875 93.2719141,21.784375 C93.2719141,20.9903125 93.1481641,20.3651172 92.9006641,19.9087891 C92.5809766,19.3183984 92.0627734,19.0232031 91.3460547,19.0232031 C90.5494141,19.0232031 89.9989844,19.4434375 89.6947656,20.2839062 C89.5323438,20.7350781 89.4511328,21.2751953 89.4511328,21.9042578 C89.4511328,22.7163672 89.5864844,23.3634766 89.8571875,23.8455859 C90.1820312,24.4230859 90.6770312,24.7118359 91.3421875,24.7118359 Z M91.3383203,24.0776172 C90.8897266,24.0776172 90.5726172,23.8159375 90.3869922,23.2925781 C90.2658203,22.9496875 90.2052344,22.4959375 90.2052344,21.9313281 C90.2052344,21.1810937 90.2999805,20.6132617 90.4894727,20.227832 C90.6789648,19.8424023 90.9786719,19.6496875 91.3885937,19.6496875 C91.8346094,19.6496875 92.1349609,19.8527148 92.2896484,20.2587695 C92.4443359,20.6648242 92.5216797,21.1823828 92.5216797,21.8114453 C92.5216797,22.6828516 92.4146875,23.2783984 92.2007031,23.5980859 C91.9867187,23.9177734 91.6992578,24.0776172 91.3383203,24.0776172 Z M95.7469141,24.7118359 C96.4842578,24.7118359 97.0153516,24.3586328 97.3401953,23.6522266 C97.5644922,23.1598047 97.6766406,22.5371875 97.6766406,21.784375 C97.6766406,20.9903125 97.5528906,20.3651172 97.3053906,19.9087891 C96.9857031,19.3183984 96.4675,19.0232031 95.7507813,19.0232031 C94.9541406,19.0232031 94.4037109,19.4434375 94.0994922,20.2839062 C93.9370703,20.7350781 93.8558594,21.2751953 93.8558594,21.9042578 C93.8558594,22.7163672 93.9912109,23.3634766 94.2619141,23.8455859 C94.5867578,24.4230859 95.0817578,24.7118359 95.7469141,24.7118359 Z M95.7430469,24.0776172 C95.2944531,24.0776172 94.9773438,23.8159375 94.7917188,23.2925781 C94.6705469,22.9496875 94.6099609,22.4959375 94.6099609,21.9313281 C94.6099609,21.1810937 94.704707,20.6132617 94.8941992,20.227832 C95.0836914,19.8424023 95.3833984,19.6496875 95.7933203,19.6496875 C96.2393359,19.6496875 96.5396875,19.8527148 96.694375,20.2587695 C96.8490625,20.6648242 96.9264062,21.1823828 96.9264062,21.8114453 C96.9264062,22.6828516 96.8194141,23.2783984 96.6054297,23.5980859 C96.3914453,23.9177734 96.1039844,24.0776172 95.7430469,24.0776172 Z M100.816797,24.5610156 L100.816797,19.0464062 L100.267656,19.0464062 C100.169688,19.474375 100.021445,19.7457227 99.8229297,19.8604492 C99.6244141,19.9751758 99.2737891,20.0570312 98.7710547,20.1060156 L98.7710547,20.1060156 L98.7710547,20.6396875 L100.074297,20.6396875 L100.074297,24.5610156 L100.816797,24.5610156 Z M104.475156,24.7118359 C105.114531,24.7118359 105.608242,24.5455469 105.956289,24.2129687 C106.304336,23.8803906 106.478359,23.4498437 106.478359,22.9213281 C106.478359,22.5913281 106.396504,22.3122461 106.232793,22.084082 C106.069082,21.855918 105.841562,21.701875 105.550234,21.6219531 C105.730703,21.5471875 105.877656,21.4440625 105.991094,21.3125781 C106.174141,21.1011719 106.265664,20.8253125 106.265664,20.485 C106.265664,20.0080469 106.110977,19.6438867 105.801602,19.3925195 C105.492227,19.1411523 105.055234,19.0154687 104.490625,19.0154687 C103.776484,19.0154687 103.277617,19.2732812 102.994023,19.7889062 C102.829023,20.0776562 102.746523,20.4282812 102.746523,20.8407812 L102.746523,20.8407812 L103.434883,20.8407812 C103.447773,20.52625 103.503203,20.2839062 103.601172,20.11375 C103.779063,19.804375 104.100039,19.6496875 104.564102,19.6496875 C104.824492,19.6496875 105.052656,19.7244531 105.248594,19.8739844 C105.444531,20.0235156 105.5425,20.2362109 105.5425,20.5120703 C105.5425,20.8833203 105.395547,21.1411328 105.101641,21.2855078 C104.934063,21.3680078 104.720078,21.4092578 104.459688,21.4092578 C104.402969,21.4092578 104.350117,21.4079687 104.301133,21.4053906 C104.252148,21.4028125 104.191563,21.3976562 104.119375,21.3899219 L104.119375,21.3899219 L104.119375,22.0048047 C104.168359,22.0022266 104.216699,22.000293 104.264395,21.9990039 C104.31209,21.9977148 104.359141,21.9970703 104.405547,21.9970703 C104.820625,21.9970703 105.144824,22.073125 105.378145,22.2252344 C105.611465,22.3773437 105.728125,22.6441797 105.728125,23.0257422 C105.728125,23.3351172 105.617266,23.5877734 105.395547,23.7837109 C105.173828,23.9796484 104.879922,24.0776172 104.513828,24.0776172 C104.042031,24.0776172 103.715898,23.9319531 103.53543,23.640625 C103.432305,23.4782031 103.365273,23.2178125 103.334336,22.8594531 L103.334336,22.8594531 L102.607305,22.8594531 C102.607305,23.3750781 102.754902,23.8127148 103.050098,24.1723633 C103.345293,24.5320117 103.820312,24.7118359 104.475156,24.7118359 Z M109.003633,24.7195703 C109.601758,24.7195703 110.064531,24.5500586 110.391953,24.2110352 C110.719375,23.8720117 110.883086,23.4588672 110.883086,22.9716016 C110.883086,22.5591016 110.760625,22.2239453 110.515703,21.9661328 C110.384219,21.8294922 110.20375,21.7083203 109.974297,21.6026172 C110.180547,21.4866016 110.332656,21.3680078 110.430625,21.2468359 C110.605938,21.0328516 110.693594,20.753125 110.693594,20.4076562 C110.693594,20.0338281 110.542773,19.7070508 110.241133,19.4273242 C109.939492,19.1475977 109.523125,19.0077344 108.992031,19.0077344 C108.442891,19.0077344 108.018789,19.1559766 107.719727,19.4524609 C107.420664,19.7489453 107.271133,20.1034375 107.271133,20.5159375 C107.271133,20.8459375 107.372969,21.1140625 107.576641,21.3203125 C107.684922,21.4311719 107.835742,21.5278516 108.029102,21.6103516 C107.71457,21.7366797 107.477383,21.919082 107.317539,22.1575586 C107.157695,22.3960352 107.077773,22.6789844 107.077773,23.0064062 C107.077773,23.5632812 107.264043,23.9880273 107.636582,24.2806445 C108.009121,24.5732617 108.464805,24.7195703 109.003633,24.7195703 Z M108.976563,21.3435156 C108.713594,21.3435156 108.48543,21.2700391 108.29207,21.1230859 C108.098711,20.9761328 108.002031,20.7724609 108.002031,20.5120703 C108.002031,20.2800391 108.076797,20.0776562 108.226328,19.9049219 C108.375859,19.7321875 108.618203,19.6458203 108.953359,19.6458203 C109.291094,19.6458203 109.542461,19.7321875 109.707461,19.9049219 C109.872461,20.0776562 109.954961,20.2671484 109.954961,20.4733984 C109.954961,20.7105859 109.868594,20.9149023 109.695859,21.0863477 C109.523125,21.257793 109.283359,21.3435156 108.976563,21.3435156 Z M109.019102,24.0853516 C108.616914,24.0853516 108.319785,23.980293 108.127715,23.7701758 C107.935645,23.5600586 107.839609,23.310625 107.839609,23.021875 C107.839609,22.6867187 107.944668,22.4243945 108.154785,22.2349023 C108.364902,22.0454102 108.63625,21.9506641 108.968828,21.9506641 C109.311719,21.9506641 109.592734,22.0434766 109.811875,22.2291016 C110.031016,22.4147266 110.140586,22.6867187 110.140586,23.0450781 C110.140586,23.3905469 110.034238,23.650293 109.821543,23.8243164 C109.608848,23.9983398 109.341367,24.0853516 109.019102,24.0853516 Z M114.030977,24.5610156 L114.030977,19.0464062 L113.481836,19.0464062 C113.383867,19.474375 113.235625,19.7457227 113.037109,19.8604492 C112.838594,19.9751758 112.487969,20.0570312 111.985234,20.1060156 L111.985234,20.1060156 L111.985234,20.6396875 L113.288477,20.6396875 L113.288477,24.5610156 L114.030977,24.5610156 Z M117.813086,24.7195703 C118.411211,24.7195703 118.873984,24.5500586 119.201406,24.2110352 C119.528828,23.8720117 119.692539,23.4588672 119.692539,22.9716016 C119.692539,22.5591016 119.570078,22.2239453 119.325156,21.9661328 C119.193672,21.8294922 119.013203,21.7083203 118.78375,21.6026172 C118.99,21.4866016 119.142109,21.3680078 119.240078,21.2468359 C119.415391,21.0328516 119.503047,20.753125 119.503047,20.4076562 C119.503047,20.0338281 119.352227,19.7070508 119.050586,19.4273242 C118.748945,19.1475977 118.332578,19.0077344 117.801484,19.0077344 C117.252344,19.0077344 116.828242,19.1559766 116.52918,19.4524609 C116.230117,19.7489453 116.080586,20.1034375 116.080586,20.5159375 C116.080586,20.8459375 116.182422,21.1140625 116.386094,21.3203125 C116.494375,21.4311719 116.645195,21.5278516 116.838555,21.6103516 C116.524023,21.7366797 116.286836,21.919082 116.126992,22.1575586 C115.967148,22.3960352 115.887227,22.6789844 115.887227,23.0064062 C115.887227,23.5632812 116.073496,23.9880273 116.446035,24.2806445 C116.818574,24.5732617 117.274258,24.7195703 117.813086,24.7195703 Z M117.786016,21.3435156 C117.523047,21.3435156 117.294883,21.2700391 117.101523,21.1230859 C116.908164,20.9761328 116.811484,20.7724609 116.811484,20.5120703 C116.811484,20.2800391 116.88625,20.0776562 117.035781,19.9049219 C117.185313,19.7321875 117.427656,19.6458203 117.762813,19.6458203 C118.100547,19.6458203 118.351914,19.7321875 118.516914,19.9049219 C118.681914,20.0776562 118.764414,20.2671484 118.764414,20.4733984 C118.764414,20.7105859 118.678047,20.9149023 118.505313,21.0863477 C118.332578,21.257793 118.092813,21.3435156 117.786016,21.3435156 Z M117.828555,24.0853516 C117.426367,24.0853516 117.129238,23.980293 116.937168,23.7701758 C116.745098,23.5600586 116.649063,23.310625 116.649063,23.021875 C116.649063,22.6867187 116.754121,22.4243945 116.964238,22.2349023 C117.174355,22.0454102 117.445703,21.9506641 117.778281,21.9506641 C118.121172,21.9506641 118.402187,22.0434766 118.621328,22.2291016 C118.840469,22.4147266 118.950039,22.6867187 118.950039,23.0450781 C118.950039,23.3905469 118.843691,23.650293 118.630996,23.8243164 C118.418301,23.9983398 118.15082,24.0853516 117.828555,24.0853516 Z M122.241016,24.7041016 C122.846875,24.7041016 123.313516,24.5100977 123.640938,24.1220898 C123.968359,23.734082 124.13207,23.2887109 124.13207,22.7859766 C124.13207,22.1981641 123.959336,21.7560156 123.613867,21.4595312 C123.268398,21.1630469 122.863633,21.0148047 122.39957,21.0148047 C122.126289,21.0148047 121.878789,21.0663672 121.65707,21.1694922 C121.414727,21.2855078 121.213633,21.4608203 121.053789,21.6954297 C121.07957,21.0251172 121.207188,20.5101367 121.436641,20.1504883 C121.666094,19.7908398 121.975469,19.6110156 122.364766,19.6110156 C122.705078,19.6110156 122.959023,19.7270312 123.126602,19.9590625 C123.216836,20.0828125 123.282578,20.2542578 123.323828,20.4733984 L123.323828,20.4733984 L124.012188,20.4733984 C124.012188,20.1330859 123.890371,19.8024414 123.646738,19.4814648 C123.403105,19.1604883 122.971914,19 122.353164,19 C121.497227,19 120.908125,19.4589062 120.585859,20.3767187 C120.418281,20.85625 120.334492,21.4401953 120.334492,22.1285547 C120.334492,23.0592578 120.522695,23.7211914 120.899102,24.1143555 C121.275508,24.5075195 121.722813,24.7041016 122.241016,24.7041016 Z M122.302891,24.0853516 C121.939375,24.0853516 121.655137,23.9661133 121.450176,23.7276367 C121.245215,23.4891602 121.142734,23.1946094 121.142734,22.8439844 C121.142734,22.444375 121.255527,22.1453125 121.481113,21.9467969 C121.706699,21.7482812 121.969023,21.6490234 122.268086,21.6490234 C122.696055,21.6490234 122.99125,21.7772852 123.153672,22.0338086 C123.316094,22.290332 123.397305,22.5603906 123.397305,22.8439844 C123.397305,23.1791406 123.306426,23.4698242 123.124668,23.7160352 C122.94291,23.9622461 122.668984,24.0853516 122.302891,24.0853516 Z M126.58,24.7118359 C127.317344,24.7118359 127.848438,24.3586328 128.173281,23.6522266 C128.397578,23.1598047 128.509727,22.5371875 128.509727,21.784375 C128.509727,20.9903125 128.385977,20.3651172 128.138477,19.9087891 C127.818789,19.3183984 127.300586,19.0232031 126.583867,19.0232031 C125.787227,19.0232031 125.236797,19.4434375 124.932578,20.2839062 C124.770156,20.7350781 124.688945,21.2751953 124.688945,21.9042578 C124.688945,22.7163672 124.824297,23.3634766 125.095,23.8455859 C125.419844,24.4230859 125.914844,24.7118359 126.58,24.7118359 Z M126.576133,24.0776172 C126.127539,24.0776172 125.81043,23.8159375 125.624805,23.2925781 C125.503633,22.9496875 125.443047,22.4959375 125.443047,21.9313281 C125.443047,21.1810937 125.537793,20.6132617 125.727285,20.227832 C125.916777,19.8424023 126.216484,19.6496875 126.626406,19.6496875 C127.072422,19.6496875 127.372773,19.8527148 127.527461,20.2587695 C127.682148,20.6648242 127.759492,21.1823828 127.759492,21.8114453 C127.759492,22.6828516 127.6525,23.2783984 127.438516,23.5980859 C127.224531,23.9177734 126.93707,24.0776172 126.576133,24.0776172 Z M131.116211,22.7125 L131.116211,21.9970703 L129.174883,21.9970703 L129.174883,22.7125 L131.116211,22.7125 Z M134.287305,24.5610156 L134.287305,19.0464062 L133.738164,19.0464062 C133.640195,19.474375 133.491953,19.7457227 133.293438,19.8604492 C133.094922,19.9751758 132.744297,20.0570312 132.241563,20.1060156 L132.241563,20.1060156 L132.241563,20.6396875 L133.544805,20.6396875 L133.544805,24.5610156 L134.287305,24.5610156 Z" id="path-1"></path>
    </defs>
    <g id="自立项目3-审批流程" stroke="none" stroke-width="1" fill="none" fill-rule="evenodd">
        <g id="流程审批-0我的已办" transform="translate(-97.000000, -915.000000)">
            <g id="编组" transform="translate(97.000000, 913.000000)">
                <g transform="translate(0.000000, 2.792000)" fill="#0085D0" fill-rule="nonzero" id="路径">
                    <path d="M8.20512,20.48112 C9.32976,21.41568 10.5336,22.23936 11.81664,22.95216 C16.90128,20.0376 20.7504,15.23808 22.42944,9.504 C21.384,8.66448 20.24352,7.95168 19.02384,7.38144 C19.02384,7.38144 19.02384,7.38144 19.02384,7.3656 C18.83376,8.18928 18.59616,8.98128 18.2952,9.75744 C18.31104,9.72576 18.32688,9.69408 18.32688,9.6624 C18.31104,9.69408 18.2952,9.72576 18.2952,9.75744 C18.26352,9.83664 18.23184,9.9 18.216,9.9792 C18.15264,10.15344 18.07344,10.32768 18.01008,10.50192 C17.9784,10.58112 17.94672,10.66032 17.8992,10.73952 C17.82,10.89792 17.75664,11.07216 17.67744,11.23056 C17.64576,11.30976 17.59824,11.38896 17.56656,11.45232 C17.47152,11.6424 17.37648,11.81664 17.28144,12.00672 C17.24976,12.05424 17.23392,12.10176 17.20224,12.14928 C17.07552,12.38688 16.9488,12.60864 16.80624,12.8304 C16.7904,12.86208 16.77456,12.89376 16.75872,12.92544 C16.64784,13.11552 16.52112,13.3056 16.3944,13.49568 C16.34688,13.55904 16.3152,13.6224 16.26768,13.68576 C16.1568,13.84416 16.06176,13.98672 15.95088,14.14512 C15.90336,14.20848 15.85584,14.27184 15.80832,14.35104 C15.69744,14.50944 15.58656,14.652 15.45984,14.79456 C15.41232,14.85792 15.3648,14.90544 15.31728,14.9688 C15.17472,15.15888 15.01632,15.33312 14.85792,15.50736 C14.84208,15.5232 14.82624,15.53904 14.8104,15.55488 C14.63616,15.7608 14.46192,15.95088 14.27184,16.14096 C14.24016,16.17264 14.20848,16.20432 14.1768,16.236 C14.03424,16.3944 13.87584,16.5528 13.71744,16.69536 C13.66992,16.74288 13.60656,16.7904 13.55904,16.85376 C13.41648,16.98048 13.27392,17.12304 13.13136,17.24976 C13.068,17.29728 13.02048,17.3448 12.95712,17.40816 C12.79872,17.53488 12.65616,17.67744 12.49776,17.80416 C12.45024,17.83584 12.40272,17.88336 12.3552,17.91504 C12.14928,18.08928 11.94336,18.24768 11.7216,18.40608 C10.67616,19.22976 9.47232,19.92672 8.20512,20.48112 Z"></path>
                    <path d="M11.73744,0 C7.4448,0 3.43728,1.188 0,3.2472 C0.0792,9.51984 2.6928,15.19056 6.87456,19.27728 C8.64864,18.46944 9.83664,17.69328 10.39104,17.29728 C6.98544,14.3352 4.62528,10.16928 4.00752,5.48064 C6.36768,4.41936 8.99712,3.83328 11.75328,3.83328 C14.46192,3.83328 17.04384,4.40352 19.37232,5.43312 C20.63952,5.98752 21.82752,6.66864 22.92048,7.47648 C23.18976,6.08256 23.33232,4.64112 23.34816,3.168 C19.94256,1.15632 15.98256,0 11.73744,0 Z"></path>
                </g>
                <text id="集中化研发管理系统" font-family="PingFangSC-Semibold, PingFang SC" font-size="10" font-weight="500" fill="#0085D0">
                    <tspan x="32" y="11">集中化研发管理系统</tspan>
                </text>
                <text id="联系方式" font-family="PingFangSC-Semibold, PingFang SC" font-size="10" font-weight="500" fill="#0085D0">
                    <tspan x="32" y="25">联系方式</tspan>
                </text>
                <g id="4001381860-1" fill-rule="nonzero">
                    <use fill="#000000" xlink:href="#path-1"></use>
                    <use fill="#0085D0" xlink:href="#path-1"></use>
                </g>
                <g transform="translate(75.497600, 17.840000)" fill="#0085D0" fill-rule="nonzero" id="路径">
                    <polygon points="1.9008 2.2176 0.83952 2.2176 1.15632 0.04752 2.23344 0.04752"></polygon>
                    <polygon points="1.188 7.30224 0.11088 7.30224 0.44352 5.13216 1.5048 5.13216"></polygon>
                </g>
            </g>
        </g>
    </g>
</svg>