<?xml version="1.0" encoding="UTF-8"?>
<svg width="21px" height="21px" viewBox="0 0 21 21" version="1.1" xmlns="http://www.w3.org/2000/svg" xmlns:xlink="http://www.w3.org/1999/xlink">
    <!-- Generator: Sketch 60 (88103) - https://sketch.com -->
    <title>本单位项目管理</title>
    <desc>Created with Sketch.</desc>
    <g id="UI规范" stroke="none" stroke-width="1" fill="none" fill-rule="evenodd">
        <g id="03图标" transform="translate(-325.000000, -460.000000)" fill="#242830" fill-rule="nonzero" stroke="#333333" stroke-width="0.5">
            <path d="M327.654927,469.980047 L334.628045,473.630051 C335.175308,473.916571 335.826543,473.916571 336.373806,473.630051 L343.252213,469.980047 C343.706628,469.741955 344.254329,469.768514 344.683575,470.049457 C344.910615,470.197825 344.975442,470.503631 344.828411,470.732675 C344.783611,470.802502 344.721861,470.859851 344.648917,470.899374 L336.397389,475.419346 C335.83823,475.722522 335.163717,475.722522 334.604558,475.419346 L326.258127,470.899374 C326.019917,470.770292 325.930361,470.470692 326.058393,470.230382 C326.097331,470.157123 326.154147,470.09489 326.223565,470.049457 C326.652811,469.768514 327.200512,469.741955 327.654927,469.980047 L327.654927,469.980047 Z M334.628045,477.983419 C335.175308,478.269843 335.826543,478.269843 336.373806,477.983419 L343.252213,474.333414 C343.706611,474.095294 344.254311,474.121816 344.683575,474.402729 C344.910615,474.551002 344.975442,474.856903 344.828411,475.085947 C344.783611,475.155774 344.721861,475.213123 344.648917,475.252646 L336.397389,479.772618 C335.83823,480.075794 335.163717,480.075794 334.604558,479.772618 L326.258127,475.252646 C326.019917,475.123564 325.930361,474.823964 326.058393,474.583654 C326.097331,474.510395 326.154147,474.448162 326.223565,474.402729 C326.652811,474.121786 327.200512,474.095227 327.654927,474.333319 L334.628045,477.983323 L334.628045,477.983419 Z M326.18633,465.835101 L335.143419,461.087709 C335.363832,460.970798 335.627867,460.970762 335.848312,461.087613 L344.815617,465.835101 C344.995206,465.943561 345.053636,466.178238 344.946131,466.359354 C344.914141,466.413325 344.869307,466.458553 344.815617,466.491013 L335.853563,471.327579 C335.630296,471.448184 335.361275,471.448112 335.138073,471.327388 L326.18633,466.491013 C326.006741,466.382554 325.94831,466.147877 326.055815,465.966761 C326.087805,465.912789 326.13264,465.867561 326.18633,465.835101 Z M328.72759,466.33348 L335.410654,469.919229 C335.46706,469.949511 335.534887,469.949511 335.591293,469.919229 L342.274357,466.33348 C342.336683,466.300049 342.375426,466.234907 342.375049,466.164182 C342.374666,466.093457 342.335225,466.028735 342.272543,465.995976 L335.589479,462.500355 C335.534038,462.471355 335.467908,462.471355 335.412468,462.500355 L328.729404,465.995976 C328.666722,466.028735 328.627281,466.093457 328.626898,466.164182 C328.62652,466.234907 328.665263,466.300049 328.72759,466.33348 Z" id="本单位项目管理"></path>
        </g>
    </g>
</svg>