<?xml version="1.0" encoding="UTF-8"?>
<svg width="20px" height="20px" viewBox="0 0 20 20" version="1.1" xmlns="http://www.w3.org/2000/svg" xmlns:xlink="http://www.w3.org/1999/xlink">
    <!-- Generator: Sketch 60 (88103) - https://sketch.com -->
    <title>其他可配图标3</title>
    <desc>Created with Sketch.</desc>
    <g id="UI规范" stroke="none" stroke-width="1" fill="none" fill-rule="evenodd">
        <g id="03图标" transform="translate(-1104.000000, -460.000000)" fill="#000000" fill-rule="nonzero">
            <path d="M1114.00097,460 C1115.34485,460 1116.64966,460.24607 1117.87829,460.728444 C1119.06786,461.197149 1120.13632,461.868958 1121.05438,462.724343 C1121.9783,463.583634 1122.70298,464.58549 1123.20889,465.700615 C1123.73433,466.860658 1124.00193,468.09296 1123.99999,469.36432 C1123.99999,470.63568 1123.73433,471.866029 1123.20693,473.026072 C1122.69907,474.14315 1121.97439,475.143052 1121.05243,476.002344 C1120.13437,476.857729 1119.06591,477.529538 1117.87634,477.998242 C1116.64771,478.480617 1115.34289,478.726687 1113.99901,478.726687 C1112.93055,478.726687 1111.88162,478.570452 1110.87762,478.261888 L1110.87762,478.261888 L1107.98085,479.908212 C1107.87342,479.968753 1107.75232,480 1107.63316,480 C1107.52573,480 1107.41635,479.974612 1107.31673,479.923836 C1107.10577,479.818377 1106.96318,479.613319 1106.93583,479.378967 L1106.93583,479.378967 L1106.48462,475.539498 C1104.88094,473.828728 1104,471.645347 1104,469.362367 C1104,468.09296 1104.2676,466.860658 1104.79305,465.700615 C1105.30091,464.583537 1106.02559,463.583634 1106.94755,462.724343 C1107.86561,461.868958 1108.93407,461.197149 1110.12364,460.728444 C1111.35227,460.24607 1112.65709,460 1114.00097,460 Z M1114.00097,461.406113 C1112.83484,461.406113 1111.70387,461.618983 1110.64127,462.03691 C1109.61578,462.441168 1108.69577,463.019236 1107.90663,463.75354 C1107.11944,464.48589 1106.50415,465.337369 1106.07442,466.28259 C1105.63102,467.259057 1105.40639,468.294112 1105.40639,469.362367 C1105.40639,471.352407 1106.20529,473.258471 1107.65465,474.727077 C1107.76404,474.838395 1107.83435,474.982912 1107.85193,475.139147 L1107.85193,475.139147 L1108.20744,478.160336 L1110.4518,476.88507 C1110.62564,476.78547 1110.83464,476.765941 1111.02607,476.830388 C1111.97538,477.154575 1112.97743,477.318621 1113.99901,477.318621 C1115.16514,477.318621 1116.29611,477.107704 1117.36067,476.687823 C1118.38616,476.283566 1119.30617,475.705497 1120.0953,474.971194 C1120.88249,474.238844 1121.49778,473.387365 1121.92751,472.442144 C1122.37092,471.465677 1122.59555,470.430622 1122.5975,469.362367 C1122.5975,468.294112 1122.37287,467.259057 1121.92947,466.28259 C1121.49974,465.335416 1120.88249,464.48589 1120.09726,463.75354 C1119.30812,463.017283 1118.38811,462.441168 1117.36262,462.03691 C1116.29806,461.618983 1115.16709,461.406113 1114.00097,461.406113 Z M1109.25,468.333333 C1109.84878,468.333333 1110.33333,468.892424 1110.33333,469.583333 C1110.33333,470.274242 1109.84878,470.833333 1109.25,470.833333 C1108.65318,470.833333 1108.16666,470.274242 1108.16666,469.583333 C1108.16666,468.892424 1108.65121,468.333333 1109.25,468.333333 Z M1117.91666,468.333333 C1118.51348,468.333333 1118.99999,468.892424 1118.99999,469.583333 C1118.99802,470.274242 1118.51348,470.833333 1117.91666,470.833333 C1117.31984,470.833333 1116.83333,470.274242 1116.83333,469.583333 C1116.83333,468.892424 1117.31787,468.333333 1117.91666,468.333333 Z M1113.58333,468.333333 C1114.18015,468.333333 1114.66666,468.892424 1114.66666,469.583333 C1114.66666,470.274242 1114.18015,470.833333 1113.58333,470.833333 C1112.98651,470.833333 1112.5,470.274242 1112.5,469.583333 C1112.5,468.892424 1112.98454,468.333333 1113.58333,468.333333 Z" id="其他可配图标3"></path>
        </g>
    </g>
</svg>