<?xml version="1.0" encoding="UTF-8"?>
<svg width="18px" height="18px" viewBox="0 0 18 18" version="1.1" xmlns="http://www.w3.org/2000/svg" xmlns:xlink="http://www.w3.org/1999/xlink">
    <!-- Generator: Sketch 60 (88103) - https://sketch.com -->
    <title>首页</title>
    <desc>Created with Sketch.</desc>
    <g id="测试任务流程设计" stroke="none" stroke-width="1" fill="none" fill-rule="evenodd">
        <g id="图标" transform="translate(-60.000000, -295.000000)" fill="#242830" fill-rule="nonzero">
            <g id="首页" transform="translate(60.000000, 295.000000)">
                <path d="M13.4009212,17.9742211 L4.41582827,17.9742211 C2.61880969,17.9742211 1.14852175,16.5127372 1.14852175,14.7264792 L1.14852175,5.79518927 C1.14852175,5.34862478 1.51609373,4.98325383 1.96534838,4.98325383 C2.41460302,4.98325383 2.782175,5.34862478 2.78217502,5.79518927 L2.78217502,14.7264792 C2.78217502,15.6196082 3.51731898,16.3503501 4.41582827,16.3503501 L13.4009212,16.3503501 C14.2994305,16.3503501 15.0345744,15.6196082 15.0345744,14.7264792 L15.0345744,5.79518927 C15.0345744,5.34862478 15.4021464,4.98325383 15.8514011,4.98325383 C16.3006557,4.98325383 16.6682277,5.34862478 16.6682277,5.79518927 L16.6682277,14.7264792 C16.6682277,16.5127372 15.2387811,17.9742211 13.4009212,17.9742211 Z" id="路径"></path>
                <path d="M17.1583237,7.05368924 C16.9949583,7.05368924 16.831593,7.01309247 16.709069,6.93189892 C13.9318585,5.14564093 10.2152973,2.66923779 8.94921605,1.81670557 C7.68313478,2.66923779 4.00741496,5.10504415 1.27104575,6.89130214 C0.903473773,7.13488277 0.372536461,7.01309247 0.127488461,6.64772152 C-0.117559517,6.28235057 0.00496446153,5.75459252 0.372536461,5.51101187 C3.72152564,3.35938294 8.45912007,0.192834678 8.49996141,0.152237904 C8.78585072,-0.050745968 9.15342272,-0.050745968 9.3984707,0.152237904 C9.43931203,0.192834678 14.2585891,3.39997971 17.6075783,5.55160865 C17.9751503,5.79518927 18.0976743,6.28235055 17.8526263,6.68831829 C17.689261,6.93189892 17.4033717,7.05368924 17.1583237,7.05368924 Z" id="路径"></path>
                <path d="M12.1756812,13.2787374 L5.6410682,13.2787374 C5.19181356,13.2787374 4.82424158,12.8737374 4.82424158,12.3787374 C4.82424158,11.8837374 5.19181356,11.4787374 5.6410682,11.4787374 L12.1756812,11.4787374 C12.6249359,11.4787374 12.9925079,11.8837374 12.9925079,12.3787374 C12.9925079,12.8737374 12.6249359,13.2787374 12.1756812,13.2787374 Z" id="路径"></path>
            </g>
        </g>
    </g>
</svg>