<?xml version="1.0" encoding="UTF-8"?>
<svg width="21px" height="21px" viewBox="0 0 21 21" version="1.1" xmlns="http://www.w3.org/2000/svg" xmlns:xlink="http://www.w3.org/1999/xlink">
    <!-- Generator: Sketch 60 (88103) - https://sketch.com -->
    <title>其他可配图标1</title>
    <desc>Created with Sketch.</desc>
    <g id="UI规范" stroke="none" stroke-width="1" fill="none" fill-rule="evenodd">
        <g id="03图标" transform="translate(-930.000000, -460.000000)" fill="#000000" fill-rule="nonzero">
            <path d="M950.18082,462.354934 L946.273972,466.258569 L944.683075,464.66846 L948.578191,460.776569 C946.59309,459.538774 943.950981,459.780696 942.228683,461.502335 C940.886511,462.845825 940.440685,464.750667 940.90059,466.462911 L936.46579,470.899714 C934.750531,470.441707 932.847556,470.883273 931.503037,472.229111 C929.780739,473.95075 929.539054,476.595451 930.775636,478.577803 L934.668405,474.685912 L936.259302,476.27602 L932.352454,480.179656 C934.342248,481.466775 937.026593,481.238945 938.770009,479.498516 C940.112181,478.155027 940.558007,476.250184 940.098102,474.53794 L944.532902,470.105834 C946.248161,470.563842 948.151136,470.122276 949.495655,468.776437 C951.239071,467.028962 951.466677,464.346681 950.18082,462.354934 L950.18082,462.354934 Z M937.749301,478.474458 C937.012514,479.209619 936.043428,479.568979 935.079035,479.552537 L937.308167,477.323566 C937.873663,476.757516 937.873663,475.846198 937.308167,475.280147 L935.717271,473.690038 C935.151775,473.123988 934.239004,473.123988 933.673508,473.690038 L931.444376,475.919009 C931.427951,474.95367 931.786958,473.985982 932.523745,473.248472 C933.689933,472.083488 935.435696,471.860356 936.827144,472.579076 C937.157994,472.750535 937.467726,472.973667 937.744608,473.250821 C938.021489,473.527974 938.244403,473.840359 938.41804,474.169185 C939.138402,475.559649 938.913142,477.309474 937.749301,478.474458 Z M939.476292,473.114593 C939.276843,472.802208 939.042197,472.503916 938.767662,472.23146 C938.495473,471.959004 938.197474,471.721779 937.885395,471.524484 L941.5224,467.888607 C941.721849,468.200992 941.956495,468.499284 942.23103,468.77174 C942.503219,469.044196 942.801218,469.28142 943.113297,469.478716 L939.476292,473.114593 Z M948.474947,467.752379 C947.308759,468.917363 945.562996,469.140495 944.171548,468.421775 C943.840698,468.250316 943.530966,468.027184 943.254084,467.75003 C942.977203,467.472877 942.754289,467.160492 942.580652,466.831666 C941.862636,465.441202 942.08555,463.691377 943.251738,462.528742 C943.986178,461.793581 944.957611,461.434221 945.922004,461.450663 L943.692871,463.679634 C943.127376,464.245684 943.127376,465.157002 943.692871,465.723053 L945.283768,467.313162 C945.849263,467.879212 946.762035,467.879212 947.32753,467.313162 L949.556662,465.084191 C949.570741,466.047181 949.209387,467.014869 948.474947,467.752379 L948.474947,467.752379 Z" id="其他可配图标1"></path>
        </g>
    </g>
</svg>