<?xml version="1.0" encoding="UTF-8"?>
<svg width="22px" height="21px" viewBox="0 0 22 21" version="1.1" xmlns="http://www.w3.org/2000/svg" xmlns:xlink="http://www.w3.org/1999/xlink">
    <!-- Generator: Sketch 60 (88103) - https://sketch.com -->
    <title>我的工作台</title>
    <desc>Created with Sketch.</desc>
    <g id="UI规范" stroke="none" stroke-width="1" fill="none" fill-rule="evenodd">
        <g id="03图标" transform="translate(-65.000000, -460.000000)" fill="#242830" fill-rule="nonzero">
            <path d="M84.381905,472.013661 L84.289384,471.371959 C84.1868607,470.662313 83.9943169,469.972798 83.7192544,469.318514 C83.2991589,468.319473 82.6965219,467.418574 81.931348,466.646016 C81.7213003,466.434632 81.3037054,466.037028 81.0136395,465.808029 L80.6410548,465.513601 C80.7360764,465.153745 80.7860877,464.77879 80.7860877,464.388736 C80.7860877,461.967885 78.8306433,460 76.4250966,460 C74.0195499,460 72.0641055,461.967885 72.0641055,464.386219 C72.0641055,464.617735 72.0816095,464.844218 72.1166174,465.068185 L71.7065242,465.329898 C71.1288929,465.69982 70.4862469,466.271061 70.1111616,466.648532 C69.3409866,467.423607 68.7383496,468.324506 68.3207547,469.321031 C68.0331894,470.005512 67.838145,470.720192 67.7431234,471.447454 L67.670607,471.991013 C66.1027506,472.655362 65,474.218095 65,476.034991 C65,478.455842 66.9554444,480.423727 69.3609911,480.423727 C70.196181,480.423727 70.9763583,480.187178 71.6390089,479.776992 L72.1266197,480.033673 C72.3516708,480.151947 72.5617186,480.252606 72.7667652,480.338167 C73.7969993,480.77855 74.8922482,481 76.0200045,481 C77.1477609,481 78.2405092,480.776034 79.2707434,480.338167 C79.4432826,480.265189 79.6208229,480.182145 79.8133667,480.084002 L80.3884974,479.789575 C81.0461469,480.189694 81.8163219,480.42121 82.6390089,480.42121 C85.0445556,480.42121 87,478.453325 87,476.032475 C86.9974994,474.238226 85.9197545,472.69311 84.381905,472.013661 Z M69.3609911,473.533613 C70.7313026,473.533613 71.846556,474.655962 71.846556,476.034991 C71.846556,477.41402 70.7313026,478.536369 69.3609911,478.536369 C67.9906797,478.536369 66.8754262,477.41402 66.8754262,476.034991 C66.8754262,474.655962 67.9906797,473.533613 69.3609911,473.533613 Z M82.6365083,478.536369 C81.2661969,478.536369 80.1509434,477.41402 80.1509434,476.034991 C80.1509434,474.655962 81.2661969,473.533613 82.6365083,473.533613 C84.0043192,473.533613 85.1195726,474.655962 85.1220732,476.034991 C85.1220732,477.416537 84.0068197,478.536369 82.6365083,478.536369 Z M76.4250966,461.887358 C77.795408,461.887358 78.9106615,463.00719 78.9106615,464.386219 C78.9106615,465.765249 77.795408,466.887597 76.4250966,466.887597 C75.0547852,466.887597 73.9395317,465.767765 73.9395317,464.388736 C73.9395317,463.009706 75.0547852,461.887358 76.4250966,461.887358 L76.4250966,461.887358 Z M76.4250966,468.774955 C77.7604001,468.774955 78.9556717,468.168484 79.7558536,467.214739 L79.9583996,467.380827 C81.1836781,468.389934 82.1163901,469.922469 82.388952,471.376992 L82.4389634,471.648772 C80.1259377,471.751947 78.2755172,473.679569 78.2755172,476.032475 C78.2755172,476.905692 78.5305751,477.718514 78.9681746,478.402996 L78.7181178,478.518754 C77.8629234,478.913841 76.9552171,479.112642 76.0200045,479.112642 C75.0422823,479.112642 74.1045692,478.898742 73.2318709,478.475974 L73.0418277,478.382864 C73.4719254,477.703415 73.7219823,476.898143 73.7219823,476.034991 C73.7219823,473.697184 71.8965674,471.779629 69.6035463,471.653805 L69.6410548,471.447454 C69.9461241,469.72115 71.0813821,468.014979 72.5992271,466.998322 L72.8192771,466.84985 C73.6069561,468.012463 74.9272562,468.774955 76.4250966,468.774955 L76.4250966,468.774955 Z" id="我的工作台"></path>
        </g>
    </g>
</svg>