<?xml version="1.0" encoding="UTF-8"?>
<svg width="14px" height="14px" viewBox="0 0 14 14" version="1.1" xmlns="http://www.w3.org/2000/svg" xmlns:xlink="http://www.w3.org/1999/xlink">
    <!-- Generator: Sketch 60 (88103) - https://sketch.com -->
    <title>切换组织</title>
    <desc>Created with Sketch.</desc>
    <g id="首页+我的工作台" stroke="none" stroke-width="1" fill="none" fill-rule="evenodd">
        <g id="首页03-点击头像设置" transform="translate(-1317.000000, -196.000000)" fill="#0077FF" fill-rule="nonzero">
            <g id="编组-12" transform="translate(1304.000000, 124.000000)">
                <g id="切换组织" transform="translate(13.000000, 72.000000)">
                    <path d="M10.4775,8.0005 C10.5738562,7.99588599 10.6692131,8.02178105 10.75,8.0745 C10.87,8.1515 10.9505,8.276 10.9835,8.414 C11.018137,8.55544208 11.000375,8.70464269 10.9335,8.834 L9.4335,10.722 C9.295,10.988 8.989,11.079 8.75,10.9255 C8.511,10.772 8.429,10.432 8.567,10.166 L9.417,9.096 L3.5485,9.096 C3.24584796,9.096 3.0005,8.85065204 3.0005,8.548 C3.0005,8.24534796 3.24584796,7.99997505 3.5485,7.99997505 L10.4525,7.99997505 L10.478,8.0005 L10.4775,8.0005 Z M3.5225,6 C3.42614375,6.00461401 3.33078693,5.97871895 3.25,5.926 C3.1311894,5.84728971 3.04749803,5.72560568 3.0165,5.5865 C2.98186302,5.44505792 2.999625,5.29585731 3.0665,5.1665 L4.567,3.2785 C4.705,3.0125 5.011,2.9215 5.25,3.075 C5.489,3.2285 5.571,3.5685 5.433,3.8345 L4.583,4.9045 L10.452,4.9045 C10.6477815,4.90449999 10.8286912,5.0089482 10.9265819,5.17849999 C11.0244727,5.34805179 11.0244727,5.55694821 10.9265819,5.72650001 C10.8286912,5.8960518 10.6477815,6.00052495 10.452,6.00052495 L3.548,6.00052495 L3.523,6 L3.5225,6 Z M0,0.995 C0,0.4455 0.45,0 0.9955,0 L13.005,0 C13.5545,0 14,0.45 14,0.9955 L14,13.005 C14,13.555 13.55,14.0005 13.0045,14.0005 L0.995,14.0005 C0.4455,14 0,13.55 0,13.0045 L0,0.995 Z M0.999998999,1.5 L0.999998999,12.499 C0.999734437,12.6317814 1.0522956,12.7592154 1.14609259,12.8532 C1.23988957,12.9471846 1.36721831,13 1.499999,13 L12.499999,13 C12.7761424,13 12.999999,12.7761424 12.999999,12.5 L12.999999,1.5 C12.999999,1.22385763 12.7761424,1 12.499999,1 L1.499999,1 C1.22385763,1 0.999998999,1.22385763 0.999998999,1.5 Z" id="形状"></path>
                </g>
            </g>
        </g>
    </g>
</svg>