<?xml version="1.0" encoding="UTF-8"?>
<svg width="24px" height="18px" viewBox="0 0 24 18" version="1.1" xmlns="http://www.w3.org/2000/svg" xmlns:xlink="http://www.w3.org/1999/xlink">
    <!-- Generator: Sketch 60 (88103) - https://sketch.com -->
    <title>其他可配图标5</title>
    <desc>Created with Sketch.</desc>
    <g id="UI规范" stroke="none" stroke-width="1" fill="none" fill-rule="evenodd">
        <g id="03图标" transform="translate(-1277.000000, -461.000000)" fill="#000000" fill-rule="nonzero">
            <path d="M1299.3125,461 C1300.19622,461 1300.92007,461.677337 1300.99381,462.541778 L1301,462.6875 L1301,477.3125 C1301,478.196217 1300.32266,478.920066 1299.45822,478.993812 L1299.3125,479 L1278.6875,479 C1277.80378,479 1277.07993,478.322663 1277.00619,477.458222 L1277,477.3125 L1277,462.6875 C1277,461.803783 1277.67734,461.079934 1278.54178,461.006188 L1278.6875,461 L1299.3125,461 Z M1299.3125,462.6875 L1278.6875,462.6875 L1278.6875,477.3125 L1299.3125,477.3125 L1299.3125,462.6875 Z M1283.75,464 C1285.40703,464 1286.75,465.342969 1286.75,467 C1286.75,467.839063 1286.40547,468.598437 1285.85,469.142187 C1286.7875,469.777482 1287.42189,470.823848 1287.49328,472.02336 L1287.5,472.25 L1287.5,474.3125 C1287.5,475.196217 1286.82266,475.920066 1285.95822,475.993812 L1285.8125,476 L1281.6875,476 C1280.80378,476 1280.07993,475.322663 1280.00619,474.458222 L1280,474.3125 L1280,472.25 C1280,470.95625 1280.65391,469.817187 1281.65,469.142187 C1281.09453,468.598437 1280.75,467.839063 1280.75,467 C1280.75,465.342969 1282.09297,464 1283.75,464 Z M1294.15625,473 C1294.62266,473 1295,473.377344 1295,473.84375 C1295,474.310156 1294.62266,474.6875 1294.15625,474.6875 L1294.15625,474.6875 L1289.84375,474.6875 C1289.37734,474.6875 1289,474.310156 1289,473.84375 C1289,473.377344 1289.37734,473 1289.84375,473 L1289.84375,473 Z M1283.75,470.1875 C1282.61094,470.1875 1281.6875,471.110937 1281.6875,472.25 C1281.6875,472.280469 1281.6875,472.313281 1281.68984,472.34375 L1281.68779,472.356348 L1281.6875,474.195312 C1281.6875,474.247813 1281.7205,474.291313 1281.7673,474.306613 L1281.80469,474.3125 L1285.69531,474.3125 C1285.74781,474.3125 1285.79131,474.2795 1285.80661,474.2327 L1285.8125,474.195312 L1285.81221,472.35459 L1285.81016,472.34375 C1285.8125,472.313281 1285.8125,472.282812 1285.8125,472.25 C1285.8125,471.110937 1284.88906,470.1875 1283.75,470.1875 Z M1295.65625,469.15625 C1296.12266,469.15625 1296.5,469.533594 1296.5,470 C1296.5,470.466406 1296.12266,470.84375 1295.65625,470.84375 L1295.65625,470.84375 L1289.84375,470.84375 C1289.37734,470.84375 1289,470.466406 1289,470 C1289,469.533594 1289.37734,469.15625 1289.84375,469.15625 L1289.84375,469.15625 Z M1283.75,465.6875 C1283.02578,465.6875 1282.4375,466.275781 1282.4375,467 C1282.4375,467.724219 1283.02578,468.3125 1283.75,468.3125 C1284.47422,468.3125 1285.0625,467.724219 1285.0625,467 C1285.0625,466.275781 1284.47422,465.6875 1283.75,465.6875 Z M1297.15625,465.3125 C1297.62266,465.3125 1298,465.689844 1298,466.15625 C1298,466.622656 1297.62266,467 1297.15625,467 L1297.15625,467 L1289.84375,467 C1289.37734,467 1289,466.622656 1289,466.15625 C1289,465.689844 1289.37734,465.3125 1289.84375,465.3125 L1289.84375,465.3125 Z" id="其他可配图标5"></path>
        </g>
    </g>
</svg>