<?xml version="1.0" encoding="UTF-8"?>
<svg width="20px" height="20px" viewBox="0 0 20 20" version="1.1" xmlns="http://www.w3.org/2000/svg" xmlns:xlink="http://www.w3.org/1999/xlink">
    <!-- Generator: Sketch 60 (88103) - https://sketch.com -->
    <title>计划申报</title>
    <desc>Created with Sketch.</desc>
    <g id="UI规范" stroke="none" stroke-width="1" fill="none" fill-rule="evenodd">
        <g id="03图标" transform="translate(-153.000000, -460.000000)" fill="#242830" fill-rule="nonzero">
            <g id="计划申报" transform="translate(153.000000, 460.000000)">
                <path d="M11.171875,11.796875 L3.828125,11.796875 C3.43945312,11.796875 3.125,12.1113281 3.125,12.5 C3.125,12.8886719 3.43945312,13.203125 3.828125,13.203125 L11.171875,13.203125 C11.5605469,13.203125 11.875,12.8886719 11.875,12.5 C11.875,12.1113281 11.5605469,11.796875 11.171875,11.796875 Z M13.59375,6.40625 L13.59375,18.59375 L1.40625,18.59375 L1.40625,6.40625 L13.59375,6.40625 L13.59375,6.40625 Z M13.59375,5 L1.40625,5 C0.62890625,5 0,5.62890625 0,6.40625 L0,18.59375 C0,19.3710938 0.62890625,20 1.40625,20 L13.59375,20 C14.3710938,20 15,19.3710938 15,18.59375 L15,6.40625 C15,5.62890625 14.3710938,5 13.59375,5 Z M18.59375,0 L7.02539062,0 C6.63671875,0 6.32226562,0.314453125 6.32226562,0.703125 C6.32226562,1.09179688 6.63671875,1.40625 7.02539062,1.40625 L18.59375,1.40625 L18.59375,13.046875 C18.59375,13.4355469 18.9082031,13.75 19.296875,13.75 C19.6855469,13.75 20,13.4355469 20,13.046875 L20,1.40625 C20,0.62890625 19.3710938,0 18.59375,0 Z M16.09375,2.5 L3.203125,2.5 C2.81445312,2.5 2.5,2.81445312 2.5,3.203125 C2.5,3.59179688 2.81445312,3.90625 3.203125,3.90625 L16.09375,3.90625 L16.09375,16.796875 C16.09375,17.1855469 16.4082031,17.5 16.796875,17.5 C17.1855469,17.5 17.5,17.1855469 17.5,16.796875 L17.5,3.90625 C17.5,3.12890625 16.8710938,2.5 16.09375,2.5 Z" id="Shape"></path>
            </g>
        </g>
    </g>
</svg>