<?xml version="1.0" encoding="UTF-8"?>
<svg width="26px" height="26px" viewBox="0 0 26 26" version="1.1" xmlns="http://www.w3.org/2000/svg" xmlns:xlink="http://www.w3.org/1999/xlink">
    <!-- Generator: Sketch 60 (88103) - https://sketch.com -->
    <title>KHCFDC_头像 </title>
    <desc>Created with Sketch.</desc>
    <g id="首页+我的工作台" stroke="none" stroke-width="1" fill="none" fill-rule="evenodd">
        <g id="首页01-02计划" transform="translate(-1463.000000, -91.000000)" fill="#FFFFFF" fill-rule="nonzero">
            <g id="编组-19" transform="translate(79.000000, 79.000000)">
                <g id="top-bar备份">
                    <g id="个人资料">
                        <g id="KHCFDC_头像-" transform="translate(1384.000000, 12.000000)">
                            <path d="M26,13 C26,5.85 20.15,0 13,0 C5.85,0 0,5.85 0,13 C0,20.15 5.85,26 13,26 C20.15,26 26,20.15 26,13 Z M13,24.375 C6.6625,24.375 1.625,19.3375 1.625,13 C1.625,6.6625 6.6625,1.625 13,1.625 C19.3375,1.625 24.375,6.6625 24.375,13 C24.375,19.3375 19.3375,24.375 13,24.375 Z" id="形状"></path>
                            <path d="M15.925,12.8375 C17.0625,11.8625 17.875,10.5625 17.875,8.9375 C17.875,6.175 15.7625,4.0625 13,4.0625 C10.2375,4.0625 8.125,6.175 8.125,8.9375 C8.125,10.5625 8.9375,11.8625 10.075,12.8375 C7.475,13.975 5.6875,16.575 5.6875,19.5 C5.6875,19.9875 6.0125,20.3125 6.5,20.3125 C6.9875,20.3125 7.3125,19.9875 7.3125,19.5 C7.3125,16.4125 9.9125,13.8125 13,13.8125 C16.0875,13.8125 18.6875,16.4125 18.6875,19.5 C18.6875,19.9875 19.0125,20.3125 19.5,20.3125 C19.9875,20.3125 20.3125,19.9875 20.3125,19.5 C20.3125,16.575 18.525,13.975 15.925,12.8375 Z M13,12.1875 C11.2125,12.1875 9.75,10.725 9.75,8.9375 C9.75,7.15 11.2125,5.6875 13,5.6875 C14.7875,5.6875 16.25,7.15 16.25,8.9375 C16.25,10.725 14.7875,12.1875 13,12.1875 Z" id="形状"></path>
                        </g>
                    </g>
                </g>
            </g>
        </g>
    </g>
</svg>