<?xml version="1.0" encoding="UTF-8"?>
<svg width="18px" height="21px" viewBox="0 0 18 21" version="1.1" xmlns="http://www.w3.org/2000/svg" xmlns:xlink="http://www.w3.org/1999/xlink">
    <!-- Generator: Sketch 60 (88103) - https://sketch.com -->
    <title>添加人员</title>
    <desc>Created with Sketch.</desc>
    <g id="自立项目1-我的项目主页" stroke="none" stroke-width="1" fill="none" fill-rule="evenodd">
        <g id="我的项目管理-我的项目06-项目1-主页编辑" transform="translate(-1331.000000, -1092.000000)" fill="#0B82FF" fill-rule="nonzero">
            <g id="编组-18" transform="translate(209.000000, 1018.000000)">
                <g id="编组-7备份-3" transform="translate(0.000000, 49.000000)">
                    <g id="编组-7" transform="translate(58.000000, 20.000000)">
                        <g id="编组-2备份">
                            <path d="M1081.15391,21.396875 L1079.09609,21.396875 L1079.09609,19.3390625 C1079.09609,18.8726562 1078.71641,18.4929687 1078.25,18.4929687 C1077.78359,18.4929687 1077.40391,18.8726562 1077.40391,19.3390625 L1077.40391,21.396875 L1075.34609,21.396875 C1074.87969,21.396875 1074.5,21.7765625 1074.5,22.2429687 C1074.5,22.709375 1074.87969,23.0890625 1075.34609,23.0890625 L1077.40391,23.0890625 L1077.40391,25.146875 C1077.40391,25.6132812 1077.78359,25.9929687 1078.25,25.9929687 C1078.71641,25.9929687 1079.09609,25.6132812 1079.09609,25.146875 L1079.09609,23.0890625 L1081.15391,23.0890625 C1081.62031,23.0890625 1082,22.709375 1082,22.2429687 C1082,21.7742187 1081.62031,21.396875 1081.15391,21.396875 Z M1078.25,10.2617188 C1078.25,7.35546875 1075.89922,5 1073,5 C1070.10078,5 1067.75,7.35546875 1067.75,10.2617188 C1067.75,13.1679688 1070.10078,15.5234375 1073,15.5234375 C1075.89922,15.5234375 1078.25,13.1679688 1078.25,10.2617188 Z M1073,13.83125 C1071.03359,13.83125 1069.4375,12.2328125 1069.4375,10.2617188 C1069.4375,8.290625 1071.03359,6.6921875 1073,6.6921875 C1074.96641,6.6921875 1076.5625,8.290625 1076.5625,10.2617188 C1076.5625,12.2328125 1074.96641,13.83125 1073,13.83125 Z M1077.92188,16.990625 C1076.50625,16.0625 1074.81641,15.5234375 1073,15.5234375 C1068.02891,15.5234375 1064,19.5617188 1064,24.5445312 L1064.00234,24.5445312 C1064.00234,24.5609375 1064,24.575 1064,24.5914062 C1064,25.0578125 1064.37734,25.4375 1064.84375,25.4375 C1065.31016,25.4375 1065.6875,25.0578125 1065.6875,24.5914062 C1065.6875,24.575 1065.6875,24.5609375 1065.68516,24.5445312 L1065.6875,24.5445312 C1065.6875,20.496875 1068.96172,17.215625 1073,17.215625 C1073.91875,17.215625 1074.79766,17.384375 1075.60625,17.6960938 C1076.29531,17.2929688 1077.08047,17.0421875 1077.92188,16.990625 Z" id="添加人员"></path>
                        </g>
                    </g>
                </g>
            </g>
        </g>
    </g>
</svg>