<?xml version="1.0" standalone="no"?><!DOCTYPE svg PUBLIC "-//W3C//DTD SVG 1.1//EN" "http://www.w3.org/Graphics/SVG/1.1/DTD/svg11.dtd"><svg t="1594121607178" class="icon" viewBox="0 0 1024 1024" version="1.1" xmlns="http://www.w3.org/2000/svg" p-id="37458" xmlns:xlink="http://www.w3.org/1999/xlink" width="200" height="200"><defs><style type="text/css"></style></defs><path d="M512 0A512 512 0 1 0 1024 512 512.626939 512.626939 0 0 0 512 0z m0 961.306122A449.306122 449.306122 0 1 1 961.306122 512 449.724082 449.724082 0 0 1 512 961.306122z" p-id="37459"></path><path d="M833.828571 295.706122a31.137959 31.137959 0 0 0-44.303673 0L465.81551 619.41551l-184.32-214.413061a31.346939 31.346939 0 0 0-47.647347 40.75102l199.157551 231.758368a33.645714 33.645714 0 0 0 8.568164 6.896326s0 1.462857 1.462857 2.089796a31.346939 31.346939 0 0 0 44.303673 0L833.828571 340.009796a31.137959 31.137959 0 0 0 0-44.303674z" p-id="37460"></path></svg>