<?xml version="1.0" standalone="no"?><!DOCTYPE svg PUBLIC "-//W3C//DTD SVG 1.1//EN" "http://www.w3.org/Graphics/SVG/1.1/DTD/svg11.dtd"><svg t="1606721573063" class="icon" viewBox="0 0 1024 1024" version="1.1" xmlns="http://www.w3.org/2000/svg" p-id="15352" xmlns:xlink="http://www.w3.org/1999/xlink" width="200" height="200"><defs><style type="text/css"></style></defs><path d="M289.31454 884.074534H155.749323c-31.801242 0-63.602484-19.080745-63.602485-57.242236V159.006211c0-57.242236 12.720497-63.602484 63.602485-63.602484h521.540372c50.881988 0 63.602484 19.080745 63.602485 63.602484v89.043478c0 19.080745 12.720497 31.801242 31.801242 38.161491 19.080745 0 31.801242-12.720497 38.161491-31.801242V159.006211c0-95.403727-31.801242-133.565217-133.565218-133.565217H155.749323C92.146838 25.440994 22.184105 31.801242 22.184105 152.645963v680.546584c0 12.720497 0 25.440994 6.360249 38.16149 12.720497 44.521739 57.242236 69.962733 101.763975 69.962733h152.645963c19.080745 0 31.801242-19.080745 31.801242-31.801242s-12.720497-25.440994-25.440994-25.440994z" p-id="15353"></path><path d="M219.351807 228.968944c-19.080745 0-31.801242 12.720497-38.16149 31.801242 0 19.080745 12.720497 31.801242 31.801242 38.161491h400.695652c19.080745 0 31.801242-12.720497 38.161491-31.801242 0-19.080745-12.720497-31.801242-31.801243-38.161491H219.351807zM327.476031 426.136646H219.351807c-19.080745 0-31.801242 12.720497-38.16149 31.801242 0 19.080745 12.720497 31.801242 31.801242 38.161491h114.484472c19.080745 0 31.801242-12.720497 38.16149-31.801242 0-19.080745-12.720497-31.801242-31.801242-38.161491h-6.360248zM683.649944 362.534161c-178.086957 0-330.732919 146.285714-324.372671 330.73292 0 178.086957 146.285714 330.732919 330.732919 330.732919 178.086957 0 330.732919-146.285714 324.372671-330.732919-6.360248-184.447205-152.645963-330.732919-330.732919-330.73292z m0 591.503106c-146.285714 0-260.770186-114.484472-260.770186-260.770186s114.484472-260.770186 260.770186-260.770187 260.770186 114.484472 260.770186 260.770187c0 139.925466-120.84472 260.770186-260.770186 260.770186z" p-id="15354"></path><path d="M798.134416 572.42236L639.128205 731.428571l-69.962733-69.962732c-6.360248-12.720497-31.801242-12.720497-44.521739 0-12.720497 12.720497-12.720497 31.801242 0 44.521739l89.043478 89.043478c12.720497 12.720497 31.801242 12.720497 44.521739 0l184.447205-184.447205c12.720497-12.720497 12.720497-31.801242 0-44.521739-19.080745 0-31.801242 0-44.521739 6.360248z" p-id="15355"></path></svg>