<?xml version="1.0" encoding="UTF-8"?>
<svg width="15px" height="15px" viewBox="0 0 15 15" version="1.1" xmlns="http://www.w3.org/2000/svg" xmlns:xlink="http://www.w3.org/1999/xlink">
    <!-- Generator: Sketch 60 (88103) - https://sketch.com -->
    <title>Group 91</title>
    <desc>Created with Sketch.</desc>
    <g id="自立项目2-项目流程" stroke="none" stroke-width="1" fill="none" fill-rule="evenodd">
        <g id="我的项目管理-我的项目-自立项目10-项目流程-立项流程-审批" transform="translate(-636.000000, -135.000000)">
            <g id="编组-33" transform="translate(79.000000, 79.000000)">
                <g id="顶部悬浮按钮栏" transform="translate(0.000000, 38.000000)">
                    <g id="编组-5" transform="translate(130.000000, 10.000000)">
                        <g id="保存备份-2" transform="translate(419.000000, 0.000000)">
                            <g id="按钮-Button-基本样式-中号按钮" transform="translate(8.000000, 6.000000)">
                                <g id="Group-91" transform="translate(0.000000, 2.000000)">
                                    <g id="exception" transform="translate(0.937500, 0.937500)" fill="#333333" fill-rule="nonzero">
                                        <path d="M12.0849609,0 L1.0546875,0 C0.473144531,0 0,0.473144531 0,1.0546875 L0,12.0703125 C0,12.6518555 0.473144531,13.125 1.0546875,13.125 L5.11230469,13.125 C5.40380859,13.125 5.63964844,12.8891602 5.63964844,12.5976562 C5.63964844,12.3061523 5.40380859,12.0703125 5.11230469,12.0703125 L1.0546875,12.0703125 L1.0546875,1.0546875 L12.0849609,1.0546875 L12.0849609,12.0703125 L10.8544922,12.0703125 C10.5629883,12.0703125 10.3271484,12.3061523 10.3271484,12.5976562 C10.3271484,12.8891602 10.5629883,13.125 10.8544922,13.125 L12.0849609,13.125 C12.6665039,13.125 13.1396484,12.6518555 13.1396484,12.0703125 L13.1396484,1.0546875 C13.1396484,0.473144531 12.6665039,0 12.0849609,0 Z" id="Shape"></path>
                                        <path d="M8.45214844,12.5976562 C8.45214844,12.786058 8.55265957,12.9601485 8.7158203,13.0543494 C8.87898103,13.1485503 9.08000334,13.1485503 9.24316407,13.0543494 C9.4063248,12.9601485 9.50683594,12.786058 9.50683594,12.5976562 C9.50683594,12.4092545 9.4063248,12.235164 9.24316407,12.1409631 C9.08000334,12.0467622 8.87898103,12.0467622 8.7158203,12.1409631 C8.55265957,12.235164 8.45214844,12.4092545 8.45214844,12.5976562 L8.45214844,12.5976562 Z" id="Shape"></path>
                                        <path d="M8.97949219,4.6875 C8.68798828,4.6875 8.45214844,4.92333984 8.45214844,5.21484375 L8.45214844,10.7226562 C8.45214844,11.0141602 8.68798828,11.25 8.97949219,11.25 C9.27099609,11.25 9.50683594,11.0141602 9.50683594,10.7226562 L9.50683594,5.21484375 C9.50683594,4.92333984 9.27099609,4.6875 8.97949219,4.6875 Z M6.98730469,2.8125 L2.41699219,2.8125 C2.12548828,2.8125 1.88964844,3.04833984 1.88964844,3.33984375 C1.88964844,3.63134766 2.12548828,3.8671875 2.41699219,3.8671875 L6.98730469,3.8671875 C7.27880859,3.8671875 7.51464844,3.63134766 7.51464844,3.33984375 C7.51464844,3.04833984 7.27880859,2.8125 6.98730469,2.8125 Z M5.11230469,5.625 L2.41699219,5.625 C2.12548828,5.625 1.88964844,5.86083984 1.88964844,6.15234375 C1.88964844,6.44384766 2.12548828,6.6796875 2.41699219,6.6796875 L5.11230469,6.6796875 C5.40380859,6.6796875 5.63964844,6.44384766 5.63964844,6.15234375 C5.63964844,5.86083984 5.40380859,5.625 5.11230469,5.625 Z M5.11230469,8.4375 L2.41699219,8.4375 C2.12548828,8.4375 1.88964844,8.67333984 1.88964844,8.96484375 C1.88964844,9.25634766 2.12548828,9.4921875 2.41699219,9.4921875 L5.11230469,9.4921875 C5.40380859,9.4921875 5.63964844,9.25634766 5.63964844,8.96484375 C5.63964844,8.67333984 5.40380859,8.4375 5.11230469,8.4375 Z" id="Shape"></path>
                                    </g>
                                </g>
                            </g>
                        </g>
                    </g>
                </g>
            </g>
        </g>
    </g>
</svg>