<?xml version="1.0" encoding="UTF-8"?>
<svg width="13px" height="13px" viewBox="0 0 13 13" version="1.1" xmlns="http://www.w3.org/2000/svg" xmlns:xlink="http://www.w3.org/1999/xlink">
    <!-- Generator: Sketch 60 (88103) - https://sketch.com -->
    <title>保存</title>
    <desc>Created with Sketch.</desc>
    <defs>
        <path d="M8.17918865,0.0123046875 L1.13877144,0.0123046875 C0.516085652,0.0123046875 0.0123046875,0.516085652 0.0123046875,1.13877144 L0.0123046875,10.8858379 C0.0123046875,11.5085237 0.516085652,12.0123047 1.13877144,12.0123047 L10.8858379,12.0123047 C11.5085237,12.0123047 12.0123047,11.5085237 12.0123047,10.8858379 L12.0123047,3.84385619 L8.17918865,0.0123046875 Z M3.15545984,1.13877144 L6.55050547,1.13877144 L6.55050547,4.36015345 C6.55050547,4.67149634 6.29861499,4.92338683 5.98727209,4.92338683 L3.71869321,4.92338683 C3.40735032,4.92338683 3.15545984,4.67149634 3.15545984,4.36015345 L3.15545984,1.13877144 Z M10.8858379,10.8858379 L1.13877144,10.8858379 L1.13877144,1.13877144 L2.02899308,1.13877144 L2.02899308,4.36015345 C2.02899308,5.29261759 2.78622907,6.04985358 3.71869321,6.04985358 L5.98727209,6.04985358 C6.91973624,6.04985358 7.67697222,5.29261759 7.67697222,4.36015345 L7.67697222,1.13877144 L7.71295658,1.13877144 L10.8842734,4.31008826 L10.8842734,10.8858379 L10.8858379,10.8858379 Z M5.38257848,3.79692007 C5.71424515,3.79692007 5.98257848,3.54502959 5.98257848,3.2336867 L5.98257848,2.56093572 C5.98257848,2.24959282 5.71424515,1.99770234 5.38257848,1.99770234 C5.05091181,1.99770234 4.78257848,2.24959282 4.78257848,2.56093572 L4.78257848,3.2336867 C4.78257848,3.54502959 5.05091181,3.79692007 5.38257848,3.79692007 Z" id="path-1"></path>
    </defs>
    <g id="自立项目2-项目流程" stroke="none" stroke-width="1" fill="none" fill-rule="evenodd">
        <g id="我的项目管理-我的项目-自立项目08-项目流程-立项流程-编辑" transform="translate(-218.000000, -135.000000)">
            <g id="编组-33" transform="translate(79.000000, 79.000000)">
                <g id="顶部悬浮按钮栏" transform="translate(0.000000, 38.000000)">
                    <g id="编组-12" transform="translate(130.000000, 10.000000)">
                        <g id="顶部悬浮按钮栏">
                            <g id="保存">
                                <g id="按钮-Button-基本样式-中号按钮" transform="translate(8.000000, 6.000000)">
                                    <g id="保存" transform="translate(0.000000, 1.000000)">
                                        <g id="save" transform="translate(1.750000, 1.750000)" fill-rule="nonzero">
                                            <g id="Shape">
                                                <use fill="#0077FF" xlink:href="#path-1"></use>
                                                <use fill="#333333" xlink:href="#path-1"></use>
                                            </g>
                                        </g>
                                    </g>
                                </g>
                            </g>
                        </g>
                    </g>
                </g>
            </g>
        </g>
    </g>
</svg>