<?xml version="1.0" encoding="UTF-8"?>
<svg width="14px" height="13px" viewBox="0 0 14 13" version="1.1" xmlns="http://www.w3.org/2000/svg" xmlns:xlink="http://www.w3.org/1999/xlink">
    <!-- Generator: Sketch 60 (88103) - https://sketch.com -->
    <title>形状结合</title>
    <desc>Created with Sketch.</desc>
    <g id="研发计划管理3-全集团计划统筹" stroke="none" stroke-width="1" fill="none" fill-rule="evenodd">
        <g id="研发计划-01全集团计划统筹-02集团统筹研发项目" transform="translate(-419.000000, -197.000000)" fill="#333333" fill-rule="nonzero">
            <g id="顶部悬浮按钮栏备份" transform="translate(411.000000, 189.000000)">
                <g id="转办">
                    <g id="按钮-Button-基本样式-中号按钮-Copy-3" transform="translate(8.000000, 6.000000)">
                        <g id="编组" transform="translate(0.000000, 2.000000)">
                            <path d="M4.450282,6.49789948 C4.73158021,6.77064489 4.73158021,7.21016458 4.450282,7.48117276 C4.30963289,7.61667685 4.12570714,7.6844289 3.93997819,7.6844289 C3.75424924,7.6844289 3.57032348,7.61667685 3.42967438,7.48117276 L3.42967438,7.48117276 L0.21097366,4.38021373 C0.0757341345,4.24992133 -7.10542736e-15,4.07272367 -7.10542736e-15,3.88857709 C-7.10542736e-15,3.7044305 0.0757341345,3.52723284 0.21097366,3.39694045 L0.21097366,3.39694045 L3.52344045,0.203908121 C3.80654186,-0.0671000638 4.26274986,-0.0688372957 4.54404807,0.203908121 C4.82534628,0.476653537 4.82534628,0.91617322 4.54404807,1.1871814 L4.54404807,1.1871814 L2.547,3.111 L9.33333333,3.11111111 C11.9106622,3.11111111 14,5.20044895 14,7.77777778 C14,10.296531 12.0045529,12.3492225 9.50828532,12.4412256 L9.33333333,12.4444444 L2.33333333,12.4444444 C1.90377853,12.4444444 1.55555556,12.0962215 1.55555556,11.6666667 C1.55555556,11.2677943 1.85580904,10.93905 2.24262801,10.8941216 L2.33333333,10.8888889 L9.33333333,10.8888889 C11.0515526,10.8888889 12.4444444,9.495997 12.4444444,7.77777778 C12.4444444,6.11162581 11.1346912,4.7513831 9.48860916,4.67047413 L9.33333333,4.66666667 L2.548,4.666 Z" id="形状结合"></path>
                        </g>
                    </g>
                </g>
            </g>
        </g>
    </g>
</svg>