<?xml version="1.0" encoding="UTF-8"?>
<svg width="12px" height="15px" viewBox="0 0 12 15" version="1.1" xmlns="http://www.w3.org/2000/svg" xmlns:xlink="http://www.w3.org/1999/xlink">
    <!-- Generator: Sketch 60 (88103) - https://sketch.com -->
    <title>Group 92</title>
    <desc>Created with Sketch.</desc>
    <g id="自立项目2-项目流程" stroke="none" stroke-width="1" fill="none" fill-rule="evenodd">
        <g id="我的项目管理-我的项目-自立项目08-项目流程-立项流程-编辑" transform="translate(-416.000000, -134.000000)" fill="#333333" fill-rule="nonzero">
            <g id="编组-33" transform="translate(79.000000, 79.000000)">
                <g id="顶部悬浮按钮栏" transform="translate(0.000000, 38.000000)">
                    <g id="编组-12" transform="translate(130.000000, 10.000000)">
                        <g id="保存备份-3" transform="translate(197.000000, 0.000000)">
                            <g id="按钮-Button-基本样式-中号按钮" transform="translate(10.000000, 6.000000)">
                                <g id="按钮-Button-图标按钮-中尺寸-方形">
                                    <g id="Group-92" transform="translate(0.000000, 1.000000)">
                                        <g id="exclefile">
                                            <path d="M10.9507823,4.42089844 L6.87614081,0.312011719 C6.8101369,0.24609375 6.73826597,0.190429688 6.66052803,0.143554688 C6.63999348,0.131835938 6.61945893,0.120117187 6.59745763,0.109863281 C6.58425684,0.102539062 6.56958931,0.0966796875 6.55638853,0.0908203125 C6.4243807,0.0322265625 6.2791721,0 6.13102999,0 L1.07073012,0 C0.48696219,0 0,0.471679688 0,1.0546875 L0,13.9453125 C0,14.5283203 0.48696219,15 1.07073012,15 L10.208605,15 C10.7923729,15 11.25,14.5283203 11.25,13.9453125 L11.25,5.16357422 C11.25,4.88525391 11.1473272,4.61865234 10.9507823,4.42089844 Z M6.67372881,1.6171875 L9.61897001,4.5703125 L6.67372881,4.5703125 L6.67372881,1.6171875 Z M10.1939374,13.9453125 L1.05606258,13.9453125 L1.05606258,1.0546875 L5.61766623,1.0546875 L5.61766623,4.5703125 C5.61766623,5.15332031 6.10462842,5.625 6.68839635,5.625 L10.1939374,5.625 L10.1939374,13.9453125 Z M4.87255541,9.77490234 L4.05410691,7.49267578 L5.31404824,7.49267578 L5.54579531,8.33349609 C5.60739896,8.55615234 5.67193611,8.80078125 5.75114081,9.10400391 L5.77607562,9.10400391 C5.93741851,8.80078125 6.08116037,8.55322266 6.21756845,8.33349609 L6.70746415,7.49267578 L7.90433507,7.49267578 L6.27623859,9.82617188 L7.15629074,12.1977539 L5.89634941,12.1977539 L5.62059974,11.2792969 C5.55019557,11.0317383 5.48712516,10.7871094 5.41085398,10.4956055 L5.38591917,10.4956055 C5.22164276,10.7871094 5.07496741,11.0332031 4.92535854,11.2792969 L4.3577249,12.1962891 L3.14911995,12.1962891 L4.87255541,9.77490234 Z" id="Shape"></path>
                                        </g>
                                    </g>
                                </g>
                            </g>
                        </g>
                    </g>
                </g>
            </g>
        </g>
    </g>
</svg>