<?xml version="1.0" encoding="UTF-8"?>
<svg width="14px" height="14px" viewBox="0 0 14 14" version="1.1" xmlns="http://www.w3.org/2000/svg" xmlns:xlink="http://www.w3.org/1999/xlink">
    <!-- Generator: Sketch 60 (88103) - https://sketch.com -->
    <title>已阅</title>
    <desc>Created with Sketch.</desc>
    <g id="自立项目2-项目流程" stroke="none" stroke-width="1" fill="none" fill-rule="evenodd">
        <g id="我的项目管理-我的项目-变更项目13-变更流程-立项流程-查看" transform="translate(-295.000000, -136.000000)">
            <g id="编组-33" transform="translate(79.000000, 79.000000)">
                <g id="顶部悬浮按钮栏" transform="translate(0.000000, 38.000000)">
                    <g id="顶部悬浮按钮栏备份" transform="translate(207.000000, 10.000000)">
                        <g id="保存">
                            <g id="已阅" transform="translate(8.000000, 7.000000)">
                                <g id="caretup" transform="translate(1.333333, 2.000000)" fill="#333333" fill-rule="nonzero">
                                    <g id="已阅">
                                        <path d="M11.8003248,5.88767048 C11.5259892,5.88767048 11.3045072,5.66711085 11.3045072,5.39514261 L11.3045072,1.47868918 C11.3009836,1.19677087 11.0518164,0.972341781 10.7291574,0.986161316 L1.95746448,0.986161316 C1.60863037,0.972341794 1.36046988,1.19566532 1.36046988,1.47868918 L1.36046988,11.3336689 C1.36399346,11.5896065 1.62675162,11.8261968 1.95746448,11.8261968 L4.81156174,11.8261968 C5.08740747,11.8261968 5.30888945,12.0462037 5.30888945,12.3187247 C5.30888945,12.5901402 5.08589737,12.810147 4.81156174,12.810147 L1.95746448,12.810147 C1.10173867,12.810147 0.379405404,12.1611821 0.367324561,11.338644 L0.367324561,1.48034753 C0.367324561,0.624642542 1.09720834,-0.033719644 1.9791093,0.00165834888 L10.7060025,0.00165834888 C11.5617283,-0.033719631 12.2875851,0.621878641 12.2971491,1.47481972 L12.2971491,5.39514261 C12.2971491,5.66711086 12.0746604,5.88767049 11.8003248,5.88767048 Z M2.47258772,6.04355473 C2.47258772,5.78485322 2.70026961,5.57534922 2.98207742,5.57534922 L5.47186997,5.57534922 C5.75308945,5.57534922 5.98135965,5.78485322 5.98135965,6.04355473 C5.97780661,6.30476286 5.74988113,6.51397215 5.47186997,6.51120745 L2.98207742,6.51120745 C2.84851,6.51268211 2.71979063,6.46423814 2.62424077,6.3765344 C2.52869092,6.28883067 2.47413898,6.16905273 2.47258772,6.04355473 Z M2.92499886,3.3902059 C2.67799451,3.39296949 2.47552101,3.1881278 2.47258772,2.93250323 C2.47258772,2.67932952 2.67502434,2.47480055 2.92499886,2.47480055 L9.73947484,2.47480055 C9.98944934,2.47480055 10.191886,2.67932952 10.191886,2.93250323 C10.1889527,3.18812779 9.98647918,3.39296948 9.73947484,3.3902059 L2.92499886,3.3902059 Z M9.07499965,5.84621191 C11.1678285,5.84621191 12.870394,7.51118829 12.870394,9.55758357 C12.870394,11.6045316 11.1678285,13.269508 9.07499965,13.269508 C6.98217076,13.269508 5.27960526,11.6045316 5.27960526,9.55758357 C5.27960526,7.51118829 6.98217076,5.84621191 9.07499965,5.84621191 L9.07499965,5.84621191 Z M9.07499965,12.3165136 C10.6305254,12.3165136 11.8958411,11.0788369 11.8958411,9.55758357 C11.8958411,8.03688302 10.6305254,6.79920635 9.07499965,6.79920635 C7.5194739,6.79920635 6.25415818,8.03688302 6.25415818,9.55758357 C6.25415818,11.0788369 7.51947389,12.3165136 9.07499965,12.3165136 Z M7.64827187,9.14963119 L8.56533556,10.0683532 L10.5011746,8.12864467 C10.5821717,8.04742731 10.6921595,8.0017813 10.8068625,8.0017813 C10.9215655,8.0017813 11.0315534,8.04742731 11.1125504,8.12864467 C11.2812182,8.29796875 11.2812182,8.57180194 11.1125504,8.74112602 L8.87102345,10.9870752 C8.79002642,11.0682926 8.68003855,11.1139386 8.56533555,11.1139386 C8.45063255,11.1139386 8.34064468,11.0682926 8.25964766,10.9870752 L7.03744886,9.76211254 C6.8792739,9.5916666 6.88403959,9.32669841 7.0482415,9.1620507 C7.21244341,8.997403 7.47739771,8.99191894 7.64827187,9.14963119 L7.64827187,9.14963119 Z" id="形状"></path>
                                    </g>
                                </g>
                            </g>
                        </g>
                    </g>
                </g>
            </g>
        </g>
    </g>
</svg>