<?xml version="1.0" encoding="UTF-8"?>
<svg width="15px" height="15px" viewBox="0 0 15 15" version="1.1" xmlns="http://www.w3.org/2000/svg" xmlns:xlink="http://www.w3.org/1999/xlink">
    <!-- Generator: Sketch 60 (88103) - https://sketch.com -->
    <title>编辑</title>
    <desc>Created with Sketch.</desc>
    <g id="自立项目2-项目流程" stroke="none" stroke-width="1" fill="none" fill-rule="evenodd">
        <g id="我的项目管理-我的项目-自立项目10-项目流程-立项流程-审批" transform="translate(-294.000000, -134.000000)">
            <g id="编组-33" transform="translate(79.000000, 79.000000)">
                <g id="顶部悬浮按钮栏" transform="translate(0.000000, 38.000000)">
                    <g id="编组-5" transform="translate(130.000000, 10.000000)">
                        <g id="保存" transform="translate(77.000000, 0.000000)">
                            <g id="按钮-Button-基本样式-中号按钮" transform="translate(8.000000, 6.000000)">
                                <g id="编辑" transform="translate(0.000000, 1.000000)">
                                    <g id="edit" transform="translate(0.937500, 0.937500)" fill="#333333" fill-rule="nonzero">
                                        <path d="M12.5976562,12.0703125 L0.52734375,12.0703125 C0.235839844,12.0703125 0,12.3061523 0,12.5976562 C0,12.8891602 0.235839844,13.125 0.52734375,13.125 L12.5976562,13.125 C12.8891602,13.125 13.125,12.8891602 13.125,12.5976562 C13.125,12.3061523 12.8891602,12.0703125 12.5976562,12.0703125 Z M3.3984375,10.3417969 L6.84814453,8.88134766 C6.90380859,8.85791016 6.95361328,8.82421875 6.99755859,8.78173828 L12.815918,2.96337891 C13.2275391,2.55175781 13.2304688,1.88085938 12.8188477,1.46923828 L11.6572266,0.307617188 C11.2456055,-0.104003906 10.574707,-0.101074219 10.1630859,0.310546875 L4.34472656,6.12890625 C4.30224609,6.17138672 4.26855469,6.22265625 4.24511719,6.27832031 L2.78320312,9.7265625 C2.70117188,9.91992188 2.75830078,10.1147461 2.8828125,10.2407227 C3.00732422,10.3666992 3.20361328,10.4238281 3.3984375,10.3417969 Z M10.9086914,1.05615234 L10.9116211,1.05322266 L12.0717773,2.21337891 L12.0688477,2.21630859 L11.1606445,3.12451172 L10.0004883,1.96435547 L10.9086914,1.05615234 Z M5.17089844,6.79394531 L9.25488281,2.70996094 L10.4150391,3.87011719 L6.33105469,7.95410156 L4.31835938,8.80664062 L5.17089844,6.79394531 Z" id="Shape"></path>
                                    </g>
                                </g>
                            </g>
                        </g>
                    </g>
                </g>
            </g>
        </g>
    </g>
</svg>