<?xml version="1.0" encoding="UTF-8"?>
<svg width="14px" height="14px" viewBox="0 0 14 14" version="1.1" xmlns="http://www.w3.org/2000/svg" xmlns:xlink="http://www.w3.org/1999/xlink">
    <!-- Generator: Sketch 60 (88103) - https://sketch.com -->
    <title>check-circle-o</title>
    <desc>Created with Sketch.</desc>
    <defs>
        <path d="M9.80546875,4.18632813 C9.61269531,3.99492188 9.30097656,3.99492188 9.10957031,4.18769531 L7,6.30273438 L4.89042969,4.18769531 C4.69902344,3.99492188 4.38730469,3.99492188 4.19453125,4.18632813 C4.00175781,4.37773438 4.00175781,4.68945313 4.19316406,4.88222656 L6.30546875,7 L4.19316406,9.11777344 C4.00175781,9.31054688 4.00175781,9.62226563 4.19453125,9.81367188 C4.29023438,9.909375 4.41601562,9.95722656 4.54179688,9.95722656 C4.66757812,9.95722656 4.79472656,9.909375 4.89042969,9.81230469 L7,7.69726563 L9.10957031,9.81367188 C9.20527344,9.91074219 9.33242187,9.95859375 9.45820312,9.95859375 C9.58398437,9.95859375 9.70976562,9.91074219 9.80546875,9.81503906 C9.99824219,9.62363281 9.99824219,9.31191406 9.80683594,9.11914062 L7.69453125,7 L9.80546875,4.88222656 C9.99824219,4.68945313 9.99824219,4.37773438 9.80546875,4.18632813 Z M7,0 C3.13359375,0 0,3.13359375 0,7 C0,10.8664062 3.13359375,14 7,14 C10.8664062,14 14,10.8664062 14,7 C14,3.13359375 10.8664062,0 7,0 Z M11.2533203,11.2533203 C10.7009766,11.8056641 10.0570313,12.2404297 9.340625,12.5425781 C8.59960938,12.8570313 7.81210938,13.015625 7,13.015625 C6.18789063,13.015625 5.40039062,12.8570313 4.659375,12.5439453 C3.94296875,12.2404297 3.30039062,11.8070312 2.74667969,11.2546875 C2.19433594,10.7023438 1.75957031,10.0583984 1.45742188,9.34199219 C1.14296875,8.59960938 0.984375,7.81210938 0.984375,7 C0.984375,6.18789063 1.14296875,5.40039062 1.45605469,4.659375 C1.75957031,3.94296875 2.19296875,3.30039062 2.7453125,2.74667969 C3.29765625,2.19433594 3.94160156,1.75957031 4.65800781,1.45742188 C5.40039062,1.14296875 6.18789063,0.984375 7,0.984375 C7.81210938,0.984375 8.59960938,1.14296875 9.340625,1.45605469 C10.0570313,1.75957031 10.6996094,2.19296875 11.2533203,2.7453125 C11.8056641,3.29765625 12.2404297,3.94160156 12.5425781,4.65800781 C12.8570313,5.40039062 13.015625,6.18789063 13.015625,7 C13.015625,7.81210938 12.8570313,8.59960938 12.5439453,9.340625 C12.2404297,10.0570313 11.8070312,10.7009766 11.2533203,11.2533203 Z" id="path-1"></path>
    </defs>
    <g id="自立项目2-项目流程" stroke="none" stroke-width="1" fill="none" fill-rule="evenodd">
        <g id="我的项目管理-我的项目-自立项目08-项目流程-立项流程-编辑" transform="translate(-492.000000, -135.000000)" fill-rule="nonzero">
            <g id="编组-33" transform="translate(79.000000, 79.000000)">
                <g id="顶部悬浮按钮栏" transform="translate(0.000000, 38.000000)">
                    <g id="编组-12" transform="translate(130.000000, 10.000000)">
                        <g id="顶部悬浮按钮栏" transform="translate(274.000000, 0.000000)">
                            <g id="保存">
                                <g id="check-circle-o" transform="translate(9.000000, 8.000000)">
                                    <g id="close-circle-o" transform="translate(0.000000, 0.000000)">
                                        <g id="Shape">
                                            <use fill="#FF3F3B" xlink:href="#path-1"></use>
                                            <use fill="#333333" xlink:href="#path-1"></use>
                                        </g>
                                    </g>
                                </g>
                            </g>
                        </g>
                    </g>
                </g>
            </g>
        </g>
    </g>
</svg>