<?xml version="1.0" encoding="UTF-8"?>
<svg width="16px" height="16px" viewBox="0 0 16 16" version="1.1" xmlns="http://www.w3.org/2000/svg" xmlns:xlink="http://www.w3.org/1999/xlink">
    <!-- Generator: Sketch 60 (88103) - https://sketch.com -->
    <title>形状</title>
    <desc>Created with Sketch.</desc>
    <g id="研发计划管理3-全集团计划统筹" stroke="none" stroke-width="1" fill="none" fill-rule="evenodd">
        <g id="研发计划-02全集团计划统筹-01查看与审批" transform="translate(-327.000000, -196.000000)" fill="#333333" fill-rule="nonzero" stroke="#333333" stroke-width="0.5">
            <g id="保存" transform="translate(320.000000, 189.000000)">
                <g id="按钮-Button-基本样式-中号按钮" transform="translate(8.000000, 6.000000)">
                    <g id="保存" transform="translate(0.000000, 1.000000)">
                        <path d="M13.8708251,1.12926429 C13.7476477,1.00596975 13.5633886,0.966829136 13.4007272,1.02940534 L0.2823919,6.08032132 C0.132261537,6.13829757 0.0255652046,6.27336347 0.00392068901,6.43283543 C-0.0174472783,6.59230287 0.0495958173,6.7507739 0.178922244,6.84648992 L4.76538486,10.2352411 L8.15352433,14.8213153 C8.24931805,14.9504632 8.40769406,15.0173983 8.56707488,14.9960958 C8.72663784,14.9746015 8.86180591,14.8678603 8.91970301,14.7176282 L13.9706854,1.59935604 C14.0331165,1.43668526 13.9939926,1.25250993 13.8708251,1.12926429 Z M1.3484795,6.61450653 L11.7780253,2.59892991 L5.03740291,9.33990117 L1.3484795,6.61450653 Z M8.38551077,13.6514453 L5.66062719,9.96311726 L12.4010308,3.22236475 L8.38551077,13.6514453 Z" id="形状"></path>
                    </g>
                </g>
            </g>
        </g>
    </g>
</svg>