<?xml version="1.0" encoding="UTF-8"?>
<svg width="15px" height="14px" viewBox="0 0 15 14" version="1.1" xmlns="http://www.w3.org/2000/svg" xmlns:xlink="http://www.w3.org/1999/xlink">
    <!-- Generator: Sketch 60 (88103) - https://sketch.com -->
    <title>提交</title>
    <desc>Created with Sketch.</desc>
    <defs>
        <path d="M12.367697,0 C12.9650688,0 13.4483696,0.440234375 13.4483696,0.984375 L13.4483696,0.984375 L13.4483696,7.875 C13.4483696,8.14707031 13.2067192,8.3671875 12.9080333,8.3671875 C12.6093474,8.3671875 12.367697,8.14707031 12.367697,7.875 L12.367697,7.875 L12.367697,0.984375 L1.08067255,0.984375 L1.08067255,11.265625 L8.64538043,11.265625 C8.94406632,11.265625 9.18571671,11.4857422 9.18571671,11.7578125 C9.18571671,12.0298828 8.94406632,12.25 8.64538043,12.25 L8.64538043,12.25 L1.08067255,12.25 C0.483300781,12.25 0,11.8097656 0,11.265625 L0,11.265625 L0,0.984375 C0,0.440234375 0.483300781,0 1.08067255,0 L1.08067255,0 Z M9.91517069,5.25 C10.1553201,5.25 10.2753949,5.51523438 10.1057893,5.66972656 L10.1057893,5.66972656 L8.54781972,7.08886719 L11.3695758,9.65917969 C11.5812075,9.85058594 11.5812075,10.1623047 11.3695758,10.3550781 C11.2630095,10.4507813 11.1264245,10.4986328 10.9868376,10.4986328 C10.8472508,10.4986328 10.7091648,10.4507813 10.6040994,10.3550781 L10.6040994,10.3550781 L7.78234333,7.78476563 L6.22437373,9.20390625 C6.05476817,9.35976563 5.76358696,9.24902344 5.76358696,9.03027344 L5.76358696,9.03027344 L5.76358696,5.7421875 C5.76358696,5.47011719 6.00523735,5.25 6.30392323,5.25 L6.30392323,5.25 Z" id="path-1"></path>
    </defs>
    <g id="自立项目2-项目流程" stroke="none" stroke-width="1" fill="none" fill-rule="evenodd">
        <g id="我的项目管理-我的项目-自立项目08-项目流程-立项流程-编辑" transform="translate(-295.000000, -135.000000)" fill-rule="nonzero">
            <g id="编组-33" transform="translate(79.000000, 79.000000)">
                <g id="顶部悬浮按钮栏" transform="translate(0.000000, 38.000000)">
                    <g id="编组-12" transform="translate(130.000000, 10.000000)">
                        <g id="顶部悬浮按钮栏">
                            <g id="提交" transform="translate(77.000000, 0.000000)">
                                <g id="按钮-Button-基本样式-中号按钮-Copy-3备份" transform="translate(9.000000, 6.000000)">
                                    <g id="提交" transform="translate(0.000000, 2.000000)">
                                        <g id="select" transform="translate(0.960598, 0.875000)">
                                            <g id="形状结合">
                                                <use fill="#0077FF" xlink:href="#path-1"></use>
                                                <use fill="#333333" xlink:href="#path-1"></use>
                                            </g>
                                        </g>
                                    </g>
                                </g>
                            </g>
                        </g>
                    </g>
                </g>
            </g>
        </g>
    </g>
</svg>