<?xml version="1.0" encoding="UTF-8"?>
<svg width="13px" height="15px" viewBox="0 0 13 15" version="1.1" xmlns="http://www.w3.org/2000/svg" xmlns:xlink="http://www.w3.org/1999/xlink">
    <!-- Generator: Sketch 60 (88103) - https://sketch.com -->
    <title>Group 131</title>
    <desc>Created with Sketch.</desc>
    <g id="自立项目2-项目流程" stroke="none" stroke-width="1" fill="none" fill-rule="evenodd">
        <g id="我的项目管理-我的项目-自立项目10-项目流程-立项流程-审批" transform="translate(-532.000000, -134.000000)">
            <g id="编组-33" transform="translate(79.000000, 79.000000)">
                <g id="顶部悬浮按钮栏" transform="translate(0.000000, 38.000000)">
                    <g id="编组-5" transform="translate(130.000000, 10.000000)">
                        <g id="保存备份" transform="translate(314.000000, 0.000000)">
                            <g id="按钮-Button-基本样式-中号按钮" transform="translate(8.000000, 6.000000)">
                                <g id="Group-131" transform="translate(0.000000, 1.000000)">
                                    <g id="fork" transform="translate(1.875000, 0.000000)" fill="#333333" fill-rule="nonzero">
                                        <path d="M11.25,1.875 C11.25,0.839355469 10.4106445,0 9.375,0 C8.33935547,0 7.5,0.839355469 7.5,1.875 C7.5,2.72753906 8.06835938,3.44677734 8.84765625,3.67529297 L8.84765625,5.54296875 L5.62060547,8.76855469 L2.39501953,5.54296875 L2.39501953,3.67675781 C3.17724609,3.45117188 3.75,2.73046875 3.75,1.875 C3.75,0.839355469 2.91064453,0 1.875,0 C0.839355469,0 0,0.839355469 0,1.875 C0,2.72460938 0.565429687,3.44238281 1.34033203,3.67236328 L1.34033203,5.97070312 L1.3359375,5.97509766 L5.09765625,9.73681641 L5.09765625,11.324707 C4.31835938,11.5532227 3.75,12.2724609 3.75,13.125 C3.75,14.1606445 4.58935547,15 5.625,15 C6.66064453,15 7.5,14.1606445 7.5,13.125 C7.5,12.2724609 6.93164063,11.5532227 6.15234375,11.324707 L6.15234375,9.72949219 L9.90673828,5.97509766 L9.90234375,5.97070312 L9.90234375,3.67529297 C10.6816406,3.44677734 11.25,2.72753906 11.25,1.875 Z M1.0546875,1.875 C1.0546875,1.42236328 1.42236328,1.0546875 1.875,1.0546875 C2.32763672,1.0546875 2.6953125,1.42236328 2.6953125,1.875 C2.6953125,2.32763672 2.32763672,2.6953125 1.875,2.6953125 C1.42236328,2.6953125 1.0546875,2.32763672 1.0546875,1.875 Z M6.4453125,13.125 C6.4453125,13.5776367 6.07763672,13.9453125 5.625,13.9453125 C5.17236328,13.9453125 4.8046875,13.5776367 4.8046875,13.125 C4.8046875,12.6723633 5.17236328,12.3046875 5.625,12.3046875 C6.07763672,12.3046875 6.4453125,12.6723633 6.4453125,13.125 Z M9.375,2.6953125 C8.92236328,2.6953125 8.5546875,2.32763672 8.5546875,1.875 C8.5546875,1.42236328 8.92236328,1.0546875 9.375,1.0546875 C9.82763672,1.0546875 10.1953125,1.42236328 10.1953125,1.875 C10.1953125,2.32763672 9.82763672,2.6953125 9.375,2.6953125 Z" id="Shape"></path>
                                    </g>
                                </g>
                            </g>
                        </g>
                    </g>
                </g>
            </g>
        </g>
    </g>
</svg>