<?xml version="1.0" encoding="UTF-8"?>
<svg width="14px" height="14px" viewBox="0 0 14 14" version="1.1" xmlns="http://www.w3.org/2000/svg" xmlns:xlink="http://www.w3.org/1999/xlink">
    <!-- Generator: Sketch 60 (88103) - https://sketch.com -->
    <title>Shape</title>
    <desc>Created with Sketch.</desc>
    <g id="自立项目2-项目流程" stroke="none" stroke-width="1" fill="none" fill-rule="evenodd">
        <g id="我的项目管理-我的项目-自立项目14-项目流程-变更流程-审批" transform="translate(-636.000000, -135.000000)" fill="#333333" fill-rule="nonzero">
            <g id="编组-33" transform="translate(79.000000, 79.000000)">
                <g id="顶部悬浮按钮栏" transform="translate(0.000000, 38.000000)">
                    <g id="编组-5" transform="translate(312.000000, 10.000000)">
                        <g id="转办" transform="translate(237.000000, 0.000000)">
                            <g id="按钮-Button-基本样式-中号按钮-Copy-3" transform="translate(8.000000, 6.000000)">
                                <g id="Group-81" transform="translate(0.000000, 2.000000)">
                                    <g id="retweet" transform="translate(0.902344, 0.888672)">
                                        <path d="M4.08242187,3.47675781 L8.85390625,3.47675781 L7.22558594,5.10644531 C7.0328125,5.29921875 7.0328125,5.6109375 7.22558594,5.80234375 C7.32128906,5.89804688 7.44707031,5.94589844 7.57421875,5.94589844 C7.70136719,5.94589844 7.82578125,5.89804688 7.92285156,5.80234375 L10.3632812,3.36191406 C10.45625,3.26894531 10.5068359,3.14453125 10.5068359,3.01328125 C10.5068359,2.88203125 10.4548828,2.75761719 10.3632812,2.66464844 L7.85039063,0.153125 C7.65761719,-0.0396484375 7.34589844,-0.0396484375 7.15449219,0.153125 C6.96171875,0.345898438 6.96171875,0.657617188 7.15449219,0.849023438 L8.79785156,2.49238281 L4.08242187,2.49238281 C2.99140625,2.49238281 1.96601563,2.91757813 1.19492188,3.68867188 C0.425195312,4.45976563 0,5.48515625 0,6.57617188 C0,6.84824219 0.220117187,7.06835938 0.4921875,7.06835938 C0.764257813,7.06835938 0.984375,6.84824219 0.984375,6.57617188 C0.984375,5.74902344 1.30703125,4.96972656 1.8921875,4.38457031 C2.47734375,3.79941406 3.25527344,3.47675781 4.08242187,3.47675781 Z M11.7044922,5.16796875 C11.4324219,5.16796875 11.2123047,5.38808594 11.2123047,5.66015625 C11.2123047,6.48730469 10.8896484,7.26660156 10.3044922,7.85175781 C9.71933594,8.43691406 8.94140625,8.75957031 8.11289063,8.75957031 L3.34140625,8.75957031 L4.97109375,7.12988281 C5.16386719,6.93710937 5.16386719,6.62539062 4.97109375,6.43398437 C4.77832031,6.24121094 4.46660156,6.24121094 4.27519531,6.43398437 L1.83476563,8.87441406 C1.74179687,8.96738281 1.69121094,9.09179687 1.69121094,9.22304687 C1.69121094,9.35429687 1.74316406,9.47871094 1.83476563,9.57167969 L4.34628906,12.0832031 C4.44199219,12.1789062 4.56777344,12.2267578 4.69492188,12.2267578 C4.82207031,12.2267578 4.94648437,12.1789062 5.04355469,12.0832031 C5.23632812,11.8904297 5.23632812,11.5787109 5.04355469,11.3873047 L3.39882813,9.74257812 L8.11425781,9.74257812 C9.20527344,9.74257812 10.2306641,9.31738281 11.0017578,8.54628906 C11.7728516,7.77519531 12.1980469,6.74980469 12.1980469,5.65878906 C12.1966797,5.38808594 11.9765625,5.16796875 11.7044922,5.16796875 Z" id="Shape"></path>
                                    </g>
                                </g>
                            </g>
                        </g>
                    </g>
                </g>
            </g>
        </g>
    </g>
</svg>