<?xml version="1.0" encoding="UTF-8"?>
<svg width="20px" height="22px" viewBox="0 0 20 22" version="1.1" xmlns="http://www.w3.org/2000/svg" xmlns:xlink="http://www.w3.org/1999/xlink">
    <!-- Generator: Sketch 60 (88103) - https://sketch.com -->
    <title>合并形状</title>
    <desc>Created with Sketch.</desc>
    <defs>
        <linearGradient x1="89.1270124%" y1="97.2025746%" x2="10.8729876%" y2="0%" id="linearGradient-1">
            <stop stop-color="#0077FF" offset="0%"></stop>
            <stop stop-color="#05B3FF" offset="100%"></stop>
            <stop stop-color="#5533FF" offset="100%"></stop>
        </linearGradient>
    </defs>
    <g id="用户管理" stroke="none" stroke-width="1" fill="none" fill-rule="evenodd">
        <g id="用户管理-01用户权限管理" transform="translate(-320.000000, -357.000000)" fill="url(#linearGradient-1)" fill-rule="nonzero">
            <g id="编组-13" transform="translate(79.000000, 79.000000)">
                <g id="编组-3" transform="translate(230.000000, 160.000000)">
                    <g id="编组-5备份" transform="translate(0.000000, 113.000000)">
                        <path d="M20.5180643,5 C22.6573876,5 24.2976893,5.63559408 25.3936509,6.88920772 C27.068361,8.80430818 26.859121,11.4756298 26.7551057,12.2486356 C26.5470752,13.7932403 25.8946718,15.2269184 24.9581641,16.2543099 L29.5006746,20.2494444 L29.5010696,20.2496419 C29.8586067,20.5645248 30.0636259,21.0179164 30.0636259,21.4943448 L30.0636259,24.8925393 C30.0636259,25.8065852 29.3165622,26.5502426 28.3982707,26.5502426 L12.6657995,26.5502426 C11.7470884,26.5502426 11,25.8065852 11,24.8925393 L11,21.4931354 C11,21.0179131 11.2040345,20.5655615 11.5601373,20.250876 L16.1508049,16.1940087 C15.0495858,14.9246224 14.4943111,13.1772694 14.3975773,12.2215334 C14.2931671,11.1884894 14.2251647,8.59062515 15.8557659,6.78622915 C16.9270442,5.60101282 18.4957151,5 20.5180643,5 Z M20.739177,18.6761825 L20.324745,18.6761825 C19.8669692,18.6761825 19.495881,19.0472954 19.495881,19.5050465 L19.495881,19.5050465 L19.495881,23.6493173 L21.5680411,23.6493173 L21.5680411,19.5050465 C21.5680411,19.0472707 21.1969529,18.6761825 20.739177,18.6761825 L20.739177,18.6761825 Z" id="合并形状"></path>
                    </g>
                </g>
            </g>
        </g>
    </g>
</svg>