<?xml version="1.0" encoding="utf-8"?>
<!-- Generator: Adobe Illustrator 24.0.0, SVG Export Plug-In . SVG Version: 6.00 Build 0)  -->
<svg version="1.1" id="图层_1" xmlns="http://www.w3.org/2000/svg" xmlns:xlink="http://www.w3.org/1999/xlink" x="0px" y="0px"
	 viewBox="0 0 25 25" style="enable-background:new 0 0 25 25;" xml:space="preserve">
<style type="text/css">
	.st0{fill:#999999;}
	.st1{enable-background:new    ;}
	.st2{fill:#666666;}
</style>
<title>编组 9</title>
<desc>Created with Sketch.</desc>
<g id="集团统筹1-父项目">
	<g id="我的项目管理-我的项目" transform="translate(-369.000000, -491.000000)">
		<g id="编组-9" transform="translate(369.000000, 491.000000)">
			<g id="边框">
				<path class="st0" d="M12.5,25C5.6,25,0,19.4,0,12.5S5.6,0,12.5,0S25,5.6,25,12.5S19.4,25,12.5,25z M12.5,1C6.2,1,1,6.2,1,12.5
					C1,18.8,6.2,24,12.5,24C18.8,24,24,18.8,24,12.5C24,6.2,18.8,1,12.5,1z"/>
			</g>
			<g class="st1">
				<path class="st2" d="M18.7,12.7v0.9h-5.9l-0.5,1h5.4v3.1c0,0.8-0.4,1.2-1.2,1.2h-1L15.3,18l0.9,0c0.4,0,0.5-0.2,0.5-0.6v-2h-2.3
					v3.3h-1v-3.3h-2.1v3.3h-1v-3.3H8.4v3.5h-1v-4.4h3.8l0.5-1H6.3v-0.9H18.7z M17.9,6.5v0.8H13v0.9h5.4v2.9h-1V9H13v3.1h-1V9H7.6
					v2.1h-1V8.2H12V7.4H7.2V6.5H17.9z M11.3,9.8v0.7H8.4V9.8H11.3z M11.3,11.2v0.7H8.4v-0.7H11.3z M16.6,9.8v0.7h-2.9V9.8H16.6z
					 M16.7,11.2v0.7h-2.9v-0.7H16.7z"/>
			</g>
		</g>
	</g>
</g>
</svg>
