<?xml version="1.0" encoding="UTF-8"?>
<svg width="14px" height="14px" viewBox="0 0 14 14" version="1.1" xmlns="http://www.w3.org/2000/svg" xmlns:xlink="http://www.w3.org/1999/xlink">
    <!-- Generator: Sketch 60 (88103) - https://sketch.com -->
    <title>导入</title>
    <desc>Created with Sketch.</desc>
    <g id="研发计划管理3-全集团计划统筹" stroke="none" stroke-width="1" fill="none" fill-rule="evenodd">
        <g id="研发计划-02全集团计划统筹-03创新环境" transform="translate(-317.000000, -197.000000)" fill="#333333" fill-rule="nonzero">
            <g id="顶部悬浮按钮栏" transform="translate(309.000000, 189.000000)">
                <g id="转办">
                    <g id="按钮-Button-基本样式-中号按钮-Copy-3" transform="translate(8.000000, 6.000000)">
                        <path d="M6.6328125,13.2559437 C6.7375,13.3606429 6.8765625,13.4137739 7.015625,13.4137739 C7.1546875,13.4137739 7.2921875,13.3606429 7.3984375,13.2559437 L9.834375,10.8197343 C10.0453125,10.6087733 10.0453125,10.2665476 9.834375,10.0555866 C9.7328125,9.95401272 9.596875,9.89775645 9.453125,9.89775645 C9.309375,9.89775645 9.1734375,9.95401272 9.071875,10.0555866 L7.5578125,11.5698181 L7.5578125,2.54068534 C7.5578125,2.24221453 7.315625,2 7.0171875,2 C6.71875,2 6.4765625,2.24221453 6.4765625,2.54068534 L6.4765625,11.5698181 L4.9625,10.0555866 C4.7515625,9.84462552 4.409375,9.84462552 4.2,10.0555866 C3.9890625,10.2665476 3.9890625,10.6087733 4.1984375,10.8197343 L6.6328125,13.2559437 Z M13.459375,11.0072553 C13.1609375,11.0072553 12.91875,11.2494698 12.91875,11.5479406 L12.91875,14.6014064 C12.91875,14.7779886 12.775,14.9233173 12.596875,14.9233173 L1.4015625,14.9233173 C1.225,14.9233173 1.0796875,14.7795513 1.0796875,14.6014064 L1.0796875,11.5463779 C1.0796875,11.2479071 0.8375,11.0056926 0.5390625,11.0056926 C0.240625,11.0056926 0,11.2494698 0,11.5463779 L0,15.0295792 C0,15.5655765 0.4359375,16 0.9703125,16 L13.0296875,16 C13.565625,16 14,15.5640138 14,15.0295792 L14,11.5463779 C14,11.2494698 13.7578125,11.0072553 13.459375,11.0072553 Z" id="导入"></path>
                    </g>
                </g>
            </g>
        </g>
    </g>
</svg>