<?xml version="1.0" encoding="UTF-8"?>
<svg width="14px" height="14px" viewBox="0 0 14 14" version="1.1" xmlns="http://www.w3.org/2000/svg" xmlns:xlink="http://www.w3.org/1999/xlink">
    <!-- Generator: Sketch 60 (88103) - https://sketch.com -->
    <title>导出</title>
    <desc>Created with Sketch.</desc>
    <g id="研发计划管理2-本单位计划统筹" stroke="none" stroke-width="1" fill="none" fill-rule="evenodd">
        <g id="研发计划-01本单位计划统筹-02集团统筹研发项目" transform="translate(-317.000000, -198.000000)" fill="#000000" fill-rule="nonzero">
            <g id="顶部悬浮按钮栏" transform="translate(309.000000, 189.000000)">
                <g id="转办">
                    <g id="按钮-Button-基本样式-中号按钮-Copy-3" transform="translate(8.000000, 6.000000)">
                        <path d="M11.9544747,10.5809299 C11.6234328,10.5809299 11.352886,10.8497964 11.352886,11.1825186 L11.352886,14.6088855 C11.352886,14.7819683 11.2134115,14.9214427 11.0403287,14.9214427 L1.5123738,14.9214427 C1.33929102,14.9214427 1.19981655,14.7819683 1.19981655,14.6088855 L1.19981655,4.74316709 C1.19981655,4.57008431 1.33929102,4.43060983 1.5123738,4.43060983 L5.79071123,4.43060983 C6.12175305,4.43060983 6.39229992,4.16174338 6.39229992,3.82902115 C6.39229992,3.49629891 6.12343346,3.22743246 5.79071123,3.22743246 L1.51405421,3.22743246 C0.678887793,3.22743246 0,3.90632025 0,4.74148667 L0,14.6072051 C0,15.4406911 0.678887793,16.1195789 1.51405421,16.1195789 L11.0436895,16.1195789 C11.878856,16.1195789 12.5577438,15.4406911 12.5577438,14.6055247 L12.5577438,11.1825186 C12.5560633,10.8514768 12.2855165,10.5809299 11.9544747,10.5809299 Z M5.67308215,7.41110649 C4.95050356,8.50337646 4.77405995,9.57716185 4.7572558,9.69647134 C4.71188459,10.0258327 4.94042107,10.3316683 5.26642164,10.3770395 C5.29330829,10.3820808 5.32355577,10.3837612 5.35212283,10.3837612 C5.64787592,10.3837612 5.90329905,10.1619464 5.94698985,9.87291495 C5.9520311,9.83258498 6.10494889,8.9251607 6.69477467,8.04966432 C7.46944614,6.90026023 8.63397397,6.31379528 10.1497086,6.30875403 C10.1732344,6.31043445 10.1933994,6.31211487 10.2102035,6.31211487 C10.5412454,6.31211487 10.8117922,6.04324841 10.8117922,5.71052618 L10.8117922,5.00307132 L12.5006096,6.60954838 L10.8101118,8.01773643 L10.8101118,7.44303438 C10.8101118,7.11199256 10.5412454,6.84144569 10.2085231,6.84144569 C9.87748131,6.84144569 9.60693444,7.11031215 9.60693444,7.44303438 L9.60693444,9.30157374 C9.60693444,9.53347105 9.74304808,9.7468838 9.95478042,9.8460283 C10.0337599,9.88467786 10.1228219,9.90316243 10.2085231,9.90316243 C10.349678,9.90316243 10.4857917,9.85274997 10.5916578,9.76536837 L13.7861274,7.1052709 C13.9171998,6.99268307 13.9961793,6.83304362 13.9995401,6.66332167 C14.0062618,6.49191931 13.9390452,6.32555819 13.8146944,6.2062487 L10.6219053,3.16637737 C10.4471421,2.99833583 10.191719,2.95464504 9.97158457,3.04874829 C9.74976974,3.14453197 9.60861486,3.36130555 9.60861486,3.60160494 L9.60861486,5.12910247 C8.66678169,5.20777589 7.90769461,5.48155665 7.29977315,5.84482891 C6.54428796,6.29628001 6.02226142,6.88594087 5.67308215,7.41110649 Z" id="导出" transform="translate(7.000000, 9.559789) rotate(-180.000000) translate(-7.000000, -9.559789) "></path>
                    </g>
                </g>
            </g>
        </g>
    </g>
</svg>