<?xml version="1.0" encoding="UTF-8"?>
<svg width="13px" height="13px" viewBox="0 0 13 13" version="1.1" xmlns="http://www.w3.org/2000/svg" xmlns:xlink="http://www.w3.org/1999/xlink">
    <!-- Generator: Sketch 60 (88103) - https://sketch.com -->
    <title>导出</title>
    <desc>Created with Sketch.</desc>
    <g id="测试任务流程设计" stroke="none" stroke-width="1" fill="none" fill-rule="evenodd">
        <g id="图标" transform="translate(-545.000000, -409.000000)" fill="#0B82FF" fill-rule="nonzero">
            <g id="导出" transform="translate(545.000000, 409.000000)">
                <path d="M11.5186545,12.9171701 L0.584210069,12.9171701 C0.266432292,12.9171701 0.00643229167,12.6571701 0.00643229167,12.3393924 L0.00643229167,4.43828125 C0.00643229167,4.12050347 0.266432292,3.86050347 0.584210069,3.86050347 L3.50198785,3.86050347 L3.50198785,4.72717014 L0.873098958,4.72717014 L0.873098958,12.0432813 L11.2297656,12.0432813 L11.2297656,4.72717014 L8.41309896,4.72717014 L8.41309896,3.86050347 L11.5186545,3.86050347 C11.8364323,3.86050347 12.0964323,4.12050347 12.0964323,4.43828125 L12.0964323,12.3321701 C12.0964323,12.6571701 11.8364323,12.9171701 11.5186545,12.9171701 Z" id="路径"></path>
                <path d="M3.06865451,4.29383681 C3.06865451,4.5331602 3.26266446,4.72717014 3.50198785,4.72717014 C3.74131124,4.72717014 3.93532118,4.5331602 3.93532118,4.29383681 C3.93532118,4.05451341 3.74131124,3.86050347 3.50198785,3.86050347 C3.26266446,3.86050347 3.06865451,4.05451341 3.06865451,4.29383681 Z" id="路径"></path>
                <path d="M3.10476563,2.82772569 C3.10476563,3.06704909 3.29877557,3.26105903 3.53809896,3.26105903 C3.77742235,3.26105903 3.97143229,3.06704909 3.97143229,2.82772569 C3.97143229,2.5884023 3.77742235,2.39439236 3.53809896,2.39439236 C3.29877557,2.39439236 3.10476563,2.5884023 3.10476563,2.82772569 Z" id="路径"></path>
                <path d="M8.1675434,2.84939236 C8.1675434,3.00420746 8.25013626,3.14726251 8.38421006,3.22467006 C8.51828387,3.30207761 8.68346961,3.30207761 8.81754341,3.22467006 C8.95161721,3.14726251 9.03421007,3.00420746 9.03421007,2.84939236 C9.03421007,2.61006897 8.84020013,2.41605903 8.60087674,2.41605903 C8.36155334,2.41605903 8.1675434,2.61006897 8.1675434,2.84939236 Z" id="路径"></path>
                <path d="M5.62532118,0.444392361 C5.62532118,0.683715753 5.81933112,0.877725694 6.05865451,0.877725694 C6.29797791,0.877725694 6.49198785,0.683715753 6.49198785,0.444392361 C6.49198785,0.20506897 6.29797791,0.0110590278 6.05865451,0.0110590278 C5.81933112,0.0110590278 5.62532118,0.20506897 5.62532118,0.444392361 L5.62532118,0.444392361 Z" id="路径"></path>
                <path d="M7.97976563,4.29383681 C7.97976563,4.5331602 8.17377557,4.72717014 8.41309896,4.72717014 C8.65242235,4.72717014 8.84643229,4.5331602 8.84643229,4.29383681 C8.84643229,4.13902171 8.76383944,3.99596666 8.62976563,3.91855911 C8.49569183,3.84115156 8.33050609,3.84115156 8.19643228,3.91855911 C8.06235848,3.99596666 7.97976563,4.13902171 7.97976563,4.29383681 L7.97976563,4.29383681 Z" id="路径"></path>
                <path d="M6.10198785,9.30605903 L6.02976563,9.30605903 C5.81309896,9.30605903 5.6325434,9.12550347 5.6325434,8.90883681 L5.6325434,1.34717014 C5.6325434,1.13050347 5.81309896,0.949947917 6.02976563,0.949947917 L6.10198785,0.949947917 C6.31865451,0.949947917 6.49921007,1.13050347 6.49921007,1.34717014 L6.49921007,8.90883681 C6.49921007,9.12550347 6.31865451,9.30605903 6.10198785,9.30605903 Z" id="路径"></path>
                <polygon id="路径" points="3.26314896 2.49117014 5.76593785 0.123797917 6.36148229 0.75343125 3.8586934 3.12087569"></polygon>
                <polygon id="路径" points="5.75972674 0.755814583 6.3553434 0.12618125 8.85813229 2.49362569 8.26251562 3.12325903"></polygon>
            </g>
        </g>
    </g>
</svg>