<?xml version="1.0" encoding="UTF-8"?>
<svg width="76px" height="24px" viewBox="0 0 76 24" version="1.1" xmlns="http://www.w3.org/2000/svg" xmlns:xlink="http://www.w3.org/1999/xlink">
    <!-- Generator: Sketch 60 (88103) - https://sketch.com -->
    <title>支撑中心+字</title>
    <desc>Created with Sketch.</desc>
    <g id="首页+我的工作台" stroke="none" stroke-width="1" fill="none" fill-rule="evenodd">
        <g id="首页03-点击头像设置" transform="translate(-97.000000, -915.000000)" fill="#0085D0" fill-rule="nonzero">
            <g id="编组-23" transform="translate(79.000000, 79.000000)">
                <g id="编组" transform="translate(18.000000, 836.000000)">
                    <g id="支撑中心+字" transform="translate(0.000000, 0.792000)">
                        <g id="支撑中心">
                            <path d="M8.20512,20.48112 C9.32976,21.41568 10.5336,22.23936 11.81664,22.95216 C16.90128,20.0376 20.7504,15.23808 22.42944,9.504 C21.384,8.66448 20.24352,7.95168 19.02384,7.38144 C19.02384,7.38144 19.02384,7.38144 19.02384,7.3656 C18.83376,8.18928 18.59616,8.98128 18.2952,9.75744 C18.31104,9.72576 18.32688,9.69408 18.32688,9.6624 C18.31104,9.69408 18.2952,9.72576 18.2952,9.75744 C18.26352,9.83664 18.23184,9.9 18.216,9.9792 C18.15264,10.15344 18.07344,10.32768 18.01008,10.50192 C17.9784,10.58112 17.94672,10.66032 17.8992,10.73952 C17.82,10.89792 17.75664,11.07216 17.67744,11.23056 C17.64576,11.30976 17.59824,11.38896 17.56656,11.45232 C17.47152,11.6424 17.37648,11.81664 17.28144,12.00672 C17.24976,12.05424 17.23392,12.10176 17.20224,12.14928 C17.07552,12.38688 16.9488,12.60864 16.80624,12.8304 C16.7904,12.86208 16.77456,12.89376 16.75872,12.92544 C16.64784,13.11552 16.52112,13.3056 16.3944,13.49568 C16.34688,13.55904 16.3152,13.6224 16.26768,13.68576 C16.1568,13.84416 16.06176,13.98672 15.95088,14.14512 C15.90336,14.20848 15.85584,14.27184 15.80832,14.35104 C15.69744,14.50944 15.58656,14.652 15.45984,14.79456 C15.41232,14.85792 15.3648,14.90544 15.31728,14.9688 C15.17472,15.15888 15.01632,15.33312 14.85792,15.50736 C14.84208,15.5232 14.82624,15.53904 14.8104,15.55488 C14.63616,15.7608 14.46192,15.95088 14.27184,16.14096 C14.24016,16.17264 14.20848,16.20432 14.1768,16.236 C14.03424,16.3944 13.87584,16.5528 13.71744,16.69536 C13.66992,16.74288 13.60656,16.7904 13.55904,16.85376 C13.41648,16.98048 13.27392,17.12304 13.13136,17.24976 C13.068,17.29728 13.02048,17.3448 12.95712,17.40816 C12.79872,17.53488 12.65616,17.67744 12.49776,17.80416 C12.45024,17.83584 12.40272,17.88336 12.3552,17.91504 C12.14928,18.08928 11.94336,18.24768 11.7216,18.40608 C10.67616,19.22976 9.47232,19.92672 8.20512,20.48112 Z" id="路径"></path>
                            <path d="M11.73744,0 C7.4448,0 3.43728,1.188 0,3.2472 C0.0792,9.51984 2.6928,15.19056 6.87456,19.27728 C8.64864,18.46944 9.83664,17.69328 10.39104,17.29728 C6.98544,14.3352 4.62528,10.16928 4.00752,5.48064 C6.36768,4.41936 8.99712,3.83328 11.75328,3.83328 C14.46192,3.83328 17.04384,4.40352 19.37232,5.43312 C20.63952,5.98752 21.82752,6.66864 22.92048,7.47648 C23.18976,6.08256 23.33232,4.64112 23.34816,3.168 C19.94256,1.15632 15.98256,0 11.73744,0 Z" id="路径"></path>
                        </g>
                        <g id="编组-24" transform="translate(33.422400, 0.000000)">
                            <g id="编组" transform="translate(40.233600, 0.950400)">
                                <polygon id="路径" points="1.9008 2.2176 0.83952 2.2176 1.15632 0.04752 2.23344 0.04752"></polygon>
                                <polygon id="路径" points="1.188 7.30224 0.11088 7.30224 0.44352 5.13216 1.5048 5.13216"></polygon>
                            </g>
                            <g id="编组">
                                <path d="M1.93248,7.8408 L3.7224,6.9696 L3.84912,6.24096 L5.40144,6.24096 L5.24304,7.00128 L6.74784,7.82496 C6.85872,7.88832 7.00128,7.95168 7.128,7.95168 L8.5536,7.95168 L8.4744,8.74368 L6.62112,8.74368 C6.32016,8.712 6.0984,8.66448 5.95584,8.58528 L4.10256,7.49232 L1.88496,8.58528 C1.72656,8.68032 1.61568,8.74368 1.23552,8.74368 L0.14256,8.74368 L0.22176,7.95168 L1.584,7.95168 C1.67904,7.95168 1.80576,7.92 1.93248,7.8408 Z M1.56816,7.15968 L0.3168,7.15968 L0.52272,4.87872 L8.77536,4.87872 L8.56944,7.15968 L7.31808,7.15968 L7.42896,5.90832 L1.6632,5.90832 L1.56816,7.15968 Z M4.4352,0.38016 L4.49856,0.04752 L5.7816,0.04752 L5.74992,0.396 L9.20304,0.396 L9.108,1.1088 L5.67072,1.1088 L5.59152,1.83744 L9.12384,1.83744 L9.0288,2.86704 L5.48064,2.86704 L5.40144,3.6432 L9.01296,3.6432 L8.91792,4.356 L0.5544,4.356 L0.64944,3.6432 L4.07088,3.6432 L4.16592,2.86704 L0.68112,2.86704 L0.77616,1.83744 L4.24512,1.83744 L4.34016,1.09296 L0.80784,1.09296 L0.90288,0.38016 L4.4352,0.38016 Z" id="形状"></path>
                                <path d="M10.26432,1.9008 L10.4544,1.9008 C10.59696,1.93248 10.73952,1.83744 10.8504,1.63152 L11.67408,0.0792 L12.9888,0.0792 L12.29184,1.56816 L11.6424,8.75952 L10.28016,8.75952 L10.80288,2.97792 L10.16928,2.97792 L10.26432,1.9008 Z M17.61408,0.30096 L17.64576,0.14256 L18.78624,0.14256 L18.73872,0.34848 C18.612,0.82368 18.42192,1.07712 18.1368,1.07712 L16.4736,1.07712 L16.25184,3.96 L18.54864,3.96 L18.4536,5.02128 L16.10928,5.02128 L15.82416,8.0784 L18.07344,8.0784 L17.9784,8.6328 L12.13344,8.6328 L12.22848,8.0784 L14.4936,8.0784 L14.79456,5.02128 L12.49776,5.02128 L12.5928,3.96 L14.93712,3.96 L15.15888,1.12464 L12.97296,1.12464 L13.08384,0.45936 L17.31312,0.45936 C17.43984,0.45936 17.59824,0.42768 17.61408,0.30096 Z" id="形状"></path>
                                <path d="M22.85712,8.49024 L19.41984,8.49024 L19.73664,4.95792 L24.02928,4.95792 L23.77584,7.69824 C23.6808,8.14176 23.364,8.41104 22.85712,8.49024 Z M20.38608,3.42144 L20.196,1.584 L21.44736,1.584 L21.7008,3.42144 L22.71456,3.42144 L23.14224,1.53648 L24.42528,1.53648 L23.95008,3.42144 L24.36192,3.42144 L24.26688,4.53024 L19.6416,4.53024 L19.73664,3.42144 L20.38608,3.42144 Z M20.196,0.53856 L21.7008,0.53856 L21.74832,0.04752 L23.11056,0.04752 L23.06304,0.53856 L24.48864,0.53856 L24.37776,1.20384 L20.08512,1.20384 L20.196,0.53856 Z M20.44944,7.93584 L22.46112,7.93584 C22.58784,7.93584 22.77792,7.79328 22.79376,7.57152 L22.968,5.544 L20.6712,5.544 L20.44944,7.93584 Z M25.1856,0.11088 L28.512,0.11088 L28.21104,3.45312 C28.14768,3.91248 27.97344,4.15008 27.68832,4.18176 C27.9576,4.26096 28.06848,4.56192 28.02096,5.10048 L27.7992,7.57152 C27.7992,8.0784 27.49824,8.33184 26.89632,8.33184 L25.47072,8.33184 L25.43904,8.68032 L24.3936,8.68032 L25.1856,0.11088 Z M26.928,7.00128 L27.10224,5.13216 C27.10224,4.92624 27.02304,4.81536 26.91216,4.78368 L25.83504,4.78368 L25.61328,7.25472 L26.64288,7.25472 C26.81712,7.2864 26.91216,7.2072 26.928,7.00128 Z M25.93008,3.69072 L27.03888,3.69072 C27.19728,3.69072 27.27648,3.61152 27.29232,3.46896 L27.49824,1.21968 L26.16768,1.21968 L25.93008,3.69072 Z" id="形状"></path>
                                <path d="M29.08224,8.8704 L29.79504,0.99792 L31.18896,0.99792 L30.47616,8.8704 L29.08224,8.8704 Z M31.39488,0.83952 L31.01472,0 L32.17104,0 L32.44032,0.58608 C32.51952,0.74448 32.5512,0.88704 32.67792,0.8712 L33.01056,0.8712 L32.89968,1.2672 L31.96512,1.2672 C31.66416,1.25136 31.53744,1.14048 31.39488,0.83952 Z M33.27984,0.85536 L33.39072,0.11088 L38.0952,0.11088 L37.41408,7.6032 C37.36656,8.36352 37.00224,8.72784 36.28944,8.712 L33.94512,8.712 L34.056,7.57152 L35.83008,7.57152 C35.9568,7.6032 36.02016,7.53984 36.036,7.38144 L36.5904,0.85536 L33.27984,0.85536 Z" id="形状"></path>
                            </g>
                        </g>
                        <g id="编组-25" transform="translate(33.422400, 13.939200)">
                            <g id="编组">
                                <path d="M1.07712,0.98208 L0.80784,0.98208 L0.8712,0.41184 L5.0688,0.41184 L5.00544,0.98208 L4.73616,0.98208 L4.16592,7.38144 L4.4352,7.38144 L4.32432,8.52192 L4.05504,8.52192 L4.00752,9.01296 L2.6928,9.01296 L2.74032,8.52192 L0.14256,8.52192 L0.25344,7.38144 L0.52272,7.38144 L1.07712,0.98208 Z M1.3464,7.38144 L2.83536,7.38144 L2.99376,5.89248 L1.5048,5.89248 L1.3464,7.38144 Z M3.19968,3.59568 L1.71072,3.59568 L1.56816,5.25888 L3.05712,5.25888 L3.19968,3.59568 Z M3.42144,0.98208 L1.93248,0.98208 L1.77408,2.96208 L3.26304,2.96208 L3.42144,0.98208 Z M8.12592,7.80912 C8.14176,7.96752 8.316,7.9992 8.49024,7.96752 L8.69616,7.98336 L8.60112,8.98128 L7.80912,8.98128 C7.38144,8.98128 7.14384,8.80704 7.09632,8.44272 L6.336,6.336 L5.6232,8.52192 C5.51232,8.8704 5.3064,9.04464 4.97376,9.01296 L4.4352,9.01296 L4.53024,7.95168 L4.9104,7.95168 C5.05296,7.98336 5.17968,7.88832 5.27472,7.6824 L5.89248,5.7816 L4.73616,5.7816 L4.8312,4.6728 L6.0984,4.6728 L6.35184,3.168 L4.92624,3.168 L5.02128,2.5344 L9.17136,2.5344 L9.07632,3.168 L7.7616,3.168 L7.50816,4.6728 L8.98128,4.6728 L8.88624,5.7816 L7.47648,5.7816 M5.32224,1.67904 L5.10048,0.34848 L6.38352,0.34848 L6.51024,0.9504 C6.4944,1.12464 6.5736,1.20384 6.74784,1.17216 L6.9696,1.17216 L6.87456,2.20176 L5.94,2.20176 C5.57568,2.23344 5.36976,2.0592 5.32224,1.67904 Z M8.316,0.34848 L9.51984,0.34848 L9.108,1.59984 C8.96544,2.07504 8.64864,2.28096 8.18928,2.20176 L7.39728,2.20176 L7.49232,1.17216 L7.79328,1.17216 C7.92,1.17216 8.01504,1.09296 8.0784,0.9504 L8.316,0.34848 Z" id="形状"></path>
                                <path d="M10.58112,7.65072 L11.43648,6.0984 L12.30768,6.0984 L11.02464,8.56944 C10.9296,8.82288 10.70784,8.93376 10.35936,8.91792 L9.59904,8.91792 L9.69408,7.80912 L10.3752,7.80912 C10.4544,7.82496 10.51776,7.77744 10.58112,7.65072 Z M17.04384,2.58192 L13.33728,4.87872 L17.05968,4.87872 C17.23392,4.9104 17.64576,4.81536 17.6616,4.60944 L17.7408,3.50064 L18.70704,3.50064 L18.59616,4.72032 C18.50112,5.48064 18.20016,5.6232 17.45568,5.67072 L14.652,5.67072 L14.35104,8.9496 L12.95712,8.9496 L13.25808,5.71824 L9.91584,5.71824 L10.02672,4.84704 L11.0088,4.86288 L13.98672,3.23136 L10.10592,3.23136 L10.2168,2.5344 L12.78288,1.2672 L10.296,1.2672 L10.39104,0.6336 L17.47152,0.6336 C17.64576,0.66528 17.7408,0.58608 17.75664,0.41184 L17.77248,0.25344 L18.97632,0.25344 L18.9288,0.82368 C18.91296,1.06128 18.46944,1.21968 17.8992,1.2672 L15.444,1.2672 L13.17888,2.66112 L17.04384,2.58192 Z M15.7608,8.44272 L15.00048,6.08256 L16.3152,6.08256 L16.85376,7.63488 C16.88544,7.80912 16.9488,7.80912 17.13888,7.82496 L18.2952,7.82496 L18.20016,8.88624 L17.23392,8.88624 C16.64784,8.91792 15.96672,8.82288 15.7608,8.44272 Z" id="形状"></path>
                                <path d="M19.92672,0.792 L23.47488,0.792 L23.5224,0.22176 L25.0272,0.22176 L24.97968,0.792 L28.5912,0.792 L28.48032,1.93248 L22.03344,1.93248 L21.97008,3.92832 L27.9576,3.92832 L27.4824,7.87248 C27.46656,8.53776 26.88048,8.85456 25.69248,8.85456 L22.74624,8.85456 L22.84128,7.74576 L25.93008,7.74576 C26.02512,7.74576 26.10432,7.66656 26.136,7.524 L26.46864,4.752 L21.79584,4.752 L21.44736,7.65072 C21.3048,8.37936 20.86128,8.7912 20.13264,8.8704 L19.15056,8.8704 L19.2456,7.80912 L19.65744,7.80912 C19.92672,7.8408 20.08512,7.66656 20.1168,7.31808 L20.60784,1.99584 L19.78416,1.99584 L19.92672,0.792 Z" id="路径"></path>
                                <path d="M29.52576,4.40352 L29.6208,3.76992 L34.452,3.76992 L34.35696,4.40352 L32.69376,4.40352 L32.34528,7.65072 L34.11936,7.65072 L34.02432,8.68032 L28.93968,8.68032 L29.03472,7.65072 L30.99888,7.65072 L31.34736,4.40352 L29.52576,4.40352 L29.52576,4.40352 Z M29.58912,1.0296 L34.72128,1.0296 L34.65792,0.0792 L35.97264,0.0792 L36.06768,1.0296 L36.828,1.0296 C36.9072,1.06128 36.93888,1.01376 36.95472,0.91872 L37.01808,0.2376 L38.22192,0.2376 L38.12688,1.2672 C38.04768,1.8216 37.76256,2.10672 37.25568,2.10672 L36.13104,2.10672 L36.38448,7.50816 C36.3528,7.66656 36.432,7.72992 36.6696,7.72992 L37.5408,7.72992 L37.44576,8.7912 L36.1152,8.7912 C35.35488,8.83872 34.97472,8.4744 34.97472,7.6824 L34.7688,2.12256 L29.49408,2.12256 L29.58912,1.0296 Z" id="形状"></path>
                            </g>
                            <g id="编组" transform="translate(40.075200, 1.108800)">
                                <polygon id="路径" points="1.9008 2.2176 0.83952 2.2176 1.15632 0.04752 2.23344 0.04752"></polygon>
                                <polygon id="路径" points="1.188 7.30224 0.11088 7.30224 0.44352 5.13216 1.5048 5.13216"></polygon>
                            </g>
                        </g>
                    </g>
                </g>
            </g>
        </g>
    </g>
</svg>