<?xml version="1.0" encoding="UTF-8"?>
<svg width="43px" height="31px" viewBox="0 0 43 31" version="1.1" xmlns="http://www.w3.org/2000/svg" xmlns:xlink="http://www.w3.org/1999/xlink">
    <!-- Generator: Sketch 60 (88103) - https://sketch.com -->
    <title>4</title>
    <desc>Created with Sketch.</desc>
    <defs>
        <linearGradient x1="100%" y1="73.5790434%" x2="0%" y2="25.0235622%" id="linearGradient-1">
            <stop stop-color="#0077FF" offset="0%"></stop>
            <stop stop-color="#05B3FF" offset="100%"></stop>
            <stop stop-color="#5533FF" offset="100%"></stop>
        </linearGradient>
    </defs>
    <g id="首页+我的工作台" stroke="none" stroke-width="1" fill="none" fill-rule="evenodd">
        <g id="005-发起申请备份" transform="translate(-459.000000, -23.000000)" fill="url(#linearGradient-1)" fill-rule="nonzero">
            <path d="M495.588428,23 C496.915646,23 498.00675,24.038015 498.091915,25.344221 L498.097266,25.5088379 L498.097509,41.0003879 C498.065037,41.0001295 498.032533,41 498,41 C491.372583,41 486,46.372583 486,53 C486,53.1311397 486.002104,53.261788 486.006279,53.3919132 L461.513672,53.3912598 C460.181812,53.3912598 459.090523,52.3532448 459.005351,51.0470388 L459,50.8824219 L459,25.5136719 C459,24.1818125 460.038015,23.0905231 461.348498,23.0053509 L461.513672,23 L495.588428,23 Z M497.22759,44.8001899 L501.841757,47.6108195 C501.941357,47.6888156 502,47.8128094 502,47.9458027 L502,52.9762805 C502,53.2052691 501.827795,53.3912598 501.614633,53.3912598 L498.59181,53.3912598 L498.59181,51.8912598 C498.59181,51.0628326 497.920237,50.3912598 497.09181,50.3912598 C496.263383,50.3912598 495.59181,51.0628326 495.59181,51.8912598 L495.59181,53.3912598 L492.386298,53.3912598 C492.173136,53.3912598 492,53.2052691 492,52.9762805 L492,47.9458027 C492,47.8128094 492.058643,47.6888156 492.159173,47.6108195 L496.77241,44.8001899 C496.908312,44.6941952 497.091688,44.6941952 497.22759,44.8001899 Z M482.148574,44 L476.890314,44 C476.228058,44 475.686652,44.5414063 475.686652,45.2036621 C475.686652,45.865918 476.228058,46.4073242 476.890314,46.4073242 L482.148574,46.4073242 C482.81083,46.4073242 483.352236,45.865918 483.352236,45.2036621 C483.352236,44.5414063 482.815664,44 482.148574,44 Z M485.304471,37 L476.890314,37 C476.228058,37 475.686652,37.5414063 475.686652,38.2036621 C475.686652,38.865918 476.228058,39.4073242 476.890314,39.4073242 L485.304471,39.4073242 C485.966727,39.4073242 486.508133,38.865918 486.508133,38.2036621 C486.508133,37.5414063 485.971561,37 485.304471,37 Z M470,30 L466,30 C464.895431,30 464,30.8954305 464,32 L464,32 L464,36 C464,37.1045695 464.895431,38 466,38 L466,38 L470,38 C471.104569,38 472,37.1045695 472,36 L472,36 L472,32 C472,30.8954305 471.104569,30 470,30 L470,30 Z M491.16458,30 L476.890314,30 C476.228058,30 475.686652,30.5414063 475.686652,31.2036621 C475.686652,31.865918 476.228058,32.4073242 476.890314,32.4073242 L491.16458,32.4073242 C491.826836,32.4073242 492.368242,31.865918 492.368242,31.2036621 C492.368242,30.5414063 491.831669,30 491.16458,30 Z" id="4"></path>
        </g>
    </g>
</svg>