<?xml version="1.0" encoding="UTF-8"?>
<svg width="34px" height="35px" viewBox="0 0 34 35" version="1.1" xmlns="http://www.w3.org/2000/svg" xmlns:xlink="http://www.w3.org/1999/xlink">
    <!-- Generator: Sketch 60 (88103) - https://sketch.com -->
    <title>7</title>
    <desc>Created with Sketch.</desc>
    <defs>
        <linearGradient x1="97.1836735%" y1="97.2025746%" x2="2.81632653%" y2="0%" id="linearGradient-1">
            <stop stop-color="#0077FF" offset="0%"></stop>
            <stop stop-color="#05B3FF" offset="100%"></stop>
            <stop stop-color="#5533FF" offset="100%"></stop>
        </linearGradient>
    </defs>
    <g id="首页+我的工作台" stroke="none" stroke-width="1" fill="none" fill-rule="evenodd">
        <g id="005-发起申请备份" transform="translate(-376.000000, -63.000000)" fill="url(#linearGradient-1)">
            <path d="M407,63 C408.656854,63 410,64.3431458 410,66 L410,95 C410,96.6568542 408.656854,98 407,98 C405.343146,98 404,96.6568542 404,95 L404,66 C404,64.3431458 405.343146,63 407,63 Z M400,63 C401.656854,63 403,64.3431458 403,66 L403,95 C403,96.6568542 401.656854,98 400,98 L379,98 C377.343146,98 376,96.6568542 376,95 L376,66 C376,64.3431458 377.343146,63 379,63 L400,63 Z M395.452115,75.1029006 C395.342886,74.342434 394.578283,73.9078817 393.922908,74.0165198 C393.267534,74.1251579 392.830617,74.8856244 393.049076,75.5374529 C393.049076,75.5374529 393.267534,77.0583861 392.175243,78.3620431 C391.30141,79.4484239 389.553745,80.1002524 387.369163,80.3175285 L387.369163,80.3175285 L388.679912,78.9052335 C389.116829,78.3620431 389.116829,77.6015765 388.570683,77.0583861 C388.024538,76.5151957 387.259934,76.5151957 386.713789,77.0583861 L386.713789,77.0583861 L383.327687,80.7520809 C383.109229,80.969357 383,81.4039094 383,81.7298236 C383,82.1643759 383.109229,82.4902902 383.436916,82.7075664 L383.436916,82.7075664 L387.259934,85.8580707 C387.80608,86.2926231 388.679912,86.183985 389.116829,85.6407946 C389.553745,85.0976042 389.444516,84.2284995 388.89837,83.7939472 L388.89837,83.7939472 L387.80608,82.9248425 C390.536807,82.5989283 392.721388,81.7298236 394.032137,80.1002524 C395.889032,77.8188527 395.452115,75.2115387 395.452115,75.1029006 Z" id="7"></path>
        </g>
    </g>
</svg>