<?xml version="1.0" encoding="UTF-8"?>
<svg width="40px" height="36px" viewBox="0 0 40 36" version="1.1" xmlns="http://www.w3.org/2000/svg" xmlns:xlink="http://www.w3.org/1999/xlink">
    <!-- Generator: Sketch 60 (88103) - https://sketch.com -->
    <title>16</title>
    <desc>Created with Sketch.</desc>
    <defs>
        <linearGradient x1="100%" y1="86.6531307%" x2="0%" y2="11.1746488%" id="linearGradient-1">
            <stop stop-color="#0077FF" offset="0%"></stop>
            <stop stop-color="#05B3FF" offset="100%"></stop>
            <stop stop-color="#5533FF" offset="100%"></stop>
        </linearGradient>
    </defs>
    <g id="首页+我的工作台" stroke="none" stroke-width="1" fill="none" fill-rule="evenodd">
        <g id="005-发起申请备份" transform="translate(-566.000000, -244.000000)" fill="url(#linearGradient-1)" fill-rule="nonzero">
            <path d="M601.7064,276.5179 C602.4454,276.5179 603.0444,277.1309 603.0444,277.8879 C603.0444,278.6449 602.4454,279.2579 601.7064,279.2579 L597.2754,279.2579 C596.5364,279.2579 595.9374,278.6449 595.9374,277.8879 C595.9374,277.1309 596.5364,276.5179 597.2754,276.5179 L601.7064,276.5179 Z M596.939,244 C598.458,244 599.7,245.242 599.7,246.761 L599.7,246.761 L599.7,260.78 C599.629,260.777 599.562,260.758 599.491,260.758 C596.819,260.758 594.646,262.968 594.646,265.684 C594.646,267.284 595.41,268.763 596.653,269.677 L596.653,269.677 L596.653,270.693 L594.636,270.693 C592.913,270.693 591.511,271.98 591.511,273.563 C591.511,275.146 592.913,276.433 594.636,276.433 L594.636,276.433 L594.83,276.433 C594.581,276.86 594.437,277.358 594.437,277.888 C594.437,278.326 594.542,278.737 594.717,279.109 L594.717,279.109 L568.76,279.109 C567.242,279.109 566,277.867 566,276.348 L566,276.348 L566,246.761 C566,245.242 567.242,244 568.76,244 L568.76,244 Z M599.4904,262.2579 C601.3374,262.2579 602.8354,263.7919 602.8354,265.6839 C602.8354,267.0889 602.0094,268.2959 600.8284,268.8249 L600.8284,272.1929 L604.3864,272.1929 C605.2844,272.1929 606.0114,272.8069 606.0114,273.5629 C606.0114,274.3199 605.2844,274.9329 604.3864,274.9329 L594.6364,274.9329 C593.7394,274.9329 593.0114,274.3199 593.0114,273.5629 C593.0114,272.8069 593.7394,272.1929 594.6364,272.1929 L598.1534,272.1929 L598.1534,268.8249 C596.9724,268.2959 596.1464,267.0889 596.1464,265.6839 C596.1464,263.7919 597.6444,262.2579 599.4904,262.2579 Z M573.88028,253.493433 C573.392125,253.005277 572.600669,253.005277 572.112513,253.493433 C571.624358,253.981588 571.624358,254.773044 572.112513,255.2612 L572.112513,255.2612 L574.587387,257.736073 L572.112513,260.210947 C571.624358,260.699103 571.624358,261.490559 572.112513,261.978714 C572.600669,262.466869 573.392125,262.466869 573.88028,261.978714 L573.88028,261.978714 L576.355154,259.50384 L578.830028,261.978714 C579.318183,262.466869 580.109639,262.466869 580.597795,261.978714 C581.08595,261.490559 581.08595,260.699103 580.597795,260.210947 L580.597795,260.210947 L578.122921,257.736073 L580.597795,255.2612 C581.08595,254.773044 581.08595,253.981588 580.597795,253.493433 C580.109639,253.005277 579.318183,253.005277 578.830028,253.493433 L578.830028,253.493433 L576.355154,255.968306 Z M589.275544,259.679002 L585.651499,259.679002 C584.907256,259.679002 584.303918,260.274355 584.303918,261.00875 C584.303918,261.743145 584.907256,262.338498 585.651499,262.338498 L585.651499,262.338498 L589.275544,262.338498 C590.019788,262.338498 590.623125,261.743145 590.623125,261.00875 C590.623125,260.274355 590.019788,259.679002 589.275544,259.679002 L589.275544,259.679002 Z M593.61023,253.679002 L585.651499,253.679002 C584.907256,253.679002 584.303918,254.274355 584.303918,255.00875 C584.303918,255.743145 584.907256,256.338498 585.651499,256.338498 L585.651499,256.338498 L593.61023,256.338498 C594.354474,256.338498 594.957811,255.743145 594.957811,255.00875 C594.957811,254.274355 594.354474,253.679002 593.61023,253.679002 L593.61023,253.679002 Z" id="16"></path>
        </g>
    </g>
</svg>