<?xml version="1.0" encoding="UTF-8"?>
<svg width="38px" height="36px" viewBox="0 0 38 36" version="1.1" xmlns="http://www.w3.org/2000/svg" xmlns:xlink="http://www.w3.org/1999/xlink">
    <!-- Generator: Sketch 60 (88103) - https://sketch.com -->
    <title>21</title>
    <desc>Created with Sketch.</desc>
    <defs>
        <linearGradient x1="100%" y1="92.0588244%" x2="0%" y2="5.44859073%" id="linearGradient-1">
            <stop stop-color="#0077FF" offset="0%"></stop>
            <stop stop-color="#05B3FF" offset="100%"></stop>
            <stop stop-color="#5533FF" offset="100%"></stop>
        </linearGradient>
    </defs>
    <g id="首页+我的工作台" stroke="none" stroke-width="1" fill="none" fill-rule="evenodd">
        <g id="005-发起申请备份" transform="translate(-468.000000, -244.000000)" fill="url(#linearGradient-1)" fill-rule="nonzero">
            <path d="M496.328125,244 C498.60522,244.002605 499.45052,244.847905 499.453125,247.125 L499.45399,261.90514 C502.818073,263.173602 505.210938,266.422594 505.210938,270.230469 C505.205396,275.140486 501.226423,279.119459 496.316406,279.125 C494.457268,279.125 492.731353,278.554605 491.304115,277.579268 L471.125,277.578125 C468.847905,277.57552 468.002605,276.73022 468,274.453125 L468,247.125 C468.002557,244.847886 468.847886,244.002557 471.125,244 L496.328125,244 Z M496.316406,264.429687 C493.112723,264.429687 490.515625,267.026786 490.515625,270.230469 C490.515625,273.434152 493.112723,276.03125 496.316406,276.03125 C499.520089,276.03125 502.117188,273.434152 502.117188,270.230469 C502.113588,267.028278 499.518597,264.433287 496.316406,264.429687 Z M497.863281,267.007812 L497.863281,269.328125 L499.582031,269.328125 L499.582031,272.421875 L494.769531,272.421875 L494.769531,267.007812 L497.863281,267.007812 Z M481.331312,262.132297 L477.11857,266.886016 L474.935156,264.647773 L472.726562,266.80025 L477.227109,271.414062 L483.640625,264.176664 L481.331312,262.132297 Z M481.331313,251.304172 L477.11857,256.057891 L474.935156,253.819648 L472.726562,255.972125 L477.227109,260.585937 L483.640625,253.348539 L481.331313,251.304172 Z M493.265625,255.34375 L484.414062,255.34375 L484.414062,258.4375 L493.265625,258.4375 L493.265625,255.34375 Z" id="21"></path>
        </g>
    </g>
</svg>