<?xml version="1.0" encoding="UTF-8"?>
<svg width="37px" height="34px" viewBox="0 0 37 34" version="1.1" xmlns="http://www.w3.org/2000/svg" xmlns:xlink="http://www.w3.org/1999/xlink">
    <!-- Generator: Sketch 60 (88103) - https://sketch.com -->
    <title>11</title>
    <desc>Created with Sketch.</desc>
    <defs>
        <linearGradient x1="100%" y1="89.732093%" x2="0%" y2="7.91321411%" id="linearGradient-1">
            <stop stop-color="#0077FF" offset="0%"></stop>
            <stop stop-color="#05B3FF" offset="100%"></stop>
            <stop stop-color="#5533FF" offset="100%"></stop>
        </linearGradient>
    </defs>
    <g id="首页+我的工作台" stroke="none" stroke-width="1" fill="none" fill-rule="evenodd">
        <g id="005-发起申请备份" transform="translate(-469.000000, -356.000000)" fill="url(#linearGradient-1)">
            <path d="M483.945,367.125 L483.945418,368.918051 C483.812924,368.969461 483.683398,369.031285 483.558044,369.10352 C482.689351,369.6056 482.154115,370.533027 482.154115,371.536239 C482.154115,373.087003 483.41121,374.345045 484.962921,374.345045 C486.513685,374.345045 487.770779,373.087003 487.770779,371.536239 C487.770779,370.533027 487.235543,369.6056 486.36685,369.10352 C486.241946,369.031465 486.11287,368.969771 485.98082,368.918437 L485.98,367.125 L500.70022,367.12523 L500.700848,375.496806 C499.691707,375.174167 498.616193,375 497.5,375 C491.70101,375 487,379.70101 487,385.5 C487,386.752449 487.219284,387.953682 487.621553,389.067399 L484.826126,389.089797 L484.431859,389.092129 L471.776765,389.092906 L471.776765,389.109115 C470.038761,389.109115 469,388.067724 469,386.32532 L469,367.125 L483.945,367.125 Z M497.54387,378 C502.932072,378 505.08774,383.388202 505.08774,383.388202 C505.08774,383.388202 502.932072,388.776404 497.54387,388.776404 C492.155668,388.776404 490,383.388202 490,383.388202 C490,383.388202 492.155668,378 497.54387,378 Z M497.54387,380.1547 C495.759101,380.1547 494.311336,381.602464 494.311336,383.388202 C494.311336,385.17394 495.759101,386.620736 497.54387,386.620736 C499.329608,386.620736 500.777372,385.17394 500.777372,383.388202 C500.777372,381.602464 499.329608,380.1547 497.54387,380.1547 Z M497.54387,381.77174 C498.436739,381.770773 499.160137,382.495139 499.160137,383.388008 C499.160137,384.279909 498.436739,385.004275 497.54387,385.004275 C496.65197,385.004275 495.928572,384.279909 495.928572,383.388008 C495.928572,383.171086 495.973118,382.965784 496.051559,382.776945 C496.187136,382.90768 496.370164,382.989994 496.574497,382.989994 C496.990911,382.989994 497.328884,382.652021 497.328884,382.234639 C497.328884,382.087441 497.275622,381.956707 497.202023,381.840498 C497.315327,381.81532 497.42282,381.77174 497.54387,381.77174 Z M497.923626,356 C499.66163,356 500.700391,357.04139 500.700391,358.783794 L500.70022,365.090386 L485.98,365.09 L485.98082,363.96324 C486.11287,363.911906 486.241946,363.850212 486.36685,363.778157 C487.235543,363.276077 487.770779,362.34865 487.770779,361.345438 C487.770779,359.794674 486.513685,358.536632 484.962921,358.536632 C483.41121,358.536632 482.154115,359.794674 482.154115,361.345438 C482.154115,362.34865 482.689351,363.276077 483.558044,363.778157 C483.683398,363.850392 483.812924,363.912215 483.945418,363.963626 L483.945,365.09 L469,365.09 L469,358.783794 C469,357.04139 470.038761,356 471.776765,356 L497.923626,356 Z" id="11"></path>
        </g>
    </g>
</svg>