<?xml version="1.0" encoding="UTF-8"?>
<svg width="40px" height="39px" viewBox="0 0 40 39" version="1.1" xmlns="http://www.w3.org/2000/svg" xmlns:xlink="http://www.w3.org/1999/xlink">
    <!-- Generator: Sketch 60 (88103) - https://sketch.com -->
    <title>5</title>
    <desc>Created with Sketch.</desc>
    <defs>
        <linearGradient x1="100%" y1="94.5239734%" x2="0%" y2="2.83734645%" id="linearGradient-1">
            <stop stop-color="#0077FF" offset="0%"></stop>
            <stop stop-color="#05B3FF" offset="100%"></stop>
            <stop stop-color="#5533FF" offset="100%"></stop>
        </linearGradient>
    </defs>
    <g id="首页+我的工作台" stroke="none" stroke-width="1" fill="none" fill-rule="evenodd">
        <g id="005-发起申请备份" transform="translate(-271.000000, -61.000000)" fill="url(#linearGradient-1)" fill-rule="nonzero">
            <path d="M290.865068,61.2111821 C291.816948,61.2111821 292.674283,61.878841 292.674283,62.7916193 L292.674283,62.7916193 L292.674,97.2111821 L293.074,97.2111821 L293.074061,72.2999212 C293.074061,71.9752175 293.357188,71.7363659 293.687978,71.6956219 L293.788409,71.6894541 C293.919548,71.6891058 294.048713,71.721397 294.164259,71.7834194 L294.164259,71.7834194 L306.058391,78.1664478 C306.256643,78.2635138 306.384908,78.4623131 306.391637,78.6829496 L306.391637,78.6829496 L306.391,97.2111821 L309.944819,97.2111821 C310.333898,97.2111821 310.528437,97.4057214 310.528437,97.7948 L310.528437,99.018063 C310.528437,99.4071416 310.333898,99.6016808 309.944819,99.6016808 L271.583618,99.6016808 C271.194539,99.6016808 271,99.4071416 271,99.018063 L271,97.7948 C271,97.4057214 271.194539,97.2111821 271.583618,97.2111821 L275,97.2111821 L275,68.5910298 C275,68.0280631 275.343623,67.5103491 275.893619,67.2293041 L276.035338,67.1640842 L290.092941,61.36409 C290.33787,61.2632141 290.600179,61.2111821 290.865068,61.2111821 Z M288.389611,88.2111821 L279.610389,88.2111821 C279.203463,88.2111821 279,88.4057214 279,88.7948 L279,88.7948 L279,90.018063 C279,90.4071416 279.203463,90.6016808 279.610389,90.6016808 L279.610389,90.6016808 L288.389611,90.6016808 C288.796537,90.6016808 289,90.4071416 289,90.018063 L289,90.018063 L289,88.7948 C289,88.4057214 288.796537,88.2111821 288.389611,88.2111821 L288.389611,88.2111821 Z M288.389611,81.2111821 L279.610389,81.2111821 C279.203463,81.2111821 279,81.4057214 279,81.7948 L279,81.7948 L279,83.018063 C279,83.4071416 279.203463,83.6016808 279.610389,83.6016808 L279.610389,83.6016808 L288.389611,83.6016808 C288.796537,83.6016808 289,83.4071416 289,83.018063 L289,83.018063 L289,81.7948 C289,81.4057214 288.796537,81.2111821 288.389611,81.2111821 L288.389611,81.2111821 Z M288.425518,74.2111821 L279.574482,74.2111821 C279.191494,74.2111821 279,74.4057214 279,74.7948 L279,74.7948 L279,76.018063 C279,76.4071416 279.191494,76.6016808 279.574482,76.6016808 L279.574482,76.6016808 L288.425518,76.6016808 C288.808506,76.6016808 289,76.4071416 289,76.018063 L289,76.018063 L289,74.7948 C289,74.4057214 288.808506,74.2111821 288.425518,74.2111821 L288.425518,74.2111821 Z" id="5"></path>
        </g>
    </g>
</svg>