<?xml version="1.0" encoding="UTF-8"?>
<svg width="34px" height="35px" viewBox="0 0 34 35" version="1.1" xmlns="http://www.w3.org/2000/svg" xmlns:xlink="http://www.w3.org/1999/xlink">
    <!-- Generator: Sketch 60 (88103) - https://sketch.com -->
    <title>17</title>
    <desc>Created with Sketch.</desc>
    <defs>
        <linearGradient x1="97.1836735%" y1="97.2025746%" x2="2.81632653%" y2="0%" id="linearGradient-1">
            <stop stop-color="#0077FF" offset="0%"></stop>
            <stop stop-color="#05B3FF" offset="100%"></stop>
            <stop stop-color="#5533FF" offset="100%"></stop>
        </linearGradient>
    </defs>
    <g id="首页+我的工作台" stroke="none" stroke-width="1" fill="none" fill-rule="evenodd">
        <g id="005-发起申请备份" transform="translate(-657.000000, -244.000000)" fill="url(#linearGradient-1)">
            <path d="M688,244 C689.656854,244 691,245.343146 691,247 L691,276 C691,277.656854 689.656854,279 688,279 C686.343146,279 685,277.656854 685,276 L685,247 C685,245.343146 686.343146,244 688,244 Z M681,244 C682.656854,244 684,245.343146 684,247 L684,276 C684,277.656854 682.656854,279 681,279 L660,279 C658.343146,279 657,277.656854 657,276 L657,247 C657,245.343146 658.343146,244 660,244 L681,244 Z M676.452115,256.102901 C676.342886,255.342434 675.578283,254.907882 674.922908,255.01652 C674.267534,255.125158 673.830617,255.885624 674.049076,256.537453 C674.049076,256.537453 674.267534,258.058386 673.175243,259.362043 C672.30141,260.448424 670.553745,261.100252 668.369163,261.317529 L668.369163,261.317529 L669.679912,259.905233 C670.116829,259.362043 670.116829,258.601576 669.570683,258.058386 C669.024538,257.515196 668.259934,257.515196 667.713789,258.058386 L667.713789,258.058386 L664.327687,261.752081 C664.109229,261.969357 664,262.403909 664,262.729824 C664,263.164376 664.109229,263.49029 664.436916,263.707566 L664.436916,263.707566 L668.259934,266.858071 C668.80608,267.292623 669.679912,267.183985 670.116829,266.640795 C670.553745,266.097604 670.444516,265.2285 669.89837,264.793947 L669.89837,264.793947 L668.80608,263.924843 C671.536807,263.598928 673.721388,262.729824 675.032137,261.100252 C676.889032,258.818853 676.452115,256.211539 676.452115,256.102901 Z" id="17"></path>
        </g>
    </g>
</svg>