<?xml version="1.0" encoding="UTF-8"?>
<svg width="36px" height="36px" viewBox="0 0 36 36" version="1.1" xmlns="http://www.w3.org/2000/svg" xmlns:xlink="http://www.w3.org/1999/xlink">
    <!-- Generator: Sketch 60 (88103) - https://sketch.com -->
    <title>15</title>
    <desc>Created with Sketch.</desc>
    <defs>
        <linearGradient x1="99.857372%" y1="97.2025746%" x2="0.142628006%" y2="0%" id="linearGradient-1">
            <stop stop-color="#0077FF" offset="0%"></stop>
            <stop stop-color="#05B3FF" offset="100%"></stop>
            <stop stop-color="#5533FF" offset="100%"></stop>
        </linearGradient>
    </defs>
    <g id="首页+我的工作台" stroke="none" stroke-width="1" fill="none" fill-rule="evenodd">
        <g id="005-发起申请备份" transform="translate(-763.000000, -244.000000)" fill="url(#linearGradient-1)">
            <path d="M767.756906,266.2821 C769.401906,266.2821 771.001906,267.1311 771.883906,268.6501 C772.778906,270.1931 772.683906,272.0181 771.825906,273.4441 C771.847906,273.4681 771.875906,273.4971 771.896906,273.5201 C776.069906,277.1781 781.958906,277.9711 786.877906,275.6221 C787.430906,275.3581 788.094906,275.5851 788.400906,276.1161 C788.755906,276.7301 788.498906,277.5101 787.857906,277.8141 C785.673906,278.8471 783.328906,279.3551 780.994906,279.3551 C777.130906,279.3551 773.291906,277.9651 770.244906,275.2631 L770.244906,275.2631 L770.122906,275.1381 C770.121906,275.1361 770.119906,275.1341 770.117906,275.1321 C769.373906,275.5541 768.564906,275.7561 767.765906,275.7561 C766.119906,275.7561 764.519906,274.9061 763.638906,273.3871 C762.323906,271.1221 763.103906,268.2251 765.380906,266.9171 C766.130906,266.4861 766.948906,266.2821 767.756906,266.2821 Z M788.091506,250.4453 C788.444506,249.8323 789.247506,249.6613 789.828506,250.0633 C795.105506,253.7123 797.740506,260.1923 796.430506,266.5943 C796.392506,266.7333 796.348506,266.8853 796.295506,267.0513 C798.271506,268.4503 798.908506,271.1253 797.671506,273.2583 C796.789506,274.7783 795.189506,275.6273 793.543506,275.6273 C792.736506,275.6273 791.917506,275.4223 791.167506,274.9913 C788.890506,273.6843 788.110506,270.7873 789.425506,268.5213 C790.306506,267.0023 791.907506,266.1533 793.552506,266.1533 C793.719506,266.1533 793.886506,266.1673 794.052506,266.1843 C794.067506,266.1353 794.085506,266.0793 794.097506,266.0333 C795.199506,260.6393 792.940506,255.1103 788.424506,252.0103 C787.919506,251.6633 787.784506,250.9753 788.091506,250.4453 Z M786.854948,258.7545 C787.687439,259.504202 788.162097,260.531708 788.190613,261.648442 C788.220049,262.749538 787.789546,263.826717 787.011328,264.604935 L781.630031,269.986231 C781.394542,270.22172 781.081783,270.351423 780.749706,270.351423 C780.41579,270.351423 780.103031,270.22172 779.868462,269.986231 L774.487166,264.604935 C773.708947,263.826717 773.279363,262.749538 773.30788,261.648442 C773.336396,260.531708 773.811054,259.504202 774.643545,258.7545 C776.236777,257.320408 778.724131,257.437232 780.307244,259.020345 L780.749706,259.461888 L781.191249,259.020345 C782.774362,257.437232 785.261716,257.320408 786.854948,258.7545 Z M780.542306,244 C783.171306,244 785.303306,246.121 785.303306,248.737 C785.303306,251.353 783.171306,253.473 780.542306,253.473 C778.562306,253.473 776.866306,252.27 776.148306,250.559 C770.879306,252.371 767.265306,257.059 766.841306,262.477 C766.793306,263.087 766.265306,263.548 765.652306,263.548 C764.945306,263.548 764.396306,262.939 764.453306,262.234 C764.975306,255.84 769.269306,250.318 775.468306,248.252 C775.603306,248.201 775.716306,248.174 775.842306,248.134 C776.143306,245.806 778.120306,244 780.542306,244 Z" id="15"></path>
        </g>
    </g>
</svg>