<?xml version="1.0" encoding="UTF-8"?>
<svg width="30px" height="34px" viewBox="0 0 30 34" version="1.1" xmlns="http://www.w3.org/2000/svg" xmlns:xlink="http://www.w3.org/1999/xlink">
    <!-- Generator: Sketch 60 (88103) - https://sketch.com -->
    <title>3</title>
    <desc>Created with Sketch.</desc>
    <defs>
        <linearGradient x1="89.5061728%" y1="97.2025746%" x2="10.4938272%" y2="0%" id="linearGradient-1">
            <stop stop-color="#0077FF" offset="0%"></stop>
            <stop stop-color="#05B3FF" offset="100%"></stop>
            <stop stop-color="#5533FF" offset="100%"></stop>
        </linearGradient>
    </defs>
    <g id="首页+我的工作台" stroke="none" stroke-width="1" fill="none" fill-rule="evenodd">
        <g id="005-发起申请备份" transform="translate(-472.000000, -64.000000)" fill="url(#linearGradient-1)" fill-rule="nonzero">
            <path d="M474.571692,97.75 L473.30618,97.75 C472.585121,97.75 472,97.1696385 472,96.4518546 C472,95.7340707 472.585121,95.1536319 473.30618,95.1536319 L474.571,95.153 L474.571692,65.2981454 C474.571692,64.5815218 475.156852,64 475.877872,64 C476.598698,64 477.183858,64.5815218 477.183858,65.2981454 L477.183858,95.1535933 L488.938936,95.1535933 C489.661202,95.1535933 490.244922,95.734032 490.244922,96.451816 C490.244922,97.1695999 489.661241,97.75 488.938975,97.75 L475.877911,97.75 C476.598737,97.75 477.183897,97.1696386 477.183897,96.4518546 C477.183897,95.7340707 476.598737,95.1536319 475.877911,95.1536319 L475.877911,95.1536319 L474.571,95.153 L474.571692,97.75 Z M485.646185,64 C488.529994,64 491.624267,65.3526425 491.754795,65.4096537 C491.803208,65.4304624 491.85022,65.4551775 491.89587,65.4823294 C491.911593,65.4914573 493.813324,66.5960586 495.98662,66.5960586 C498.149564,66.5960586 499.99506,65.4991542 500.013429,65.4874735 C500.419609,65.2460076 500.92098,65.2357193 501.333775,65.4654658 C501.743924,65.6966435 502,66.1274376 502,66.5960586 L502,83.471136 C502,83.9112515 501.775214,84.3200379 501.404293,84.5601114 C501.310269,84.6224988 499.033687,86.0672333 496.095083,86.0672333 C493.457971,86.0672333 491.138385,84.9015597 490.661687,84.6445066 C490.235776,84.475755 487.613258,83.471136 485.510286,83.471136 C483.604818,83.471136 481.102243,84.3357024 480.299108,84.6692604 C479.895536,84.8366195 479.435767,84.7926428 479.071229,84.5512155 C478.708131,84.3097496 478.490077,83.9046763 478.490077,83.471136 L478.490077,66.5960973 C478.490077,66.067835 478.81274,65.5926773 479.303799,65.3942212 C479.444874,65.336978 482.785921,64 485.646185,64 Z M495.79616,71.2981454 C495.119914,71.2981454 494.563705,71.8120887 494.496821,72.470689 L494.490077,72.6042284 L494.490077,75.8475102 C494.490077,76.56884 495.074831,77.1535933 495.79616,77.1535933 C496.472407,77.1535933 497.028616,76.6396499 497.0955,75.9810496 L497.102243,75.8475102 L497.102243,72.6042284 C497.102243,71.8828986 496.51749,71.2981454 495.79616,71.2981454 Z" id="3"></path>
        </g>
    </g>
</svg>