<?xml version="1.0" encoding="UTF-8"?>
<svg width="34px" height="34px" viewBox="0 0 34 34" version="1.1" xmlns="http://www.w3.org/2000/svg" xmlns:xlink="http://www.w3.org/1999/xlink">
    <!-- Generator: Sketch 60 (88103) - https://sketch.com -->
    <title>2</title>
    <desc>Created with Sketch.</desc>
    <defs>
        <linearGradient x1="100%" y1="95.6407436%" x2="0%" y2="1.65439168%" id="linearGradient-1">
            <stop stop-color="#0077FF" offset="0%"></stop>
            <stop stop-color="#05B3FF" offset="100%"></stop>
            <stop stop-color="#5533FF" offset="100%"></stop>
        </linearGradient>
    </defs>
    <g id="首页+我的工作台" stroke="none" stroke-width="1" fill="none" fill-rule="evenodd">
        <g id="005-发起申请备份" transform="translate(-657.000000, -145.000000)" fill="url(#linearGradient-1)">
            <path d="M671.805,157.004 L671.80516,158.66737 C671.64246,158.723924 671.483789,158.796113 671.331385,158.883937 C670.476217,159.3782 669.949314,160.291187 669.949314,161.27878 C669.949314,162.8054 671.186836,164.043855 672.714388,164.043855 C674.241008,164.043855 675.47853,162.8054 675.47853,161.27878 C675.47853,160.291187 674.951627,159.3782 674.096459,158.883937 C674.003255,158.830169 673.907692,158.782262 673.810282,158.740215 L673.809,157.004 L688.7,157.004 L688.700848,164.496806 C687.691707,164.174167 686.616193,164 685.5,164 C679.70101,164 675,168.70101 675,174.5 C675,175.752449 675.219284,176.953682 675.621553,178.067399 L672.826126,178.089797 L672.431859,178.092129 L659.776765,178.092906 L659.776765,178.109115 C658.038761,178.109115 657,177.067724 657,175.32532 L657,157.004096 L671.805,157.004 Z M689.614245,173.384384 L690.670848,174.064229 L684.508416,178.031387 C684.403035,178.099465 684.267813,178.099465 684.162432,178.031387 L678,174.064229 L679.056603,173.384384 C679.136805,173.333093 679.239387,173.333093 679.318656,173.384384 L684.162432,176.50197 C684.267813,176.570048 684.403035,176.570048 684.508416,176.50197 L689.352192,173.384384 C689.431461,173.333093 689.534043,173.333093 689.614245,173.384384 Z M684.543854,167.06155 L690.302482,170.768521 C690.475008,170.879497 690.475008,171.132224 690.302482,171.2432 L684.543854,174.950171 C684.417024,175.032238 684.253824,175.032238 684.126994,174.950171 L678.369298,171.2432 C678.19584,171.132224 678.19584,170.879497 678.369298,170.768521 L684.126994,167.06155 C684.253824,166.979483 684.417024,166.979483 684.543854,167.06155 Z M685.923626,145 C687.66163,145 688.700391,146.04139 688.700391,147.783794 L688.7,154.999 L673.809,154.999 L673.809887,153.81674 C673.933824,153.767592 674.05504,153.709135 674.172508,153.64137 C675.027676,153.147107 675.554579,152.23412 675.554579,151.246527 C675.554579,149.719907 674.317056,148.481452 672.790437,148.481452 C671.262885,148.481452 670.025363,149.719907 670.025363,151.246527 C670.025363,152.23412 670.552266,153.147107 671.407434,153.64137 C671.536006,153.71546 671.669037,153.778423 671.805184,153.830259 L671.805,154.999 L657,155 L657,147.783794 C657,146.04139 658.038761,145 659.776765,145 L685.923626,145 Z" id="2"></path>
        </g>
    </g>
</svg>