<?xml version="1.0" encoding="UTF-8"?>
<svg width="39px" height="35px" viewBox="0 0 39 35" version="1.1" xmlns="http://www.w3.org/2000/svg" xmlns:xlink="http://www.w3.org/1999/xlink">
    <!-- Generator: Sketch 60 (88103) - https://sketch.com -->
    <title>18</title>
    <desc>Created with Sketch.</desc>
    <defs>
        <linearGradient x1="100%" y1="87.1372846%" x2="0%" y2="10.6618019%" id="linearGradient-1">
            <stop stop-color="#0077FF" offset="0%"></stop>
            <stop stop-color="#05B3FF" offset="100%"></stop>
            <stop stop-color="#5533FF" offset="100%"></stop>
        </linearGradient>
    </defs>
    <g id="首页+我的工作台" stroke="none" stroke-width="1" fill="none" fill-rule="evenodd">
        <g id="005-发起申请备份" transform="translate(-274.000000, -356.000000)" fill="url(#linearGradient-1)" fill-rule="nonzero">
            <path d="M296.043312,356 C296.708426,356 297.246609,356.538785 297.246609,357.20334 L297.246609,357.20334 L297.246609,360.218715 L309.458328,360.218715 C311.099906,360.218715 312.434859,361.554227 312.434859,363.195246 L312.434859,363.195246 L312.434859,377.250109 C312.436138,379.1473 312.436977,381.002733 312.437377,382.816409 L312.437535,386.826715 C312.437058,388.771736 311.48895,389.860826 309.59321,390.093984 L309.59321,390.093984 L276.977133,390.093984 C275.335469,390.093984 274,388.758473 274,387.117453 L274,387.117453 L274,363.195203 C274,361.554141 275.335512,360.218672 276.97709,360.218672 L276.97709,360.218672 L288.824004,360.218672 L288.824004,357.20334 C288.824004,356.538785 289.362789,356 290.027258,356 L290.027258,356 Z M286.536238,366.521973 C283.868137,366.521973 281.777621,368.570766 281.777621,371.185973 L281.777621,374.708336 C281.777567,374.958288 281.855395,375.202046 282.000285,375.405719 L283.168906,377.049145 L278.539582,379.265988 C278.121906,379.466042 277.85625,379.888093 277.85625,380.351207 L277.85625,382.58743 C277.85625,383.251941 278.395078,383.790727 279.059547,383.790727 L293.833063,383.790727 C294.498133,383.790727 295.036317,383.251898 295.036317,382.58743 L295.036317,380.351207 C295.036317,379.895397 294.778896,379.478677 294.371203,379.27484 L289.936399,377.058555 L291.083277,375.389906 C291.22095,375.189267 291.294692,374.951667 291.294813,374.708336 L291.294813,371.185973 C291.294813,368.570766 289.204856,366.521973 286.536238,366.521973 Z M307.06279,375.144768 L301.744934,380.660761 L298.730128,377.887116 C298.202471,377.484069 297.448069,377.58453 297.042659,378.112186 C296.639612,378.640358 296.740675,379.395362 297.268245,379.79901 L301.176199,383.254828 C301.385936,383.415531 301.642872,383.502475 301.907098,383.502157 C302.253175,383.50248 302.582552,383.353422 302.810731,383.093222 L308.870099,376.73401 C309.308423,376.234713 309.260255,375.474338 308.760829,375.035455 C308.263767,374.598334 307.501114,374.644182 307.06279,375.144768 Z M286.536281,368.928523 C287.855379,368.928523 288.888262,369.920328 288.888262,371.18593 L288.888262,374.33468 L287.169684,376.835289 C286.972685,377.122314 286.909464,377.480519 286.996305,377.817641 C287.083183,378.154715 287.31185,378.43761 287.623219,378.593227 L292.629809,381.095082 L292.629809,381.384176 L280.26293,381.384176 L280.26293,381.109176 L285.498027,378.602035 C285.818218,378.448798 286.054344,378.161921 286.14316,377.818242 C286.231852,377.474376 286.164356,377.108897 285.958695,376.819391 L284.184301,374.324066 L284.184301,371.18593 C284.184301,369.920328 285.217184,368.928523 286.536281,368.928523 Z M305.729672,369.817547 L298.072641,369.817547 C297.407527,369.817547 296.869387,370.356375 296.869387,371.020844 C296.869387,371.685312 297.40757,372.224184 298.072684,372.224184 L305.729672,372.224184 C306.394785,372.224184 306.932969,371.685355 306.932969,371.020844 C306.932969,370.356332 306.394785,369.817547 305.729672,369.817547 Z M294.839973,358.406637 L291.230598,358.406637 L291.230598,362.01657 C291.230598,363.011898 292.039656,363.821559 293.034984,363.821559 C294.030312,363.821559 294.839973,363.011855 294.839973,362.01657 L294.839973,362.01657 L294.839973,358.406637 Z" id="18"></path>
        </g>
    </g>
</svg>