<?xml version="1.0" encoding="UTF-8"?>
<svg width="38px" height="34px" viewBox="0 0 38 34" version="1.1" xmlns="http://www.w3.org/2000/svg" xmlns:xlink="http://www.w3.org/1999/xlink">
    <!-- Generator: Sketch 60 (88103) - https://sketch.com -->
    <title>常用功能</title>
    <desc>Created with Sketch.</desc>
    <defs>
        <linearGradient x1="100%" y1="86.8105968%" x2="0%" y2="11.0078505%" id="linearGradient-1">
            <stop stop-color="#0077FF" offset="0%"></stop>
            <stop stop-color="#05B3FF" offset="100%"></stop>
            <stop stop-color="#5533FF" offset="100%"></stop>
        </linearGradient>
    </defs>
    <g id="首页+我的工作台" stroke="none" stroke-width="1" fill="none" fill-rule="evenodd">
        <g id="005-发起申请备份" transform="translate(-374.000000, -145.000000)" fill="url(#linearGradient-1)" fill-rule="nonzero">
            <path d="M400.916667,145 C401.791118,145 402.5,145.706961 402.5,146.579042 L402.5,156.576253 C407.869083,157.344457 412,161.937102 412,167.504016 C412,173.608594 407.037833,178.557313 400.916667,178.557313 L375.583333,178.557313 C374.708882,178.557313 374,177.850352 374,176.978271 L374,146.579042 C374,145.706961 374.708882,145 375.583333,145 L400.916667,145 Z M400.916667,158.819283 C396.544292,158.819283 392.208333,163.14349 392.208333,167.504016 C392.208333,171.864542 396.544292,176.18875 400.916667,176.18875 C405.289042,176.18875 409.625,171.864542 409.625,167.504016 C409.625,163.14349 405.289042,158.819283 400.916667,158.819283 Z M400.916667,162.766889 L402.221333,165.248354 L404.874208,165.78286 L403.02725,167.850616 L403.362917,170.662101 L400.916667,169.458871 L398.470417,170.662101 L398.806083,167.850616 L396.959125,165.78286 L399.612,165.248354 L400.916667,162.766889 Z M385.875,163.669311 L381.125,163.669311 C380.250549,163.669311 379.541667,164.376273 379.541667,165.248354 C379.541667,166.120435 380.250549,166.827396 381.125,166.827396 L381.125,166.827396 L385.875,166.827396 C386.749451,166.827396 387.458333,166.120435 387.458333,165.248354 C387.458333,164.376273 386.749451,163.669311 385.875,163.669311 L385.875,163.669311 Z M389.78323,154.208683 L381.125,154.208683 C380.705074,154.208683 380.302347,154.375046 380.005414,154.671174 C379.708482,154.967302 379.541667,155.368937 379.541667,155.787725 C379.541667,156.206514 379.708482,156.608149 380.005414,156.904277 C380.302347,157.200405 380.705074,157.366768 381.125,157.366768 L381.125,157.366768 L389.78323,157.366768 C390.657681,157.366768 391.366564,156.659807 391.366564,155.787725 C391.366564,154.915644 390.657681,154.208683 389.78323,154.208683 L389.78323,154.208683 Z" id="常用功能"></path>
        </g>
    </g>
</svg>