<?xml version="1.0" encoding="UTF-8"?>
<svg width="39px" height="34px" viewBox="0 0 39 34" version="1.1" xmlns="http://www.w3.org/2000/svg" xmlns:xlink="http://www.w3.org/1999/xlink">
    <!-- Generator: Sketch 60 (88103) - https://sketch.com -->
    <title>20</title>
    <desc>Created with Sketch.</desc>
    <defs>
        <linearGradient x1="100%" y1="86.9560535%" x2="0%" y2="10.8537735%" id="linearGradient-1">
            <stop stop-color="#0077FF" offset="0%"></stop>
            <stop stop-color="#05B3FF" offset="100%"></stop>
            <stop stop-color="#5533FF" offset="100%"></stop>
        </linearGradient>
    </defs>
    <g id="首页+我的工作台" stroke="none" stroke-width="1" fill="none" fill-rule="evenodd">
        <g id="005-发起申请备份" transform="translate(-374.000000, -245.000000)" fill="url(#linearGradient-1)">
            <path d="M406.768768,246.416264 C409.818409,248.196309 411.830573,251.204485 412.28839,254.669732 C412.749813,258.162768 411.610678,261.58655 409.16233,264.062687 L395.294,278.090365 C394.734568,278.656305 393.98835,278.96779 393.192445,278.96779 C392.395793,278.96779 391.649619,278.656349 391.090143,278.090409 C387.125003,273.984627 383.918003,270.658176 381.469142,268.111055 L388.85162,260.729571 L393.579515,265.457422 C394.15614,266.034047 395.09099,266.034047 395.667615,265.457422 L395.667615,265.457422 L404.980061,256.144976 L402.370211,253.535125 L394.623543,261.281793 L389.895648,256.553898 C389.319023,255.977273 388.384173,255.977273 387.807548,256.553898 L387.807548,256.553898 L378.913402,265.448413 C376.715636,263.153755 375.59067,261.961883 375.538503,261.872796 C374.036041,259.310873 373.609223,256.180152 374.367664,253.283 C375.125403,250.387299 376.989431,247.949021 379.615111,246.416264 C383.884968,243.924297 389.440645,244.782947 393.122533,248.507398 L393.191742,248.577311 L393.260951,248.507398 C396.942135,244.782595 402.497109,243.923946 406.768768,246.416264 Z" id="20"></path>
        </g>
    </g>
</svg>