<?xml version="1.0" encoding="UTF-8"?>
<svg width="34px" height="36px" viewBox="0 0 34 36" version="1.1" xmlns="http://www.w3.org/2000/svg" xmlns:xlink="http://www.w3.org/1999/xlink">
    <!-- Generator: Sketch 60 (88103) - https://sketch.com -->
    <title>8</title>
    <desc>Created with Sketch.</desc>
    <defs>
        <linearGradient x1="96.0680808%" y1="97.2025746%" x2="3.93191918%" y2="0%" id="linearGradient-1">
            <stop stop-color="#0077FF" offset="0%"></stop>
            <stop stop-color="#05B3FF" offset="100%"></stop>
            <stop stop-color="#5533FF" offset="100%"></stop>
        </linearGradient>
    </defs>
    <g id="首页+我的工作台" stroke="none" stroke-width="1" fill="none" fill-rule="evenodd">
        <g id="005-发起申请备份" transform="translate(-569.000000, -144.000000)" fill="url(#linearGradient-1)" fill-rule="nonzero">
            <path d="M599.748438,144 C601.596094,144 602.700391,145.104297 602.700391,146.951953 L602.700391,176.304627 C602.700391,177.823659 601.468972,179.055078 599.949939,179.055078 C599.932103,179.055078 599.914267,179.054904 599.896433,179.054557 L598.458321,179.026576 C597.5478,179.008859 596.63708,179.003582 595.726415,179.010745 L585.798738,179.088834 L585.405466,179.091154 L585.405466,179.091154 L571.951953,179.091927 L571.951953,179.109115 C570.104297,179.109115 569,178.004818 569,176.157161 L569,146.951953 C569,145.104297 570.104297,144 571.951953,144 L599.748438,144 L599.748438,144 Z M592.395007,162.761636 L579.353326,162.761636 C579.325687,162.761636 579.301996,162.761636 579.270409,162.765585 C578.946637,162.773482 578.626814,162.899831 578.382011,163.148583 C577.872663,163.657931 577.872663,164.491051 578.382011,165.000399 L578.382011,165.000399 L580.980081,167.598469 C581.232781,167.851169 581.568398,167.981467 581.904015,167.981467 C582.239632,167.981467 582.575249,167.855117 582.827949,167.598469 C583.337297,167.089121 583.337297,166.256001 582.827949,165.746653 L582.827949,165.746653 L582.464693,165.383397 L592.398956,165.383397 C593.121519,165.383397 593.705907,164.799029 593.705907,164.076465 C593.709836,163.349953 593.121519,162.761636 592.395007,162.761636 L592.395007,162.761636 Z M590.740613,155.382011 C590.231265,154.872663 589.398145,154.872663 588.888797,155.382011 C588.379449,155.891359 588.379449,156.724479 588.888797,157.233827 L588.888797,157.233827 L589.252053,157.597083 L579.353326,157.597083 C578.630762,157.597083 578.046394,158.181452 578.046394,158.904015 C578.046394,159.626579 578.630762,160.210947 579.353326,160.210947 L579.353326,160.210947 L592.481379,160.210454 L592.481379,160.210454 L592.493718,160.206999 C592.505563,160.206999 592.51346,160.206999 592.525305,160.20305 C592.537151,160.20305 592.548996,160.199102 592.560841,160.199102 C592.568738,160.199102 592.576635,160.199102 592.584532,160.195153 C592.596377,160.195153 592.612171,160.191205 592.624016,160.187257 C592.631913,160.187257 592.63981,160.183308 592.643759,160.183308 L592.643759,160.183308 L592.693114,160.173437 L592.693114,160.173437 C592.71483,160.167514 592.726676,160.163566 592.742469,160.159618 C592.750366,160.155669 592.758263,160.155669 592.762212,160.151721 L592.762212,160.151721 L592.797747,160.139875 L592.797747,160.139875 L592.821438,160.131978 C592.833283,160.12803 592.84118,160.124082 592.853026,160.120133 C592.860922,160.116185 592.872768,160.112236 592.880665,160.108288 L592.908304,160.096443 C592.920149,160.092494 592.928046,160.088546 592.939891,160.084597 L592.939891,160.084597 L592.963582,160.072752 C592.975427,160.068804 592.987272,160.060907 592.995169,160.056958 C593.003066,160.05301 593.007015,160.049061 593.014911,160.045113 L593.014911,160.045113 L593.050447,160.025371 L593.050447,160.025371 L593.070189,160.013525 L593.105725,159.989835 L593.105725,159.989835 L593.125468,159.977989 C593.137313,159.970093 593.14521,159.962196 593.157055,159.954299 C593.164952,159.95035 593.1689,159.942454 593.176797,159.938505 L593.176797,159.938505 L593.218256,159.902969 L593.218256,159.902969 L593.232075,159.891124 C593.239972,159.887175 593.243921,159.879279 593.251818,159.87533 C593.283405,159.847691 593.314992,159.812155 593.34658,159.780568 L593.34658,159.780568 L593.362374,159.760826 C593.370271,159.752929 593.378167,159.741083 593.386064,159.733187 C593.393961,159.72529 593.401858,159.713444 593.405806,159.705547 C593.409755,159.697651 593.417652,159.689754 593.4216,159.685805 C593.429497,159.67396 593.437394,159.666063 593.445291,159.654218 L593.445291,159.654218 L593.457136,159.634476 C593.465033,159.62263 593.47293,159.610785 593.476878,159.602888 C593.480827,159.594991 593.484775,159.591043 593.488724,159.583146 C593.49662,159.571301 593.500569,159.559455 593.508466,159.551559 L593.508466,159.551559 L593.520311,159.531816 C593.52426,159.519971 593.532156,159.512074 593.536105,159.500229 L593.536105,159.500229 L593.54795,159.476538 L593.54795,159.476538 L593.559795,159.448899 C593.563744,159.441002 593.567692,159.429157 593.571641,159.42126 C593.575589,159.413363 593.579538,159.405466 593.583486,159.393621 C593.587434,159.381776 593.591383,159.373879 593.595331,159.362034 L593.595331,159.362034 L593.615074,159.302807 C593.619022,159.29491 593.619022,159.290962 593.619022,159.283065 C593.62297,159.27122 593.626919,159.255426 593.630867,159.243581 L593.630867,159.243581 L593.634816,159.223838 C593.638764,159.211993 593.642713,159.196199 593.642713,159.184354 L593.642713,159.184354 L593.650609,159.14487 L593.650609,159.14487 L593.654558,159.125128 C593.654558,159.117231 593.654558,159.109334 593.658506,159.101437 C593.658506,159.089592 593.662455,159.077746 593.662455,159.061953 C593.662455,159.050107 593.662455,159.04221 593.666403,159.030365 C593.666403,159.01852 593.666403,159.010623 593.670352,158.998778 L593.670352,158.998778 L593.670352,158.923757 C593.705888,158.844789 593.705888,158.828995 593.705888,158.809253 L593.705394,158.793459 L593.705394,158.793459 L593.701939,158.777665 C593.701939,158.76582 593.701939,158.757923 593.697991,158.746078 C593.697991,158.734232 593.694042,158.718439 593.694042,158.706593 C593.694042,158.698697 593.694042,158.6908 593.690094,158.682903 C593.686145,158.671057 593.686145,158.655264 593.682197,158.643418 L593.6743,158.603934 L593.6743,158.603934 L593.670352,158.584192 L593.670352,158.584192 L593.666403,158.56445 L593.666403,158.56445 L593.654558,158.524965 C593.654558,158.517069 593.650609,158.51312 593.650609,158.505223 L593.650609,158.505223 L593.630867,158.445997 C593.626919,158.434151 593.62297,158.426255 593.619022,158.414409 C593.615074,158.406512 593.611125,158.398615 593.607177,158.38677 C593.603228,158.378873 593.59928,158.367028 593.595331,158.359131 C593.591383,158.347286 593.587434,158.339389 593.583486,158.331492 L593.571641,158.307801 C593.567692,158.295956 593.559795,158.288059 593.555847,158.276214 C593.551899,158.268317 593.54795,158.264369 593.544002,158.256472 C593.536105,158.244627 593.532156,158.232781 593.52426,158.224884 L593.518337,158.215013 L593.518337,158.215013 L593.512414,158.205142 C593.504517,158.193297 593.49662,158.181452 593.492672,158.173555 L593.492672,158.173555 L593.480827,158.153812 C593.47293,158.141967 593.465033,158.13407 593.457136,158.122225 C593.453188,158.114328 593.445291,158.106431 593.441342,158.102483 C593.433446,158.094586 593.425549,158.082741 593.4216,158.074844 C593.413703,158.066947 593.405806,158.055102 593.39791,158.047205 C593.393961,158.039308 593.386064,158.035359 593.382116,158.027463 C593.366322,158.011669 593.354477,157.995875 593.338683,157.980081 L593.338683,157.980081 Z" id="8"></path>
        </g>
    </g>
</svg>