<?xml version="1.0" encoding="UTF-8"?>
<svg width="35px" height="37px" viewBox="0 0 35 37" version="1.1" xmlns="http://www.w3.org/2000/svg" xmlns:xlink="http://www.w3.org/1999/xlink">
    <!-- Generator: Sketch 60 (88103) - https://sketch.com -->
    <title>22</title>
    <desc>Created with Sketch.</desc>
    <defs>
        <linearGradient x1="83.1993984%" y1="115.138982%" x2="81.3312176%" y2="-24.5882884%" id="linearGradient-1">
            <stop stop-color="#00B6FF" offset="0%"></stop>
            <stop stop-color="#0B82FF" offset="100%"></stop>
        </linearGradient>
    </defs>
    <g id="首页+我的工作台" stroke="none" stroke-width="1" fill="none" fill-rule="evenodd">
        <g id="005-发起申请备份" transform="translate(-273.000000, -144.000000)" fill="url(#linearGradient-1)" fill-rule="nonzero">
            <path d="M298.178033,144 C298.950502,144 299.576799,144.626297 299.576799,145.398766 L299.576799,146.797531 L305.171945,146.797531 C306.714841,146.797531 307.969518,148.052542 307.969518,149.595105 L307.969518,177.571044 C307.969518,179.11394 306.714841,180.368576 305.171945,180.368576 L275.797573,180.368576 C274.254678,180.368576 273,179.113898 273,177.571003 L273,149.595105 C273,148.052542 274.254678,146.797531 275.797573,146.797531 L281.392678,146.797531 L281.392678,145.398766 C281.392678,144.626297 282.018975,144 282.791443,144 C283.563912,144 284.190209,144.626297 284.190209,145.398766 L284.190209,146.797531 L296.779268,146.797531 L296.779268,145.398766 C296.779268,144.626297 297.405565,144 298.178033,144 Z M290.834669,162.184246 L288.7365,162.184246 L288.7365,174.073859 L292.233435,174.073859 L292.233435,163.583012 C292.233435,162.810502 291.607179,162.184246 290.834669,162.184246 L290.834669,162.184246 Z M281.392678,149.595105 L276.597573,149.595105 C276.155745,149.595105 275.797573,149.953277 275.797573,150.395105 L275.797573,156.082563 L305.172385,156.082563 L305.171945,150.395105 C305.171913,149.9533 304.81375,149.595105 304.371945,149.595105 L299.576799,149.595105 L299.576799,150.99387 C299.576799,151.766339 298.950502,152.392636 298.178033,152.392636 C297.405565,152.392636 296.779268,151.766339 296.779268,150.99387 L296.779268,149.595105 L284.190209,149.595105 L284.190209,150.99387 C284.190251,151.766339 283.563953,152.392636 282.791443,152.392636 C282.018975,152.392636 281.392678,151.766339 281.392678,150.99387 L281.392678,149.595105 Z" id="22"></path>
        </g>
    </g>
</svg>