<?xml version="1.0" encoding="UTF-8"?>
<svg width="40px" height="36px" viewBox="0 0 40 36" version="1.1" xmlns="http://www.w3.org/2000/svg" xmlns:xlink="http://www.w3.org/1999/xlink">
    <!-- Generator: Sketch 60 (88103) - https://sketch.com -->
    <title>9</title>
    <desc>Created with Sketch.</desc>
    <defs>
        <linearGradient x1="100%" y1="86.6531307%" x2="0%" y2="11.1746488%" id="linearGradient-1">
            <stop stop-color="#0077FF" offset="0%"></stop>
            <stop stop-color="#05B3FF" offset="100%"></stop>
            <stop stop-color="#5533FF" offset="100%"></stop>
        </linearGradient>
    </defs>
    <g id="首页+我的工作台" stroke="none" stroke-width="1" fill="none" fill-rule="evenodd">
        <g id="005-发起申请备份" transform="translate(-761.000000, -160.000000)" fill="url(#linearGradient-1)">
            <path d="M796.7064,192.5179 C797.4454,192.5179 798.0444,193.1309 798.0444,193.8879 C798.0444,194.6449 797.4454,195.2579 796.7064,195.2579 L792.2754,195.2579 C791.5364,195.2579 790.9374,194.6449 790.9374,193.8879 C790.9374,193.1309 791.5364,192.5179 792.2754,192.5179 L796.7064,192.5179 Z M791.939,160 C793.458,160 794.7,161.242 794.7,162.761 L794.7,162.761 L794.7,176.78 C794.629,176.777 794.562,176.758 794.491,176.758 C791.819,176.758 789.646,178.968 789.646,181.684 C789.646,183.284 790.41,184.763 791.653,185.677 L791.653,185.677 L791.653,186.693 L789.636,186.693 C787.913,186.693 786.511,187.98 786.511,189.563 C786.511,191.146 787.913,192.433 789.636,192.433 L789.636,192.433 L789.83,192.433 C789.581,192.86 789.437,193.358 789.437,193.888 C789.437,194.326 789.542,194.737 789.717,195.109 L789.717,195.109 L763.76,195.109 C762.242,195.109 761,193.867 761,192.348 L761,192.348 L761,162.761 C761,161.242 762.242,160 763.76,160 L763.76,160 Z M794.4904,178.2579 C796.3374,178.2579 797.8354,179.7919 797.8354,181.6839 C797.8354,183.0889 797.0094,184.2959 795.8284,184.8249 L795.8284,188.1929 L799.3864,188.1929 C800.2844,188.1929 801.0114,188.8069 801.0114,189.5629 C801.0114,190.3199 800.2844,190.9329 799.3864,190.9329 L789.6364,190.9329 C788.7394,190.9329 788.0114,190.3199 788.0114,189.5629 C788.0114,188.8069 788.7394,188.1929 789.6364,188.1929 L793.1534,188.1929 L793.1534,184.8249 C791.9724,184.2959 791.1464,183.0889 791.1464,181.6839 C791.1464,179.7919 792.6444,178.2579 794.4904,178.2579 Z M774.142496,181 L769.347581,181 C768.603337,181 768,181.595353 768,182.329748 C768,183.064143 768.603337,183.659496 769.347581,183.659496 L769.347581,183.659496 L774.142496,183.659496 C774.88674,183.659496 775.490077,183.064143 775.490077,182.329748 C775.490077,181.595353 774.88674,181 774.142496,181 L774.142496,181 Z M779.469621,175 L769.347581,175 C768.603337,175 768,175.595353 768,176.329748 C768,177.064143 768.603337,177.659496 769.347581,177.659496 L769.347581,177.659496 L779.469621,177.659496 C780.213865,177.659496 780.817202,177.064143 780.817202,176.329748 C780.817202,175.595353 780.213865,175 779.469621,175 L779.469621,175 Z M784.430034,168 L769.347581,168 C768.603337,168 768,168.595353 768,169.329748 C768,170.064143 768.603337,170.659496 769.347581,170.659496 L769.347581,170.659496 L784.430034,170.659496 C785.174278,170.659496 785.777615,170.064143 785.777615,169.329748 C785.777615,168.595353 785.174278,168 784.430034,168 L784.430034,168 Z" id="9"></path>
        </g>
    </g>
</svg>