<?xml version="1.0" encoding="UTF-8"?>
<svg width="31px" height="31px" viewBox="0 0 31 31" version="1.1" xmlns="http://www.w3.org/2000/svg" xmlns:xlink="http://www.w3.org/1999/xlink">
    <!-- Generator: Sketch 60 (88103) - https://sketch.com -->
    <title>路径 2</title>
    <desc>Created with Sketch.</desc>
    <defs>
        <linearGradient x1="100%" y1="97.2025746%" x2="0%" y2="0%" id="linearGradient-1">
            <stop stop-color="#0077FF" offset="0%"></stop>
            <stop stop-color="#05B3FF" offset="100%"></stop>
            <stop stop-color="#5533FF" offset="100%"></stop>
        </linearGradient>
    </defs>
    <g id="首页+我的工作台" stroke="none" stroke-width="1" fill="none" fill-rule="evenodd">
        <g id="005-发起申请备份" transform="translate(-472.000000, -146.000000)" fill="url(#linearGradient-1)">
            <path d="M499.5,162.5 C501.016797,162.5 502.25,163.733203 502.25,165.25 L502.25,173.5 C502.25,175.016797 501.016797,176.25 499.5,176.25 L491.25,176.25 C489.733203,176.25 488.5,175.016797 488.5,173.5 L488.5,165.25 C488.5,163.733203 489.733203,162.5 491.25,162.5 L499.5,162.5 Z M483,162.5 C484.516797,162.5 485.75,163.733203 485.75,165.25 L485.75,173.5 C485.75,175.016797 484.516797,176.25 483,176.25 L474.75,176.25 C473.233203,176.25 472,175.016797 472,173.5 L472,165.25 C472,163.733203 473.233203,162.5 474.75,162.5 L483,162.5 Z M499.5,165.25 L491.25,165.25 L491.25,173.5 L499.5,173.5 L499.5,165.25 Z M483,146 C484.516797,146 485.75,147.233203 485.75,148.75 L485.75,157 C485.75,158.516797 484.516797,159.75 483,159.75 L474.75,159.75 C473.233203,159.75 472,158.516797 472,157 L472,148.75 C472,147.233203 473.233203,146 474.75,146 L483,146 Z M499.5,146 C501.016797,146 502.25,147.233203 502.25,148.75 L502.25,157 C502.25,158.516797 501.016797,159.75 499.5,159.75 L491.25,159.75 C489.733203,159.75 488.5,158.516797 488.5,157 L488.5,148.75 C488.5,147.233203 489.733203,146 491.25,146 L499.5,146 Z" id="路径-2"></path>
        </g>
    </g>
</svg>