<?xml version="1.0" encoding="UTF-8"?>
<svg width="42px" height="31px" viewBox="0 0 42 31" version="1.1" xmlns="http://www.w3.org/2000/svg" xmlns:xlink="http://www.w3.org/1999/xlink">
    <!-- Generator: Sketch 60 (88103) - https://sketch.com -->
    <title>13</title>
    <desc>Created with Sketch.</desc>
    <defs>
        <linearGradient x1="100%" y1="74.5383871%" x2="0%" y2="24.0073636%" id="linearGradient-1">
            <stop stop-color="#0077FF" offset="0%"></stop>
            <stop stop-color="#05B3FF" offset="100%"></stop>
            <stop stop-color="#5533FF" offset="100%"></stop>
        </linearGradient>
    </defs>
    <g id="首页+我的工作台" stroke="none" stroke-width="1" fill="none" fill-rule="evenodd">
        <g id="005-发起申请备份" transform="translate(-653.000000, -358.000000)" fill="url(#linearGradient-1)" fill-rule="nonzero">
            <path d="M685.687184,358 C687.149925,358 688.355804,359.151704 688.443122,360.593411 L688.448184,360.761 L688.448184,369.78 C688.377184,369.777 688.310184,369.758 688.239184,369.758 C685.567184,369.758 683.394184,371.968 683.394184,374.684 C683.394184,376.199789 684.07988,377.606981 685.208943,378.528054 L685.401184,378.677 L685.401184,379.693 L683.384184,379.693 C681.661184,379.693 680.259184,380.98 680.259184,382.563 C680.259184,384.089464 681.56283,385.340694 683.200855,385.42812 L683.384184,385.433 L683.578184,385.433 C683.329184,385.86 683.185184,386.358 683.185184,386.888 C683.185184,387.253 683.258101,387.59925 683.38368,387.919806 L683.465184,388.109 L655.76,388.109 C654.298222,388.109 653.092379,386.957296 653.005062,385.515589 L653,385.348 L653,360.761 C653,359.298259 654.151704,358.09238 655.592518,358.005062 L655.76,358 L685.687184,358 Z M690.528584,385.2579 C691.267584,385.2579 691.866584,385.8709 691.866584,386.6279 C691.866584,387.3849 691.267584,387.9979 690.528584,387.9979 L686.097584,387.9979 C685.358584,387.9979 684.759584,387.3849 684.759584,386.6279 C684.759584,385.8709 685.358584,385.2579 686.097584,385.2579 L690.528584,385.2579 Z M688.238584,371.2579 C690.085584,371.2579 691.583584,372.7919 691.583584,374.6839 C691.583584,376.0889 690.757584,377.2959 689.576584,377.8249 L689.576584,381.1929 L693.134584,381.1929 C694.032584,381.1929 694.759584,381.8069 694.759584,382.5629 C694.759584,383.3199 694.032584,383.9329 693.134584,383.9329 L683.384584,383.9329 C682.487584,383.9329 681.759584,383.3199 681.759584,382.5629 C681.759584,381.8069 682.487584,381.1929 683.384584,381.1929 L686.901584,381.1929 L686.901584,377.8249 C685.720584,377.2959 684.894584,376.0889 684.894584,374.6839 C684.894584,372.7919 686.392584,371.2579 688.238584,371.2579 Z M663.877031,365 C661.00081,365 658.665995,367.334814 658.665995,370.211035 C658.665995,371.704736 659.333085,373.135596 660.469072,374.121729 C659.549506,374.638309 658.758097,375.355368 658.153593,376.219678 C657.331816,377.394336 656.901591,378.767187 656.901591,380.202881 C656.901591,380.807129 657.394657,381.300195 657.998906,381.300195 C658.603154,381.300195 659.09622,380.807129 659.09622,380.202881 C659.09622,377.563525 661.242509,375.417236 663.877031,375.417236 C666.516386,375.417236 668.662675,377.563525 668.662675,380.202881 C668.662675,380.807129 669.155741,381.300195 669.75999,381.300195 C670.364238,381.300195 670.857304,380.807129 670.857304,380.202881 C670.857304,378.772021 670.422245,377.394336 669.605302,376.219678 C668.99622,375.359229 668.198613,374.638965 667.28499,374.121729 C668.420976,373.135596 669.088066,371.699902 669.088066,370.211035 C669.088066,367.339648 666.753251,365 663.877031,365 Z M675.510555,372 L674.203662,372 C673.541406,372 673,372.541406 673,373.203662 C673,373.865918 673.541406,374.407324 674.203662,374.407324 L675.510555,374.407324 C676.172811,374.407324 676.714217,373.865918 676.714217,373.203662 C676.714217,372.541406 676.177645,372 675.510555,372 Z M663.917997,367 C665.580888,367 666.934404,368.353516 666.934404,370.016406 C666.934404,371.679297 665.580888,373.032812 663.917997,373.032812 C662.255107,373.032812 660.901591,371.679297 660.901591,370.016406 C660.901591,368.353516 662.255107,367 663.917997,367 Z M679.642931,367 L674.203662,367 C673.541406,367 673,367.541406 673,368.203662 C673,368.865918 673.541406,369.407324 674.203662,369.407324 L679.642931,369.407324 C680.305187,369.407324 680.846593,368.865918 680.846593,368.203662 C680.846593,367.541406 680.310021,367 679.642931,367 Z" id="13"></path>
        </g>
    </g>
</svg>