<?xml version="1.0" encoding="UTF-8"?>
<svg width="34px" height="34px" viewBox="0 0 34 34" version="1.1" xmlns="http://www.w3.org/2000/svg" xmlns:xlink="http://www.w3.org/1999/xlink">
    <!-- Generator: Sketch 60 (88103) - https://sketch.com -->
    <title>12</title>
    <desc>Created with Sketch.</desc>
    <defs>
        <linearGradient x1="100%" y1="95.3228701%" x2="0%" y2="1.99110373%" id="linearGradient-1">
            <stop stop-color="#0077FF" offset="0%"></stop>
            <stop stop-color="#05B3FF" offset="100%"></stop>
            <stop stop-color="#5533FF" offset="100%"></stop>
        </linearGradient>
    </defs>
    <g id="首页+我的工作台" stroke="none" stroke-width="1" fill="none" fill-rule="evenodd">
        <g id="005-发起申请备份" transform="translate(-764.000000, -356.000000)" fill="url(#linearGradient-1)">
            <path d="M778.945,367.125 L778.945418,368.918051 C778.812924,368.969461 778.683398,369.031285 778.558044,369.10352 C777.689351,369.6056 777.154115,370.533027 777.154115,371.536239 C777.154115,373.087003 778.41121,374.345045 779.962921,374.345045 C781.513685,374.345045 782.770779,373.087003 782.770779,371.536239 C782.770779,370.533027 782.235543,369.6056 781.36685,369.10352 C781.241946,369.031465 781.11287,368.969771 780.98082,368.918437 L780.98,367.125 L795.70022,367.12523 L795.700848,375.496806 C794.691707,375.174167 793.616193,375 792.5,375 C786.70101,375 782,379.70101 782,385.5 C782,386.752449 782.219284,387.953682 782.621553,389.067399 L779.826126,389.089797 L779.431859,389.092129 L766.776765,389.092906 L766.776765,389.109115 C765.038761,389.109115 764,388.067724 764,386.32532 L764,367.125 L778.945,367.125 Z M796.735274,384.804317 C797.318824,384.804317 797.792484,385.27703 797.788718,385.861527 C797.788718,386.442234 797.318824,386.911158 796.738116,386.911158 L789.983697,386.911158 L790.276419,387.20388 C790.685661,387.613123 790.685661,388.282878 790.276419,388.692121 C790.072745,388.898637 789.803706,389 789.533719,389 C789.263733,389 788.993747,388.894847 788.79102,388.692121 L786.703125,386.604226 C786.292935,386.194036 786.292935,385.524281 786.703125,385.115038 C786.899221,384.915154 787.156892,384.81379 787.416458,384.807159 L787.451153,384.804672 L787.451153,384.804672 L796.735274,384.804317 Z M795.405236,378.873143 L797.494078,380.961037 C797.506393,380.973352 797.515867,380.986615 797.528182,380.99893 C797.531971,381.005561 797.538602,381.008403 797.541444,381.015035 C797.548076,381.021666 797.553759,381.031139 797.560391,381.036823 C797.56418,381.043454 797.569864,381.052927 797.576495,381.059559 C797.579337,381.062401 797.585968,381.069032 797.58881,381.075663 C797.595442,381.085136 797.602073,381.09082 797.607757,381.100293 L797.61723,381.116398 L797.61723,381.116398 C797.621019,381.123029 797.626703,381.132502 797.633334,381.141975 C797.636176,381.148607 797.639966,381.151449 797.642808,381.15808 C797.649439,381.163764 797.652281,381.173237 797.658912,381.183658 C797.661754,381.189342 797.664596,381.193131 797.668385,381.198815 L797.6807,381.224392 L797.6807,381.224392 L797.690174,381.243339 C797.693963,381.24997 797.696805,381.256601 797.699647,381.266074 C797.703436,381.271758 797.706278,381.281232 797.710067,381.287863 C797.712909,381.297336 797.715751,381.303967 797.719541,381.310599 C797.722382,381.320072 797.725224,381.325756 797.729014,381.335229 C797.731856,381.34186 797.731856,381.348491 797.734698,381.355123 L797.744171,381.383542 C797.744171,381.389226 797.74796,381.393015 797.74796,381.398699 L797.757433,381.430908 L797.757433,381.430908 C797.757433,381.43754 797.760275,381.440381 797.760275,381.447013 C797.763117,381.456486 797.763117,381.468801 797.766907,381.478274 C797.766907,381.484906 797.769749,381.487748 797.769749,381.494379 C797.77259,381.503852 797.77259,381.516167 797.77638,381.52564 C797.779222,381.532272 797.779222,381.538903 797.779222,381.544587 C797.779222,381.555007 797.782064,381.567322 797.782064,381.576796 C797.785853,381.586269 797.785853,381.5929 797.785853,381.602373 L797.78834,381.614807 L797.78834,381.614807 L797.788695,381.627951 C797.788695,381.643108 797.788695,381.656371 797.760275,381.719841 L797.760275,381.779522 C797.757433,381.788995 797.757433,381.795627 797.757433,381.8051 C797.753644,381.814573 797.753644,381.821204 797.753644,381.830678 C797.753644,381.842993 797.750802,381.852466 797.750802,381.862886 C797.74796,381.86857 797.74796,381.875202 797.74796,381.881833 L797.741329,381.913094 L797.741329,381.913094 C797.741329,381.919726 797.738487,381.922568 797.738487,381.929199 C797.738487,381.938672 797.734698,381.950987 797.731856,381.960461 L797.729014,381.976565 L797.729014,381.976565 C797.725224,381.986038 797.722382,381.999301 797.719541,382.008774 C797.719541,382.014458 797.719541,382.018247 797.715751,382.023931 L797.706278,382.052351 C797.703436,382.058982 797.703436,382.065613 797.699647,382.072244 C797.696805,382.081718 797.693963,382.087401 797.690174,382.096875 C797.687332,382.106348 797.68449,382.112979 797.6807,382.11961 L797.676319,382.130505 L797.676319,382.130505 L797.671227,382.141399 C797.668385,382.14803 797.664596,382.157503 797.661754,382.164134 L797.652281,382.183081 C797.649439,382.192554 797.642808,382.199185 797.639966,382.208659 C797.636176,382.214342 797.633334,382.218132 797.630492,382.223816 C797.623861,382.230447 797.621019,382.23992 797.614388,382.249393 L797.604915,382.265498 L797.604915,382.265498 C797.602073,382.272129 797.595442,382.281602 797.58881,382.291075 C797.585968,382.296759 797.583126,382.300549 797.579337,382.30718 C797.572706,382.316653 797.567022,382.322337 797.560391,382.33181 C797.557549,382.335599 797.550917,382.341283 797.548076,382.347915 C797.544286,382.354546 797.538602,382.364019 797.531971,382.37065 L797.513025,382.392439 L797.513025,382.392439 L797.499762,382.408543 L797.499762,382.408543 C797.475132,382.434121 797.449554,382.46254 797.423977,382.484329 L797.407872,382.496644 L797.407872,382.496644 C797.402188,382.503275 797.392715,382.509906 797.386084,382.516538 C797.379452,382.522222 797.369979,382.528853 797.363348,382.535484 L797.347244,382.547799 L797.347244,382.547799 C797.33777,382.554431 797.332086,382.560114 797.322613,382.566746 L797.306509,382.576219 L797.306509,382.576219 L797.278089,382.595165 C797.271458,382.598955 797.268616,382.601797 797.261985,382.604639 L797.233565,382.620743 L797.233565,382.620743 L797.217461,382.630216 L797.217461,382.630216 L797.191883,382.643479 L797.191883,382.643479 L797.172937,382.652952 L797.148306,382.662425 L797.148306,382.662425 L797.136938,382.666806 L797.136938,382.666806 L797.103782,382.681371 L797.103782,382.681371 C797.094309,382.684213 797.087678,382.688003 797.078204,382.690845 C797.071573,382.693687 797.064942,382.693687 797.059258,382.697476 L797.030838,382.706949 C797.027049,382.709791 797.021365,382.709791 797.014734,382.712633 C797.001472,382.716422 796.991998,382.719264 796.982525,382.722106 C796.976841,382.722106 796.973052,382.725896 796.967368,382.725896 C796.956947,382.728738 796.944632,382.728738 796.935159,382.731579 C796.932317,382.731579 796.925686,382.735369 796.919055,382.735369 C796.909581,382.738211 796.897266,382.742 796.887793,382.742 C796.881162,382.744842 796.874531,382.744842 796.868847,382.744842 C796.859373,382.744842 796.8499,382.747684 796.840427,382.747684 C796.830954,382.751473 796.824323,382.751473 796.814849,382.751473 C796.808218,382.754315 796.801587,382.754315 796.792114,382.754315 L787.483717,382.754315 C786.90301,382.754315 786.433139,382.284444 786.433139,381.703737 C786.433139,381.123029 786.90301,380.653158 787.483717,380.653158 L794.20877,380.653158 L793.916996,380.361383 C793.507753,379.952141 793.507753,379.282385 793.916996,378.873143 C794.326238,378.4639 794.995994,378.4639 795.405236,378.873143 Z M792.923626,356 C794.66163,356 795.700391,357.04139 795.700391,358.783794 L795.70022,365.090386 L780.98,365.09 L780.98082,363.96324 C781.11287,363.911906 781.241946,363.850212 781.36685,363.778157 C782.235543,363.276077 782.770779,362.34865 782.770779,361.345438 C782.770779,359.794674 781.513685,358.536632 779.962921,358.536632 C778.41121,358.536632 777.154115,359.794674 777.154115,361.345438 C777.154115,362.34865 777.689351,363.276077 778.558044,363.778157 C778.683398,363.850392 778.812924,363.912215 778.945418,363.963626 L778.945,365.09 L764,365.09 L764,358.783794 C764,357.04139 765.038761,356 766.776765,356 L792.923626,356 Z" id="12"></path>
        </g>
    </g>
</svg>