<?xml version="1.0" encoding="UTF-8"?>
<svg width="40px" height="31px" viewBox="0 0 40 31" version="1.1" xmlns="http://www.w3.org/2000/svg" xmlns:xlink="http://www.w3.org/1999/xlink">
    <!-- Generator: Sketch 60 (88103) - https://sketch.com -->
    <title>14</title>
    <desc>Created with Sketch.</desc>
    <defs>
        <linearGradient x1="100%" y1="78.521366%" x2="0%" y2="19.7883364%" id="linearGradient-1">
            <stop stop-color="#0077FF" offset="0%"></stop>
            <stop stop-color="#05B3FF" offset="100%"></stop>
            <stop stop-color="#5533FF" offset="100%"></stop>
        </linearGradient>
    </defs>
    <g id="首页+我的工作台" stroke="none" stroke-width="1" fill="none" fill-rule="evenodd">
        <g id="005-发起申请备份" transform="translate(-566.000000, -357.000000)" fill="url(#linearGradient-1)" fill-rule="nonzero">
            <path d="M602.588428,357 C603.970947,357 605.097266,358.126318 605.097266,359.508838 L605.097266,359.508838 L605.097266,384.882422 C605.097266,386.264941 603.970947,387.39126 602.588428,387.39126 L602.588428,387.39126 L568.513672,387.39126 C567.126318,387.39126 566,386.264941 566,384.882422 L566,384.882422 L566,359.513672 C566,358.126318 567.126318,357 568.513672,357 L568.513672,357 Z M578.418506,364.241309 C575.542285,364.241309 573.207471,366.576123 573.207471,369.452344 C573.207471,370.946045 573.874561,372.376904 575.010547,373.363037 C574.090981,373.879617 573.299572,374.596677 572.695068,375.460986 C571.873291,376.635645 571.443066,378.008496 571.443066,379.444189 C571.443066,380.048438 571.936133,380.541504 572.540381,380.541504 C573.144629,380.541504 573.637695,380.048438 573.637695,379.444189 C573.637695,376.804834 575.783984,374.658545 578.418506,374.658545 C581.057861,374.658545 583.20415,376.804834 583.20415,379.444189 C583.20415,380.048438 583.697217,380.541504 584.301465,380.541504 C584.905713,380.541504 585.398779,380.048438 585.398779,379.444189 C585.398779,378.01333 584.963721,376.635645 584.146777,375.460986 C583.537695,374.600537 582.740088,373.880273 581.826465,373.363037 C582.962451,372.376904 583.629541,370.941211 583.629541,369.452344 C583.629541,366.580957 581.294727,364.241309 578.418506,364.241309 Z M598.677734,376.683984 L589.643018,376.683984 C588.980762,376.683984 588.439355,377.225391 588.439355,377.887646 C588.439355,378.549902 588.980762,379.091309 589.643018,379.091309 L598.677734,379.091309 C599.33999,379.091309 599.881396,378.549902 599.881396,377.887646 C599.881396,377.225391 599.344824,376.683984 598.677734,376.683984 Z M598.677734,371.70498 L589.643018,371.70498 C588.980762,371.70498 588.439355,372.246387 588.439355,372.908643 C588.439355,373.570898 588.980762,374.112305 589.643018,374.112305 L598.677734,374.112305 C599.33999,374.112305 599.881396,373.570898 599.881396,372.908643 C599.881396,372.246387 599.344824,371.70498 598.677734,371.70498 Z M578.418506,366.435938 C580.081396,366.435938 581.434912,367.789453 581.434912,369.452344 C581.434912,371.115234 580.081396,372.46875 578.418506,372.46875 C576.755615,372.46875 575.4021,371.115234 575.4021,369.452344 C575.4021,367.789453 576.755615,366.435938 578.418506,366.435938 Z M598.677734,366.672803 L589.643018,366.672803 C588.980762,366.672803 588.439355,367.214209 588.439355,367.876465 C588.439355,368.538721 588.980762,369.080127 589.643018,369.080127 L598.677734,369.080127 C599.33999,369.080127 599.881396,368.538721 599.881396,367.876465 C599.881396,367.214209 599.344824,366.672803 598.677734,366.672803 Z" id="14"></path>
        </g>
    </g>
</svg>