<?xml version="1.0" encoding="UTF-8"?>
<svg width="39px" height="39px" viewBox="0 0 39 39" version="1.1" xmlns="http://www.w3.org/2000/svg" xmlns:xlink="http://www.w3.org/1999/xlink">
    <!-- Generator: Sketch 60 (88103) - https://sketch.com -->
    <title>1</title>
    <desc>Created with Sketch.</desc>
    <g id="首页+我的工作台" stroke="none" stroke-width="1" fill="none" fill-rule="evenodd">
        <g id="005-发起申请备份" transform="translate(-655.000000, -61.000000)" fill="#0295FF" fill-rule="nonzero">
            <path d="M690.317998,61 C692.011774,61 693.38914,62.3777179 693.38914,64.0711418 L693.38914,96.3183502 C693.38914,98.0121258 692.01173,99.3894919 690.317998,99.3894919 L658.071142,99.3894919 C656.377366,99.3894919 655,98.0121258 655,96.3183502 L655,64.0711418 C655,62.3777619 656.377366,61 658.071142,61 L690.317998,61 Z M689.517998,64.0711418 L658.871142,64.0711418 C658.429314,64.0711418 658.071142,64.429314 658.071142,64.8711418 L658.071142,95.5183502 C658.071142,95.960178 658.429314,96.3183502 658.871142,96.3183502 L689.520241,96.3183502 C689.928082,96.3184015 690.264642,96.0132173 690.314008,95.6187561 L690.320185,95.5183502 L690.320185,95.5183502 L690.318054,64.8711418 C690.317968,64.4293357 689.959804,64.0711974 689.517998,64.0711418 Z M674.625,72 C675.177285,72 675.625,72.4477153 675.625,73 L675.625,78.874 L681.5,78.875 C682.052285,78.875 682.5,79.3227153 682.5,79.875 L682.5,80.625 C682.5,81.1772847 682.052285,81.625 681.5,81.625 L675.625,81.624 L675.625,87.5 C675.625,88.0522847 675.177285,88.5 674.625,88.5 L673.875,88.5 C673.322715,88.5 672.875,88.0522847 672.875,87.5 L672.875,81.624 L667,81.625 C666.447715,81.625 666,81.1772847 666,80.625 L666,79.875 C666,79.3227153 666.447715,78.875 667,78.875 L672.875,78.874 L672.875,73 C672.875,72.4477153 673.322715,72 673.875,72 L674.625,72 Z" id="1"></path>
        </g>
    </g>
</svg>