<?xml version="1.0" encoding="UTF-8"?>
<svg width="38px" height="38px" viewBox="0 0 38 38" version="1.1" xmlns="http://www.w3.org/2000/svg" xmlns:xlink="http://www.w3.org/1999/xlink">
    <!-- Generator: Sketch 60 (88103) - https://sketch.com -->
    <title>10</title>
    <desc>Created with Sketch.</desc>
    <defs>
        <linearGradient x1="99.9939988%" y1="97.2025746%" x2="0.00600122708%" y2="0%" id="linearGradient-1">
            <stop stop-color="#0077FF" offset="0%"></stop>
            <stop stop-color="#05B3FF" offset="100%"></stop>
            <stop stop-color="#5533FF" offset="100%"></stop>
        </linearGradient>
    </defs>
    <g id="首页+我的工作台" stroke="none" stroke-width="1" fill="none" fill-rule="evenodd">
        <g id="005-发起申请备份" transform="translate(-375.000000, -354.000000)" fill="url(#linearGradient-1)" fill-rule="nonzero">
            <path d="M412.35,372.660989 C412.35,362.354814 403.989022,354 393.675187,354 C383.361165,354 375,362.354814 375,372.660989 C375,382.181375 382.134358,390.035991 391.352002,391.178921 C391.871628,391.288428 392.504534,391.352242 393.258343,391.352242 C393.469959,391.352242 393.674029,391.341108 393.871111,391.320933 C404.09468,391.215872 412.35,382.902156 412.35,372.660989 Z M409.679688,372.925024 C409.625962,371.993934 409.502967,371.082534 409.315673,370.196801 C409.332299,369.880535 409.33682,369.580894 409.328339,369.302326 C409.559944,370.385328 409.68208,371.508905 409.68208,372.660989 C409.682116,372.7492 409.681107,372.83715 409.679688,372.925024 Z M377.667921,372.660989 C377.667921,371.529903 377.785685,370.426351 378.009145,369.361619 C378.700411,370.100931 380.329715,370.083483 380.727056,368.978849 C381.438011,369.402567 382.393424,369.479719 382.393424,370.326633 C382.393424,373.121733 382.492955,376.118325 385.032576,376.164616 C385.104086,376.16555 386.448882,376.674266 387.088887,378.334095 C387.31018,378.907784 388.185489,378.334095 389.145385,378.334095 C389.624585,378.334095 389.145385,379.141406 389.145385,380.887167 C389.145385,382.626165 392.89459,385.3038 392.89459,385.3038 C392.877216,386.454913 392.924479,387.385704 393.020274,388.129313 C392.173995,388.113733 391.460799,388.225893 390.900486,388.416624 C383.382499,387.103736 377.667921,380.54953 377.667921,372.660989 Z M397.61587,388.167684 C397.53289,387.761413 397.169847,387.538924 396.507462,387.71303 C397.03598,385.462326 397.292916,384.201557 398.396243,383.244276 C399.992595,381.860475 398.586339,380.321624 397.371562,380.502977 C396.414095,380.647529 397.019167,379.317492 396.164594,379.243927 C395.310021,379.172416 394.193991,377.47261 392.964082,376.887714 C392.312122,376.578098 391.671406,375.74837 390.66593,375.711195 C389.774742,375.676635 388.472352,376.464742 388.472352,375.857242 C388.472352,373.900462 388.274223,372.504145 388.233499,371.946522 C388.200621,371.498519 387.940658,371.795619 389.145385,371.824574 C389.801045,371.842134 389.48078,370.507613 390.129752,370.455493 C390.767142,370.405055 392.285968,371.052159 392.672923,370.794252 C393.032417,370.554091 395.315438,376.787061 395.315438,371.824537 C395.315438,371.235717 395.010492,370.21197 395.315438,369.65431 C396.521473,367.450645 397.650542,365.65467 397.549142,365.391943 C397.491605,365.244028 396.315274,365.121893 395.374059,365.437711 C395.05641,365.543781 395.475085,366.041288 395.018861,366.147545 C393.309528,366.542159 391.799295,365.686651 392.32815,364.882517 C392.869707,364.058393 394.831904,364.523023 395.003917,362.869732 C395.102888,361.922726 395.184897,360.825937 395.239781,360.010781 C397.540288,360.370536 397.28705,357.025173 393.866404,356.667099 C400.786605,356.748062 406.650741,361.217226 408.802623,367.419784 C408.693788,367.320514 408.56717,367.260175 408.420936,367.245455 C407.386728,364.662157 404.876436,366.531697 405.727983,368.810235 C401.165302,372.317598 402.333228,374.763815 403.83229,376.164616 C404.621106,376.900977 405.373159,378.008414 405.862821,378.803769 C405.329857,380.357827 407.82655,379.735531 409.057878,377.098247 C407.49164,382.530071 403.122381,386.774691 397.61587,388.167684 Z" id="10"></path>
        </g>
    </g>
</svg>