<?xml version="1.0" encoding="UTF-8"?>
<svg width="12px" height="12px" viewBox="0 0 12 12" version="1.1" xmlns="http://www.w3.org/2000/svg" xmlns:xlink="http://www.w3.org/1999/xlink">
    <!-- Generator: Sketch 60 (88103) - https://sketch.com -->
    <title>放大镜</title>
    <desc>Created with Sketch.</desc>
    <g id="测试任务流程设计" stroke="none" stroke-width="1" fill="none" fill-rule="evenodd">
        <g id="图标" transform="translate(-171.000000, -410.000000)">
            <g id="图标/组件/搜索" transform="translate(169.000000, 408.000000)">
                <g id="magnify" transform="translate(0.000000, 0.000000)">
                    <path d="M6.46666667,2 C8.93333333,2 10.9333333,4 10.9333333,6.46666667 C10.9333333,7.6 10.5333333,8.6 9.86666667,9.33333333 L10.0666667,9.53333333 L10.6,9.53333333 L14,12.9333333 L13,14 L9.6,10.6 L9.6,10 L9.33333333,9.86666667 C8.53333333,10.5333333 7.53333333,10.9333333 6.46666667,10.9333333 C4,10.9333333 2,8.93333333 2,6.46666667 C2,4 4,2 6.46666667,2 Z M6.41685934,3.44783529 C4.72120716,3.44783529 3.41685934,4.8174005 3.41685934,6.44783529 C3.41685934,8.14348746 4.78642455,9.44783529 6.41685934,9.44783529 C8.11251151,9.44783529 9.41685934,8.07827007 9.41685934,6.44783529 C9.41685934,4.75218311 8.04729412,3.44783529 6.41685934,3.44783529 Z" id="Shape" fill="#FFFFFF"></path>
                </g>
            </g>
        </g>
    </g>
</svg>