<?xml version="1.0" encoding="UTF-8"?>
<svg width="20px" height="20px" viewBox="0 0 20 20" version="1.1" xmlns="http://www.w3.org/2000/svg" xmlns:xlink="http://www.w3.org/1999/xlink">
    <!-- Generator: Sketch 60 (88103) - https://sketch.com -->
    <title>基础管理</title>
    <desc>Created with Sketch.</desc>
    <g id="UI规范" stroke="none" stroke-width="1" fill="none" fill-rule="evenodd">
        <g id="03图标" transform="translate(-586.000000, -460.000000)" fill-rule="nonzero" stroke="#242830" stroke-width="2">
            <path d="M594.422122,471.584814 L590.710888,471.584814 C588.345864,471.584814 586.576247,473.752313 587.091019,476.133074 C587.353154,477.340663 588.660363,478.646901 589.868652,478.908798 C592.191379,479.410698 594.324104,477.741206 594.422122,475.491382 L594.422122,471.584814 Z M597.577983,471.584814 L597.577983,475.331399 L597.58295,475.449293 C597.679524,477.741803 599.809146,479.410607 602.130829,478.908933 C603.339742,478.646901 604.646951,477.340663 604.908914,476.133868 C605.423632,473.75336 603.65241,471.584814 601.289217,471.584814 L597.577983,471.584814 Z M589.868866,461.091161 C588.660067,461.3534 587.353125,462.659478 587.091191,463.866137 C586.576247,466.247692 588.345864,468.415191 590.710888,468.415191 L594.422122,468.415191 L594.422122,464.668516 L594.417115,464.546805 C594.322937,462.257649 592.19349,460.589593 589.868866,461.091161 Z M597.577983,464.671566 L597.577983,468.415191 L601.289217,468.415191 C603.65241,468.415191 605.423632,466.246645 604.909086,463.866931 C604.646951,462.659341 603.339742,461.353104 602.131453,461.091207 C599.808462,460.58925 597.677144,462.258801 597.582992,464.549687 L597.577983,464.671566 Z" id="基础管理"></path>
        </g>
    </g>
</svg>