<?xml version="1.0" encoding="UTF-8"?>
<svg width="14px" height="14px" viewBox="0 0 14 14" version="1.1" xmlns="http://www.w3.org/2000/svg" xmlns:xlink="http://www.w3.org/1999/xlink">
    <!-- Generator: Sketch 60 (88103) - https://sketch.com -->
    <title>返回</title>
    <desc>Created with Sketch.</desc>
    <defs>
        <path d="M3.3984375,6.8921875 C3.70625,6.8921875 3.9578125,6.6421875 3.9578125,6.3328125 L3.9578125,3.1484375 C3.9578125,2.9875 4.0875,2.8578125 4.2484375,2.8578125 L13.1078125,2.8578125 C13.26875,2.8578125 13.3984375,2.9875 13.3984375,3.1484375 L13.3984375,12.321875 C13.3984375,12.4828125 13.26875,12.6125 13.1078125,12.6125 L9.128125,12.6125 C8.8203125,12.6125 8.56875,12.8625 8.56875,13.171875 C8.56875,13.4796875 8.81875,13.73125 9.128125,13.73125 L13.10625,13.73125 C13.8828125,13.73125 14.5140625,13.1 14.5140625,12.3234375 L14.5140625,3.1484375 C14.5140625,2.3734375 13.8828125,1.7421875 13.10625,1.7421875 L4.2453125,1.7421875 C3.46875,1.7421875 2.8375,2.3734375 2.8375,3.15 L2.8375,6.334375 C2.8390625,6.6421875 3.0921875,6.8921875 3.3984375,6.8921875 Z M9.2390625,10.1765625 C9.9125,9.1625 10.075,8.1640625 10.0921875,8.053125 C10.134375,7.746875 9.921875,7.4625 9.61875,7.4203125 C9.59375,7.415625 9.565625,7.4140625 9.5390625,7.4140625 C9.2640625,7.4140625 9.0265625,7.6203125 8.9859375,7.8890625 C8.98125,7.9265625 8.8390625,8.7703125 8.290625,9.584375 C7.5671875,10.653125 6.4859375,11.1984375 5.0765625,11.203125 C5.0546875,11.2015625 5.0359375,11.2 5.0203125,11.2 C4.7125,11.2 4.4609375,11.45 4.4609375,11.759375 L4.4609375,12.4171875 L2.890625,10.9234375 L4.4625,9.6140625 L4.4625,10.1484375 C4.4625,10.45625 4.7125,10.7078125 5.021875,10.7078125 C5.3296875,10.7078125 5.58125,10.4578125 5.58125,10.1484375 L5.58125,8.4203125 C5.58125,8.2046875 5.4546875,8.00625 5.2578125,7.9140625 C5.184375,7.878125 5.1015625,7.8609375 5.021875,7.8609375 C4.890625,7.8609375 4.7640625,7.9078125 4.665625,7.9890625 L1.6953125,10.4640625 C1.5734375,10.56875 1.5,10.7171875 1.496875,10.875 C1.490625,11.034375 1.553125,11.1890625 1.66875,11.3 L4.6375,14.125 C4.8,14.28125 5.0375,14.321875 5.2421875,14.234375 C5.446875,14.146875 5.5796875,13.94375 5.5796875,13.7203125 L5.5796875,12.3 C7.54375,12.1359375 8.653125,11.0578125 9.2390625,10.1765625 Z" id="path-1"></path>
    </defs>
    <g id="全生命周期管理1" stroke="none" stroke-width="1" fill="none" fill-rule="evenodd">
        <g id="我的项目管理-我的项目25-项目1-流程-里程碑流程-发起流程" transform="translate(-370.000000, -135.000000)">
            <g id="编组-33" transform="translate(79.000000, 79.000000)">
                <g id="顶部悬浮按钮栏" transform="translate(0.000000, 38.000000)">
                    <g transform="translate(130.000000, 10.000000)" id="转办">
                        <g>
                            <g transform="translate(153.000000, 0.000000)">
                                <g id="按钮-Button-基本样式-中号按钮-Copy-3" transform="translate(7.000000, 6.000000)">
                                    <g id="返回" transform="translate(0.000000, 1.000000)">
                                        <rect id="Rectangle-48-Copy-22" x="0" y="0" width="16" height="16"></rect>
                                        <g id="Shape" fill-rule="nonzero">
                                            <use fill="#0B82FF" xlink:href="#path-1"></use>
                                            <use fill="#333333" xlink:href="#path-1"></use>
                                        </g>
                                    </g>
                                </g>
                            </g>
                        </g>
                    </g>
                </g>
            </g>
        </g>
    </g>
</svg>