<?xml version="1.0" encoding="UTF-8"?>
<svg width="20px" height="20px" viewBox="0 0 20 20" version="1.1" xmlns="http://www.w3.org/2000/svg" xmlns:xlink="http://www.w3.org/1999/xlink">
    <!-- Generator: Sketch 60 (88103) - https://sketch.com -->
    <title>其他可配图标2</title>
    <desc>Created with Sketch.</desc>
    <g id="UI规范" stroke="none" stroke-width="1" fill="none" fill-rule="evenodd">
        <g id="03图标" transform="translate(-1017.000000, -460.000000)" fill="#000000" fill-rule="nonzero">
            <path d="M1035.39286,464.285714 L1031.46429,464.285714 L1031.46429,463.035714 C1031.46429,462.147321 1030.74554,461.428571 1029.85714,461.428571 L1021.8125,461.428571 C1021.72321,460.625 1021.04241,460 1020.21429,460 L1018.60714,460 C1017.71875,460 1017,460.71875 1017,461.607143 L1017,478.392857 C1017,479.28125 1017.71875,480 1018.60714,480 L1020.21429,480 C1021.10268,480 1021.82143,479.28125 1021.82143,478.392857 L1021.82143,472.678571 L1029.85714,472.678571 L1029.85714,473.928571 C1029.85714,474.816964 1030.57589,475.535714 1031.46429,475.535714 L1035.39286,475.535714 C1036.28125,475.535714 1037,474.816964 1037,473.928571 L1037,465.892857 C1037,465.004464 1036.28125,464.285714 1035.39286,464.285714 Z M1020.21429,478.392857 L1018.60714,478.392857 L1018.60714,461.607143 L1020.21429,461.607143 L1020.21429,478.392857 Z M1029.85714,471.071429 L1021.82143,471.071429 L1021.82143,463.035714 L1029.85714,463.035714 L1029.85714,471.071429 Z M1035.39286,473.928571 L1031.46429,473.928571 L1031.46429,465.892857 L1035.39286,465.892857 L1035.39286,473.928571 Z" id="其他可配图标2"></path>
        </g>
    </g>
</svg>