<?xml version="1.0" encoding="UTF-8"?>
<svg width="20px" height="20px" viewBox="0 0 20 20" version="1.1" xmlns="http://www.w3.org/2000/svg" xmlns:xlink="http://www.w3.org/1999/xlink">
    <!-- Generator: Sketch 60 (88103) - https://sketch.com -->
    <title>全集团项目管理</title>
    <desc>Created with Sketch.</desc>
    <g id="UI规范" stroke="none" stroke-width="1" fill="none" fill-rule="evenodd">
        <g id="03图标" transform="translate(-672.000000, -460.000000)" fill="#242830" fill-rule="nonzero">
            <path d="M682,460 C676.476562,460 672,464.476562 672,470 C672,475.523438 676.476562,480 682,480 C687.523438,480 692,475.523438 692,470 C692,464.476562 687.523438,460 682,460 Z M679.703125,461.716797 C679.107422,462.220703 678.574219,462.912109 678.130859,463.75 C677.726562,463.544922 677.339844,463.310547 676.974609,463.046875 L676.947266,463.046875 C677.769531,462.449219 678.699219,461.994141 679.703125,461.716797 Z M675.871094,463.976562 C676.394531,464.382812 676.960938,464.738281 677.558594,465.037109 C677.126953,466.210938 676.84375,467.566406 676.755859,469.023438 L673.460938,469.023438 C673.681641,467.066406 674.560547,465.308594 675.871094,463.976562 Z M673.416016,470.429688 L676.732422,470.429688 C676.775391,472.095703 677.074219,473.644531 677.558594,474.962891 C676.958984,475.259766 676.394531,475.617188 675.871094,476.023438 C674.439453,474.568359 673.523438,472.605469 673.416016,470.429688 Z M676.949219,476.953125 L676.976562,476.953125 C677.341797,476.689453 677.726562,476.455078 678.132812,476.25 C678.578125,477.087891 679.109375,477.779297 679.705078,478.283203 C678.699219,478.005859 677.769531,477.550781 676.949219,476.953125 Z M681.394531,477.697266 C680.625,477.453125 679.931641,476.751953 679.382812,475.738281 C680.023438,475.533203 680.697266,475.402344 681.394531,475.353516 L681.394531,477.697266 Z M681.394531,473.943359 C680.5,473.996094 679.638672,474.167969 678.822266,474.441406 C678.425781,473.291016 678.179688,471.916016 678.138672,470.429688 L681.394531,470.429688 L681.394531,473.943359 Z M681.394531,469.023438 L678.162109,469.023438 C678.242188,467.746094 678.474609,466.566406 678.820312,465.558594 C679.636719,465.832031 680.498047,466.001953 681.392578,466.056641 L681.392578,469.023438 L681.394531,469.023438 Z M681.394531,464.646484 C680.697266,464.597656 680.023438,464.466797 679.382812,464.261719 C679.931641,463.246094 680.625,462.544922 681.394531,462.302734 L681.394531,464.646484 L681.394531,464.646484 Z M690.539062,469.023438 L687.244141,469.023438 C687.15625,467.566406 686.873047,466.210938 686.441406,465.037109 C687.041016,464.740234 687.605469,464.382812 688.128906,463.976562 C689.439453,465.308594 690.318359,467.066406 690.539062,469.023438 L690.539062,469.023438 Z M687.050781,463.046875 L687.023438,463.046875 C686.658203,463.310547 686.273438,463.544922 685.867188,463.75 C685.421875,462.912109 684.890625,462.220703 684.294922,461.716797 C685.300781,461.994141 686.230469,462.449219 687.050781,463.046875 Z M682.800781,462.375 C683.492188,462.667969 684.115234,463.333984 684.617188,464.261719 C684.037109,464.447266 683.427734,464.572266 682.800781,464.630859 L682.800781,462.375 Z M682.800781,466.042969 C683.625,465.978516 684.421875,465.8125 685.177734,465.558594 C685.525391,466.566406 685.757812,467.746094 685.835938,469.023438 L682.800781,469.023438 L682.800781,466.042969 Z M682.800781,470.429688 L685.861328,470.429688 C685.820312,471.916016 685.574219,473.291016 685.177734,474.441406 C684.421875,474.1875 683.625,474.023438 682.800781,473.957031 L682.800781,470.429688 Z M682.800781,477.625 L682.800781,475.369141 C683.427734,475.427734 684.035156,475.552734 684.617188,475.738281 C684.115234,476.666016 683.492188,477.332031 682.800781,477.625 Z M684.296875,478.283203 C684.892578,477.779297 685.425781,477.087891 685.869141,476.25 C686.273438,476.455078 686.660156,476.689453 687.025391,476.953125 L687.052734,476.953125 C686.230469,477.550781 685.300781,478.005859 684.296875,478.283203 Z M688.128906,476.023438 C687.605469,475.617188 687.039062,475.261719 686.441406,474.962891 C686.927734,473.644531 687.224609,472.09375 687.267578,470.429688 L690.583984,470.429688 C690.476562,472.605469 689.560547,474.568359 688.128906,476.023438 Z" id="全集团项目管理"></path>
        </g>
    </g>
</svg>