<?xml version="1.0" encoding="UTF-8"?>
<svg width="14px" height="14px" viewBox="0 0 14 14" version="1.1" xmlns="http://www.w3.org/2000/svg" xmlns:xlink="http://www.w3.org/1999/xlink">
    <!-- Generator: Sketch 60 (88103) - https://sketch.com -->
    <title>新增</title>
    <desc>Created with Sketch.</desc>
    <g id="测试任务流程设计" stroke="none" stroke-width="1" fill="none" fill-rule="evenodd">
        <g id="图标" transform="translate(-302.000000, -409.000000)" fill="#FFFFFF">
            <g id="新增" transform="translate(301.000000, 408.000000)">
                <g id="图标/组件/增加">
                    <g id="plus-circle-outline">
                        <path d="M8,13.3333 C5.05933333,13.3333 2.66666667,10.9407 2.66666667,7.99996667 C2.66666667,5.05932667 5.05933333,2.66666667 8,2.66666667 C10.9406667,2.66666667 13.3333333,5.05932667 13.3333333,7.99996667 C13.3333333,10.9407 10.9406667,13.3333 8,13.3333 Z M8,1.33333333 C4.318,1.33333333 1.33333333,4.31799333 1.33333333,7.99996667 C1.33333333,11.6820333 4.318,14.6666333 8,14.6666333 C11.682,14.6666333 14.6666667,11.6820333 14.6666667,7.99996667 C14.6666667,4.31799333 11.682,1.33333333 8,1.33333333 Z M8.66666667,4.66666667 L7.33333333,4.66666667 L7.33333333,7.3333 L4.66666667,7.3333 L4.66666667,8.66663333 L7.33333333,8.66663333 L7.33333333,11.3333 L8.66666667,11.3333 L8.66666667,8.66663333 L11.3333333,8.66663333 L11.3333333,7.3333 L8.66666667,7.3333 L8.66666667,4.66666667 Z" id="Shape"></path>
                    </g>
                </g>
            </g>
        </g>
    </g>
</svg>