<?xml version="1.0" encoding="UTF-8"?>
<svg width="20px" height="20px" viewBox="0 0 20 20" version="1.1" xmlns="http://www.w3.org/2000/svg" xmlns:xlink="http://www.w3.org/1999/xlink">
    <!-- Generator: Sketch 60 (88103) - https://sketch.com -->
    <title>其他可配图标4</title>
    <desc>Created with Sketch.</desc>
    <g id="UI规范" stroke="none" stroke-width="1" fill="none" fill-rule="evenodd">
        <g id="03图标" transform="translate(-1190.000000, -460.000000)" fill="#000000" fill-rule="nonzero">
            <path d="M1191.8799,460.9375 L1191.8799,479.0625 C1191.8799,479.580729 1191.45953,480 1190.93995,480 L1190.93995,480 C1190.42037,480 1190,479.580729 1190,479.0625 L1190,460.9375 C1190,460.419271 1190.42037,460 1190.93995,460 L1190.93995,460 C1191.45953,460 1191.8799,460.419271 1191.8799,460.9375 Z M1190.93995,478.125 L1209.06005,478.125 C1209.57963,478.125 1210,478.544271 1210,479.0625 L1210,479.0625 C1210,479.580729 1209.57963,480 1209.06005,480 L1190.93995,480 C1190.42037,480 1190,479.580729 1190,479.0625 L1190,479.0625 C1190,478.544271 1190.42037,478.125 1190.93995,478.125 Z M1196.87206,465.963542 L1196.87206,475.625 C1196.87206,476.143229 1196.4517,476.5625 1195.93211,476.5625 L1195.93211,476.5625 C1195.41253,476.5625 1194.99217,476.143229 1194.99217,475.625 L1194.99217,465.963542 C1194.99217,465.445312 1195.41253,465.026042 1195.93211,465.026042 L1195.93211,465.026042 C1196.4517,465.026042 1196.87206,465.445312 1196.87206,465.963542 Z M1206.88512,462.578125 L1206.88512,475.625 C1206.88512,476.143229 1206.46475,476.5625 1205.94517,476.5625 L1205.94517,476.5625 C1205.42559,476.5625 1205.00522,476.143229 1205.00522,475.625 L1205.00522,462.578125 C1205.00522,462.059896 1205.42559,461.640625 1205.94517,461.640625 L1205.94517,461.640625 C1206.46475,461.640625 1206.88512,462.059896 1206.88512,462.578125 Z M1201.85379,469.244792 L1201.85379,475.625 C1201.85379,476.143229 1201.43342,476.5625 1200.91384,476.5625 L1200.91384,476.5625 C1200.39426,476.5625 1199.97389,476.143229 1199.97389,475.625 L1199.97389,469.244792 C1199.97389,468.726562 1200.39426,468.307292 1200.91384,468.307292 L1200.91384,468.307292 C1201.43081,468.307292 1201.85379,468.726562 1201.85379,469.244792 Z" id="其他可配图标4"></path>
        </g>
    </g>
</svg>