<?xml version="1.0" encoding="UTF-8"?>
<svg width="22px" height="18px" viewBox="0 0 22 18" version="1.1" xmlns="http://www.w3.org/2000/svg" xmlns:xlink="http://www.w3.org/1999/xlink">
    <!-- Generator: Sketch 60 (88103) - https://sketch.com -->
    <title>基础信息配置</title>
    <desc>Created with Sketch.</desc>
    <g id="UI规范" stroke="none" stroke-width="1" fill="none" fill-rule="evenodd">
        <g id="03图标" transform="translate(-411.000000, -461.000000)" fill="#000000">
            <path d="M419.277778,475.943396 C420.106205,475.943396 420.777778,476.614969 420.777778,477.443396 L420.777778,477.5 C420.777778,478.328427 420.106205,479 419.277778,479 L412.5,479 C411.671573,479 411,478.328427 411,477.5 L411,477.443396 C411,476.614969 411.671573,475.943396 412.5,475.943396 L419.277778,475.943396 Z M431.5,468.471698 C432.328427,468.471698 433,469.143271 433,469.971698 L433,470.028302 C433,470.856729 432.328427,471.528302 431.5,471.528302 L412.5,471.528302 C411.671573,471.528302 411,470.856729 411,470.028302 L411,469.971698 C411,469.143271 411.671573,468.471698 412.5,468.471698 L431.5,468.471698 Z M424.166667,461 C424.995094,461 425.666667,461.671573 425.666667,462.5 L425.666667,462.556604 C425.666667,463.385031 424.995094,464.056604 424.166667,464.056604 L412.5,464.056604 C411.671573,464.056604 411,463.385031 411,462.556604 L411,462.5 C411,461.671573 411.671573,461 412.5,461 L424.166667,461 Z" id="基础信息配置"></path>
        </g>
    </g>
</svg>