<?xml version="1.0" encoding="UTF-8"?>
<svg width="20px" height="18px" viewBox="0 0 20 18" version="1.1" xmlns="http://www.w3.org/2000/svg" xmlns:xlink="http://www.w3.org/1999/xlink">
    <!-- Generator: Sketch 60 (88103) - https://sketch.com -->
    <title>系统管理</title>
    <desc>Created with Sketch.</desc>
    <g id="UI规范" stroke="none" stroke-width="1" fill="none" fill-rule="evenodd">
        <g id="03图标" transform="translate(-500.000000, -461.000000)" fill="#242830" fill-rule="nonzero">
            <path d="M517.824773,461 C519.026118,461 520,461.980133 520,463.189189 L520,476.810811 C520,478.019867 519.026118,479 517.824773,479 L502.175227,479 C500.973882,479 500,478.019867 500,476.810811 L500,463.189189 C500,461.980133 500.973882,461 502.175227,461 L517.824773,461 Z M517.824773,463.023784 L502.175227,463.023784 C502.102612,463.023784 502.040996,463.071179 502.019255,463.136908 L502.010876,463.189189 L502.010876,476.810811 C502.010876,476.883892 502.057969,476.945903 502.123279,476.967784 L502.175227,476.976216 L517.824773,476.976216 C517.897388,476.976216 517.959004,476.928821 517.980745,476.863092 L517.989124,476.810811 L517.989124,463.189189 C517.989124,463.116108 517.942031,463.054097 517.876721,463.032216 L517.824773,463.023784 Z M514.229607,463.73973 C514.735316,463.73973 515.152113,464.122849 515.209076,464.616424 L515.21571,464.732162 L515.215294,466.30029 L515.312011,466.360058 C515.745969,466.654395 516.045794,467.115714 516.137444,467.638144 L516.160181,467.814405 L516.166958,467.977838 C516.166958,468.581829 515.890559,469.1381 515.439331,469.501422 L515.312011,469.595617 L515.215294,469.654711 L515.21571,475.214324 C515.21571,475.684129 514.891348,476.077688 514.455712,476.180546 L514.344608,476.20008 L514.229607,476.206757 C513.723898,476.206757 513.307101,475.823638 513.250139,475.330063 L513.243505,475.214324 L513.242625,469.654711 L513.147204,469.596023 C512.713246,469.301686 512.41342,468.840367 512.321771,468.317937 L512.299033,468.141676 L512.292257,467.978243 C512.292257,467.374252 512.568656,466.817981 513.019883,466.454659 L513.147204,466.360464 L513.242625,466.30029 L513.243505,464.732162 C513.243505,464.262358 513.567867,463.868798 514.003503,463.765941 L514.114607,463.746407 L514.229607,463.73973 Z M505.959103,463.73973 C506.464812,463.73973 506.881609,464.122849 506.938571,464.616424 L506.945206,464.732162 L506.946085,470.291775 L507.041506,470.350464 C507.475464,470.6448 507.77529,471.10612 507.866939,471.628549 L507.889677,471.804811 L507.896454,471.968243 C507.896454,472.572234 507.620055,473.128505 507.168827,473.491828 L507.041506,473.586023 L506.946085,473.646197 L506.945206,475.214324 C506.945206,475.684129 506.620843,476.077688 506.185207,476.180546 L506.074103,476.20008 L505.959103,476.206757 C505.453394,476.206757 505.036597,475.823638 504.979634,475.330063 L504.973,475.214324 L504.973416,473.646197 L504.876699,473.586428 C504.442742,473.292092 504.142916,472.830772 504.051267,472.308343 L504.028529,472.132081 L504.021752,471.968649 C504.021752,471.364658 504.298151,470.808387 504.749379,470.445064 L504.876699,470.350869 L504.973416,470.291775 L504.973,464.732162 C504.973,464.262358 505.297363,463.868798 505.732999,463.765941 L505.844103,463.746407 L505.959103,463.73973 Z" id="系统管理"></path>
        </g>
    </g>
</svg>