<?xml version="1.0" encoding="UTF-8"?>
<svg width="13px" height="13px" viewBox="0 0 13 13" version="1.1" xmlns="http://www.w3.org/2000/svg" xmlns:xlink="http://www.w3.org/1999/xlink">
    <!-- Generator: Sketch 60 (88103) - https://sketch.com -->
    <title>形状结合</title>
    <desc>Created with Sketch.</desc>
    <g id="研发计划管理1-计划申报" stroke="none" stroke-width="1" fill="none" fill-rule="evenodd">
        <g id="研发计划-01计划填报01" transform="translate(-1109.000000, -218.000000)" fill="#0B82FF" fill-rule="nonzero">
            <g id="编组-6备份" transform="translate(309.000000, 189.000000)">
                <g id="按钮/按钮备份-5" transform="translate(792.000000, 20.000000)">
                    <path d="M12.8472077,14.048304 C13.0516182,13.9550584 13.2887969,13.998351 13.451077,14.1648609 L13.451077,14.1648609 L16.4158097,17.1770252 C16.5312783,17.2952473 16.5936937,17.4600921 16.5874522,17.6299322 C16.5843314,17.7981072 16.5109933,17.9562916 16.3892832,18.0678533 L16.3892832,18.0678533 L13.42299,20.7037052 C13.3246857,20.7902903 13.1982945,20.8402433 13.0672221,20.8402433 C12.9876424,20.8402433 12.904942,20.8219272 12.8316039,20.7836299 C12.6349953,20.6853891 12.508604,20.4739215 12.508604,20.2441378 L12.508604,20.2441378 L12.508604,18.4025382 C12.508604,18.0728486 12.7598261,17.8064327 13.0672221,17.8064327 C13.3761785,17.8064327 13.6258402,18.0745137 13.6258402,18.4025382 L13.6258402,18.4025382 L13.6258402,18.9720021 L15.1955881,17.576649 L13.6274006,15.9848143 L13.6274006,16.685821 C13.6274006,17.0155106 13.3761785,17.2819265 13.0687825,17.2819265 C13.0531786,17.2819265 13.034454,17.2802614 13.0126086,17.2785963 C11.6051407,17.2835916 10.5237935,17.8647112 9.80445568,19.003639 C9.25676031,19.8711556 9.11476522,20.7703091 9.11008406,20.8102715 C9.06951403,21.0966686 8.83233541,21.3164617 8.55770754,21.3164617 C8.53118098,21.3164617 8.50309404,21.3147966 8.47812787,21.3098013 C8.17541305,21.2648436 7.9632006,20.9617955 8.00533101,20.6354361 C8.02093487,20.5172141 8.18477536,19.4532157 8.8557412,18.3709013 C9.17997909,17.8505223 9.66471802,17.2662359 10.36624,16.8188996 C10.9307385,16.4589384 11.635605,16.187653 12.5101644,16.1096967 L12.5101644,16.1096967 L12.5101644,14.5961216 C12.5101644,14.3580124 12.6412368,14.1432146 12.8472077,14.048304 Z M19.5531915,9 C20.3512646,9 21,9.63190824 21,10.4077164 L21,10.4077164 L21,19.5907195 C21,20.3680918 20.3512646,21 19.5531915,21 L19.5531915,21 L15.4664793,21 C15.1485347,21 14.8916098,20.7497393 14.8916098,20.4400417 C14.8916098,20.1303441 15.1501405,19.8800834 15.4664793,19.8800834 L15.4664793,19.8800834 L19.5547973,19.8800834 C19.7201927,19.8800834 19.8534725,19.7502607 19.8534725,19.5891554 L19.8534725,19.5891554 L19.8534725,10.4061522 C19.8534725,10.2450469 19.7201927,10.1152242 19.5547973,10.1152242 L19.5547973,10.1152242 L10.4500201,10.1152242 C10.2846246,10.1152242 10.1513448,10.2450469 10.1513448,10.4061522 L10.1513448,10.4061522 L10.1513448,13.5954119 C10.1513448,13.9051095 9.89281413,14.1553702 9.57647531,14.1553702 C9.26013649,14.1553702 9.00160578,13.9035454 9,13.5954119 L9,13.5954119 L9,10.4092805 C9,9.63190824 9.64873545,9 10.4468085,9 L10.4468085,9 Z" id="形状结合"></path>
                </g>
            </g>
        </g>
    </g>
</svg>