<?xml version="1.0" encoding="UTF-8"?>
<svg width="11px" height="14px" viewBox="0 0 11 14" version="1.1" xmlns="http://www.w3.org/2000/svg" xmlns:xlink="http://www.w3.org/1999/xlink">
    <!-- Generator: Sketch 60 (88103) - https://sketch.com -->
    <title>详情</title>
    <desc>Created with Sketch.</desc>
    <g id="研发计划管理3-全集团计划统筹" stroke="none" stroke-width="1" fill="none" fill-rule="evenodd">
        <g id="研发计划-03全集团计划统筹-02计划统筹-项目整合详情" transform="translate(-217.000000, -135.000000)" fill="#333333" fill-rule="nonzero">
            <g id="编组-33" transform="translate(79.000000, 79.000000)">
                <g id="顶部悬浮按钮栏">
                    <g transform="translate(0.000000, 38.000000)">
                        <g id="提交备份" transform="translate(129.000000, 10.000000)">
                            <g id="按钮-Button-基本样式-中号按钮-Copy-3备份" transform="translate(9.000000, 6.000000)">
                                <path d="M10.2074219,5.25117188 L7.284375,2.29121094 C7.22285156,2.2296875 7.15585937,2.17773438 7.08339844,2.13398437 C7.06425781,2.12304688 7.04511719,2.11210938 7.02460937,2.10253906 C7.01230469,2.09570312 6.99863281,2.09023438 6.98632812,2.08476563 C6.86328125,2.03007813 6.72792969,2 6.58984375,2 L2.74804688,2 C2.20390625,2 1.75,2.44023438 1.75,2.984375 L1.75,3.75 L0.991210938,3.75 C0.447070312,3.75 0,4.19570312 0,4.73984375 L0,15.0210938 C0,15.5652344 0.447070312,16 0.991210938,16 L7.75878906,16 C8.30292969,16 8.73632812,15.5652344 8.73632812,15.0210938 L8.73632812,14.25 L9.515625,14.25 C10.0597656,14.25 10.4863281,13.8097656 10.4863281,13.265625 L10.4863281,5.94433594 C10.4863281,5.68457031 10.390625,5.43574219 10.2074219,5.25117188 Z M7.09570312,3.509375 L8.96601563,5.390625 L7.09570312,5.390625 L7.09570312,3.509375 Z M7.75195313,15.015625 L0.984375,15.015625 L0.984375,4.734375 L1.75,4.734375 L1.75,13.265625 C1.75,13.8097656 2.20390625,14.25 2.74804688,14.25 L7.75195313,14.25 L7.75195313,15.015625 Z M9.50195312,13.265625 L2.734375,13.265625 L2.734375,2.984375 L6.11132812,2.984375 L6.11132812,5.390625 C6.11132812,5.93476563 6.56523438,6.375 7.109375,6.375 L9.50195312,6.375 L9.50195312,13.265625 Z M7,7.7421875 C7,7.47011719 6.77988281,7.25 6.5078125,7.25 L3.9921875,7.25 C3.72011719,7.25 3.5,7.47011719 3.5,7.7421875 C3.5,8.01425781 3.72011719,8.234375 3.9921875,8.234375 L6.5078125,8.234375 C6.77988281,8.234375 7,8.01425781 7,7.7421875 Z M8.75,9.4921875 C8.75,9.22011719 8.52988281,9 8.2578125,9 L3.9921875,9 C3.72011719,9 3.5,9.22011719 3.5,9.4921875 C3.5,9.76425781 3.72011719,9.984375 3.9921875,9.984375 L8.2578125,9.984375 C8.52988281,9.984375 8.75,9.76425781 8.75,9.4921875 Z M7.875,11.2421875 C7.875,10.9701172 7.65488281,10.75 7.3828125,10.75 L3.9921875,10.75 C3.72011719,10.75 3.5,10.9701172 3.5,11.2421875 C3.5,11.5142578 3.72011719,11.734375 3.9921875,11.734375 L7.3828125,11.734375 C7.65488281,11.734375 7.875,11.5142578 7.875,11.2421875 Z" id="详情"></path>
                            </g>
                        </g>
                    </g>
                </g>
            </g>
        </g>
    </g>
</svg>