<?xml version="1.0" encoding="UTF-8"?>
<svg width="43px" height="31px" viewBox="0 0 43 31" version="1.1" xmlns="http://www.w3.org/2000/svg" xmlns:xlink="http://www.w3.org/1999/xlink">
    <!-- Generator: Sketch 60 (88103) - https://sketch.com -->
    <title>计划编制</title>
    <desc>Created with Sketch.</desc>
    <defs>
        <linearGradient x1="84.3036393%" y1="100%" x2="18.7708919%" y2="-24.3851654%" id="linearGradient-1">
            <stop stop-color="#37E4E0" offset="0%"></stop>
            <stop stop-color="#6CD644" offset="100%"></stop>
        </linearGradient>
        <linearGradient x1="77.5574854%" y1="70.7907095%" x2="85.9090156%" y2="25.0235622%" id="linearGradient-2">
            <stop stop-color="#53EEDA" offset="0%"></stop>
            <stop stop-color="#23C9D2" offset="100%"></stop>
        </linearGradient>
    </defs>
    <g id="首页+我的工作台" stroke="none" stroke-width="1" fill="none" fill-rule="evenodd">
        <g id="首页11-常用功能-添加功能" transform="translate(-569.000000, -672.000000)">
            <g id="编组-23" transform="translate(496.000000, 202.000000)">
                <g id="常用功能备份" transform="translate(50.000000, 359.000000)">
                    <g id="常用功能">
                        <g id="计划编制" transform="translate(23.000000, 104.000000)">
                            <path d="M36.5884277,7 C37.9156465,7 39.0067502,8.038015 39.091915,9.344221 L39.0972656,9.50883789 L39.0975089,25.0003879 C39.0650365,25.0001295 39.0325334,25 39,25 C32.372583,25 27,30.372583 27,37 C27,37.1311397 27.0021036,37.261788 27.0062789,37.3919132 L2.51367187,37.3912598 C1.1818125,37.3912598 0.090523125,36.3532448 0.00535095,35.0470388 L-1.38555833e-13,34.8824219 L-1.38555833e-13,9.51367187 C-1.38555833e-13,8.1818125 1.038015,7.09052312 2.3484978,7.00535095 L2.51367187,7 L36.5884277,7 Z M38.2275901,28.8001899 L42.8417574,31.6108195 C42.9413572,31.6888156 43,31.8128094 43,31.9458027 L43,36.9762805 C43,37.2052691 42.8277948,37.3912598 42.6146328,37.3912598 L39.5918099,37.3912598 L39.5918099,35.8912598 C39.5918099,35.0628326 38.920237,34.3912598 38.0918099,34.3912598 C37.2633827,34.3912598 36.5918099,35.0628326 36.5918099,35.8912598 L36.5918099,37.3912598 L33.3862981,37.3912598 C33.173136,37.3912598 33,37.2052691 33,36.9762805 L33,31.9458027 C33,31.8128094 33.0586428,31.6888156 33.1591734,31.6108195 L37.7724099,28.8001899 C37.9083124,28.6941952 38.0916876,28.6941952 38.2275901,28.8001899 Z M23.1485737,28 L17.8903142,28 C17.2280584,28 16.6866521,28.5414063 16.6866521,29.2036621 C16.6866521,29.865918 17.2280584,30.4073242 17.8903142,30.4073242 L23.1485737,30.4073242 C23.8108296,30.4073242 24.3522358,29.865918 24.3522358,29.2036621 C24.3522358,28.5414062 23.8156636,28 23.1485737,28 Z M26.3044708,21 L17.8903142,21 C17.2280584,21 16.6866521,21.5414063 16.6866521,22.2036621 C16.6866521,22.865918 17.2280584,23.4073242 17.8903142,23.4073242 L26.3044708,23.4073242 C26.9667267,23.4073242 27.5081329,22.865918 27.5081329,22.2036621 C27.5081329,21.5414063 26.9715607,21 26.3044708,21 Z M11,14 L7,14 C5.8954305,14 5,14.8954305 5,16 L5,16 L5,20 C5,21.1045695 5.8954305,22 7,22 L7,22 L11,22 C12.1045695,22 13,21.1045695 13,20 L13,20 L13,16 C13,14.8954305 12.1045695,14 11,14 L11,14 Z M32.1645797,14 L17.8903142,14 C17.2280584,14 16.6866521,14.5414063 16.6866521,15.2036621 C16.6866521,15.865918 17.2280584,16.4073242 17.8903142,16.4073242 L32.1645797,16.4073242 C32.8268355,16.4073242 33.3682418,15.865918 33.3682418,15.2036621 C33.3682418,14.5414063 32.8316695,14 32.1645797,14 Z" id="合并形状" fill="url(#linearGradient-2)" fill-rule="nonzero"></path>
                        </g>
                    </g>
                </g>
            </g>
        </g>
    </g>
</svg>