<?xml version="1.0" encoding="UTF-8"?>
<svg width="40px" height="32px" viewBox="0 0 40 32" version="1.1" xmlns="http://www.w3.org/2000/svg" xmlns:xlink="http://www.w3.org/1999/xlink">
    <!-- Generator: Sketch 60 (88103) - https://sketch.com -->
    <title>9</title>
    <desc>Created with Sketch.</desc>
    <defs>
        <linearGradient x1="77.5574854%" y1="75.1485791%" x2="85.9090156%" y2="19.7883364%" id="linearGradient-1">
            <stop stop-color="#53EEDA" offset="0%"></stop>
            <stop stop-color="#23C9D2" offset="100%"></stop>
        </linearGradient>
    </defs>
    <g id="首页+我的工作台" stroke="none" stroke-width="1" fill="none" fill-rule="evenodd">
        <g id="首页12-常用功能-更多" transform="translate(-345.000000, -758.000000)">
            <g id="9" transform="translate(343.000000, 752.000000)">
                <g id="分组-4" transform="translate(2.200000, 6.600000)" fill="url(#linearGradient-1)" fill-rule="nonzero">
                    <path d="M36.8881348,0.159521484 C38.2706543,0.159521484 39.3969727,1.28583984 39.3969727,2.66835938 L39.3969727,2.66835938 L39.3969727,28.0419434 C39.3969727,29.4244629 38.2706543,30.5507813 36.8881348,30.5507813 L36.8881348,30.5507813 L2.81337891,30.5507813 C1.42602539,30.5507813 0.299707031,29.4244629 0.299707031,28.0419434 L0.299707031,28.0419434 L0.299707031,2.67319336 C0.299707031,1.28583984 1.42602539,0.159521484 2.81337891,0.159521484 L2.81337891,0.159521484 Z M12.7182129,7.40083008 C9.84199219,7.40083008 7.50717773,9.73564453 7.50717773,12.6118652 C7.50717773,14.1055664 8.17426758,15.5364258 9.31025391,16.5225586 C8.3906883,17.0391389 7.59927942,17.7561983 6.99477539,18.6205078 C6.17299805,19.795166 5.74277344,21.1680176 5.74277344,22.6037109 C5.74277344,23.207959 6.23583984,23.7010254 6.84008789,23.7010254 C7.44433594,23.7010254 7.93740234,23.207959 7.93740234,22.6037109 C7.93740234,19.9643555 10.0836914,17.8180664 12.7182129,17.8180664 C15.3575684,17.8180664 17.5038574,19.9643555 17.5038574,22.6037109 C17.5038574,23.207959 17.9969238,23.7010254 18.6011719,23.7010254 C19.2054199,23.7010254 19.6984863,23.207959 19.6984863,22.6037109 C19.6984863,21.1728516 19.2634277,19.795166 18.4464844,18.6205078 C17.8374023,17.7600586 17.0397949,17.0397949 16.1261719,16.5225586 C17.2621582,15.5364258 17.929248,14.1007324 17.929248,12.6118652 C17.929248,9.74047852 15.5944336,7.40083008 12.7182129,7.40083008 Z M32.9774414,19.8435059 L23.9427246,19.8435059 C23.2804688,19.8435059 22.7390625,20.3849121 22.7390625,21.047168 C22.7390625,21.7094238 23.2804688,22.2508301 23.9427246,22.2508301 L32.9774414,22.2508301 C33.6396973,22.2508301 34.1811035,21.7094238 34.1811035,21.047168 C34.1811035,20.3849121 33.6445313,19.8435059 32.9774414,19.8435059 Z M32.9774414,14.864502 L23.9427246,14.864502 C23.2804688,14.864502 22.7390625,15.4059082 22.7390625,16.0681641 C22.7390625,16.7304199 23.2804688,17.2718262 23.9427246,17.2718262 L32.9774414,17.2718262 C33.6396973,17.2718262 34.1811035,16.7304199 34.1811035,16.0681641 C34.1811035,15.4059082 33.6445313,14.864502 32.9774414,14.864502 Z M12.7182129,9.59545898 C14.3811035,9.59545898 15.7346191,10.9489746 15.7346191,12.6118652 C15.7346191,14.2747559 14.3811035,15.6282715 12.7182129,15.6282715 C11.0553223,15.6282715 9.70180664,14.2747559 9.70180664,12.6118652 C9.70180664,10.9489746 11.0553223,9.59545898 12.7182129,9.59545898 Z M32.9774414,9.83232422 L23.9427246,9.83232422 C23.2804688,9.83232422 22.7390625,10.3737305 22.7390625,11.0359863 C22.7390625,11.6982422 23.2804688,12.2396484 23.9427246,12.2396484 L32.9774414,12.2396484 C33.6396973,12.2396484 34.1811035,11.6982422 34.1811035,11.0359863 C34.1811035,10.3737305 33.6445313,9.83232422 32.9774414,9.83232422 Z" id="合并形状"></path>
                </g>
            </g>
        </g>
    </g>
</svg>