<?xml version="1.0" encoding="UTF-8"?>
<svg width="30px" height="34px" viewBox="0 0 30 34" version="1.1" xmlns="http://www.w3.org/2000/svg" xmlns:xlink="http://www.w3.org/1999/xlink">
    <!-- Generator: Sketch 60 (88103) - https://sketch.com -->
    <title>2</title>
    <desc>Created with Sketch.</desc>
    <defs>
        <linearGradient x1="85.9090156%" y1="115.138982%" x2="85.9090156%" y2="0%" id="linearGradient-1">
            <stop stop-color="#FF9D73" offset="0%"></stop>
            <stop stop-color="#FE6B60" offset="100%"></stop>
        </linearGradient>
    </defs>
    <g id="首页+我的工作台" stroke="none" stroke-width="1" fill="none" fill-rule="evenodd">
        <g id="首页12-常用功能-更多" transform="translate(-463.000000, -401.000000)">
            <g id="2" transform="translate(457.000000, 396.000000)">
                <path d="M8.57169207,38.75 L7.30618033,38.75 C6.58512116,38.75 6,38.1696385 6,37.4518546 C6,36.7340707 6.58512116,36.1536319 7.30618033,36.1536319 L8.571,36.153 L8.57169207,6.29814535 C8.57169207,5.58152179 9.15685213,5 9.87787239,5 C10.598698,5 11.1838581,5.58152179 11.1838581,6.29814535 L11.1838581,36.1535933 L22.9389362,36.1535933 C23.6612018,36.1535933 24.2449219,36.734032 24.2449219,37.451816 C24.2449219,38.1695999 23.6612407,38.75 22.9389751,38.75 L9.87791134,38.75 C10.598737,38.75 11.1838971,38.1696386 11.1838971,37.4518546 C11.1838971,36.7340707 10.598737,36.1536319 9.87791134,36.1536319 L9.87791134,36.1536319 L8.571,36.153 L8.57169207,38.75 Z M19.6461849,5 C22.5299935,5 25.6242667,6.35264246 25.7547952,6.40965366 C25.8032083,6.43046237 25.8502204,6.4551775 25.8958703,6.48232937 C25.9115929,6.49145733 27.8133242,7.59605864 29.9866202,7.59605864 C32.1495643,7.59605864 33.9950601,6.49915423 34.0134291,6.48747353 C34.4196086,6.24600758 34.9209798,6.23571928 35.3337753,6.46546583 C35.7439244,6.69664346 36,7.1274376 36,7.59605864 L36,24.471136 C36,24.9112515 35.7752138,25.3200379 35.4042934,25.5601114 C35.3102693,25.6224988 33.0336868,27.0672333 30.0950827,27.0672333 C27.4579706,27.0672333 25.1383846,25.9015597 24.661687,25.6445066 C24.2357764,25.475755 21.6132583,24.471136 19.5102858,24.471136 C17.6048185,24.471136 15.1022434,25.3357024 14.2991077,25.6692604 C13.8955357,25.8366195 13.435767,25.7926428 13.071229,25.5512155 C12.7081308,25.3097496 12.4900774,24.9046763 12.4900774,24.471136 L12.4900774,7.59609734 C12.4900774,7.06783499 12.8127405,6.59267735 13.3037986,6.3942212 C13.4448737,6.33697796 16.7859213,5 19.6461849,5 Z M29.7961604,12.2981454 C29.1199138,12.2981454 28.563705,12.8120887 28.4968205,13.470689 L28.4900774,13.6042284 L28.4900774,16.8475102 C28.4900774,17.56884 29.0748307,18.1535933 29.7961604,18.1535933 C30.472407,18.1535933 31.0286158,17.6396499 31.0955003,16.9810496 L31.1022434,16.8475102 L31.1022434,13.6042284 C31.1022434,12.8828986 30.5174901,12.2981454 29.7961604,12.2981454 Z" id="合并形状" fill="url(#linearGradient-1)" fill-rule="nonzero"></path>
            </g>
        </g>
    </g>
</svg>