<?xml version="1.0" encoding="UTF-8"?>
<svg width="24px" height="22px" viewBox="0 0 24 22" version="1.1" xmlns="http://www.w3.org/2000/svg" xmlns:xlink="http://www.w3.org/1999/xlink">
    <!-- Generator: Sketch 60 (88103) - https://sketch.com -->
    <title>集中化研发管理系统logo</title>
    <desc>Created with Sketch.</desc>
    <g id="测试任务流程设计" stroke="none" stroke-width="1" fill="none" fill-rule="evenodd">
        <g id="图标" transform="translate(-296.000000, -144.000000)" fill="#000000" fill-rule="nonzero">
            <g id="集中化研发管理系统logo" transform="translate(296.000000, 144.000000)">
                <path d="M5.13684211,3.70526316 C3.32631579,5.22105263 1.89473684,7.15789474 1.09473684,9.38947368 C0.294736842,11.6631579 0.210526316,13.8105263 0.8,15.7052632 L5.13684211,3.70526316 Z" id="路径"></path>
                <path d="M14.3157895,16.3789474 C13.0947368,13.5578947 11.2,12.2526316 9.01052632,12.2526316 C7.87368421,12.2526316 6.69473684,12.2526316 6.61052632,12.2105263 C6.27368421,12.2105263 5.97894737,12.4631579 5.89473684,12.7578947 L3.62105263,19.7473684 C5.30526316,21.0105263 7.57894737,21.6842105 10.2736842,21.5578947 C12.5894737,21.4315789 14.7368421,20.7157895 16.6315789,19.6210526 C15.9157895,19.0736842 15.0736842,18.1052632 14.3157895,16.3789474 Z" id="路径"></path>
                <path d="M13.3894737,0.631578947 C16.0842105,0.631578947 17.1368421,1.97894737 17.8947368,3.11578947 C18.8631579,4.54736842 19.0736842,6.98947368 18.1052632,8.71578947 C17.3894737,10.0210526 16.6315789,10.5263158 15.5789474,11.4526316 C14.9894737,11.9157895 16.2947368,13.1789474 17.8947368,14.3157895 C19.0736842,15.1578947 20.5894737,15.4526316 21.8947368,15.4947368 C22.9894737,13.3894737 23.5789474,11.3263158 23.7052632,9.05263158 C23.9578947,3.83157895 19.9578947,0.0842105263 14.6526316,0 C13.2631579,0 11.8736842,0.210526316 10.4842105,0.631578947 L13.3894737,0.631578947 Z" id="路径"></path>
                <path d="M15.2421053,4.08421053 C15.1157895,3.41052632 14.6526316,2.94736842 13.8947368,2.69473684 C13.4736842,2.56842105 12.8842105,2.48421053 12.0842105,2.52631579 L9.05263158,2.52631579 C8.88421053,2.52631579 8.71578947,2.65263158 8.67368421,2.77894737 L6.82105263,9.38947368 C6.73684211,9.6 6.94736842,9.81052632 7.2,9.81052632 L10.3578947,9.72631579 C11.1578947,9.68421053 11.7473684,9.64210526 12.1263158,9.55789474 C12.5052632,9.47368421 12.8842105,9.34736842 13.2631579,9.13684211 C13.8105263,8.8 14.2736842,8.33684211 14.5684211,7.70526316 C14.9052632,7.11578947 15.1157895,6.48421053 15.2,5.85263158 C15.3263158,5.22105263 15.3263158,4.63157895 15.2421053,4.08421053 Z M12.8421053,5.81052632 C12.7578947,6.10526316 12.6315789,6.35789474 12.4631579,6.65263158 C12.2947368,6.90526316 12.1263158,7.11578947 11.9578947,7.24210526 C11.6631579,7.45263158 11.2421053,7.57894737 10.6105263,7.62105263 L9.64210526,7.66315789 C9.47368421,7.66315789 9.30526316,7.53684211 9.34736842,7.36842105 L10.1894737,4.29473684 C10.2315789,4.16842105 10.3578947,4.08421053 10.4842105,4.08421053 L11.6210526,4.08421053 C12.1684211,4.08421053 12.5052632,4.16842105 12.7157895,4.33684211 C12.8421053,4.46315789 12.9263158,4.67368421 12.9263158,4.92631579 C12.9684211,5.17894737 12.9263158,5.47368421 12.8421053,5.81052632 Z" id="形状"></path>
            </g>
        </g>
    </g>
</svg>