<?xml version="1.0" encoding="UTF-8"?>
<svg width="14px" height="15px" viewBox="0 0 14 15" version="1.1" xmlns="http://www.w3.org/2000/svg" xmlns:xlink="http://www.w3.org/1999/xlink">
    <!-- Generator: Sketch 60 (88103) - https://sketch.com -->
    <title>退出登陆</title>
    <desc>Created with Sketch.</desc>
    <g id="首页+我的工作台" stroke="none" stroke-width="1" fill="none" fill-rule="evenodd">
        <g id="首页03-点击头像设置" transform="translate(-1316.000000, -356.000000)" fill="#0077FF" fill-rule="nonzero">
            <g id="编组-12" transform="translate(1304.000000, 124.000000)">
                <g id="退出登陆" transform="translate(12.000000, 232.000000)">
                    <path d="M13.0829635,10.3358736 L13.0829635,12.1208933 C13.0814187,13.1675208 12.2331394,14.0154865 11.1865115,14.0166444 L2.4478345,14.0166444 C1.40132038,14.0154857 0.553242056,13.1674074 0.552083333,12.1208933 L0.552083333,1.89715283 C0.552855092,0.850251185 1.40093371,0.00154552186 2.4478345,2.84217094e-14 L11.1872123,2.84217094e-14 C12.2342268,0.00154477182 13.0825064,0.850137792 13.0836643,1.89715283 L13.0836643,3.18177829 C13.0836643,3.4720725 12.8483343,3.70740246 12.5580401,3.70740246 C12.2677459,3.70740246 12.032416,3.4720725 12.032416,3.18177829 L12.032416,1.89715283 C12.032416,1.43039857 11.6532657,1.05124833 11.1872123,1.05124833 L2.4478345,1.05124833 C1.98178108,1.05124833 1.60333167,1.43109939 1.60333167,1.89715283 L1.60333167,12.1208933 C1.60333167,12.5862459 1.9824819,12.9653961 2.4478345,12.9653961 L11.1872123,12.9653961 C11.6532657,12.9653961 12.032416,12.5862459 12.032416,12.1208933 L12.032416,10.3358736 C12.0427415,10.0532357 12.2748632,9.82943922 12.5576897,9.82943922 C12.8405162,9.82943922 13.0726379,10.0532357 13.0829635,10.3358736 L13.0829635,10.3358736 Z M13.8854165,7.00832222 C13.8855255,6.86891878 13.8300315,6.73522867 13.7312333,6.63688114 L11.0855916,3.99194033 C10.8802568,3.78660556 10.5473434,3.78660556 10.3420086,3.99194034 C10.1366739,4.19727511 10.1366739,4.53018856 10.3420086,4.73552333 L12.090585,6.48339888 L6.76215765,6.48339888 C6.47186344,6.48339888 6.23653348,6.71872883 6.23653348,7.00902305 C6.23653348,7.29931726 6.47186344,7.53464721 6.76215765,7.53464721 L12.0912859,7.53464721 L10.3427095,9.2832236 C10.1434131,9.48937317 10.1461064,9.81721113 10.3487627,10.0200586 C10.5514189,10.2229061 10.8792542,10.2259084 11.0855916,10.0268066 L13.7312333,7.38116495 C13.8298528,7.28212506 13.8852814,7.14808882 13.8854165,7.00832222 L13.8854165,7.00832222 Z" id="形状"></path>
                </g>
            </g>
        </g>
    </g>
</svg>