<?xml version="1.0" encoding="UTF-8"?>
<svg width="14px" height="14px" viewBox="0 0 14 14" version="1.1" xmlns="http://www.w3.org/2000/svg" xmlns:xlink="http://www.w3.org/1999/xlink">
    <!-- Generator: Sketch 60 (88103) - https://sketch.com -->
    <title>Shape</title>
    <desc>Created with Sketch.</desc>
    <g id="首页+我的工作台" stroke="none" stroke-width="1" fill="none" fill-rule="evenodd">
        <g id="首页03-点击头像设置" transform="translate(-1101.000000, -357.000000)" fill="#0077FF" fill-rule="nonzero">
            <g id="编组-12备份" transform="translate(1089.000000, 124.000000)">
                <g id="Group-156" transform="translate(11.000000, 232.000000)">
                    <g id="key" transform="translate(1.000000, 1.000000)">
                        <path d="M12.6734375,6.309375 C11.05,4.6859375 8.496875,4.5625 6.73125,5.9359375 L0.9625,0.165625 C0.7421875,-0.0546875 0.3859375,-0.0546875 0.1671875,0.165625 C-0.053125,0.3859375 -0.053125,0.7421875 0.1671875,0.9609375 L5.9375,6.73125 C4.5640625,8.496875 4.6875,11.05 6.3109375,12.6734375 C8.06875,14.43125 10.9171875,14.43125 12.675,12.6734375 C14.4328125,10.915625 14.43125,8.0671875 12.6734375,6.309375 Z M11.878125,11.878125 C10.559375,13.196875 8.4234375,13.196875 7.1046875,11.878125 C5.7859375,10.559375 5.7859375,8.4234375 7.1046875,7.1046875 C8.4234375,5.7859375 10.559375,5.7859375 11.878125,7.1046875 C13.196875,8.4234375 13.1953125,10.559375 11.878125,11.878125 Z M4.496875,3.6796875 L5.690625,2.4859375 C5.9109375,2.265625 5.9109375,1.909375 5.690625,1.690625 C5.4703125,1.4703125 5.1140625,1.4703125 4.8953125,1.690625 L3.7015625,2.884375 L4.496875,3.6796875 L4.496875,3.6796875 Z M4.1875,0.984375 C4.4078125,0.7640625 4.4078125,0.4078125 4.1875,0.1890625 C3.96875,-0.03125 3.6125,-0.03125 3.3921875,0.1890625 L2.1984375,1.3828125 L2.99375,2.178125 L4.1875,0.984375 Z" id="Shape"></path>
                    </g>
                </g>
            </g>
        </g>
    </g>
</svg>