<?xml version="1.0" standalone="no"?><!DOCTYPE svg PUBLIC "-//W3C//DTD SVG 1.1//EN" "http://www.w3.org/Graphics/SVG/1.1/DTD/svg11.dtd"><svg t="1604620125593" class="icon" viewBox="0 0 1024 1024" version="1.1" xmlns="http://www.w3.org/2000/svg" p-id="4454" xmlns:xlink="http://www.w3.org/1999/xlink" width="200" height="200"><defs><style type="text/css"></style></defs><path d="M875.600896 301.800448L597.799936 21.300224a76.84608 76.84608 0 0 0-14.69952-11.49952c-1.399808-0.799744-2.799616-1.599488-4.3008-2.299904-0.899072-0.499712-1.898496-0.900096-2.798592-1.30048C566.99904 2.199552 557.100032 0 547.00032 0H202.000384c-39.799808 0-73.00096 32.19968-73.00096 71.999488v880c0 39.799808 33.201152 71.999488 73.00096 71.999488h622.999552c39.799808 0 71.000064-32.19968 71.000064-71.999488V352.499712c0-18.999296-6.99904-37.199872-20.399104-50.699264zM584.000512 110.399488l200.800256 201.601024H584.000512V110.399488z m240 841.601024h-623.0016V71.999488H512v240c0 39.799808 33.200128 71.999488 72.999936 71.999488h238.999552v568.001536zM333.699072 576h-66.699264V768h46.000128v-64h22.099968c40.399872 0 75.599872-20.200448 75.599872-65.69984-0.099328-47.300608-34.699264-62.30016-76.99968-62.30016zM332.8 668.000256h-19.800064v-56.000512h18.499584c22.20032 0 34.49856 7.000064 34.49856 26.399744 0.002048 18.700288-10.79808 29.600768-33.19808 29.600768zM498.500608 576h-55.5008V768h58.100736c55.799808 0 94.400512-30.400512 94.400512-97.000448S556.900352 576 498.500608 576z m-2.899968 154.999808h-5.60128V613.000192h5.60128c30.900224 0 52.70016 12.8 52.70016 58.300416s-21.80096 59.6992-52.70016 59.6992z m257.399808-117.000192V576H630.99904V768h46.000128v-72.999936h65.000448v-37.999616h-65.000448V614.00064h76.000256z" p-id="4455"></path></svg>