<?xml version="1.0" standalone="no"?><!DOCTYPE svg PUBLIC "-//W3C//DTD SVG 1.1//EN" "http://www.w3.org/Graphics/SVG/1.1/DTD/svg11.dtd"><svg t="1604619576373" class="icon" viewBox="0 0 1024 1024" version="1.1" xmlns="http://www.w3.org/2000/svg" p-id="2876" xmlns:xlink="http://www.w3.org/1999/xlink" width="200" height="200"><defs><style type="text/css"></style></defs><path d="M687.4 653.9H340.6c-23.1 0-41.9 18.8-41.9 41.9V857c0 23.1 18.8 41.9 41.9 41.9h346.9c23.1 0 41.9-18.8 41.9-41.9V695.8c0-23.1-18.9-41.9-42-41.9z m-0.8 202.3H341.4V696.6h345.3v159.6z" p-id="2877"></path><path d="M811.9 279h-58.8v-99.6c0-28.6-23.3-51.9-51.9-51.9H326.8c-28.6 0-51.9 23.3-51.9 51.9V279H164.5c-20.9 0-37.8 16.9-37.8 37.8v316.8c0 49.4 40 89.4 89.4 89.4h16c17.8 0 32.2-14.4 32.2-32.2 0-29.4 23.8-53.2 53.2-53.2h392.9c29.4 0 53.2 23.8 53.2 53.2 0 17.8 14.4 32.2 32.2 32.2h67.5c20.9 0 37.8-16.9 37.8-37.8V368.4c0.2-49.4-39.8-89.4-89.2-89.4z m-494.3-99.6c0-5.1 4.1-9.2 9.2-9.2h374.5c5.1 0 9.2 4.1 9.2 9.2V279H317.6v-99.6z m541 500.9h-52.8c-5.2-48-46-85.5-95.4-85.5H317.5c-49.4 0-90.2 37.5-95.4 85.5H216c-25.7 0-46.7-20.9-46.7-46.7V321.7h642.6c25.7 0 46.7 20.9 46.7 46.7v311.9z" p-id="2878"></path><path d="M481.3 349.1H231.5c-11.8 0-21.4 9.6-21.4 21.4 0 11.8 9.6 21.4 21.4 21.4h249.8c11.8 0 21.4-9.6 21.4-21.4-0.1-11.8-9.6-21.4-21.4-21.4z" p-id="2879"></path></svg>