<?xml version="1.0" encoding="UTF-8"?>
<svg width="12px" height="12px" viewBox="0 0 12 12" version="1.1" xmlns="http://www.w3.org/2000/svg" xmlns:xlink="http://www.w3.org/1999/xlink">
    <!-- Generator: Sketch 60 (88103) - https://sketch.com -->
    <title>重置</title>
    <desc>Created with Sketch.</desc>
    <g id="UI规范" stroke="none" stroke-width="1" fill="none" fill-rule="evenodd">
        <g id="03图标" transform="translate(-539.000000, -293.000000)" fill="#000000">
            <path d="M550.625,305 L539.375,305 C539.15,305 539,304.845161 539,304.612903 C539,304.380645 539.15,304.225806 539.375,304.225806 L550.625,304.225806 C550.85,304.225806 551,304.380645 551,304.612903 C551,304.845161 550.85,305 550.625,305 Z M545,293 C547.7,293 549.875,295.245161 549.875,298.032258 C549.875,300.819355 547.7,303.064516 545,303.064516 C543.8,303.064516 542.6375,302.6 541.7375,301.748387 C541.5875,301.593548 541.5875,301.36129 541.7,301.206452 C541.85,301.051613 542.075,301.051613 542.225,301.167742 C542.975,301.864516 543.9875,302.290323 545,302.290323 C547.2875,302.290323 549.125,300.393548 549.125,298.032258 C549.125,295.670968 547.2875,293.774194 545,293.774194 C542.976663,293.774194 541.290271,295.242747 540.950834,297.291722 L542.1125,296.677419 C542.3,296.56129 542.525,296.63871 542.6375,296.832258 C542.75,297.025806 542.675,297.258065 542.4875,297.374194 L540.6875,298.341935 C540.6125,298.380645 540.5,298.380645 540.425,298.380645 C540.35,298.380645 540.3125,298.380645 540.275,298.341935 C540.125,298.303226 540.0125,298.187097 539.9375,298.070968 L539.0375,296.212903 C538.9625,296.019355 539.0375,295.787097 539.225,295.709677 C539.4125,295.632258 539.6375,295.709677 539.7125,295.903226 L540.232,296.976 L540.243357,296.918896 C540.739392,294.634766 542.711328,293 545,293 Z" id="重置"></path>
        </g>
    </g>
</svg>