<?xml version="1.0" encoding="UTF-8"?>
<svg width="14px" height="13px" viewBox="0 0 14 13" version="1.1" xmlns="http://www.w3.org/2000/svg" xmlns:xlink="http://www.w3.org/1999/xlink">
    <!-- Generator: Sketch 60 (88103) - https://sketch.com -->
    <title>退回</title>
    <desc>Created with Sketch.</desc>
    <defs>
        <path d="M14,7.18340933 L14,3.72127747 C14,3.32277167 13.6772241,3 13.2787182,3 C12.8802124,3 12.5574408,3.32277167 12.5574408,3.72127747 L12.5574408,7.18340933 C12.5574408,8.25450638 12.140903,9.26249165 11.3817585,10.0216362 C10.6244172,10.7789775 9.61643189,11.1973185 8.54353165,11.1973185 L2.4234923,11.1973185 L4.450282,9.17233196 C4.73158021,8.88923055 4.73158021,8.43302255 4.450282,8.15172434 C4.30963289,8.01107523 4.12570714,7.94075068 3.93997819,7.94075068 C3.75424924,7.94075068 3.57032348,8.01107523 3.42967438,8.15172434 L0.21097366,11.3704251 C0.0757341345,11.5056646 0,11.6895903 0,11.8807289 C0,12.0718674 0.0757341345,12.2557932 0.21097366,12.3910327 L3.52344045,15.7053027 C3.80654186,15.9866009 4.26274986,15.9884041 4.54404807,15.7053027 C4.82534628,15.4222013 4.82534628,14.9659933 4.54404807,14.684695 L2.49922644,12.6398734 L8.54353165,12.6398734 C10.0005121,12.6398734 11.3709393,12.0736706 12.4023661,11.0422438 C13.4337929,10.010817 14.0017989,8.64038983 14,7.18340933 Z" id="path-1"></path>
    </defs>
    <g id="研发计划管理2-本单位计划统筹" stroke="none" stroke-width="1" fill="none" fill-rule="evenodd">
        <g id="研发计划-02本单位计划统筹-01计划上报" transform="translate(-1373.000000, -407.000000)" fill-rule="nonzero">
            <g id="编组-6备份" transform="translate(309.000000, 189.000000)">
                <g id="顶部悬浮按钮栏备份" transform="translate(1056.000000, 209.000000)">
                    <g id="转办">
                        <g id="按钮-Button-基本样式-中号按钮-Copy-3" transform="translate(8.000000, 6.000000)">
                            <g id="退回">
                                <use fill="#333333" xlink:href="#path-1"></use>
                                <use fill="#0B82FF" xlink:href="#path-1"></use>
                                <use fill="#F5222D" xlink:href="#path-1"></use>
                            </g>
                        </g>
                    </g>
                </g>
            </g>
        </g>
    </g>
</svg>