<?xml version="1.0" encoding="UTF-8"?>
<svg width="11px" height="14px" viewBox="0 0 11 14" version="1.1" xmlns="http://www.w3.org/2000/svg" xmlns:xlink="http://www.w3.org/1999/xlink">
    <!-- Generator: Sketch 60 (88103) - https://sketch.com -->
    <title>Shape</title>
    <desc>Created with Sketch.</desc>
    <g id="自立项目1-项目主页" stroke="none" stroke-width="1" fill="none" fill-rule="evenodd">
        <g id="我的项目管理-我的项目06-项目1-主页编辑-" transform="translate(-387.000000, -194.000000)" fill="#000000" fill-rule="nonzero">
            <g id="编组-33" transform="translate(79.000000, 79.000000)">
                <g id="编组-17" transform="translate(130.000000, 108.000000)">
                    <g id="保存备份" transform="translate(168.000000, 0.000000)">
                        <g id="按钮-Button-基本样式-中号按钮" transform="translate(8.000000, 6.000000)">
                            <g id="保存" transform="translate(0.000000, 1.000000)">
                                <path d="M12.2074219,4.12617187 L8.409375,0.291210937 C8.34785156,0.2296875 8.28085937,0.177734375 8.20839844,0.133984375 C8.18925781,0.123046875 8.17011719,0.112109375 8.14960938,0.102539062 C8.13730469,0.095703125 8.12363281,0.090234375 8.11132812,0.084765625 C7.98828125,0.030078125 7.85292969,0 7.71484375,0 L2.99804688,0 C2.45390625,0 2,0.440234375 2,0.984375 L2,13.015625 C2,13.5597656 2.45390625,14 2.99804688,14 L11.515625,14 C12.0597656,14 12.4863281,13.5597656 12.4863281,13.015625 L12.4863281,4.81933594 C12.4863281,4.55957031 12.390625,4.31074219 12.2074219,4.12617187 Z M8.22070312,1.509375 L10.9660156,4.265625 L8.22070312,4.265625 L8.22070312,1.509375 Z M11.5019531,13.015625 L2.984375,13.015625 L2.984375,0.984375 L7.23632812,0.984375 L7.23632812,4.265625 C7.23632812,4.80976563 7.69023438,5.25 8.234375,5.25 L11.5019531,5.25 L11.5019531,13.015625 Z M8.234375,6.6171875 C8.234375,6.34511719 8.01425781,6.125 7.7421875,6.125 L4.2421875,6.125 C3.97011719,6.125 3.75,6.34511719 3.75,6.6171875 C3.75,6.88925781 3.97011719,7.109375 4.2421875,7.109375 L7.7421875,7.109375 C8.01425781,7.109375 8.234375,6.88925781 8.234375,6.6171875 Z M10.859375,8.8046875 C10.859375,8.53261719 10.6392578,8.3125 10.3671875,8.3125 L4.2421875,8.3125 C3.97011719,8.3125 3.75,8.53261719 3.75,8.8046875 C3.75,9.07675781 3.97011719,9.296875 4.2421875,9.296875 L10.3671875,9.296875 C10.6392578,9.296875 10.859375,9.07675781 10.859375,8.8046875 Z M9.109375,10.9921875 C9.109375,10.7201172 8.88925781,10.5 8.6171875,10.5 L4.2421875,10.5 C3.97011719,10.5 3.75,10.7201172 3.75,10.9921875 C3.75,11.2642578 3.97011719,11.484375 4.2421875,11.484375 L8.6171875,11.484375 C8.88925781,11.484375 9.109375,11.2642578 9.109375,10.9921875 Z" id="Shape"></path>
                            </g>
                        </g>
                    </g>
                </g>
            </g>
        </g>
    </g>
</svg>