<?xml version="1.0" encoding="UTF-8"?>
<svg width="40px" height="35px" viewBox="0 0 40 35" version="1.1" xmlns="http://www.w3.org/2000/svg" xmlns:xlink="http://www.w3.org/1999/xlink">
    <!-- Generator: Sketch 60 (88103) - https://sketch.com -->
    <title>7</title>
    <desc>Created with Sketch.</desc>
    <defs>
        <linearGradient x1="85.9090156%" y1="101.249003%" x2="83.8883604%" y2="-8.68337731%" id="linearGradient-1">
            <stop stop-color="#00B6FF" offset="0%"></stop>
            <stop stop-color="#0B82FF" offset="100%"></stop>
        </linearGradient>
    </defs>
    <g id="首页+我的工作台" stroke="none" stroke-width="1" fill="none" fill-rule="evenodd">
        <g id="首页12-常用功能-更多" transform="translate(-349.000000, -578.000000)">
            <g id="7" transform="translate(347.000000, 574.000000)">
                <path d="M24.7556719,4.12108984 C25.4207852,4.12108984 25.9589687,4.659875 25.9589687,5.32442969 L25.9589687,5.32442969 L25.9589687,8.33980469 L38.1706875,8.33980469 C39.8122656,8.33980469 41.1472187,9.67531641 41.1472187,11.3163359 L41.1472187,11.3163359 L41.1472187,25.3711992 C41.1484973,27.2683894 41.1493365,29.1238226 41.1497363,30.9374988 L41.1498944,34.9478053 C41.1494177,36.892826 40.2013093,37.9819157 38.3055693,38.2150742 L38.3055693,38.2150742 L5.68949219,38.2150742 C4.04782812,38.2150742 2.71235937,36.8795625 2.71235937,35.238543 L2.71235937,35.238543 L2.71235937,11.316293 C2.71235937,9.67523047 4.04787109,8.33976172 5.68944922,8.33976172 L5.68944922,8.33976172 L17.5363633,8.33976172 L17.5363633,5.32442969 C17.5363633,4.659875 18.0751484,4.12108984 18.7396172,4.12108984 L18.7396172,4.12108984 Z M15.2485978,14.6430625 C12.5804962,14.6430625 10.4899806,16.6918555 10.4899806,19.3070625 L10.4899806,22.8294258 C10.489926,23.0793776 10.5677543,23.3231356 10.7126446,23.5268086 L11.8812657,25.1702344 L7.2519415,27.3870781 C6.83426527,27.5871319 6.56860944,28.0091825 6.56860944,28.4722969 L6.56860944,30.7085195 C6.56860944,31.3730312 7.10743759,31.9118164 7.77190634,31.9118164 L22.545422,31.9118164 C23.2104923,31.9118164 23.7486759,31.3729883 23.7486759,30.7085195 L23.7486759,28.4722969 C23.7486759,28.0164867 23.4912551,27.5997672 23.0835626,27.3959297 L18.6487579,25.1796445 L19.7956368,23.5109961 C19.9333091,23.3103567 20.0070518,23.0727565 20.007172,22.8294258 L20.007172,19.3070625 C20.007172,16.6918555 17.9172149,14.6430625 15.2485978,14.6430625 Z M35.7751494,23.2658578 L30.4572931,28.7818511 L27.4424871,26.0082055 C26.9148309,25.6051586 26.1604285,25.7056195 25.7550184,26.2332758 C25.3519715,26.7614477 25.453034,27.5164516 25.9806043,27.9201 L29.8885588,31.3759175 C30.0982958,31.536621 30.3552317,31.6235653 30.6194572,31.6232465 C30.9655341,31.6235698 31.2949117,31.4745119 31.52309,31.214312 L37.582458,24.8551 C38.0207822,24.3558031 37.9726142,23.5954281 37.4731884,23.1565453 C36.9761259,22.7194242 36.2134736,22.7652719 35.7751494,23.2658578 Z M15.2486407,17.0496133 C16.5677384,17.0496133 17.6006212,18.041418 17.6006212,19.3070195 L17.6006212,22.4557695 L15.8820431,24.9563789 C15.6850442,25.2434041 15.6218232,25.6016093 15.7086642,25.9387305 C15.7955425,26.2758046 16.0242097,26.5586999 16.3355782,26.7143164 L21.3421681,29.2161719 L21.3421681,29.5052656 L8.97528916,29.5052656 L8.97528916,29.2302656 L14.2103868,26.723125 C14.5305772,26.569888 14.7667032,26.2830108 14.8555196,25.939332 C14.9442113,25.5954658 14.8767157,25.2299866 14.6710548,24.9404805 L12.8966603,22.4451563 L12.8966603,19.3070195 C12.8966603,18.041418 13.9295431,17.0496133 15.2486407,17.0496133 Z M34.4420312,17.9386367 L26.785,17.9386367 C26.1198867,17.9386367 25.5817461,18.4774648 25.5817461,19.1419336 C25.5817461,19.8064023 26.1199297,20.3452734 26.785043,20.3452734 L34.4420312,20.3452734 C35.1071445,20.3452734 35.6453281,19.8064453 35.6453281,19.1419336 C35.6453281,18.4774219 35.1071445,17.9386367 34.4420312,17.9386367 Z M23.552332,6.52772656 L19.942957,6.52772656 L19.942957,10.1376602 C19.942957,11.1329883 20.7520156,11.9426484 21.7473437,11.9426484 C22.7426719,11.9426484 23.552332,11.1329453 23.552332,10.1376602 L23.552332,10.1376602 L23.552332,6.52772656 Z" id="合并形状" fill="url(#linearGradient-1)" fill-rule="nonzero"></path>
            </g>
        </g>
    </g>
</svg>