<?xml version="1.0" encoding="UTF-8"?>
<svg width="14px" height="14px" viewBox="0 0 14 14" version="1.1" xmlns="http://www.w3.org/2000/svg" xmlns:xlink="http://www.w3.org/1999/xlink">
    <!-- Generator: Sketch 60 (88103) - https://sketch.com -->
    <title>切换主题</title>
    <desc>Created with Sketch.</desc>
    <g id="首页+我的工作台" stroke="none" stroke-width="1" fill="none" fill-rule="evenodd">
        <g id="首页03-点击头像设置" transform="translate(-1317.000000, -135.000000)">
            <g id="编组-12" transform="translate(1304.000000, 124.000000)">
                <g id="切换主题" transform="translate(12.000000, 10.000000)">
                    <g id="skin" transform="translate(1.000000, 1.000000)" fill="#0077FF" fill-rule="nonzero">
                        <path d="M12.875,0 L8.8234375,0 C8.809375,0.0578125 8.7921875,0.115625 8.7734375,0.171875 C8.5203125,0.9078125 7.821875,1.4375 7,1.4375 C6.178125,1.4375 5.4796875,0.9078125 5.2265625,0.171875 C5.2078125,0.115625 5.190625,0.0578125 5.1765625,0 L1.125,0 C0.503125,0 0,0.503125 0,1.125 L0,6.875 C0,7.496875 0.503125,8 1.125,8 L2,8 L2,12.875 C2,13.496875 2.503125,14 3.125,14 L10.875,14 C11.496875,14 12,13.496875 12,12.875 L12,8 L12.875,8 C13.496875,8 14,7.496875 14,6.875 L14,1.125 C14,0.503125 13.496875,0 12.875,0 Z M12.875,6.875 L10.859375,6.875 C10.86875,6.875 10.875,6.8828125 10.875,6.890625 L10.875,12.859375 C10.875,12.86875 10.8671875,12.875 10.859375,12.875 L3.140625,12.875 C3.13125,12.875 3.125,12.8671875 3.125,12.859375 L3.125,6.890625 C3.125,6.88125 3.1328125,6.875 3.140625,6.875 L1.125,6.875 L1.125,1.125 L4.4109375,1.125 C4.93125,2.0125 5.896875,2.609375 7,2.609375 C8.103125,2.609375 9.06875,2.0125 9.5890625,1.125 L12.875,1.125 L12.875,6.875 Z" id="Shape"></path>
                    </g>
                </g>
            </g>
        </g>
    </g>
</svg>