<?xml version="1.0" encoding="utf-8"?>
<!-- Generator: Adobe Illustrator 24.0.0, SVG Export Plug-In . SVG Version: 6.00 Build 0)  -->
<svg version="1.1" id="图层_1" xmlns="http://www.w3.org/2000/svg" xmlns:xlink="http://www.w3.org/1999/xlink" x="0px" y="0px"
	 viewBox="0 0 25 25" style="enable-background:new 0 0 25 25;" xml:space="preserve">
<style type="text/css">
	.st0{fill:#999999;}
	.st1{enable-background:new    ;}
	.st2{fill:#666666;}
</style>
<title>编组 9</title>
<desc>Created with Sketch.</desc>
<g id="集团统筹1-父项目">
	<g id="我的项目管理-我的项目" transform="translate(-369.000000, -491.000000)">
		<g id="编组-9" transform="translate(369.000000, 491.000000)">
			<g id="边框">
				<path class="st0" d="M12.5,25C5.6,25,0,19.4,0,12.5S5.6,0,12.5,0S25,5.6,25,12.5S19.4,25,12.5,25z M12.5,1C6.2,1,1,6.2,1,12.5
					C1,18.8,6.2,24,12.5,24C18.8,24,24,18.8,24,12.5C24,6.2,18.8,1,12.5,1z"/>
			</g>
			<g class="st1">
				<path class="st2" d="M9.5,9.9v0.9c-0.2,3.1-1.1,5.6-2.9,7.3L6,17.3c1.5-1.6,2.4-3.7,2.6-6.5H6.3v-1H9.5z M16.5,6.6v1
					c-1,0.6-2.1,1.3-3.3,1.9v0.9h1.7v0.9h-1.7v1.3h2v0.9h-2v1.3h2.6v1h-2.6v2c0,0.8-0.4,1.1-1.1,1.1h-1.6L10.2,18c0.5,0,1,0,1.5,0
					c0.3,0,0.4-0.2,0.4-0.6v-1.6H9.4v-1h2.7v-1.3H9.9v-0.9h2.2v-1.3h-1.9v-0.9h1.9V8.9c1.3-0.6,2.2-1.1,2.9-1.4H8.4v-1H16.5z
					 M18.9,10c-0.3,0.6-0.7,1.1-1,1.5c-0.3,0.3-0.7,0.7-1.1,1c0.4,1.8,1.1,3.5,2.1,4.8l-0.7,0.7c-1.8-2.3-2.6-5.2-2.7-8.7h0.9
					c0,0.8,0,1.5,0.1,2.2c0.2-0.2,0.4-0.4,0.6-0.7c0.3-0.4,0.6-0.9,0.9-1.4L18.9,10z"/>
			</g>
		</g>
	</g>
</g>
</svg>
