<?xml version="1.0" encoding="UTF-8"?>
<svg width="34px" height="34px" viewBox="0 0 34 34" version="1.1" xmlns="http://www.w3.org/2000/svg" xmlns:xlink="http://www.w3.org/1999/xlink">
    <!-- Generator: Sketch 60 (88103) - https://sketch.com -->
    <title>项目结算</title>
    <desc>Created with Sketch.</desc>
    <defs>
        <linearGradient x1="85.9090156%" y1="115.138982%" x2="85.9090156%" y2="0%" id="linearGradient-1">
            <stop stop-color="#FF9D73" offset="0%"></stop>
            <stop stop-color="#FE6B60" offset="100%"></stop>
        </linearGradient>
        <linearGradient x1="85.9090156%" y1="112.983674%" x2="83.8883604%" y2="-22.1203236%" id="linearGradient-2">
            <stop stop-color="#B17DF6" offset="0%"></stop>
            <stop stop-color="#956FF9" offset="100%"></stop>
        </linearGradient>
    </defs>
    <g id="首页+我的工作台" stroke="none" stroke-width="1" fill="none" fill-rule="evenodd">
        <g id="首页01" transform="translate(-1390.000000, -371.000000)">
            <g id="编组-18" transform="translate(309.000000, 303.000000)">
                <g id="编组-12" transform="translate(597.000000, 0.000000)">
                    <g id="项目结算" transform="translate(478.000000, 62.000000)">
                        <g id="档案材料收集">
                            <g id="分组" transform="translate(6.000000, 6.000000)" fill="url(#linearGradient-2)">
                                <path d="M14.805,12.004 L14.8051596,13.6673696 C14.6424598,13.7239242 14.4837894,13.7961133 14.3313847,13.8839369 C13.4762167,14.3781998 12.9493138,15.2911872 12.9493138,16.2787803 C12.9493138,17.8053998 14.1868361,19.0438546 15.7143881,19.0438546 C17.2410075,19.0438546 18.4785298,17.8053998 18.4785298,16.2787803 C18.4785298,15.2911872 17.951627,14.3781998 17.096459,13.8839369 C17.0032553,13.8301695 16.907692,13.782262 16.8102824,13.7402147 L16.809,12.004 L31.7,12.004 L31.7008479,19.4968059 C30.6917066,19.1741666 29.6161927,19 28.5,19 C22.7010101,19 18,23.7010101 18,29.5 C18,30.752449 18.2192838,31.9536816 18.6215528,33.0673989 L15.8261264,33.0897971 L15.4318586,33.0921289 L2.77676506,33.0929062 L2.77676506,33.1091146 C1.03876073,33.1091146 2.30926389e-12,32.0677243 2.30926389e-12,30.3253202 L-3.55271368e-15,12.004096 L14.805,12.004 Z M32.6142446,28.384384 L33.670848,29.0642286 L27.508416,33.0313874 C27.4030354,33.0994651 27.2678126,33.0994651 27.162432,33.0313874 L21,29.0642286 L22.0566034,28.384384 C22.1368046,28.3330926 22.2393874,28.3330926 22.318656,28.384384 L27.162432,31.5019703 C27.2678126,31.570048 27.4030354,31.570048 27.508416,31.5019703 L32.352192,28.384384 C32.4314606,28.3330926 32.5340434,28.3330926 32.6142446,28.384384 Z M27.5438537,22.0615497 L33.3024823,25.7685211 C33.475008,25.8794971 33.475008,26.132224 33.3024823,26.2432 L27.5438537,29.9501714 C27.417024,30.0322377 27.253824,30.0322377 27.1269943,29.9501714 L21.3692983,26.2432 C21.19584,26.132224 21.19584,25.8794971 21.3692983,25.7685211 L27.1269943,22.0615497 C27.253824,21.9794834 27.417024,21.9794834 27.5438537,22.0615497 Z M28.9236256,1.76214598e-12 C30.6616299,1.76214598e-12 31.7003906,1.04139031 31.7003906,2.78379433 L31.7,9.999 L16.809,9.999 L16.8098868,8.81674031 C16.9338237,8.76759196 17.0550398,8.70913521 17.1725079,8.64137006 C18.0276759,8.1471072 18.5545788,7.23411977 18.5545788,6.24652663 C18.5545788,4.7199072 17.3170565,3.48145234 15.7904371,3.48145234 C14.2628851,3.48145234 13.0253628,4.7199072 13.0253628,6.24652663 C13.0253628,7.23411977 13.5522656,8.1471072 14.4074336,8.64137006 C14.5360055,8.71545995 14.6690366,8.7784228 14.8051844,8.83025858 L14.805,9.999 L-3.55271368e-15,10 L2.30926389e-12,2.78379433 C2.30926389e-12,1.04139031 1.03876073,1.76214598e-12 2.77676506,1.76214598e-12 L28.9236256,1.76214598e-12 Z" id="合并形状"></path>
                            </g>
                        </g>
                    </g>
                </g>
            </g>
        </g>
    </g>
</svg>