<?xml version="1.0" encoding="UTF-8"?>
<svg width="40px" height="36px" viewBox="0 0 40 36" version="1.1" xmlns="http://www.w3.org/2000/svg" xmlns:xlink="http://www.w3.org/1999/xlink">
    <!-- Generator: Sketch 60 (88103) - https://sketch.com -->
    <title>4</title>
    <desc>Created with Sketch.</desc>
    <defs>
        <linearGradient x1="84.3036393%" y1="100%" x2="18.7708919%" y2="-24.3851654%" id="linearGradient-1">
            <stop stop-color="#37E4E0" offset="0%"></stop>
            <stop stop-color="#6CD644" offset="100%"></stop>
        </linearGradient>
        <linearGradient x1="85.9090156%" y1="115.138982%" x2="85.9090156%" y2="0%" id="linearGradient-2">
            <stop stop-color="#FF9D73" offset="0%"></stop>
            <stop stop-color="#FE6B60" offset="100%"></stop>
        </linearGradient>
    </defs>
    <g id="首页+我的工作台" stroke="none" stroke-width="1" fill="none" fill-rule="evenodd">
        <g id="首页12-常用功能-更多" transform="translate(-680.000000, -399.000000)">
            <g id="4" transform="translate(678.000000, 396.000000)">
                <path d="M37.7064,35.5179 C38.4454,35.5179 39.0444,36.1309 39.0444,36.8879 C39.0444,37.6449 38.4454,38.2579 37.7064,38.2579 L33.2754,38.2579 C32.5364,38.2579 31.9374,37.6449 31.9374,36.8879 C31.9374,36.1309 32.5364,35.5179 33.2754,35.5179 L37.7064,35.5179 Z M32.939,3 C34.458,3 35.7,4.242 35.7,5.761 L35.7,5.761 L35.7,19.78 C35.629,19.777 35.562,19.758 35.491,19.758 C32.819,19.758 30.646,21.968 30.646,24.684 C30.646,26.284 31.41,27.763 32.653,28.677 L32.653,28.677 L32.653,29.693 L30.636,29.693 C28.913,29.693 27.511,30.98 27.511,32.563 C27.511,34.146 28.913,35.433 30.636,35.433 L30.636,35.433 L30.83,35.433 C30.581,35.86 30.437,36.358 30.437,36.888 C30.437,37.326 30.542,37.737 30.717,38.109 L30.717,38.109 L4.76,38.109 C3.242,38.109 2,36.867 2,35.348 L2,35.348 L2,5.761 C2,4.242 3.242,3 4.76,3 L4.76,3 Z M35.4904,21.2579 C37.3374,21.2579 38.8354,22.7919 38.8354,24.6839 C38.8354,26.0889 38.0094,27.2959 36.8284,27.8249 L36.8284,31.1929 L40.3864,31.1929 C41.2844,31.1929 42.0114,31.8069 42.0114,32.5629 C42.0114,33.3199 41.2844,33.9329 40.3864,33.9329 L30.6364,33.9329 C29.7394,33.9329 29.0114,33.3199 29.0114,32.5629 C29.0114,31.8069 29.7394,31.1929 30.6364,31.1929 L34.1534,31.1929 L34.1534,27.8249 C32.9724,27.2959 32.1464,26.0889 32.1464,24.6839 C32.1464,22.7919 33.6444,21.2579 35.4904,21.2579 Z M15.1424963,24 L10.3475811,24 C9.60333732,24 9,24.5953532 9,25.3297482 C9,26.0641432 9.60333732,26.6594965 10.3475811,26.6594965 L10.3475811,26.6594965 L15.1424963,26.6594965 C15.8867401,26.6594965 16.4900774,26.0641432 16.4900774,25.3297482 C16.4900774,24.5953532 15.8867401,24 15.1424963,24 L15.1424963,24 Z M20.4696213,18 L10.3475811,18 C9.60333732,18 9,18.5953532 9,19.3297482 C9,20.0641432 9.60333732,20.6594965 10.3475811,20.6594965 L10.3475811,20.6594965 L20.4696213,20.6594965 C21.213865,20.6594965 21.8172023,20.0641432 21.8172023,19.3297482 C21.8172023,18.5953532 21.213865,18 20.4696213,18 L20.4696213,18 Z M25.4300338,11 L10.3475811,11 C9.60333732,11 9,11.5953532 9,12.3297482 C9,13.0641432 9.60333732,13.6594965 10.3475811,13.6594965 L10.3475811,13.6594965 L25.4300338,13.6594965 C26.1742776,13.6594965 26.7776149,13.0641432 26.7776149,12.3297482 C26.7776149,11.5953532 26.1742776,11 25.4300338,11 L25.4300338,11 Z" id="合并形状" fill="url(#linearGradient-2)"></path>
            </g>
        </g>
    </g>
</svg>