<?xml version="1.0" encoding="UTF-8"?>
<svg width="36px" height="38px" viewBox="0 0 36 38" version="1.1" xmlns="http://www.w3.org/2000/svg" xmlns:xlink="http://www.w3.org/1999/xlink">
    <!-- Generator: Sketch 60 (88103) - https://sketch.com -->
    <title>8</title>
    <desc>Created with Sketch.</desc>
    <defs>
        <linearGradient x1="83.1993984%" y1="115.138982%" x2="81.3312176%" y2="-24.5882884%" id="linearGradient-1">
            <stop stop-color="#00B6FF" offset="0%"></stop>
            <stop stop-color="#0B82FF" offset="100%"></stop>
        </linearGradient>
    </defs>
    <g id="首页+我的工作台" stroke="none" stroke-width="1" fill="none" fill-rule="evenodd">
        <g id="首页12-常用功能-更多" transform="translate(-461.000000, -577.000000)">
            <g id="8" transform="translate(457.000000, 574.000000)">
                <path d="M29.6932741,3.76308054 C30.4657423,3.76308054 31.0920398,4.38937799 31.0920398,5.16184629 L31.0920398,6.560612 L36.6871861,6.560612 C38.2300815,6.560612 39.4847592,7.81562299 39.4847592,9.35818514 L39.4847592,37.3341248 C39.4847592,38.8770202 38.2300815,40.1316563 36.6871861,40.1316563 L7.31281393,40.1316563 C5.76991855,40.1316563 4.51524079,38.8769785 4.51524079,37.3340832 L4.51524079,9.35818514 C4.51524079,7.81562299 5.76991855,6.560612 7.31281393,6.560612 L12.9079185,6.560612 L12.9079185,5.16184629 C12.9079185,4.38937803 13.534216,3.76308054 14.3066843,3.76308054 C15.0791525,3.76308054 15.70545,4.38937803 15.70545,5.16184629 L15.70545,6.560612 L28.2945083,6.560612 L28.2945083,5.16184629 C28.2945083,4.38937803 28.9208058,3.76308054 29.6932741,3.76308054 Z M22.3499101,21.9473268 L20.2517407,21.9473268 L20.2517407,33.8369397 L23.7486759,33.8369397 L23.7486759,23.3460925 C23.7486759,22.5735826 23.12242,21.9473268 22.3499101,21.9473268 L22.3499101,21.9473268 Z M12.9079185,9.35818514 L8.11281393,9.35818514 C7.67098613,9.35818514 7.31281393,9.71635734 7.31281393,10.1581851 L7.31281393,15.8456439 L36.6876262,15.8456439 L36.6871861,10.1581851 C36.6871538,9.71638013 36.3289911,9.35818514 35.8871861,9.35818514 L31.0920398,9.35818514 L31.0920398,10.7569509 C31.0920398,11.5294191 30.4657423,12.1557166 29.6932741,12.1557166 C28.9208058,12.1557166 28.2945083,11.5294191 28.2945083,10.7569509 L28.2945083,9.35818514 L15.70545,9.35818514 L15.70545,10.7569509 C15.7054917,11.5294191 15.0791942,12.1557166 14.3066843,12.1557166 C13.534216,12.1557166 12.9079185,11.5294191 12.9079185,10.7569509 L12.9079185,9.35818514 Z" id="合并形状" fill="url(#linearGradient-1)" fill-rule="nonzero"></path>
            </g>
        </g>
    </g>
</svg>