<?xml version="1.0" encoding="UTF-8"?>
<svg width="30px" height="30px" viewBox="0 0 30 30" version="1.1" xmlns="http://www.w3.org/2000/svg" xmlns:xlink="http://www.w3.org/1999/xlink">
    <!-- Generator: Sketch 60 (88103) - https://sketch.com -->
    <title>列表未选中</title>
    <desc>Created with Sketch.</desc>
    <g id="研发计划管理1-计划申报" stroke="none" stroke-width="1" fill="none" fill-rule="evenodd">
        <g id="研发计划-01计划填报08-项目计划详情页" transform="translate(-1240.000000, -4202.000000)">
            <g id="编组-3" transform="translate(209.000000, 2647.000000)">
                <g id="编组-7备份-4" transform="translate(30.000000, 1273.000000)">
                    <g id="编组-11" transform="translate(30.000000, 271.000000)">
                        <g id="编组-13">
                            <g id="编组-5备份-4">
                                <g id="编组-28" transform="translate(1000.500000, 26.000000) rotate(-180.000000) translate(-1000.500000, -26.000000) translate(971.000000, 11.000000)">
                                    <g id="列表未选中" transform="translate(29.000000, 0.000000)">
                                        <g id="*基本/形状/边/右">
                                            <g id="Group-5">
                                                <path d="M0,0 L28,0 C29.1045695,-2.02906125e-16 30,0.8954305 30,2 L30,28 C30,29.1045695 29.1045695,30 28,30 L0,30 L0,30 L0,0 Z" id="阴影" fill-opacity="0" fill="#0B82FF"></path>
                                                <path d="M0,0 L28,0 C29.1045695,-2.02906125e-16 30,0.8954305 30,2 L30,28 C30,29.1045695 29.1045695,30 28,30 L0,30 L0,30 L0,0 Z" id="背景" fill="#FFFFFF"></path>
                                                <path d="M0,0 L28,0 C29.1045695,-2.02906125e-16 30,0.8954305 30,2 L30,28 C30,29.1045695 29.1045695,30 28,30 L0,30 L0,30 L0,0 Z" id="内边框" fill-opacity="0" fill="#0B82FF"></path>
                                                <path d="M0.5,0.5 L0.5,29.5 L28,29.5 C28.8284271,29.5 29.5,28.8284271 29.5,28 L29.5,2 C29.5,1.17157288 28.8284271,0.5 28,0.5 L0.5,0.5 Z" id="边框" stroke="#E5E5E5"></path>
                                            </g>
                                        </g>
                                        <path d="M21,20 C21.5522847,20 22,20.4477153 22,21 C22,21.5522847 21.5522847,22 21,22 L9,22 C8.44771525,22 8,21.5522847 8,21 C8,20.4477153 8.44771525,20 9,20 L21,20 Z M21,16 C21.5522847,16 22,16.4477153 22,17 C22,17.5522847 21.5522847,18 21,18 L9,18 C8.44771525,18 8,17.5522847 8,17 C8,16.4477153 8.44771525,16 9,16 L21,16 Z M21,12 C21.5522847,12 22,12.4477153 22,13 C22,13.5522847 21.5522847,14 21,14 L9,14 C8.44771525,14 8,13.5522847 8,13 C8,12.4477153 8.44771525,12 9,12 L21,12 Z M21,8 C21.5522847,8 22,8.44771525 22,9 C22,9.55228475 21.5522847,10 21,10 L9,10 C8.44771525,10 8,9.55228475 8,9 C8,8.44771525 8.44771525,8 9,8 L21,8 Z" id="形状结合" fill="#E5E5E5"></path>
                                    </g>
                                </g>
                            </g>
                        </g>
                    </g>
                </g>
            </g>
        </g>
    </g>
</svg>