<?xml version="1.0" encoding="UTF-8"?>
<svg width="20px" height="20px" viewBox="0 0 20 20" version="1.1" xmlns="http://www.w3.org/2000/svg" xmlns:xlink="http://www.w3.org/1999/xlink">
    <!-- Generator: Sketch 60 (88103) - https://sketch.com -->
    <title>全集团项目管理</title>
    <desc>Created with Sketch.</desc>
    <g id="全生命周期管理1" stroke="none" stroke-width="1" fill="none" fill-rule="evenodd">
        <g id="我的项目管理-我的项目02-创建项目" transform="translate(-100.000000, -409.000000)" fill="#242830" fill-rule="nonzero">
            <g id="编组-2" transform="translate(79.000000, 79.000000)">
                <path d="M31,330 C25.4765625,330 21,334.476562 21,340 C21,345.523438 25.4765625,350 31,350 C36.5234375,350 41,345.523438 41,340 C41,334.476562 36.5234375,330 31,330 Z M28.703125,331.716797 C28.1074219,332.220703 27.5742188,332.912109 27.1308594,333.75 C26.7265625,333.544922 26.3398438,333.310547 25.9746094,333.046875 L25.9472656,333.046875 C26.7695312,332.449219 27.6992188,331.994141 28.703125,331.716797 Z M24.8710938,333.976562 C25.3945312,334.382812 25.9609375,334.738281 26.5585938,335.037109 C26.1269531,336.210938 25.84375,337.566406 25.7558594,339.023438 L22.4609375,339.023438 C22.6816406,337.066406 23.5605469,335.308594 24.8710938,333.976562 Z M22.4160156,340.429688 L25.7324219,340.429688 C25.7753906,342.095703 26.0742188,343.644531 26.5585938,344.962891 C25.9589844,345.259766 25.3945312,345.617188 24.8710938,346.023438 C23.4394531,344.568359 22.5234375,342.605469 22.4160156,340.429688 Z M25.9492188,346.953125 L25.9765625,346.953125 C26.3417969,346.689453 26.7265625,346.455078 27.1328125,346.25 C27.578125,347.087891 28.109375,347.779297 28.7050781,348.283203 C27.6992188,348.005859 26.7695312,347.550781 25.9492188,346.953125 Z M30.3945312,347.697266 C29.625,347.453125 28.9316406,346.751953 28.3828125,345.738281 C29.0234375,345.533203 29.6972656,345.402344 30.3945312,345.353516 L30.3945312,347.697266 Z M30.3945312,343.943359 C29.5,343.996094 28.6386719,344.167969 27.8222656,344.441406 C27.4257812,343.291016 27.1796875,341.916016 27.1386719,340.429688 L30.3945312,340.429688 L30.3945312,343.943359 Z M30.3945312,339.023438 L27.1621094,339.023438 C27.2421875,337.746094 27.4746094,336.566406 27.8203125,335.558594 C28.6367188,335.832031 29.4980469,336.001953 30.3925781,336.056641 L30.3925781,339.023438 L30.3945312,339.023438 Z M30.3945312,334.646484 C29.6972656,334.597656 29.0234375,334.466797 28.3828125,334.261719 C28.9316406,333.246094 29.625,332.544922 30.3945312,332.302734 L30.3945312,334.646484 L30.3945312,334.646484 Z M39.5390625,339.023438 L36.2441406,339.023438 C36.15625,337.566406 35.8730469,336.210938 35.4414062,335.037109 C36.0410156,334.740234 36.6054688,334.382812 37.1289062,333.976562 C38.4394531,335.308594 39.3183594,337.066406 39.5390625,339.023438 L39.5390625,339.023438 Z M36.0507812,333.046875 L36.0234375,333.046875 C35.6582031,333.310547 35.2734375,333.544922 34.8671875,333.75 C34.421875,332.912109 33.890625,332.220703 33.2949219,331.716797 C34.3007812,331.994141 35.2304688,332.449219 36.0507812,333.046875 Z M31.8007812,332.375 C32.4921875,332.667969 33.1152344,333.333984 33.6171875,334.261719 C33.0371094,334.447266 32.4277344,334.572266 31.8007812,334.630859 L31.8007812,332.375 Z M31.8007812,336.042969 C32.625,335.978516 33.421875,335.8125 34.1777344,335.558594 C34.5253906,336.566406 34.7578125,337.746094 34.8359375,339.023438 L31.8007812,339.023438 L31.8007812,336.042969 Z M31.8007812,340.429688 L34.8613281,340.429688 C34.8203125,341.916016 34.5742188,343.291016 34.1777344,344.441406 C33.421875,344.1875 32.625,344.023438 31.8007812,343.957031 L31.8007812,340.429688 Z M31.8007812,347.625 L31.8007812,345.369141 C32.4277344,345.427734 33.0351562,345.552734 33.6171875,345.738281 C33.1152344,346.666016 32.4921875,347.332031 31.8007812,347.625 Z M33.296875,348.283203 C33.8925781,347.779297 34.4257812,347.087891 34.8691406,346.25 C35.2734375,346.455078 35.6601562,346.689453 36.0253906,346.953125 L36.0527344,346.953125 C35.2304688,347.550781 34.3007812,348.005859 33.296875,348.283203 Z M37.1289062,346.023438 C36.6054688,345.617188 36.0390625,345.261719 35.4414062,344.962891 C35.9277344,343.644531 36.2246094,342.09375 36.2675781,340.429688 L39.5839844,340.429688 C39.4765625,342.605469 38.5605469,344.568359 37.1289062,346.023438 Z" id="全集团项目管理"></path>
            </g>
        </g>
    </g>
</svg>