<?xml version="1.0" encoding="UTF-8"?>
<svg width="15px" height="15px" viewBox="0 0 15 15" version="1.1" xmlns="http://www.w3.org/2000/svg" xmlns:xlink="http://www.w3.org/1999/xlink">
    <!-- Generator: Sketch 60 (88103) - https://sketch.com -->
    <title>删除</title>
    <desc>Created with Sketch.</desc>
    <g id="全生命周期管理1" stroke="none" stroke-width="1" fill="none" fill-rule="evenodd">
        <g id="我的项目管理-我的项目08-项目1-主页-新增、编辑成果" transform="translate(-1039.000000, -534.000000)">
            <g id="编组-10" transform="translate(79.000000, 79.000000)">
                <g id="编组-27">
                    <g id="白底">
                        <g id="编组-26">
                            <g id="编组-29备份" transform="translate(0.000000, 0.000000)">
                                <g id="编组-2" transform="translate(130.000000, -195.000000)">
                                    <g id="编组-11" transform="translate(0.000000, 569.000000)">
                                        <g id="编组-13">
                                            <g id="选择器/穿梭框备份-2" transform="translate(620.000000, 69.000000)">
                                                <g id="Group-3">
                                                    <g id="Group" transform="translate(0.468723, 8.000000)">
                                                        <g id="Group-185" transform="translate(209.531277, 4.000000)">
                                                            <g id="删除">
                                                                <rect id="Rectangle-48-Copy-13" x="0" y="0" width="15" height="15"></rect>
                                                                <g id="delete" transform="translate(0.922852, 0.952148)" fill="#FF3657" fill-rule="nonzero">
                                                                    <path d="M1.74462074,12.9911875 C1.70911778,12.9614256 1.67298085,12.9227352 1.63747789,12.8840446 C1.67678472,12.9227352 1.70911778,12.9614256 1.74462074,12.9911875 Z M1.6030001,12.9110789 C1.56633344,12.8766133 1.53014296,12.8421478 1.49585725,12.803936 C1.52966675,12.8421478 1.56633344,12.8766133 1.6030001,12.9110789 Z M12.9988861,2.02789307 C12.8993225,1.92832947 12.7545547,1.87282562 12.6140785,1.87282562 L9.91327286,1.87282562 L9.91327286,1.03139877 C9.91327286,0.462341309 9.45093155,0 8.88187409,0 L4.2716217,0 C3.70256424,0 3.24022293,0.462341309 3.24022293,1.03139877 L3.24022293,1.87282562 L0.52568436,1.87282563 C0.237579346,1.87282563 0.00183105469,2.10685731 0.00183105469,2.39667894 C0.00183105469,2.68650056 0.235862739,2.92053224 0.52568436,2.92053224 L0.988025669,2.92053224 L0.988025669,12.0371819 C0.988025669,12.6062393 1.45036698,13.0685806 2.01942444,13.0685806 L11.2811279,13.0685806 C11.8501854,13.0685806 12.3125267,12.6062393 12.3125267,12.0371819 L12.3125267,2.92053223 L12.6137924,2.92053223 C12.9018974,2.92053223 13.1522381,2.68650054 13.1522381,2.39667892 C13.152523,2.25763321 13.0984497,2.12745667 12.9988861,2.02789307 Z M4.2699051,1.0345459 L8.87729646,1.0345459 L8.87729646,1.88169479 L4.2699051,1.88169479 L4.2699051,1.0345459 Z M11.2796974,12.0357513 L2.01942444,12.0357513 L2.01942444,2.92053223 L3.35380554,2.92053223 L11.2794113,2.92053223 L11.2794113,12.0357513 L11.2796974,12.0357513 Z M6.56988144,4.67605591 C6.27862929,4.67605591 6.04316711,4.9115181 6.04316711,5.20277023 L6.04316711,10.0896835 C6.04316711,10.3809357 6.27862931,10.6163978 6.56988144,10.6163978 C6.86113356,10.6163978 7.09659577,10.3809357 7.09659577,10.0896835 L7.09659577,5.20277023 C7.09659577,4.9118042 6.86113358,4.67605591 6.56988144,4.67605591 Z M3.71686935,4.67605591 C3.42561721,4.67605591 3.19015503,4.9115181 3.19015503,5.20277023 L3.19015503,10.0896835 C3.19015503,10.3809357 3.42561722,10.6163978 3.71686935,10.6163978 C4.00812148,10.6163978 4.24358369,10.3809357 4.24358369,10.0896835 L4.24358369,5.20277023 C4.24358369,4.9118042 4.0078354,4.67605591 3.71686935,4.67605591 Z M9.39371109,4.67605591 C9.10245895,4.67605591 8.86699677,4.9115181 8.86699677,5.20277023 L8.86699677,10.0896835 C8.86699677,10.3809357 9.10245896,10.6163978 9.39371109,10.6163978 C9.68496322,10.6163978 9.92042542,10.3809357 9.92042542,10.0896835 L9.92042542,5.20277023 C9.92042542,4.9118042 9.68496322,4.67605591 9.39371109,4.67605591 Z" id="Shape"></path>
                                                                </g>
                                                            </g>
                                                        </g>
                                                    </g>
                                                </g>
                                            </g>
                                        </g>
                                    </g>
                                </g>
                            </g>
                        </g>
                    </g>
                </g>
            </g>
        </g>
    </g>
</svg>