<?xml version="1.0" encoding="UTF-8"?>
<svg width="30px" height="30px" viewBox="0 0 30 30" version="1.1" xmlns="http://www.w3.org/2000/svg" xmlns:xlink="http://www.w3.org/1999/xlink">
    <!-- Generator: Sketch 60 (88103) - https://sketch.com -->
    <title>卡片未选中</title>
    <desc>Created with Sketch.</desc>
    <g id="全生命周期管理1" stroke="none" stroke-width="1" fill="none" fill-rule="evenodd">
        <g id="我的项目管理-我的项目06-项目1-主页编辑" transform="translate(-1245.000000, -2009.000000)">
            <g id="编组-11" transform="translate(209.000000, 1998.000000)">
                <g id="编组-13">
                    <g id="编组-5备份-4">
                        <g id="编组-28" transform="translate(1036.500000, 26.000000) rotate(-180.000000) translate(-1036.500000, -26.000000) translate(1007.000000, 11.000000)">
                            <g id="编组-11">
                                <g id="卡片未选中" transform="translate(15.000000, 15.000000) rotate(-180.000000) translate(-15.000000, -15.000000) ">
                                    <g id="*基本/形状/边/右" transform="translate(-0.000000, 0.000000)">
                                        <g id="Group-5">
                                            <path d="M0,0 L28,0 C29.1045695,-2.02906125e-16 30,0.8954305 30,2 L30,28 C30,29.1045695 29.1045695,30 28,30 L0,30 L0,30 L0,0 Z" id="阴影" fill-opacity="0" fill="#0B82FF"></path>
                                            <path d="M0,0 L28,0 C29.1045695,-2.02906125e-16 30,0.8954305 30,2 L30,28 C30,29.1045695 29.1045695,30 28,30 L0,30 L0,30 L0,0 Z" id="背景" fill-opacity="0" fill="#0B82FF"></path>
                                            <path d="M0,0 L28,0 C29.1045695,-2.02906125e-16 30,0.8954305 30,2 L30,28 C30,29.1045695 29.1045695,30 28,30 L0,30 L0,30 L0,0 Z" id="内边框" fill-opacity="0" fill="#0B82FF"></path>
                                            <path d="M0.5,0.5 L0.5,29.5 L28,29.5 C28.8284271,29.5 29.5,28.8284271 29.5,28 L29.5,2 C29.5,1.17157288 28.8284271,0.5 28,0.5 L0.5,0.5 Z" id="边框" stroke="#E5E5E5"></path>
                                        </g>
                                    </g>
                                    <path d="M10,16.5 C10.5522847,16.5 11,16.9477153 11,17.5 L11,19.5 C11,20.0522847 10.5522847,20.5 10,20.5 L8,20.5 C7.44771525,20.5 7,20.0522847 7,19.5 L7,17.5 C7,16.9477153 7.44771525,16.5 8,16.5 L10,16.5 Z M16,16.5 C16.5522847,16.5 17,16.9477153 17,17.5 L17,19.5 C17,20.0522847 16.5522847,20.5 16,20.5 L14,20.5 C13.4477153,20.5 13,20.0522847 13,19.5 L13,17.5 C13,16.9477153 13.4477153,16.5 14,16.5 L16,16.5 Z M22,16.5 C22.5522847,16.5 23,16.9477153 23,17.5 L23,19.5 C23,20.0522847 22.5522847,20.5 22,20.5 L20,20.5 C19.4477153,20.5 19,20.0522847 19,19.5 L19,17.5 C19,16.9477153 19.4477153,16.5 20,16.5 L22,16.5 Z M10,8.5 C10.5522847,8.5 11,8.94771525 11,9.5 L11,11.5 C11,12.0522847 10.5522847,12.5 10,12.5 L8,12.5 C7.44771525,12.5 7,12.0522847 7,11.5 L7,9.5 C7,8.94771525 7.44771525,8.5 8,8.5 L10,8.5 Z M16,8.5 C16.5522847,8.5 17,8.94771525 17,9.5 L17,11.5 C17,12.0522847 16.5522847,12.5 16,12.5 L14,12.5 C13.4477153,12.5 13,12.0522847 13,11.5 L13,9.5 C13,8.94771525 13.4477153,8.5 14,8.5 L16,8.5 Z M22,8.5 C22.5522847,8.5 23,8.94771525 23,9.5 L23,11.5 C23,12.0522847 22.5522847,12.5 22,12.5 L20,12.5 C19.4477153,12.5 19,12.0522847 19,11.5 L19,9.5 C19,8.94771525 19.4477153,8.5 20,8.5 L22,8.5 Z" id="形状结合" fill="#E5E5E5"></path>
                                </g>
                            </g>
                        </g>
                    </g>
                </g>
            </g>
        </g>
    </g>
</svg>