<?xml version="1.0" encoding="UTF-8"?>
<svg width="18px" height="21px" viewBox="0 0 18 21" version="1.1" xmlns="http://www.w3.org/2000/svg" xmlns:xlink="http://www.w3.org/1999/xlink">
    <!-- Generator: Sketch 60 (88103) - https://sketch.com -->
    <title>审批流程</title>
    <desc>Created with Sketch.</desc>
    <g id="全生命周期管理1" stroke="none" stroke-width="1" fill="none" fill-rule="evenodd">
        <g id="我的项目管理-我的项目02-创建项目" transform="translate(-100.000000, -179.000000)">
            <g id="编组-2" transform="translate(79.000000, 79.000000)">
                <g id="审批流程" transform="translate(21.000000, 100.000000)">
                    <rect id="矩形" stroke="#242830" stroke-width="2" x="3" y="1" width="12" height="8" rx="1"></rect>
                    <path d="M8.16941926,11.3405949 L8.16941926,9 L9.92607996,9 L9.92607996,11.3405949 L14.4,11.3405949 C14.7313708,11.3405949 15,11.7157229 15,12.1784667 L15,14 C14.6071953,13.8704991 14.2024025,13.8266904 13.8,13.8701299 L13.8,13.0163385 L4.2,13.0163385 L4.2,13.8701299 C3.79759787,13.8276652 3.39291189,13.8714624 3,14 L3,12.1784667 C3,11.7157229 3.26862915,11.3405949 3.6,11.3405949 L8.16941926,11.3405949 Z" id="路径" fill="#242830" fill-rule="nonzero"></path>
                    <path d="M3.53571429,14 C2.13527796,14 1,15.135278 1,16.5357143 C1,17.9361506 2.13527796,19.0714286 3.53571429,19.0714286 C4.93615062,19.0714286 6.07142857,17.9361506 6.07142857,16.5357143 C6.07142857,15.135278 4.93615062,14 3.53571429,14 Z M14.4642857,14 C13.0638494,14 11.9285714,15.135278 11.9285714,16.5357143 C11.9285714,17.9361506 13.0638494,19.0714286 14.4642857,19.0714286 C15.864722,19.0714286 17,17.9361506 17,16.5357143 C17,15.135278 15.864722,14 14.4642857,14 Z" id="形状结合" stroke="#242830" stroke-width="2" fill-rule="nonzero"></path>
                    <path d="M6.15207853,4.01321404 C6.01302105,3.87395987 5.81023542,3.81946999 5.62010903,3.87027021 C5.42998264,3.92107044 5.28140021,4.06944301 5.2303313,4.25949741 C5.1792624,4.44955181 5.2334656,4.65241425 5.37252309,4.79166841 L7.70898727,7.12703152 C7.92397052,7.34194986 8.27245839,7.34194986 8.48744164,7.12703152 L12.3797135,3.23475968 C12.5228283,3.09653477 12.5802247,2.89184453 12.5298424,2.69936181 C12.4794601,2.5068791 12.3291397,2.3565587 12.136657,2.30617639 C11.9441743,2.25579407 11.739484,2.3131905 11.6012591,2.45630531 L8.09766392,5.9599005 L6.15207853,4.01321404 L6.15207853,4.01321404 Z" id="路径" fill="#242830" fill-rule="nonzero"></path>
                </g>
            </g>
        </g>
    </g>
</svg>