<?xml version="1.0" encoding="UTF-8"?>
<svg width="14px" height="14px" viewBox="0 0 14 14" version="1.1" xmlns="http://www.w3.org/2000/svg" xmlns:xlink="http://www.w3.org/1999/xlink">
    <!-- Generator: Sketch 60 (88103) - https://sketch.com -->
    <title>提示</title>
    <desc>Created with Sketch.</desc>
    <g id="全生命周期管理1" stroke="none" stroke-width="1" fill="none" fill-rule="evenodd">
        <g id="我的项目管理-我的项目03-项目1-主页详情" transform="translate(-432.000000, -1917.000000)" fill="#0B82FF" fill-rule="nonzero">
            <g id="编组-25" transform="translate(209.000000, 1420.000000)">
                <g id="编组-24" transform="translate(30.000000, 69.000000)">
                    <g id="编组-18" transform="translate(161.000000, 425.000000)">
                        <g id="提示" transform="translate(32.000000, 3.000000)">
                            <path d="M7,0 C3.13359375,0 0,3.13359375 0,7 C0,10.8664062 3.13359375,14 7,14 C10.8664062,14 14,10.8664062 14,7 C14,3.13359375 10.8664062,0 7,0 Z M11.2533203,11.2533203 C10.7009766,11.8056641 10.0570313,12.2404297 9.340625,12.5425781 C8.59960938,12.8570313 7.81210938,13.015625 7,13.015625 C6.18789063,13.015625 5.40039062,12.8570313 4.659375,12.5439453 C3.94296875,12.2404297 3.30039062,11.8070312 2.74667969,11.2546875 C2.19433594,10.7023438 1.75957031,10.0583984 1.45742188,9.34199219 C1.14296875,8.59960938 0.984375,7.81210938 0.984375,7 C0.984375,6.18789063 1.14296875,5.40039062 1.45605469,4.659375 C1.75957031,3.94296875 2.19296875,3.30039062 2.7453125,2.74667969 C3.29765625,2.19433594 3.94160156,1.75957031 4.65800781,1.45742188 C5.40039062,1.14296875 6.18789063,0.984375 7,0.984375 C7.81210938,0.984375 8.59960938,1.14296875 9.340625,1.45605469 C10.0570313,1.75957031 10.6996094,2.19296875 11.2533203,2.7453125 C11.8056641,3.29765625 12.2404297,3.94160156 12.5425781,4.65800781 C12.8570313,5.40039062 13.015625,6.18789063 13.015625,7 C13.015625,7.81210938 12.8570313,8.59960938 12.5439453,9.340625 C12.2404297,10.0570313 11.8070312,10.7009766 11.2533203,11.2533203 Z M8.61601562,9.646875 L7.45117187,9.646875 L7.45117187,4.86035156 C7.45117187,4.58828125 7.23105469,4.36816406 6.95898437,4.36816406 L6.95898437,4.36816406 L6.46679687,4.36816406 L5.64648437,4.36816406 C5.37441406,4.36816406 5.15429687,4.58828125 5.15429687,4.86035156 L5.15429687,4.86035156 C5.15429687,5.13242187 5.37441406,5.35253906 5.64648437,5.35253906 L6.46679687,5.35253906 L6.46679687,9.646875 L5.30195312,9.646875 C5.02988281,9.646875 4.80976562,9.86699219 4.80976562,10.1390625 L4.80976562,10.1390625 C4.80976562,10.4111328 5.02988281,10.63125 5.30195312,10.63125 L6.46679687,10.63125 L7.45117187,10.63125 L8.61601562,10.63125 C8.88808594,10.63125 9.10820312,10.4111328 9.10820312,10.1390625 L9.10820312,10.1390625 C9.10820312,9.86699219 8.88808594,9.646875 8.61601562,9.646875 Z M6.46679688,3.01464844 C6.46679688,3.28647609 6.68715672,3.50683594 6.95898438,3.50683594 C7.23081203,3.50683594 7.45117188,3.28647609 7.45117188,3.01464844 C7.45117188,2.74282079 7.23081203,2.52246094 6.95898438,2.52246094 C6.68715672,2.52246094 6.46679688,2.74282079 6.46679688,3.01464844 L6.46679688,3.01464844 Z" id="Shape"></path>
                        </g>
                    </g>
                </g>
            </g>
        </g>
    </g>
</svg>