<?xml version="1.0" encoding="UTF-8"?>
<svg width="21px" height="21px" viewBox="0 0 21 21" version="1.1" xmlns="http://www.w3.org/2000/svg" xmlns:xlink="http://www.w3.org/1999/xlink">
    <!-- Generator: Sketch 60 (88103) - https://sketch.com -->
    <title>本单位项目管理</title>
    <desc>Created with Sketch.</desc>
    <g id="全生命周期管理1" stroke="none" stroke-width="1" fill="none" fill-rule="evenodd">
        <g id="我的项目管理-我的项目02-创建项目" transform="translate(-100.000000, -359.000000)" fill="#242830" fill-rule="nonzero" stroke="#333333" stroke-width="0.5">
            <g id="编组-2" transform="translate(79.000000, 79.000000)">
                <path d="M23.6532205,289.970805 L30.619146,293.617052 C31.1658447,293.903277 31.8164086,293.903277 32.3631072,293.617052 L39.2344193,289.970805 C39.6883664,289.732957 40.2355016,289.759489 40.6643053,290.040143 C40.8911108,290.188359 40.9558716,290.49385 40.8089916,290.722658 C40.7642377,290.792414 40.7025518,290.849703 40.6296836,290.889186 L32.3866653,295.404505 C31.8280833,295.70737 31.1542653,295.70737 30.5956834,295.404505 L22.2578607,290.889186 C22.0198961,290.760237 21.9304329,290.460945 22.0583329,290.220882 C22.097231,290.147699 22.1539876,290.085529 22.2233344,290.040143 C22.6521381,289.759489 23.1992733,289.732957 23.6532205,289.970805 L23.6532205,289.970805 Z M30.619146,297.965939 C31.1658447,298.252069 31.8164086,298.252069 32.3631072,297.965939 L39.2344193,294.319692 C39.6883493,294.081816 40.235484,294.108311 40.6643053,294.388935 C40.8911108,294.537055 40.9558716,294.842642 40.8089916,295.07145 C40.7642377,295.141205 40.7025518,295.198494 40.6296836,295.237978 L32.3866653,299.753297 C31.8280833,300.056161 31.1542653,300.056161 30.5956834,299.753297 L22.2578607,295.237978 C22.0198961,295.109028 21.9304329,294.809737 22.0583329,294.569674 C22.097231,294.496491 22.1539876,294.434321 22.2233344,294.388935 C22.6521381,294.108281 23.1992733,294.081749 23.6532205,294.319596 L30.619146,297.965844 L30.619146,297.965939 Z M22.1861375,285.830125 L31.133989,281.087619 C31.3541744,280.970828 31.6179374,280.970792 31.8381544,281.087523 L40.7962111,285.830125 C40.9756145,285.938473 41.033985,286.172908 40.926591,286.353838 C40.894634,286.407754 40.8498459,286.452935 40.7962111,286.485362 L31.8434001,291.31695 C31.6203636,291.43743 31.3516201,291.437359 31.1286479,291.316759 L22.1861375,286.485362 C22.0067342,286.377014 21.9483637,286.142579 22.0557577,285.961649 C22.0877147,285.907733 22.1325028,285.862552 22.1861375,285.830125 Z M24.7247766,286.327991 L31.4009481,289.91005 C31.4572956,289.9403 31.525053,289.9403 31.5814006,289.91005 L38.2575721,286.327991 C38.3198341,286.294594 38.3585373,286.229519 38.3581604,286.158867 C38.3577779,286.088215 38.3183774,286.023559 38.2557599,285.990834 L31.5795885,282.498811 C31.5242053,282.469841 31.4581434,282.469841 31.4027602,282.498811 L24.7265887,285.990834 C24.6639713,286.023559 24.6245708,286.088215 24.6241883,286.158867 C24.6238113,286.229519 24.6625146,286.294594 24.7247766,286.327991 Z" id="本单位项目管理"></path>
            </g>
        </g>
    </g>
</svg>