<?xml version="1.0" encoding="UTF-8"?>
<svg width="163px" height="22px" viewBox="0 0 163 22" version="1.1" xmlns="http://www.w3.org/2000/svg" xmlns:xlink="http://www.w3.org/1999/xlink">
    <!-- Generator: Sketch 60 (88103) - https://sketch.com -->
    <title>集中化研发管理系统组合logo</title>
    <desc>Created with Sketch.</desc>
    <g id="全生命周期管理1" stroke="none" stroke-width="1" fill="none" fill-rule="evenodd" opacity="0.7">
        <g id="我的项目管理-我的项目17-项目1-主页-关联成果展开查询条件" transform="translate(-1226.000000, -132.000000)" fill-rule="nonzero">
            <g id="编组-2" transform="translate(79.000000, 79.000000)">
                <g id="编组-33">
                    <g id="顶部悬浮按钮栏" transform="translate(0.000000, 38.000000)">
                        <g id="集中化研发管理系统组合logo" transform="translate(1147.000000, 15.000000)">
                            <path d="M34.4450109,12.2857143 L34.4450109,6.76373626 L34.0604516,6.76373626 L35.5826657,5.06593407 L32.8907502,5.06593407 L31,7.17582418 L32.2337946,7.17582418 L32.2337946,12.2857143 L34.4450109,12.2857143 Z M45.0684632,12.2857143 L45.0684632,11.1153846 L41.3350328,11.1153846 L41.3350328,10.5384615 L45.0684632,10.5384615 L45.0684632,9.36813187 L41.3350328,9.36813187 L41.3350328,8.79120879 L45.0684632,8.79120879 L45.0684632,7.62087912 L41.3350328,7.62087912 L41.3350328,7.04395604 L45.0684632,7.04395604 L45.0684632,5.85714286 L41.3190095,5.85714286 L41.0786599,5.06593407 L38.8674436,5.06593407 L39.0917698,5.85714286 L35.3583394,5.85714286 L35.3583394,7.04395604 L39.1077932,7.04395604 L39.1077932,7.62087912 L35.3583394,7.62087912 L35.3583394,8.79120879 L39.1077932,8.79120879 L39.1077932,9.36813187 L35.3583394,9.36813187 L35.3583394,10.5384615 L39.1077932,10.5384615 L39.1077932,11.1153846 L35.3583394,11.1153846 L35.3583394,12.2857143 L45.0684632,12.2857143 Z M33.772032,16.9340659 L35.9191551,14.6428571 L36.9286235,14.6428571 L36.9286235,16.9340659 L39.1558631,16.9340659 L39.1558631,14.6428571 L40.1493081,14.6428571 L42.2964312,16.9340659 L45.0684632,16.9340659 L42.8412236,14.6428571 L45.0684632,14.6428571 L45.0684632,13.2087912 L39.1558631,13.2087912 L39.1558631,12.7802198 L36.9286235,12.7802198 L36.9286235,13.2087912 L31,13.2087912 L31,14.6428571 L33.2432629,14.6428571 L31,16.9340659 L33.772032,16.9340659 Z M53.8492353,16.9010989 L53.8492353,14.9395604 L58.2396213,14.9395604 C58.6669094,14.9395604 59.0301044,14.7857143 59.3292061,14.478022 C59.6283078,14.1703297 59.7778587,13.7967033 59.7778587,13.3571429 L59.7778587,13.3571429 L59.7778587,6.07142857 L53.8492353,6.07142857 L53.8492353,5.08241758 L51.7021122,5.08241758 L51.7021122,6.07142857 L45.7574654,6.07142857 L45.7574654,14.9395604 L51.7021122,14.9395604 L51.7021122,16.9010989 L53.8492353,16.9010989 Z M51.7021122,13.4065934 L47.9045885,13.4065934 L47.9045885,7.6043956 L51.7021122,7.6043956 L51.7021122,13.4065934 Z M57.2782229,13.4065934 L53.8492353,13.4065934 L53.8492353,7.6043956 L57.6307356,7.6043956 L57.6307356,13.043956 C57.6307356,13.1428571 57.5960185,13.228022 57.5265841,13.2994505 C57.4571498,13.3708791 57.3743627,13.4065934 57.2782229,13.4065934 L57.2782229,13.4065934 Z M73.9905317,16.9175824 L74.5513474,15.3846154 L69.8404953,15.3846154 C69.7336732,15.3846154 69.645545,15.3489011 69.5761107,15.2774725 C69.5066764,15.206044 69.4719592,15.1208791 69.4719592,15.021978 L69.4719592,15.021978 L69.4719592,10.8681319 L73.9424618,9.43406593 L73.9424618,7.6043956 L69.4719592,9.03846154 L69.4719592,5.06593407 L67.3248361,5.06593407 L67.3248361,9.73076923 L64.7771304,10.5384615 L64.7771304,12.3681319 L67.3248361,11.543956 L67.3248361,15.3351648 C67.3248361,15.7747253 67.474387,16.1483516 67.7734887,16.456044 C68.0725904,16.7637363 68.4357854,16.9175824 68.8630736,16.9175824 L68.8630736,16.9175824 L73.9905317,16.9175824 Z M64.0080117,16.9175824 L64.0080117,8.11538462 L63.5433358,8.11538462 L64.8732702,5.06593407 L62.4697742,5.06593407 L60.4828842,9.66483516 L61.8128186,9.66483516 L61.8128186,16.9175824 L64.0080117,16.9175824 Z M84.1813547,16.8021978 L84.5178441,12.3021978 L86.3605244,12.3021978 L86.3605244,16.8021978 L88.4916242,16.8021978 L88.4916242,12.3021978 L89.2607429,12.3021978 L89.2607429,10.6703297 L88.4916242,10.6703297 L88.4916242,6.84615385 L89.2607429,6.84615385 L89.2607429,5.1978022 L81.8259286,5.1978022 L81.8259286,6.84615385 L82.8353969,6.84615385 L82.5469774,10.6703297 L81.8259286,10.6703297 L81.8259286,12.3021978 L82.4348143,12.3021978 L82.0983248,16.8021978 L84.1813547,16.8021978 Z M79.7268755,16.7362637 C79.9298373,16.7362637 80.1247876,16.6950549 80.3117261,16.6126374 C80.4986647,16.5302198 80.6588978,16.4203297 80.7924253,16.282967 C80.9259529,16.1456044 81.0327749,15.9835165 81.1128915,15.7967033 C81.193008,15.6098901 81.2330663,15.4065934 81.2330663,15.1868132 L81.2330663,15.1868132 L81.2330663,8.51098901 L77.820102,8.51098901 L78.2046613,6.73076923 L81.2490896,6.73076923 L81.2490896,5.23076923 L75.3845594,5.23076923 L75.3845594,6.73076923 L76.2498179,6.73076923 L75.2403496,11.4120879 L76.4260743,11.4120879 L76.4260743,16.7362637 L79.7268755,16.7362637 Z M86.3605244,10.6703297 L84.6300073,10.6703297 L84.9184268,6.84615385 L86.3605244,6.84615385 L86.3605244,10.6703297 Z M79.1179898,15.3021978 L78.2847779,15.3021978 L78.2847779,9.94505495 L79.3743627,9.94505495 L79.3743627,15.0384615 C79.3743627,15.2142857 79.2889051,15.3021978 79.1179898,15.3021978 L79.1179898,15.3021978 Z M94.2600146,17 C95.1039087,16.9120879 95.8997329,16.7747253 96.6474873,16.5879121 C97.3952416,16.4010989 98.0895849,16.1648352 98.7305171,15.8791209 C99.4355426,16.2637363 100.19665,16.5357143 101.013838,16.6950549 C101.831027,16.8543956 102.725662,16.9340659 103.697742,16.9340659 L103.697742,16.9340659 L103.697742,15.3516484 C103.099539,15.3186813 102.544064,15.2582418 102.031318,15.1703297 C101.518572,15.0824176 101.037873,14.9505495 100.589221,14.7747253 C101.785628,13.8626374 102.698956,12.6263736 103.329206,11.0659341 L103.329206,11.0659341 L103.281136,11.0494505 L103.329206,11.0494505 L103.329206,9.54945055 L95.1412964,9.54945055 L95.4617626,8.70879121 L103.809905,8.70879121 L102.704297,5.47802198 L100.589221,5.47802198 L101.150036,7.09340659 L96.0866715,7.09340659 L96.8878369,5 L94.7246905,5.08241758 L93.9555717,7.09340659 L92.8339403,7.09340659 L93.4748725,5.08241758 L91.4879825,5.08241758 L90.3182811,8.70879121 L93.3466861,8.70879121 L90.1900947,16.9835165 L92.3532411,16.8846154 L94.5644574,11.0659341 L101.11799,11.0494505 L101.101966,11.0659341 C100.802865,11.6593407 100.461034,12.1758242 100.076475,12.6153846 C99.6919155,13.0549451 99.2539451,13.4340659 98.7625637,13.7527473 C98.0789026,13.2142857 97.4539937,12.510989 96.8878369,11.6428571 L96.8878369,11.6428571 L94.6926438,11.6428571 C95.4190337,12.8626374 96.1881525,13.8571429 97,14.6263736 C96.5940762,14.7692308 96.1641175,14.8928571 95.7101238,14.9972527 C95.2561301,15.1016484 94.7727604,15.1923077 94.2600146,15.2692308 L94.2600146,15.2692308 L94.2600146,17 Z M106.918427,7.43956044 L107.27094,6.64835165 L108.040058,6.64835165 L108.472688,7.43956044 L110.331391,7.43956044 L109.914785,6.64835165 L111.404953,6.64835165 L111.404953,5.52747253 L107.783685,5.52747253 L107.991988,5.06593407 L105.796795,5.06593407 L104.70721,7.43956044 L106.918427,7.43956044 Z M114.048798,7.43956044 L114.401311,6.64835165 L115.17043,6.64835165 L115.603059,7.43956044 L117.477786,7.43956044 L117.045157,6.64835165 L118.535324,6.64835165 L118.535324,5.52747253 L114.914057,5.52747253 L115.138383,5.06593407 L112.927167,5.06593407 L111.837582,7.43956044 L114.048798,7.43956044 Z M116.404224,16.9340659 C116.57514,16.9340659 116.738043,16.9010989 116.892935,16.8351648 C117.047827,16.7692308 117.181355,16.6785714 117.293518,16.5631868 C117.405681,16.4478022 117.493809,16.3131868 117.557902,16.1593407 C117.621996,16.0054945 117.654042,15.8406593 117.654042,15.6648352 L117.654042,15.6648352 L117.654042,13.7362637 L108.120175,13.7362637 L108.120175,13.1593407 L116.404224,13.1593407 C116.746055,13.1593407 117.039815,13.032967 117.285506,12.7802198 C117.531197,12.5274725 117.654042,12.2252747 117.654042,11.8736264 L117.654042,11.8736264 L117.654042,10.2582418 L118.775674,10.2582418 L118.775674,9.96153846 C118.775674,9.71978022 118.730274,9.49175824 118.639476,9.27747253 C118.548677,9.06318681 118.428502,8.87637363 118.278951,8.71703297 C118.1294,8.55769231 117.950473,8.43131868 117.74217,8.33791209 C117.533867,8.24450549 117.312212,8.1978022 117.077203,8.1978022 L117.077203,8.1978022 L112.831027,8.1978022 L112.590677,7.75274725 L110.171158,7.75274725 L110.411508,8.1978022 L104.70721,8.1978022 L104.70721,10.2582418 L105.941005,10.2582418 L105.941005,16.9340659 L116.404224,16.9340659 Z M116.580481,9.94505495 L106.902403,9.94505495 L106.902403,9.3021978 L116.163875,9.3021978 C116.281379,9.3021978 116.380189,9.34340659 116.460306,9.42582418 C116.540422,9.50824176 116.580481,9.60989011 116.580481,9.73076923 L116.580481,9.73076923 L116.580481,9.94505495 Z M115.2185,11.9395604 L108.120175,11.9395604 L108.120175,11.1648352 L115.474873,11.1648352 L115.474873,11.6758242 C115.474873,11.8516484 115.389415,11.9395604 115.2185,11.9395604 L115.2185,11.9395604 Z M115.2185,15.7307692 L108.120175,15.7307692 L108.120175,14.9725275 L115.474873,14.9725275 L115.474873,15.467033 C115.474873,15.6428571 115.389415,15.7307692 115.2185,15.7307692 L115.2185,15.7307692 Z M133.485069,16.967033 L133.485069,15.6153846 L130.424618,15.6153846 L130.424618,14.0989011 L133.356883,14.0989011 L133.356883,12.7142857 L130.424618,12.7142857 L130.424618,11.6428571 L131.674436,11.6428571 C131.920126,11.6428571 132.149794,11.5961538 132.363438,11.5027473 C132.577082,11.4093407 132.76402,11.2802198 132.924253,11.1153846 C133.084487,10.9505495 133.210002,10.7582418 133.300801,10.5384615 C133.3916,10.3186813 133.436999,10.0824176 133.436999,9.82967033 L133.436999,9.82967033 L133.436999,5.01648352 L125.184996,5.01648352 L125.184996,11.6428571 L128.197378,11.6428571 L128.197378,12.7142857 L125.24909,12.7142857 L125.24909,14.0989011 L128.197378,14.0989011 L128.197378,15.6153846 L125.136926,15.6153846 L125.136926,16.967033 L133.485069,16.967033 Z M124.608157,16.9835165 L124.608157,15.3516484 L123.150036,15.3516484 L123.150036,11.3461538 L124.463948,11.3461538 L124.463948,9.71428571 L123.150036,9.71428571 L123.150036,6.68131868 L124.608157,6.68131868 L124.608157,5.04945055 L119.464676,5.04945055 L119.464676,6.68131868 L120.922797,6.68131868 L120.922797,9.71428571 L119.624909,9.71428571 L119.624909,11.3461538 L120.922797,11.3461538 L120.922797,15.3516484 L119.464676,15.3516484 L119.464676,16.9835165 L124.608157,16.9835165 Z M131.386016,7.62087912 L130.424618,7.62087912 L130.424618,6.36813187 L131.386016,6.36813187 L131.386016,7.62087912 Z M128.197378,7.62087912 L127.219956,7.62087912 L127.219956,6.36813187 L128.197378,6.36813187 L128.197378,7.62087912 Z M130.889294,10.2912088 L130.424618,10.2912088 L130.424618,8.97252747 L131.386016,8.97252747 L131.386016,9.76373626 C131.386016,9.91758242 131.337946,10.043956 131.241806,10.1428571 C131.145666,10.2417582 131.028162,10.2912088 130.889294,10.2912088 L130.889294,10.2912088 Z M128.197378,10.2912088 L127.219956,10.2912088 L127.219956,8.97252747 L128.197378,8.97252747 L128.197378,10.2912088 Z M141.176256,16.9505495 C141.411265,16.9505495 141.635591,16.9038462 141.849235,16.8104396 C142.062879,16.717033 142.249818,16.5879121 142.410051,16.4230769 C142.570284,16.2582418 142.698471,16.0659341 142.79461,15.8461538 C142.89075,15.6263736 142.93882,15.3901099 142.93882,15.1373626 L142.93882,15.1373626 L142.93882,13.1098901 L148.258558,13.1098901 L146.255645,10.1428571 L143.948288,10.1428571 L144.813547,11.4285714 L140.086672,11.4285714 L144.156591,8.70879121 L140.086672,8.70879121 L142.249818,7.25824176 L148.258558,6.91208791 L148.258558,5.04945055 L134.190095,5.84065934 L134.190095,7.7032967 L138.548434,7.45604396 L134.190095,10.3901099 L138.260015,10.3901099 L134.190095,13.1098901 L140.391114,13.1098901 L140.391114,14.7417582 C140.391114,14.8956044 140.343044,15.021978 140.246905,15.1208791 C140.150765,15.2197802 140.033261,15.2692308 139.894392,15.2692308 L139.894392,15.2692308 L138.836854,15.2692308 L137.955572,16.9505495 L141.176256,16.9505495 Z M136.321194,16.9340659 L137.522942,13.8021978 L135.423889,13.8021978 L134.238165,16.9340659 L136.321194,16.9340659 Z M148.258558,16.9340659 L147.072833,13.8021978 L144.97378,13.8021978 L146.159505,16.9340659 L148.258558,16.9340659 Z M156.238165,16.9505495 L157.23161,11.6098901 L158.721777,11.6098901 L158.721777,15.4505495 C158.721777,15.8681319 158.860646,16.2225275 159.138383,16.5137363 C159.41612,16.8049451 159.757951,16.9505495 160.163875,16.9505495 L160.163875,16.9505495 L162.118718,16.9505495 L162.823744,15.3186813 L161.25346,15.3186813 C161.103909,15.3186813 160.981063,15.2692308 160.884924,15.1703297 C160.788784,15.0714286 160.740714,14.9450549 160.740714,14.7912088 L160.740714,14.7912088 L160.740714,11.6098901 L160.997087,11.6098901 L161.077203,11.8406593 L162.95193,11.8406593 L161.942462,8.85714286 L160.083758,8.85714286 L160.468318,10.0274725 L156.510561,10.0274725 L157.375819,7.86813187 L163,7.86813187 L163,6.23626374 L160.019665,6.23626374 L159.506919,5.03296703 L156.975237,5.03296703 L157.504006,6.23626374 L154.010925,6.23626374 L154.010925,7.86813187 L155.036417,7.86813187 L153.482156,11.6098901 L155.116533,11.6098901 L154.123088,16.9505495 L156.238165,16.9505495 Z M153.546249,14.6593407 L153.546249,13.1593407 L151.751639,13.1593407 L153.546249,9.08791209 L151.943918,9.08791209 L153.786599,5.28021978 L151.302986,5.28021978 L148.931537,10.5714286 L150.822287,10.5714286 L148.931537,14.6593407 L153.546249,14.6593407 Z M153.546249,16.9505495 L153.546249,15.4505495 L148.931537,15.4505495 L148.931537,16.9505495 L153.546249,16.9505495 Z" id="集中化研发管理系统" fill="#242830"></path>
                            <g id="集中化研发管理系统logo" fill="#0085D0">
                                <path d="M5.13684211,3.70526316 C3.32631579,5.22105263 1.89473684,7.15789474 1.09473684,9.38947368 C0.294736842,11.6631579 0.210526316,13.8105263 0.8,15.7052632 L5.13684211,3.70526316 Z" id="路径"></path>
                                <path d="M14.3157895,16.3789474 C13.0947368,13.5578947 11.2,12.2526316 9.01052632,12.2526316 C7.87368421,12.2526316 6.69473684,12.2526316 6.61052632,12.2105263 C6.27368421,12.2105263 5.97894737,12.4631579 5.89473684,12.7578947 L3.62105263,19.7473684 C5.30526316,21.0105263 7.57894737,21.6842105 10.2736842,21.5578947 C12.5894737,21.4315789 14.7368421,20.7157895 16.6315789,19.6210526 C15.9157895,19.0736842 15.0736842,18.1052632 14.3157895,16.3789474 Z" id="路径"></path>
                                <path d="M13.3894737,0.631578947 C16.0842105,0.631578947 17.1368421,1.97894737 17.8947368,3.11578947 C18.8631579,4.54736842 19.0736842,6.98947368 18.1052632,8.71578947 C17.3894737,10.0210526 16.6315789,10.5263158 15.5789474,11.4526316 C14.9894737,11.9157895 16.2947368,13.1789474 17.8947368,14.3157895 C19.0736842,15.1578947 20.5894737,15.4526316 21.8947368,15.4947368 C22.9894737,13.3894737 23.5789474,11.3263158 23.7052632,9.05263158 C23.9578947,3.83157895 19.9578947,0.0842105263 14.6526316,0 C13.2631579,0 11.8736842,0.210526316 10.4842105,0.631578947 L13.3894737,0.631578947 Z" id="路径"></path>
                                <path d="M15.2421053,4.08421053 C15.1157895,3.41052632 14.6526316,2.94736842 13.8947368,2.69473684 C13.4736842,2.56842105 12.8842105,2.48421053 12.0842105,2.52631579 L9.05263158,2.52631579 C8.88421053,2.52631579 8.71578947,2.65263158 8.67368421,2.77894737 L6.82105263,9.38947368 C6.73684211,9.6 6.94736842,9.81052632 7.2,9.81052632 L10.3578947,9.72631579 C11.1578947,9.68421053 11.7473684,9.64210526 12.1263158,9.55789474 C12.5052632,9.47368421 12.8842105,9.34736842 13.2631579,9.13684211 C13.8105263,8.8 14.2736842,8.33684211 14.5684211,7.70526316 C14.9052632,7.11578947 15.1157895,6.48421053 15.2,5.85263158 C15.3263158,5.22105263 15.3263158,4.63157895 15.2421053,4.08421053 Z M12.8421053,5.81052632 C12.7578947,6.10526316 12.6315789,6.35789474 12.4631579,6.65263158 C12.2947368,6.90526316 12.1263158,7.11578947 11.9578947,7.24210526 C11.6631579,7.45263158 11.2421053,7.57894737 10.6105263,7.62105263 L9.64210526,7.66315789 C9.47368421,7.66315789 9.30526316,7.53684211 9.34736842,7.36842105 L10.1894737,4.29473684 C10.2315789,4.16842105 10.3578947,4.08421053 10.4842105,4.08421053 L11.6210526,4.08421053 C12.1684211,4.08421053 12.5052632,4.16842105 12.7157895,4.33684211 C12.8421053,4.46315789 12.9263158,4.67368421 12.9263158,4.92631579 C12.9684211,5.17894737 12.9263158,5.47368421 12.8421053,5.81052632 Z" id="形状"></path>
                            </g>
                        </g>
                    </g>
                </g>
            </g>
        </g>
    </g>
</svg>