<?xml version="1.0" encoding="UTF-8"?>
<svg width="40px" height="40px" viewBox="0 0 40 40" version="1.1" xmlns="http://www.w3.org/2000/svg" xmlns:xlink="http://www.w3.org/1999/xlink">
    <!-- Generator: Sketch 60 (88103) - https://sketch.com -->
    <title>添加功能</title>
    <desc>Created with Sketch.</desc>
    <g id="首页+我的工作台" stroke="none" stroke-width="1" fill="none" fill-rule="evenodd">
        <g id="首页01" transform="translate(-1386.000000, -474.000000)">
            <g id="编组-18" transform="translate(309.000000, 303.000000)">
                <g id="编组-12" transform="translate(597.000000, 0.000000)">
                    <g id="添加功能" transform="translate(478.000000, 169.000000)">
                        <g id="添加">
                            <rect id="矩形" fill="#000000" opacity="0" x="0" y="0" width="44" height="44"></rect>
                            <path d="M38.0679984,41.1394919 L5.82114178,41.1394919 C4.12736616,41.1394919 2.75,39.7621258 2.75,38.0683502 L2.75,5.82114178 C2.75,4.1277619 4.12736616,2.75 5.82114178,2.75 L38.0679984,2.75 C39.761774,2.75 41.1391402,4.1277179 41.1391402,5.82114178 L41.1391402,38.0683502 C41.1391402,39.7621258 39.7617301,41.1394919 38.0679984,41.1394919 Z M5.82114178,6.62114178 L5.82114178,37.2683502 C5.82114178,37.710178 6.17931398,38.0683502 6.62114178,38.0683502 L37.2702409,38.0683502 C37.7120687,38.0684058 38.0702409,37.7102336 38.0702409,37.2684058 C38.0702409,37.2683872 38.0702409,37.2683687 38.0701853,37.2683502 L38.0680541,6.62114178 C38.0679677,6.17933571 37.7098045,5.82119741 37.2679984,5.82114178 L6.62114178,5.82114178 C6.17931398,5.82114178 5.82114178,6.17931398 5.82114178,6.62114178 Z" id="形状" fill="#E5E5E5" fill-rule="nonzero"></path>
                            <rect id="矩形" fill="#00B6FF" fill-rule="nonzero" x="13.75" y="20.625" width="16.5" height="2.75" rx="1.375"></rect>
                            <path d="M14.75,20.625 L29.25,20.625 C29.8022847,20.625 30.25,21.0727153 30.25,21.625 L30.25,22.375 C30.25,22.9272847 29.8022847,23.375 29.25,23.375 L14.75,23.375 C14.1977153,23.375 13.75,22.9272847 13.75,22.375 L13.75,21.625 C13.75,21.0727153 14.1977153,20.625 14.75,20.625 Z" id="矩形-copy-11" fill="#0B82FF" fill-rule="nonzero" transform="translate(22.000000, 22.000000) rotate(-90.000000) translate(-22.000000, -22.000000) "></path>
                        </g>
                    </g>
                </g>
            </g>
        </g>
    </g>
</svg>