<?xml version="1.0" encoding="UTF-8"?>
<svg width="32px" height="32px" viewBox="0 0 32 32" version="1.1" xmlns="http://www.w3.org/2000/svg" xmlns:xlink="http://www.w3.org/1999/xlink">
    <!-- Generator: Sketch 60 (88103) - https://sketch.com -->
    <title>工时填报</title>
    <desc>Created with Sketch.</desc>
    <defs>
        <linearGradient x1="85.9090156%" y1="115.138982%" x2="85.9090156%" y2="0%" id="linearGradient-1">
            <stop stop-color="#FF9D73" offset="0%"></stop>
            <stop stop-color="#FE6B60" offset="100%"></stop>
        </linearGradient>
    </defs>
    <g id="首页+我的工作台" stroke="none" stroke-width="1" fill="none" fill-rule="evenodd">
        <g id="首页01" transform="translate(-1181.000000, -371.000000)">
            <g id="编组-18" transform="translate(309.000000, 303.000000)">
                <g id="编组-12" transform="translate(597.000000, 0.000000)">
                    <g id="工时填报" transform="translate(269.000000, 62.000000)">
                        <rect id="矩形" fill="#000000" opacity="0" x="0" y="0" width="44" height="44"></rect>
                        <g id="编组-4" transform="translate(6.875000, 6.875000)" fill="url(#linearGradient-1)">
                            <path d="M27.5,16.5 C29.0167969,16.5 30.25,17.7332031 30.25,19.25 L30.25,27.5 C30.25,29.0167969 29.0167969,30.25 27.5,30.25 L19.25,30.25 C17.7332031,30.25 16.5,29.0167969 16.5,27.5 L16.5,19.25 C16.5,17.7332031 17.7332031,16.5 19.25,16.5 L27.5,16.5 Z M11,16.5 C12.5167969,16.5 13.75,17.7332031 13.75,19.25 L13.75,27.5 C13.75,29.0167969 12.5167969,30.25 11,30.25 L2.75,30.25 C1.23320312,30.25 0,29.0167969 0,27.5 L0,19.25 C0,17.7332031 1.23320312,16.5 2.75,16.5 L11,16.5 Z M27.5,19.25 L19.25,19.25 L19.25,27.5 L27.5,27.5 L27.5,19.25 Z M11,0 C12.5167969,0 13.75,1.23320312 13.75,2.75 L13.75,11 C13.75,12.5167969 12.5167969,13.75 11,13.75 L2.75,13.75 C1.23320312,13.75 0,12.5167969 0,11 L0,2.75 C0,1.23320312 1.23320312,0 2.75,0 L11,0 Z M27.5,0 C29.0167969,0 30.25,1.23320312 30.25,2.75 L30.25,11 C30.25,12.5167969 29.0167969,13.75 27.5,13.75 L19.25,13.75 C17.7332031,13.75 16.5,12.5167969 16.5,11 L16.5,2.75 C16.5,1.23320312 17.7332031,0 19.25,0 L27.5,0 Z" id="路径-2"></path>
                        </g>
                    </g>
                </g>
            </g>
        </g>
    </g>
</svg>