<?xml version="1.0" encoding="UTF-8"?>
<svg width="38px" height="36px" viewBox="0 0 38 36" version="1.1" xmlns="http://www.w3.org/2000/svg" xmlns:xlink="http://www.w3.org/1999/xlink">
    <!-- Generator: Sketch 60 (88103) - https://sketch.com -->
    <title>计划下达</title>
    <desc>Created with Sketch.</desc>
    <defs>
        <linearGradient x1="85.9090156%" y1="108.040669%" x2="83.8883604%" y2="-16.4602673%" id="linearGradient-1">
            <stop stop-color="#B17DF6" offset="0%"></stop>
            <stop stop-color="#956FF9" offset="100%"></stop>
        </linearGradient>
    </defs>
    <g id="首页+我的工作台" stroke="none" stroke-width="1" fill="none" fill-rule="evenodd">
        <g id="首页11-常用功能-添加功能" transform="translate(-681.000000, -671.000000)">
            <g id="编组-23" transform="translate(496.000000, 202.000000)">
                <g id="常用功能备份" transform="translate(50.000000, 359.000000)">
                    <g id="常用功能">
                        <g id="计划下达" transform="translate(132.000000, 106.000000)">
                            <rect id="矩形" fill="#000000" opacity="0" x="0" y="0" width="44" height="44"></rect>
                            <path d="M31.328125,4 C33.6052198,4.0026047 34.4505203,4.84790518 34.453125,7.125 L34.4539897,21.9051396 C37.8180729,23.1736019 40.2109375,26.4225936 40.2109375,30.2304687 C40.2053964,35.1404857 36.2264232,39.1194589 31.3164063,39.125 C29.4572682,39.125 27.7313532,38.5546046 26.3041155,37.5792683 L6.125,37.578125 C3.84790518,37.5755203 3.0026047,36.7302198 3,34.453125 L3,7.125 C3.00255744,4.84788557 3.84788557,4.00255744 6.125,4 L31.328125,4 Z M31.3164063,24.4296875 C28.1127232,24.4296875 25.515625,27.0267857 25.515625,30.2304687 C25.515625,33.4341518 28.1127232,36.03125 31.3164063,36.03125 C34.5200893,36.03125 37.1171875,33.4341518 37.1171875,30.2304687 C37.1135881,27.0282778 34.5185972,24.4332869 31.3164063,24.4296875 Z M32.8632812,27.0078125 L32.8632812,29.328125 L34.5820312,29.328125 L34.5820312,32.421875 L29.7695313,32.421875 L29.7695313,27.0078125 L32.8632812,27.0078125 Z M16.3313125,22.1322969 L12.1185703,26.8860156 L9.93515625,24.6477734 L7.7265625,26.80025 L12.2271094,31.4140625 L18.640625,24.1766641 L16.3313125,22.1322969 Z M16.3313125,11.3041719 L12.1185703,16.0578906 L9.93515625,13.8196484 L7.7265625,15.972125 L12.2271094,20.5859375 L18.640625,13.3485391 L16.3313125,11.3041719 Z M28.265625,15.34375 L19.4140625,15.34375 L19.4140625,18.4375 L28.265625,18.4375 L28.265625,15.34375 Z" id="合并形状" fill="url(#linearGradient-1)" fill-rule="nonzero"></path>
                        </g>
                    </g>
                </g>
            </g>
        </g>
    </g>
</svg>