<?xml version="1.0" encoding="UTF-8"?>
<svg width="36px" height="38px" viewBox="0 0 36 38" version="1.1" xmlns="http://www.w3.org/2000/svg" xmlns:xlink="http://www.w3.org/1999/xlink">
    <!-- Generator: Sketch 60 (88103) - https://sketch.com -->
    <title>计划申请</title>
    <desc>Created with Sketch.</desc>
    <defs>
        <linearGradient x1="83.1993984%" y1="115.138982%" x2="81.3312176%" y2="-24.5882884%" id="linearGradient-1">
            <stop stop-color="#00B6FF" offset="0%"></stop>
            <stop stop-color="#0B82FF" offset="100%"></stop>
        </linearGradient>
    </defs>
    <g id="首页+我的工作台" stroke="none" stroke-width="1" fill="none" fill-rule="evenodd">
        <g id="首页01" transform="translate(-972.000000, -368.000000)">
            <g id="编组-18" transform="translate(309.000000, 303.000000)">
                <g id="编组-12" transform="translate(597.000000, 0.000000)">
                    <g id="计划申请" transform="translate(62.000000, 62.000000)">
                        <rect id="矩形" fill="#000000" opacity="0" x="0" y="0" width="44" height="44"></rect>
                        <g id="编组-2" transform="translate(4.515241, 3.763081)" fill="url(#linearGradient-1)" fill-rule="nonzero">
                            <path d="M25.1780333,-1.81188398e-13 C25.9505016,-1.81188398e-13 26.576799,0.626297447 26.576799,1.39876575 L26.576799,2.79753146 L32.1719453,2.79753146 C33.7148407,2.79753146 34.9695184,4.05254245 34.9695184,5.5951046 L34.9695184,33.5710443 C34.9695184,35.1139397 33.7148407,36.3685758 32.1719453,36.3685758 L2.79757314,36.3685758 C1.25467776,36.3685758 1.62003744e-12,35.113898 1.62003744e-12,33.5710026 L1.62003744e-12,5.5951046 C1.62003744e-12,4.05254245 1.25467776,2.79753146 2.79757314,2.79753146 L8.39267774,2.79753146 L8.39267774,1.39876575 C8.39267774,0.626297488 9.01897523,-1.81188398e-13 9.79144349,-1.81188398e-13 C10.5639117,-1.81188398e-13 11.1902092,0.626297488 11.1902092,1.39876575 L11.1902092,2.79753146 L23.7792675,2.79753146 L23.7792675,1.39876575 C23.7792675,0.626297488 24.405565,-1.81188398e-13 25.1780333,-1.81188398e-13 Z M17.8346693,18.1842462 L15.7364999,18.1842462 L15.7364999,30.0738592 L19.2334351,30.0738592 L19.2334351,19.583012 C19.2334351,18.810502 18.6071792,18.1842462 17.8346693,18.1842462 L17.8346693,18.1842462 Z M8.39267774,5.5951046 L3.59757314,5.5951046 C3.15574534,5.5951046 2.79757314,5.9532768 2.79757314,6.3951046 L2.79757314,12.0825634 L32.1723854,12.0825634 L32.1719453,6.3951046 C32.1719131,5.9532996 31.8137503,5.5951046 31.3719453,5.5951046 L26.576799,5.5951046 L26.576799,6.99387035 C26.576799,7.76633861 25.9505015,8.3926361 25.1780333,8.3926361 C24.405565,8.3926361 23.7792675,7.76633861 23.7792675,6.99387035 L23.7792675,5.5951046 L11.1902092,5.5951046 L11.1902092,6.99387035 C11.1902509,7.76633861 10.5639534,8.3926361 9.79144349,8.3926361 C9.01897523,8.3926361 8.39267774,7.76633861 8.39267774,6.99387035 L8.39267774,5.5951046 Z" id="合并形状"></path>
                        </g>
                    </g>
                </g>
            </g>
        </g>
    </g>
</svg>