<?xml version="1.0" encoding="UTF-8"?>
<svg width="38px" height="38px" viewBox="0 0 38 38" version="1.1" xmlns="http://www.w3.org/2000/svg" xmlns:xlink="http://www.w3.org/1999/xlink">
    <!-- Generator: Sketch 60 (88103) - https://sketch.com -->
    <title>10</title>
    <desc>Created with Sketch.</desc>
    <defs>
        <linearGradient x1="86.2689078%" y1="100%" x2="91.7472303%" y2="-51.7825579%" id="linearGradient-1">
            <stop stop-color="#00B6FF" offset="0%"></stop>
            <stop stop-color="#0B82FF" offset="100%"></stop>
        </linearGradient>
    </defs>
    <g id="首页+我的工作台" stroke="none" stroke-width="1" fill="none" fill-rule="evenodd">
        <g id="首页12-常用功能-更多" transform="translate(-457.000000, -755.000000)">
            <g id="10" transform="translate(453.000000, 752.000000)">
                <rect id="矩形" fill="#000000" opacity="0" x="0" y="0" width="44" height="44"></rect>
                <path d="M41.35,21.6609894 C41.35,11.3548137 32.9890216,3 22.6751868,3 C12.3611652,3 4,11.3548137 4,21.6609894 C4,31.1813747 11.1343578,39.0359905 20.3520016,40.1789209 C20.8716275,40.288428 21.504534,40.3522417 22.2583428,40.3522417 C22.4699592,40.3522417 22.6740286,40.3411079 22.8711113,40.3209326 C33.0946804,40.2158716 41.35,31.9021558 41.35,21.6609894 Z M38.6796877,21.9250242 C38.6259616,20.9939344 38.502967,20.0825341 38.315673,19.1968013 C38.3322989,18.8805349 38.3368197,18.5808944 38.3283386,18.3023259 C38.5599436,19.3853282 38.6820798,20.5089053 38.6820798,21.6609894 C38.6821162,21.7492003 38.6811074,21.8371496 38.6796877,21.9250242 Z M6.6679212,21.6609894 C6.6679212,20.5299026 6.78568516,19.4263513 7.00914522,18.3616188 C7.70041057,19.1009313 9.3297151,19.0834834 9.72705628,17.9788486 C10.4380112,18.4025672 11.3934235,18.479719 11.3934235,19.326633 C11.3934235,22.1217333 11.492955,25.118325 14.0325763,25.1646161 C14.1040865,25.1655501 15.448882,25.6742665 16.0888871,27.3340954 C16.3101802,27.9077836 17.1854891,27.3340954 18.1453848,27.3340954 C18.6245854,27.3340954 18.1453848,28.1414061 18.1453848,29.8871669 C18.1453848,31.6261652 21.8945897,34.3038004 21.8945897,34.3038004 C21.8772165,35.4549131 21.924479,36.385704 22.0202743,37.1293131 C21.1739954,37.1137333 20.4607987,37.225893 19.9004859,37.4166242 C12.3824987,36.1037356 6.6679212,29.5495296 6.6679212,21.6609894 Z M26.6158702,37.1676835 C26.53289,36.7614129 26.1698467,36.5389242 25.5074619,36.7130295 C26.0359799,34.4623259 26.292916,33.2015568 27.3962431,32.2442765 C28.9925947,30.8604754 27.5863392,29.3216235 26.3715623,29.502977 C25.4140952,29.6475293 26.0191672,28.3174916 25.164594,28.2439265 C24.3100208,28.1724163 23.1939908,26.4726104 21.9640824,25.8877136 C21.3121215,25.5780976 20.6714064,24.7483699 19.6659295,24.711195 C18.7747419,24.6766355 17.4723519,25.4647423 17.4723519,24.8572417 C17.4723519,22.9004623 17.2742231,21.5041451 17.2334989,20.9465224 C17.2006206,20.4985188 16.9406582,20.7956187 18.1453848,20.824574 C18.8010445,20.8421339 18.4807804,19.5076129 19.1297524,19.4554934 C19.7671422,19.4050552 21.2859683,20.0521591 21.672923,19.7942516 C22.0324169,19.5540908 24.3154383,25.7870613 24.3154383,20.8245366 C24.3154383,20.2357169 24.0104925,19.2119701 24.3154383,18.65431 C25.5214726,16.4506447 26.6505419,14.6546699 26.5491423,14.3919427 C26.4916054,14.2440279 25.3152736,14.1218927 24.3740587,14.4377108 C24.0564099,14.5437805 24.4750846,15.0412883 24.0188614,15.1475449 C22.3095283,15.5421587 20.7992954,14.6866514 21.3281497,13.8825165 C21.8697069,13.0583931 23.8319038,13.5230226 24.0039168,11.869732 C24.1028879,10.9227261 24.1848967,9.82593725 24.239781,9.01078065 C26.5402876,9.37053604 26.2870503,6.02517331 22.8664038,5.66709917 C29.7866046,5.74806187 35.6507408,10.2172259 37.8026228,16.419784 C37.6937882,16.3205141 37.5671696,16.260175 37.4209361,16.2454545 C36.3867281,13.6621575 33.8764357,15.5316974 34.7279826,17.8102354 C30.1653024,21.3175983 31.3332277,23.7638154 32.8322895,25.164616 C33.6211062,25.9009769 34.373159,27.0084138 34.8628208,27.8037688 C34.3298568,29.3578269 36.8265495,28.7355311 38.0578777,26.0982465 C36.4916396,31.530071 32.1223806,35.7746915 26.6158702,37.1676835 Z" id="形状" fill="url(#linearGradient-1)" fill-rule="nonzero"></path>
            </g>
        </g>
    </g>
</svg>