<?xml version="1.0" encoding="UTF-8"?>
<svg width="37px" height="34px" viewBox="0 0 37 34" version="1.1" xmlns="http://www.w3.org/2000/svg" xmlns:xlink="http://www.w3.org/1999/xlink">
    <!-- Generator: Sketch 60 (88103) - https://sketch.com -->
    <title>6</title>
    <desc>Created with Sketch.</desc>
    <defs>
        <linearGradient x1="85.9090156%" y1="115.138982%" x2="85.9090156%" y2="0%" id="linearGradient-1">
            <stop stop-color="#FF9D73" offset="0%"></stop>
            <stop stop-color="#FE6B60" offset="100%"></stop>
        </linearGradient>
        <linearGradient x1="86.2732615%" y1="92.0867859%" x2="91.7522416%" y2="-35.6740144%" id="linearGradient-2">
            <stop stop-color="#00B6FF" offset="0%"></stop>
            <stop stop-color="#0B82FF" offset="100%"></stop>
        </linearGradient>
    </defs>
    <g id="首页+我的工作台" stroke="none" stroke-width="1" fill="none" fill-rule="evenodd">
        <g id="首页12-常用功能-更多" transform="translate(-903.000000, -402.000000)">
            <g id="6" transform="translate(898.000000, 396.000000)">
                <rect id="矩形" fill="url(#linearGradient-1)" opacity="0" x="0" y="0" width="44" height="44"></rect>
                <g id="分组" transform="translate(5.000000, 6.000000)" fill="url(#linearGradient-2)">
                    <path d="M14.945,11.125 L14.9454175,12.9180508 C14.8129242,12.9694615 14.6833978,13.0312845 14.5580443,13.1035199 C13.6893513,13.6055998 13.1541151,14.5330267 13.1541151,15.5362392 C13.1541151,17.087003 14.4112096,18.3450448 15.9629208,18.3450448 C17.5136846,18.3450448 18.7707791,17.087003 18.7707791,15.5362392 C18.7707791,14.5330267 18.2355429,13.6055998 17.3668499,13.1035199 C17.2419459,13.0314651 17.1128704,12.9697707 16.9808202,12.9184365 L16.98,11.125 L31.7002202,11.1252302 L31.7008479,19.4968059 C30.6917066,19.1741666 29.6161927,19 28.5,19 C22.7010101,19 18,23.7010101 18,29.5 C18,30.752449 18.2192838,31.9536816 18.6215528,33.0673989 L15.8261264,33.0897971 L15.4318586,33.0921289 L2.77676506,33.0929062 L2.77676506,33.1091146 C1.03876073,33.1091146 4.90274488e-13,32.0677243 4.90274488e-13,30.3253202 L0,11.125 L14.945,11.125 Z M28.5438701,22 C33.9320721,22 36.0877403,27.388202 36.0877403,27.388202 C36.0877403,27.388202 33.9320721,32.776404 28.5438701,32.776404 C23.1556682,32.776404 21,27.388202 21,27.388202 C21,27.388202 23.1556682,22 28.5438701,22 Z M28.5438701,24.1546998 C26.7591009,24.1546998 25.3113363,25.6024643 25.3113363,27.388202 C25.3113363,29.1739397 26.7591009,30.6207358 28.5438701,30.6207358 C30.3296078,30.6207358 31.7773724,29.1739397 31.7773724,27.388202 C31.7773724,25.6024643 30.3296078,24.1546998 28.5438701,24.1546998 Z M28.5438701,25.7717404 C29.436739,25.770773 30.1601371,26.4951395 30.1601371,27.3880083 C30.1601371,28.2799087 29.436739,29.0042752 28.5438701,29.0042752 C27.6519697,29.0042752 26.9285716,28.2799087 26.9285716,27.3880083 C26.9285716,27.1710857 26.9731182,26.965784 27.051559,26.7769451 C27.1871356,26.9076797 27.370164,26.9899941 27.5744974,26.9899941 C27.9909112,26.9899941 28.3288844,26.652021 28.3288844,26.2346387 C28.3288844,26.0874412 28.2756221,25.9567066 28.2020234,25.8404981 C28.3153267,25.8153196 28.4228196,25.7717404 28.5438701,25.7717404 Z M28.9236256,-5.68434189e-14 C30.6616299,-5.68434189e-14 31.7003906,1.04139031 31.7003906,2.78379433 L31.7002202,9.09038553 L16.98,9.09 L16.9808202,7.96324033 C17.1128704,7.9119062 17.2419459,7.85021176 17.3668499,7.77815702 C18.2355429,7.27607709 18.7707791,6.34865021 18.7707791,5.34543768 C18.7707791,3.79467383 17.5136846,2.53663205 15.9629208,2.53663205 C14.4112096,2.53663205 13.1541151,3.79467383 13.1541151,5.34543768 C13.1541151,6.34865021 13.6893513,7.27607709 14.5580443,7.77815702 C14.6833978,7.85039235 14.8129242,7.91221538 14.9454175,7.96362611 L14.945,9.09 L0,9.09 L4.90274488e-13,2.78379433 C4.90274488e-13,1.04139031 1.03876073,-5.68434189e-14 2.77676506,-5.68434189e-14 L28.9236256,-5.68434189e-14 Z" id="合并形状"></path>
                </g>
            </g>
        </g>
    </g>
</svg>