<?xml version="1.0" encoding="UTF-8"?>
<svg width="34px" height="34px" viewBox="0 0 34 34" version="1.1" xmlns="http://www.w3.org/2000/svg" xmlns:xlink="http://www.w3.org/1999/xlink">
    <!-- Generator: Sketch 60 (88103) - https://sketch.com -->
    <title>3</title>
    <desc>Created with Sketch.</desc>
    <defs>
        <linearGradient x1="85.9090156%" y1="115.138982%" x2="83.8883604%" y2="-24.5882884%" id="linearGradient-1">
            <stop stop-color="#00B6FF" offset="0%"></stop>
            <stop stop-color="#0B82FF" offset="100%"></stop>
        </linearGradient>
        <linearGradient x1="89.4816796%" y1="116.336086%" x2="0%" y2="-26.2851943%" id="linearGradient-2">
            <stop stop-color="#FFDB4F" offset="0%"></stop>
            <stop stop-color="#FFB800" offset="100%"></stop>
        </linearGradient>
    </defs>
    <g id="首页+我的工作台" stroke="none" stroke-width="1" fill="none" fill-rule="evenodd">
        <g id="首页12-常用功能-更多" transform="translate(-574.000000, -402.000000)">
            <g id="3" transform="translate(568.000000, 396.000000)">
                <rect id="矩形" fill="url(#linearGradient-1)" opacity="0" x="0" y="0" width="44" height="44"></rect>
                <path d="M21.1292707,17.125 L21.1296883,18.9180508 C20.9971949,18.9694615 20.8676686,19.0312845 20.742315,19.1035199 C19.873622,19.6055998 19.3383859,20.5330267 19.3383859,21.5362392 C19.3383859,23.087003 20.5954803,24.3450448 22.1471915,24.3450448 C23.6979553,24.3450448 24.9550498,23.087003 24.9550498,21.5362392 C24.9550498,20.5330267 24.4198136,19.6055998 23.5511206,19.1035199 C23.4262167,19.0314651 23.2971412,18.9697707 23.1650909,18.9184365 L23.1642707,17.125 L37.884491,17.1252302 L37.8851186,25.4968059 C36.8759773,25.1741666 35.8004634,25 34.6842707,25 C28.8852808,25 24.1842707,29.7010101 24.1842707,35.5 C24.1842707,36.752449 24.4035545,37.9536816 24.8058235,39.0673989 L22.0103971,39.0897971 L21.6161294,39.0921289 L8.96103578,39.0929062 L8.96103578,39.1091146 C7.22303145,39.1091146 6.18427072,38.0677243 6.18427072,36.3253202 L6.18427072,17.125 L21.1292707,17.125 Z M38.9195451,34.804317 C39.5030946,34.804317 39.9767549,35.27703 39.9729882,35.8615268 C39.9729882,36.4422343 39.5030946,36.911158 38.9223871,36.911158 L32.1679673,36.911158 L32.4606893,37.2038801 C32.8699319,37.6131226 32.8699319,38.2828783 32.4606893,38.6921208 C32.2570154,38.8986367 31.9879764,39 31.71799,39 C31.4480036,39 31.1780172,38.8948474 30.9752906,38.6921208 L28.887396,36.6042262 C28.4772062,36.1940363 28.4772062,35.5242807 28.887396,35.1150382 C29.0834914,34.9151535 29.3411626,34.8137902 29.6007284,34.807159 L29.635424,34.8046722 L29.635424,34.8046722 L38.9195451,34.804317 Z M37.589507,28.8731426 L39.6783489,30.9610373 C39.6906641,30.9733524 39.7001373,30.9866149 39.7124525,30.9989301 C39.7162418,31.0055613 39.722873,31.0084033 39.725715,31.0150345 C39.7323462,31.0216658 39.7380301,31.031139 39.7446614,31.0368229 C39.7484507,31.0434542 39.7541346,31.0529274 39.7607658,31.0595586 C39.7636078,31.0624006 39.770239,31.0690318 39.773081,31.0756631 C39.7797123,31.0851363 39.7863435,31.0908202 39.7920274,31.1002934 L39.8015006,31.1163978 L39.8015006,31.1163978 C39.8052899,31.1230291 39.8109738,31.1325023 39.8176051,31.1419755 C39.820447,31.1486067 39.8242363,31.1514487 39.8270783,31.1580799 C39.8337095,31.1637639 39.8365515,31.1732371 39.8431827,31.1836576 C39.8460247,31.1893415 39.8488667,31.1931308 39.8526559,31.1988147 L39.8649711,31.2243924 L39.8649711,31.2243924 L39.8744443,31.2433388 C39.8782336,31.24997 39.8810756,31.2566013 39.8839175,31.2660745 C39.8877068,31.2717584 39.8905488,31.2812316 39.894338,31.2878629 C39.89718,31.2973361 39.900022,31.3039673 39.9038113,31.3105986 C39.9066532,31.3200718 39.9094952,31.3257557 39.9132845,31.3352289 C39.9161264,31.3418601 39.9161264,31.3484914 39.9189684,31.3551226 L39.9284416,31.3835423 C39.9284416,31.3892262 39.9322309,31.3930155 39.9322309,31.3986994 L39.9417041,31.4309083 L39.9417041,31.4309083 C39.9417041,31.4375395 39.944546,31.4403815 39.944546,31.4470127 C39.947388,31.4564859 39.947388,31.4688011 39.9511773,31.4782743 C39.9511773,31.4849056 39.9540192,31.4877475 39.9540192,31.4943788 C39.9568612,31.503852 39.9568612,31.5161671 39.9606505,31.5256403 C39.9634925,31.5322716 39.9634925,31.5389028 39.9634925,31.5445868 C39.9634925,31.5550073 39.9663344,31.5673225 39.9663344,31.5767957 C39.9701237,31.5862689 39.9701237,31.5929001 39.9701237,31.6023733 L39.9726104,31.6148069 L39.9726104,31.6148069 L39.9729657,31.627951 C39.9729657,31.6431081 39.9729657,31.6563706 39.944546,31.7198411 L39.944546,31.7795223 C39.9417041,31.7889955 39.9417041,31.7956267 39.9417041,31.8050999 C39.9379148,31.8145731 39.9379148,31.8212044 39.9379148,31.8306776 C39.9379148,31.8429928 39.9350728,31.852466 39.9350728,31.8628865 C39.9322309,31.8685704 39.9322309,31.8752017 39.9322309,31.8818329 L39.9255996,31.9130945 L39.9255996,31.9130945 C39.9255996,31.9197257 39.9227577,31.9225677 39.9227577,31.9291989 C39.9227577,31.9386721 39.9189684,31.9509873 39.9161264,31.9604605 L39.9132845,31.976565 L39.9132845,31.976565 C39.9094952,31.9860382 39.9066532,31.9993007 39.9038113,32.0087739 C39.9038113,32.0144578 39.9038113,32.0182471 39.900022,32.023931 L39.8905488,32.0523506 C39.8877068,32.0589819 39.8877068,32.0656131 39.8839175,32.0722443 C39.8810756,32.0817175 39.8782336,32.0874015 39.8744443,32.0968747 C39.8716024,32.1063479 39.8687604,32.1129791 39.8649711,32.1196104 L39.8605898,32.1305046 L39.8605898,32.1305046 L39.8554979,32.1413987 C39.8526559,32.14803 39.8488667,32.1575032 39.8460247,32.1641344 L39.8365515,32.1830809 C39.8337095,32.1925541 39.8270783,32.1991853 39.8242363,32.2086585 C39.820447,32.2143424 39.8176051,32.2181317 39.8147631,32.2238156 C39.8081319,32.2304469 39.8052899,32.2399201 39.7986587,32.2493933 L39.7891855,32.2654977 L39.7891855,32.2654977 C39.7863435,32.272129 39.7797123,32.2816022 39.773081,32.2910754 C39.770239,32.2967593 39.7673971,32.3005486 39.7636078,32.3071799 C39.7569766,32.3166531 39.7512926,32.322337 39.7446614,32.3318102 C39.7418194,32.3355995 39.7351882,32.3412834 39.7323462,32.3479146 C39.7285569,32.3545459 39.722873,32.3640191 39.7162418,32.3706503 L39.6972954,32.3924387 L39.6972954,32.3924387 L39.6840329,32.4085432 L39.6840329,32.4085432 C39.6594025,32.4341208 39.6338249,32.4625404 39.6082472,32.4843288 L39.5921428,32.496644 L39.5921428,32.496644 C39.5864588,32.5032752 39.5769856,32.5099065 39.5703544,32.5165377 C39.5637232,32.5222216 39.5542499,32.5288529 39.5476187,32.5354841 L39.5315143,32.5477993 L39.5315143,32.5477993 C39.522041,32.5544305 39.5163571,32.5601145 39.5068839,32.5667457 L39.4907795,32.5762189 L39.4907795,32.5762189 L39.4623598,32.5951653 C39.4557286,32.5989546 39.4528866,32.6017966 39.4462554,32.6046385 L39.4178358,32.620743 L39.4178358,32.620743 L39.4017313,32.6302162 L39.4017313,32.6302162 L39.3761537,32.6434787 L39.3761537,32.6434787 L39.3572073,32.6529519 L39.3325769,32.6624251 L39.3325769,32.6624251 L39.3212091,32.6668064 L39.3212091,32.6668064 L39.2880529,32.6813715 L39.2880529,32.6813715 C39.2785796,32.6842135 39.2719484,32.6880027 39.2624752,32.6908447 C39.255844,32.6936867 39.2492127,32.6936867 39.2435288,32.6974759 L39.2151092,32.7069492 C39.2113199,32.7097911 39.205636,32.7097911 39.1990047,32.7126331 C39.1857422,32.7164224 39.176269,32.7192643 39.1667958,32.7221063 C39.1611119,32.7221063 39.1573226,32.7258956 39.1516387,32.7258956 C39.1412182,32.7287375 39.128903,32.7287375 39.1194298,32.7315795 C39.1165878,32.7315795 39.1099566,32.7353688 39.1033253,32.7353688 C39.0938521,32.7382107 39.081537,32.742 39.0720638,32.742 C39.0654325,32.744842 39.0588013,32.744842 39.0531173,32.744842 C39.0436441,32.744842 39.0341709,32.7476839 39.0246977,32.7476839 C39.0152245,32.7514732 39.0085933,32.7514732 38.9991201,32.7514732 C38.9924888,32.7543152 38.9858576,32.7543152 38.9763844,32.7543152 L29.6679882,32.7543152 C29.0872806,32.7543152 28.6174096,32.2844442 28.6174096,31.7037366 C28.6174096,31.1230291 29.0872806,30.6531581 29.6679882,30.6531581 L36.3930411,30.6531581 L36.1012663,30.3613833 C35.6920238,29.9521408 35.6920238,29.2823851 36.1012663,28.8731426 C36.5105088,28.4639001 37.1802645,28.4639001 37.589507,28.8731426 Z M35.1078963,6 C36.8459006,6 37.8846613,7.04139031 37.8846613,8.78379433 L37.884491,15.0903855 L23.1642707,15.09 L23.1650909,13.9632403 C23.2971412,13.9119062 23.4262167,13.8502118 23.5511206,13.778157 C24.4198136,13.2760771 24.9550498,12.3486502 24.9550498,11.3454377 C24.9550498,9.79467383 23.6979553,8.53663205 22.1471915,8.53663205 C20.5954803,8.53663205 19.3383859,9.79467383 19.3383859,11.3454377 C19.3383859,12.3486502 19.873622,13.2760771 20.742315,13.778157 C20.8676686,13.8503923 20.9971949,13.9122154 21.1296883,13.9636261 L21.1292707,15.09 L6.18427072,15.09 L6.18427072,8.78379433 C6.18427072,7.04139031 7.22303145,6 8.96103578,6 L35.1078963,6 Z" id="合并形状" fill="url(#linearGradient-2)"></path>
            </g>
        </g>
    </g>
</svg>