<?xml version="1.0" encoding="UTF-8"?>
<svg width="12px" height="13px" viewBox="0 0 12 13" version="1.1" xmlns="http://www.w3.org/2000/svg" xmlns:xlink="http://www.w3.org/1999/xlink">
    <!-- Generator: Sketch 60 (88103) - https://sketch.com -->
    <title>置顶</title>
    <desc>Created with Sketch.</desc>
    <g id="首页+我的工作台" stroke="none" stroke-width="1" fill="none" fill-rule="evenodd">
        <g id="首页02-项目成本情况" transform="translate(-931.000000, -659.000000)" fill="#0B82FF">
            <g id="编组-21" transform="translate(906.000000, 589.000000)">
                <g id="文本" transform="translate(23.000000, 66.000000)">
                    <g id="置顶" transform="translate(2.000000, 4.000000)">
                        <path d="M5.19417607,12.1785444 L5.19417607,4.79734 L1.3851101,8.7545973 C1.07775031,9.07476374 0.567313515,9.08574088 0.247147067,8.77655157 C-0.0730193812,8.46919178 -0.0839965166,7.95875498 0.225192796,7.63858853 L5.40640069,2.24698555 C5.55825106,2.08964661 5.76864616,2 5.98635934,2 C6.20590205,2 6.41446762,2.08964661 6.56631799,2.24698555 L11.7749687,7.66786089 C11.9249896,7.82337031 12,8.02461779 12,8.22586528 C12,8.43808989 11.9176715,8.64848499 11.7530145,8.80582393 C11.432848,9.11318372 10.9224112,9.10403611 10.6150514,8.78386966 L6.80964449,4.82478283 L6.80598545,12.1968396 C6.80598545,12.6249479 6.47118282,12.9743867 6.05039263,13 C5.58203486,13.0274428 5.19417607,12.6450726 5.19417607,12.1785444 Z" id="Shape" fill-rule="nonzero"></path>
                        <rect id="矩形" x="4" y="4" width="4" height="9" rx="1"></rect>
                        <rect id="矩形" x="0" y="3.03201908e-13" width="12" height="1.33333333" rx="0.666666667"></rect>
                    </g>
                </g>
            </g>
        </g>
    </g>
</svg>